<svg width="17" height="18" viewBox="0 0 17 18" fill="none" xmlns="http://www.w3.org/2000/svg">
<path fill-rule="evenodd" clip-rule="evenodd" d="M11.1829 3.01266C11.4429 2.81251 11.4429 2.42041 11.1829 2.22026L8.43474 0.104718C8.10596 -0.14838 7.62974 0.0860008 7.62974 0.50092V1.77869C6.77729 1.82576 5.95881 2.00516 5.19532 2.29717C2.15871 3.45858 0 6.40012 0 9.84797C0 14.3114 3.61831 17.9297 8.08173 17.9297C12.5451 17.9297 16.1635 14.3114 16.1635 9.84797C16.1635 7.87037 15.4521 6.05671 14.2722 4.65225C13.9702 4.29281 13.434 4.24622 13.0746 4.54818C12.7152 4.85014 12.6686 5.38631 12.9705 5.74575C13.9027 6.85538 14.4635 8.28508 14.4635 9.84797C14.4635 13.3725 11.6063 16.2297 8.08173 16.2297C4.5572 16.2297 1.7 13.3725 1.7 9.84797C1.7 7.12778 3.40227 4.80306 5.80262 3.885C6.37576 3.66579 6.98917 3.5267 7.62974 3.48196V4.732C7.62974 5.14692 8.10595 5.3813 8.43474 5.1282L11.1829 3.01266Z" fill="#795BDA"/>
</svg>
