<svg width="44" height="44" viewBox="0 0 44 44" fill="none" xmlns="http://www.w3.org/2000/svg">
<path fill-rule="evenodd" clip-rule="evenodd" d="M17.9476 10.457C19.1395 10.8799 20.2097 11.6093 21.0592 12.5777C21.9087 13.5462 22.5101 14.7224 22.8076 15.9974C24.0845 14.9449 25.6544 14.3524 27.2818 14.3087C28.9091 14.2651 30.5062 14.7727 31.8333 15.7554C33.1604 16.738 34.1459 18.1428 34.6421 19.7588C35.1382 21.3748 35.1181 23.115 34.5848 24.7181C32.569 30.8485 21.7031 33.4388 16.7602 34C13.419 30.2441 6.28084 21.6817 8.37948 15.2923C8.70099 14.3178 9.20359 13.419 9.85854 12.6471C10.5135 11.8752 11.308 11.2455 12.1965 10.7938C13.0851 10.342 14.0504 10.0773 15.0372 10.0145C16.024 9.95182 17.013 10.0924 17.9476 10.4282" fill="#FF5C8D"/>
</svg>
