<svg width="12" height="12" viewBox="0 0 12 12" fill="none" xmlns="http://www.w3.org/2000/svg">
<path d="M5.13913 7.10497C5.13913 6.75506 5.22609 6.44199 5.4 6.16575C5.57391 5.88029 5.85652 5.56261 6.24783 5.21271C6.56087 4.92726 6.80435 4.67864 6.97826 4.46685C7.16087 4.25506 7.25217 4.00645 7.25217 3.72099C7.25217 3.37109 7.14348 3.09024 6.92609 2.87845C6.71739 2.65746 6.4087 2.54696 6 2.54696C5.62609 2.54696 5.32174 2.65746 5.08696 2.87845C4.86087 3.09024 4.74783 3.39411 4.74783 3.79005H3C3 3.41252 3.07391 3.05801 3.22174 2.72652C3.37826 2.38582 3.58696 2.08656 3.84783 1.82873C4.11739 1.5709 4.43478 1.36832 4.8 1.22099C5.16522 1.07366 5.56522 1 6 1C6.46957 1 6.88696 1.06906 7.25217 1.20718C7.62609 1.3361 7.94348 1.52026 8.20435 1.75967C8.46522 1.99908 8.66087 2.27993 8.7913 2.60221C8.93043 2.92449 9 3.2744 9 3.65193C9 3.90055 8.97826 4.12615 8.93478 4.32873C8.8913 4.53131 8.81739 4.72468 8.71304 4.90884C8.61739 5.093 8.48696 5.28177 8.32174 5.47514C8.15652 5.6593 7.95652 5.86188 7.72174 6.08287C7.52174 6.26703 7.36522 6.42357 7.25217 6.55249C7.13913 6.67219 7.05217 6.78269 6.9913 6.88398C6.93913 6.97606 6.90435 7.06354 6.88696 7.14641C6.86956 7.22007 6.86087 7.29834 6.86087 7.38122V7.65746H5.13913V7.10497ZM6 11C5.69565 11 5.43478 10.8849 5.21739 10.6547C5 10.4245 4.8913 10.1482 4.8913 9.82597C4.8913 9.48527 5 9.20442 5.21739 8.98342C5.43478 8.76243 5.69565 8.65193 6 8.65193C6.30435 8.65193 6.56522 8.76243 6.78261 8.98342C7 9.20442 7.1087 9.48527 7.1087 9.82597C7.1087 10.1482 7 10.4245 6.78261 10.6547C6.56522 10.8849 6.30435 11 6 11Z" fill="#222B40" fill-opacity="0.4"/>
</svg>
