<svg width="17" height="17" viewBox="0 0 17 17" fill="none" xmlns="http://www.w3.org/2000/svg">
<path d="M2.98661 17H14.0134C15.9802 17 17 15.9802 17 14.0407V2.95929C17 1.01071 15.9802 0 14.0134 0H2.98661C1.01982 0 0 1.01071 0 2.95929V14.0407C0 15.9893 1.01982 17 2.98661 17ZM3.09588 15.2153C2.24906 15.2153 1.78468 14.7691 1.78468 13.8859V3.10498C1.78468 2.22175 2.24906 1.78468 3.09588 1.78468H13.9041C14.7418 1.78468 15.2153 2.22175 15.2153 3.10498V13.8859C15.2153 14.7691 14.7418 15.2153 13.9041 15.2153H3.09588ZM3.54205 4.21585V6.32833C3.54205 6.92019 3.88806 7.2571 4.47081 7.2571H6.58329C7.17515 7.2571 7.52116 6.92019 7.52116 6.32833V4.21585C7.52116 3.624 7.17515 3.28709 6.58329 3.28709H4.47081C3.88806 3.28709 3.54205 3.624 3.54205 4.21585ZM4.10659 10.2892H12.8297C13.1575 10.2892 13.4033 10.0343 13.4033 9.70648C13.4033 9.38779 13.1575 9.14194 12.8297 9.14194H4.10659C3.76968 9.14194 3.52384 9.38779 3.52384 9.70648C3.52384 10.0343 3.76968 10.2892 4.10659 10.2892ZM4.10659 13.2941H10.5533C10.8811 13.2941 11.1269 13.0391 11.1269 12.7204C11.1269 12.3926 10.8811 12.1377 10.5533 12.1377H4.10659C3.76968 12.1377 3.52384 12.3926 3.52384 12.7204C3.52384 13.0391 3.76968 13.2941 4.10659 13.2941Z" fill="#795BDA"/>
</svg>
