<svg width="16" height="16" viewBox="0 0 16 16" fill="none" xmlns="http://www.w3.org/2000/svg">
<path d="M14.6465 0.646484L0.646484 14.6465L1.35359 15.3536L3.84329 12.8639C3.84328 12.8639 3.8433 12.8639 3.84329 12.8639L6.26181 10.4454C6.2618 10.4454 6.26182 10.4454 6.26181 10.4454L10.4454 6.26178C10.4454 6.26177 10.4454 6.26179 10.4454 6.26178L13.0013 3.70598C13.0012 3.70597 13.0013 3.70599 13.0013 3.70598L15.3536 1.35359L14.6465 0.646484Z" fill="#222B40"/>
<path d="M8 2C9.13991 2 10.2269 2.23483 11.2184 2.66037L8.77717 5.10164C8.5293 5.03535 8.26878 5 8 5C6.34315 5 5 6.34315 5 8C5 8.26878 5.03535 8.5293 5.10164 8.77717L2.24044 11.6384C1.22444 10.6502 0.445091 9.4037 0 8C1.10479 4.5158 4.26897 2 8 2Z" fill="#222B40"/>
<path d="M8 11C7.7313 11 7.47085 10.9647 7.22304 10.8984L4.78175 13.3397C5.77322 13.7652 6.86016 14 8 14C11.731 14 14.8952 11.4842 16 8C15.5549 6.59637 14.7756 5.3499 13.7597 4.36176L10.8984 7.22304C10.9647 7.47085 11 7.7313 11 8C11 9.65685 9.65685 11 8 11Z" fill="#222B40"/>
</svg>
