<svg width="36" height="36" viewBox="0 0 36 36" fill="none" xmlns="http://www.w3.org/2000/svg">
<path d="M19.9541 32.4489C24.6098 32.4489 27.4122 30.7765 27.4122 27.9854V21.8606C29.3672 20.143 30.5085 17.397 30.5085 14.3573C30.5085 7.29464 25.9319 2.59375 19.0614 2.59375C12.2247 2.59375 7.67076 7.19294 7.67076 14.1087C7.67076 14.4929 7.68206 14.8206 7.71596 15.137L6.08873 18.0525C5.67062 18.787 5.47852 19.4876 5.47852 20.143C5.47852 21.386 6.25823 22.3917 7.67076 22.6855V24.9795C7.67076 27.296 9.26409 28.4487 11.4789 28.2114L12.609 28.0871C12.6768 30.8217 15.4227 32.4489 19.9541 32.4489ZM19.9541 30.268C16.6544 30.268 14.6769 29.251 14.6769 27.6124V26.0643C14.6769 25.8044 14.5187 25.6801 14.2701 25.7027L11.219 26.0304C10.3263 26.1321 9.8517 25.7479 9.8517 24.81V21.2165C9.8517 21.0357 9.7161 20.9114 9.524 20.9114H8.90248C8.17927 20.9114 7.76116 20.5498 7.76116 19.9848C7.76116 19.691 7.86286 19.3407 8.06627 18.9904L9.9647 15.5777C9.8856 15.0692 9.8404 14.572 9.8404 14.0748C9.8404 8.49247 13.5243 4.77469 19.0614 4.77469C24.6211 4.77469 28.3276 8.60547 28.3276 14.3573C28.3276 17.1597 27.1523 19.5893 25.22 20.7645V27.6124C25.22 29.251 23.2425 30.268 19.9541 30.268Z" fill="#795BDA"/>
<path fill-rule="evenodd" clip-rule="evenodd" d="M14.4752 10.8919C14.8263 8.96506 16.57 7.5 18.6724 7.5C20.3204 7.5 21.5889 8.30057 22.3251 9.49813C24.1732 9.61271 25.65 10.9214 25.65 12.7357C25.65 14.5737 24.1173 16.0012 22.1638 16.0012H20.2461C20.279 16.0356 20.3088 16.0762 20.334 16.124C20.4495 16.3435 20.3843 16.5605 20.3122 16.6888L20.1863 16.9192H20.5241C20.7376 16.9192 20.9971 17.0298 21.0908 17.3076C21.1794 17.57 21.0589 17.8061 20.9168 17.9411L20.9151 17.9427L18.491 20.2209L18.4898 20.222C18.3342 20.3691 18.1118 20.4447 17.8848 20.3728L17.8727 20.369L17.8609 20.3645C17.696 20.3018 17.5779 20.1655 17.5357 20.0011C17.4981 19.8547 17.5271 19.7187 17.5741 19.6166L17.9982 18.6348H17.7672C17.6409 18.6348 17.4094 18.6022 17.261 18.3927C17.1028 18.1693 17.1647 17.9284 17.2242 17.7997M17.2242 17.7997L17.9424 16.2436C17.9707 16.1813 18.02 16.0855 18.1115 16.0012H15.7138C14.8363 16.0012 14.0936 15.7275 13.5653 15.2436C13.0356 14.7586 12.75 14.0872 12.75 13.3548C12.75 12.1699 13.4955 11.2839 14.4752 10.8919M16.286 11.6228C16.2697 11.8034 16.2253 12.0162 16.0737 12.1973C15.9214 12.3792 15.7163 12.4632 15.5279 12.5126L15.5231 12.5139C15.1541 12.6062 14.9356 12.7482 14.8111 12.8887C14.6909 13.0243 14.6328 13.1867 14.6328 13.3794C14.6328 13.6156 14.7152 13.7952 14.8614 13.9218C15.0137 14.0537 15.2821 14.1676 15.719 14.1676H22.1948C23.1409 14.1676 23.7672 13.5139 23.7672 12.7603C23.7672 12.3712 23.6144 12.0273 23.3188 11.7743C23.0192 11.5178 22.5402 11.3284 21.8534 11.3284C21.6624 11.3284 21.4575 11.3045 21.2678 11.2008C21.07 11.0927 20.945 10.9293 20.8552 10.7588L20.8545 10.7573C20.3631 9.81519 19.6061 9.33356 18.6724 9.33356C17.4521 9.33356 16.4206 10.2314 16.286 11.6228Z" fill="#795BDA"/>
</svg>
