<svg width="27" height="27" viewBox="0 0 27 27" fill="none" xmlns="http://www.w3.org/2000/svg">
<path d="M1 18.2V16.536H3.64V9.032L1 10.904V8.92L3.704 7H5.56V16.536H7.72V18.2H1Z" fill="white"/>
<path d="M12.0419 18.376C11.3805 18.376 10.8099 18.2907 10.3299 18.12C9.86054 17.9493 9.47121 17.72 9.16187 17.432C8.85254 17.144 8.61787 16.8187 8.45787 16.456C8.30854 16.0827 8.22321 15.704 8.20187 15.32H10.1219C10.1752 15.704 10.3619 16.0293 10.6819 16.296C11.0125 16.552 11.4659 16.68 12.0419 16.68C12.6925 16.68 13.1992 16.488 13.5619 16.104C13.9352 15.72 14.1219 15.16 14.1219 14.424C14.1219 13.8693 14.0205 13.432 13.8179 13.112C13.6152 12.7813 13.3539 12.5467 13.0339 12.408C12.7139 12.2587 12.3832 12.184 12.0419 12.184C11.5832 12.184 11.1992 12.264 10.8899 12.424C10.5912 12.584 10.3512 12.8027 10.1699 13.08H8.44187V7H15.4019V8.664H10.3299V11.272C10.5752 11.0373 10.8632 10.8507 11.1939 10.712C11.5245 10.5627 11.9405 10.488 12.4419 10.488C13.1672 10.488 13.7965 10.6373 14.3299 10.936C14.8739 11.2347 15.2952 11.6773 15.5939 12.264C15.8925 12.84 16.0419 13.5547 16.0419 14.408C16.0419 15.2187 15.8712 15.9227 15.5299 16.52C15.1992 17.1067 14.7352 17.5653 14.1379 17.896C13.5405 18.216 12.8419 18.376 12.0419 18.376Z" fill="white"/>
<path d="M16.1594 18.2L18.0694 15.44L16.2594 12.9H17.4994L18.7894 14.68L20.0594 12.9H21.2594L19.4694 15.4L21.3594 18.2H20.0994L18.7494 16.14L17.3794 18.2H16.1594Z" fill="white"/>
<path d="M21.7551 18.2V12.9H24.2551C24.7017 12.9 25.0617 12.9633 25.3351 13.09C25.6151 13.21 25.8217 13.38 25.9551 13.6C26.0884 13.8133 26.1551 14.06 26.1551 14.34C26.1551 14.5733 26.0851 14.8 25.9451 15.02C25.8051 15.2333 25.6084 15.3767 25.3551 15.45C25.6817 15.53 25.9284 15.6833 26.0951 15.91C26.2684 16.13 26.3551 16.39 26.3551 16.69C26.3551 17.15 26.2017 17.5167 25.8951 17.79C25.5884 18.0633 25.1084 18.2 24.4551 18.2H21.7551ZM22.8551 17.26H24.3051C24.6651 17.26 24.9117 17.2033 25.0451 17.09C25.1851 16.97 25.2551 16.8033 25.2551 16.59C25.2551 16.3767 25.1851 16.2167 25.0451 16.11C24.9117 15.9967 24.6651 15.94 24.3051 15.94H22.8551V17.26ZM22.8551 15.08H24.1551C24.4884 15.08 24.7217 15.0267 24.8551 14.92C24.9884 14.8067 25.0551 14.6533 25.0551 14.46C25.0551 14.2667 24.9884 14.1167 24.8551 14.01C24.7217 13.8967 24.4884 13.84 24.1551 13.84H22.8551V15.08Z" fill="white"/>
</svg>
