<svg width="36" height="36" viewBox="0 0 36 36" fill="none" xmlns="http://www.w3.org/2000/svg">
<path d="M7.49023 20.418H12.5075C13.0838 20.418 13.4342 20.1581 13.5585 19.6496L15.1066 12.5192L17.9542 29.6955C18.1124 30.656 19.5815 30.6447 19.7736 29.7068L22.5082 16.802L23.0506 19.5479C23.1749 20.1355 23.514 20.418 24.1129 20.418H28.5199C29.0398 20.418 29.4579 20.0112 29.4579 19.4914C29.4579 18.9603 29.0511 18.5535 28.5199 18.5535H24.5988L23.3331 12.9034C23.1297 11.9881 21.7511 11.9881 21.5364 12.9373L18.8583 24.9494L15.9993 7.59229C15.8524 6.65437 14.4851 6.63177 14.2817 7.58099L11.9086 18.5535H7.49023C6.95912 18.5535 6.54102 18.9716 6.54102 19.4914C6.54102 20.0112 6.95912 20.418 7.49023 20.418Z" fill="#795BDA"/>
</svg>
