<svg width="36" height="36" viewBox="0 0 36 36" fill="none" xmlns="http://www.w3.org/2000/svg">
<path d="M27.9848 21.0864C28.4933 21.4028 29.1148 21.2785 29.4651 20.77C30.9342 18.6908 31.793 15.9109 31.793 13.052C31.793 10.1817 30.9455 7.39054 29.4651 5.3226C29.1148 4.81409 28.4933 4.68979 27.9848 5.0175C27.4537 5.3452 27.3746 6.01192 27.7701 6.59953C28.9792 8.35106 29.6685 10.6563 29.6685 13.052C29.6685 15.4363 28.9566 17.7302 27.7701 19.4931C27.3859 20.0807 27.4537 20.7474 27.9848 21.0864ZM15.0008 18.4083C17.7242 18.4083 19.939 16.0013 19.939 13.052C19.939 10.1365 17.7355 7.81995 15.0008 7.81995C12.2775 7.81995 10.0513 10.1704 10.0513 13.0633C10.0626 16.0126 12.2662 18.4083 15.0008 18.4083ZM23.476 18.0693C23.9506 18.3744 24.5721 18.2614 24.9224 17.7754C25.8265 16.555 26.3689 14.8374 26.3689 13.052C26.3689 11.2552 25.8265 9.54889 24.9224 8.31716C24.5721 7.83125 23.9506 7.71825 23.476 8.04596C22.9223 8.39626 22.8206 9.06298 23.25 9.69579C23.8828 10.5772 24.2331 11.7863 24.2331 13.052C24.2331 14.3063 23.8715 15.5041 23.25 16.4081C22.8319 17.0409 22.9223 17.6963 23.476 18.0693ZM15.0008 16.4646C13.4301 16.4646 12.108 14.973 12.108 13.0633C12.0967 11.21 13.4188 9.77489 15.0008 9.77489C16.5829 9.77489 17.8937 11.1874 17.8937 13.052C17.8937 14.9504 16.5829 16.4646 15.0008 16.4646ZM7.9495 29.0531H22.0409C23.9845 29.0531 24.9224 28.4429 24.9224 27.1207C24.9224 24.0245 21.0578 19.866 14.9895 19.866C8.93262 19.866 5.05664 24.0245 5.05664 27.1207C5.05664 28.4429 5.99456 29.0531 7.9495 29.0531ZM7.57659 27.0981C7.30539 27.0981 7.20368 27.019 7.20368 26.8043C7.20368 25.0754 10.0061 21.8209 14.9895 21.8209C19.9842 21.8209 22.7867 25.0754 22.7867 26.8043C22.7867 27.019 22.685 27.0981 22.4138 27.0981H7.57659Z" fill="#795BDA"/>
</svg>
