<svg width="36" height="36" viewBox="0 0 36 36" fill="none" xmlns="http://www.w3.org/2000/svg">
<path d="M8.28195 28.5737H27.707C30.1366 28.5737 31.3796 27.3532 31.3796 24.9463V13.8721C31.3796 11.4764 30.1366 10.2447 27.707 10.2447H24.8481V9.35198C24.8481 7.21624 23.6955 6.19922 21.5597 6.19922H14.418C12.3839 6.19922 11.1409 7.21624 11.1409 9.35198V10.2447H8.28195C5.8637 10.2447 4.60938 11.4764 4.60938 13.8721V24.9463C4.60938 27.3532 5.8637 28.5737 8.28195 28.5737ZM13.2088 9.26158C13.2088 8.50446 13.6609 8.07506 14.4519 8.07506H21.5371C22.3281 8.07506 22.7688 8.50446 22.7688 9.26158V10.2447H13.2088V9.26158ZM8.37235 26.404C7.38923 26.404 6.85812 25.9068 6.85812 24.8785V13.9399C6.85812 12.9229 7.38923 12.4143 8.37235 12.4143H27.6166C28.5997 12.4143 29.1309 12.9229 29.1309 13.9399V24.8785C29.1309 25.9068 28.5997 26.404 27.6166 26.404H8.37235ZM12.5195 20.4149C12.5195 21.0816 12.9828 21.5336 13.6496 21.5336H15.8757V23.7598C15.8757 24.4265 16.3164 24.8785 16.9831 24.8785H18.9946C19.6613 24.8785 20.1133 24.4265 20.1133 23.7598V21.5336H22.3394C23.0061 21.5336 23.4581 21.0816 23.4581 20.4149V18.4035C23.4581 17.7367 23.0061 17.296 22.3394 17.296H20.1133V15.0699C20.1133 14.4032 19.6613 13.9512 18.9946 13.9512H16.9831C16.3164 13.9512 15.8757 14.4032 15.8757 15.0699V17.296H13.6496C12.9715 17.296 12.5195 17.7367 12.5195 18.4035V20.4149Z" fill="#795BDA"/>
</svg>
