<svg width="36" height="36" viewBox="0 0 36 36" fill="none" xmlns="http://www.w3.org/2000/svg">
<path fill-rule="evenodd" clip-rule="evenodd" d="M15.4283 7.02486C15.8309 6.14803 16.8869 5.73522 17.7875 6.18152C20.5884 7.56957 23.1162 9.45464 25.2464 11.7467C27.3759 14.038 29.0695 16.6947 30.2465 19.5861C30.6262 20.5188 30.1343 21.5432 29.2278 21.8785L8.37905 29.5883C6.90694 30.1327 5.51112 28.6263 6.16598 27.1999L15.4283 7.02486ZM15.7821 11.1077L8.27041 27.4695L11.8195 26.157C11.65 25.7257 11.5568 25.2563 11.5568 24.766C11.5568 22.6458 13.2873 20.941 15.4047 20.941C17.075 20.941 18.5032 22.0008 19.033 23.4895L25.2564 21.1881C24.6583 19.8076 23.9083 18.4978 23.021 17.2821C22.6634 19.1317 21.0356 20.5285 19.0815 20.5285C16.8655 20.5285 15.069 18.732 15.069 16.516C15.069 14.588 16.4289 12.9776 18.2417 12.5915C17.4589 12.0416 16.6371 11.5456 15.7821 11.1077ZM16.6277 9.26587C18.9766 10.4575 21.1 12.048 22.8997 13.9677C24.6926 15.8801 26.1331 18.086 27.1582 20.4848L28.2584 20.0779C27.1795 17.5188 25.6588 15.165 23.7631 13.1252C21.8665 11.0845 19.6276 9.39367 17.1502 8.12773L16.6277 9.26587ZM17.133 24.1921C16.8915 23.4834 16.2128 22.966 15.4047 22.966C14.3902 22.966 13.5818 23.7796 13.5818 24.766C13.5818 25.0103 13.6307 25.2425 13.7196 25.4544L17.133 24.1921ZM19.0815 14.5285C17.9839 14.5285 17.094 15.4183 17.094 16.516C17.094 17.6137 17.9839 18.5035 19.0815 18.5035C20.1792 18.5035 21.069 17.6137 21.069 16.516C21.069 15.4183 20.1792 14.5285 19.0815 14.5285Z" fill="#795BDA"/>
</svg>
