<svg width="36" height="36" viewBox="0 0 36 36" fill="none" xmlns="http://www.w3.org/2000/svg">
<path d="M6.55273 14.9142C6.55273 19.7394 10.6095 24.5081 16.915 28.5762C17.2653 28.8022 17.6948 29.0282 17.9886 29.0282C18.2824 29.0282 18.7118 28.8022 19.0621 28.5762C25.3789 24.5081 29.4244 19.7394 29.4244 14.9142C29.4244 10.7444 26.5428 7.85156 22.8477 7.85156C20.6893 7.85156 19.0056 8.83468 17.9886 10.3263C16.9941 8.84598 15.2991 7.85156 13.1408 7.85156C9.43429 7.85156 6.55273 10.7444 6.55273 14.9142ZM8.88058 14.9029C8.88058 12.0552 10.7564 10.1229 13.2764 10.1229C15.3104 10.1229 16.4517 11.3546 17.1636 12.4282C17.4801 12.8915 17.6948 13.0384 17.9886 13.0384C18.2937 13.0384 18.4858 12.8802 18.8135 12.4282C19.5819 11.3772 20.678 10.1229 22.7008 10.1229C25.232 10.1229 27.1078 12.0552 27.1078 14.9029C27.1078 18.8806 22.972 23.2877 18.2033 26.4517C18.1016 26.5195 18.0338 26.5647 17.9886 26.5647C17.9434 26.5647 17.8756 26.5195 17.7852 26.4517C13.0165 23.2877 8.88058 18.8806 8.88058 14.9029Z" fill="#795BDA"/>
<path fill-rule="evenodd" clip-rule="evenodd" d="M19.589 21.3373L18.6341 20.8097V20.391L18.5629 19.3273L19.518 19.9231L19.8976 20.1299L19.9017 21.1739V21.1745C19.902 21.5266 20.1667 21.7974 20.5163 21.7816C20.6931 21.7744 20.8512 21.7036 20.9572 21.5679C21.0573 21.4396 21.0889 21.2816 21.0803 21.1326L21.0741 20.7801L21.5291 21.0327L21.53 21.0332C21.6796 21.1174 21.8493 21.1513 22.0146 21.1133C22.1819 21.0749 22.3187 20.9684 22.4071 20.8205L22.409 20.8174L22.4107 20.8143C22.4943 20.6651 22.5195 20.4956 22.4718 20.3346C22.4243 20.1739 22.3109 20.0448 22.1604 19.9625L22.1601 19.9624L21.723 19.722L22.0387 19.5528C22.1764 19.4882 22.2996 19.383 22.3645 19.2373C22.434 19.0812 22.4233 18.9071 22.3352 18.7501L22.3337 18.7474L22.3321 18.7448C22.2497 18.6062 22.1201 18.5066 21.9629 18.468C21.807 18.4298 21.6438 18.456 21.4961 18.5315L21.4927 18.5332L20.5294 19.0614L20.1415 18.8467L19.1461 18.3773L20.1415 17.9078L20.5294 17.6931L21.4895 18.2195L21.4897 18.2196L21.4899 18.2198C21.7967 18.3873 22.1646 18.3058 22.3348 18.0051L22.335 18.0047L22.3352 18.0044C22.4234 17.8472 22.434 17.6727 22.3635 17.5159C22.2977 17.3696 22.1733 17.2639 22.035 17.1978L21.7263 17.032L22.1596 16.7924L22.1605 16.7919C22.311 16.71 22.4291 16.5837 22.4773 16.4193C22.5258 16.2542 22.4935 16.0853 22.4097 15.9384L22.4071 15.9338L22.4043 15.9293C22.3158 15.7884 22.181 15.6848 22.0174 15.6452C21.8541 15.6057 21.6834 15.6351 21.5305 15.721L21.0741 15.972L21.0803 15.6219C21.089 15.4709 21.0552 15.3123 20.9552 15.1846C20.8493 15.0493 20.6904 14.9764 20.5108 14.9727C20.1733 14.9651 19.902 15.2198 19.9017 15.5755V15.5761L19.8976 16.6246L19.5177 16.8315L18.5629 17.4303L18.6341 16.3635V15.9448L19.589 15.4172L19.5904 15.4164C19.7397 15.3315 19.8483 15.2028 19.8913 15.0469C19.9342 14.8913 19.9055 14.7304 19.8213 14.5963L19.82 14.5943L19.8187 14.5924C19.7211 14.4432 19.5745 14.35 19.4049 14.3299C19.2447 14.3109 19.089 14.3595 18.9586 14.442L18.6341 14.6267V14.1395C18.6341 13.9738 18.5825 13.8106 18.4647 13.6868C18.345 13.561 18.18 13.5 18.0023 13.5C17.8275 13.5 17.6641 13.5621 17.5443 13.6835C17.4251 13.8045 17.3658 13.9672 17.3658 14.1395V14.6282L17.0364 14.4418C16.9077 14.3604 16.7541 14.3106 16.5939 14.3299C16.4242 14.3505 16.2815 14.4449 16.1838 14.5886L16.1827 14.5902L16.1816 14.5918C16.092 14.7279 16.0625 14.892 16.1084 15.0501C16.1539 15.2071 16.2664 15.3343 16.4165 15.4177L17.3658 15.9445V16.3635L17.437 17.4324L16.4882 16.8323L16.1071 16.6213L16.103 15.5761V15.5756C16.1027 15.2197 15.8311 14.9648 15.4935 14.9727L15.4913 14.9728L15.4892 14.9728C15.3128 14.9799 15.1535 15.0501 15.0466 15.1855C14.9455 15.3136 14.9131 15.4721 14.9243 15.6236L14.9285 15.9734L14.4698 15.7212C14.1596 15.5459 13.7848 15.6283 13.5957 15.9293L13.5941 15.9319L13.5925 15.9345C13.5016 16.0875 13.4745 16.2607 13.5256 16.4249C13.5759 16.5865 13.6932 16.712 13.8395 16.792L13.8398 16.7921L14.2759 17.0319L13.9644 17.1981C13.8307 17.2631 13.706 17.3662 13.6402 17.5139C13.5699 17.6719 13.5834 17.8445 13.666 18.0024L13.6673 18.0049L13.6687 18.0074C13.8362 18.3107 14.2075 18.3837 14.5126 18.221L14.5139 18.2203L15.4747 17.6934L15.8581 17.9077L16.8578 18.3776L15.8636 18.8465L15.4712 19.0617L14.5103 18.5349L14.5101 18.5347C14.2052 18.3683 13.8394 18.4467 13.6734 18.7472L13.672 18.7496L13.6707 18.7521C13.5896 18.9072 13.5726 19.0781 13.6419 19.2367C13.7066 19.385 13.8312 19.487 13.9638 19.5516L14.2794 19.7219L13.8449 19.9622C13.6931 20.0437 13.5773 20.1728 13.5278 20.3328C13.4778 20.4946 13.5022 20.6672 13.5934 20.8169C13.6847 20.9698 13.8245 21.0758 13.9925 21.1132C14.1572 21.1498 14.3248 21.1151 14.4693 21.0336L14.9259 20.785L14.9197 21.1326C14.911 21.2836 14.9448 21.4428 15.0462 21.5709C15.1535 21.7065 15.3137 21.7781 15.4939 21.7818C15.6553 21.7854 15.8106 21.7284 15.9257 21.6153C16.0413 21.5017 16.1027 21.3455 16.103 21.175L16.103 21.1739L16.1112 20.1295L16.4876 19.9226L17.437 19.3252L17.3658 20.391V20.81L16.4166 21.3368L16.4165 21.3368C16.2679 21.4194 16.1545 21.5448 16.1085 21.7023C16.0622 21.8611 16.0929 22.0241 16.1798 22.16L16.1818 22.163L16.1838 22.1659C16.2826 22.3112 16.4263 22.4037 16.5955 22.4231C16.7551 22.4414 16.9077 22.3916 17.0352 22.3134L17.3658 22.1242V22.615C17.3658 22.7863 17.4259 22.9479 17.5451 23.0678C17.6646 23.188 17.8276 23.25 18.0023 23.25C18.1778 23.25 18.3427 23.1915 18.4632 23.067C18.5823 22.9439 18.6341 22.7809 18.6341 22.615V22.1278L18.9603 22.3135C19.0887 22.3922 19.2422 22.4412 19.4017 22.4231C19.5707 22.404 19.7164 22.3127 19.8162 22.1659L19.8182 22.163L19.8201 22.16C19.9071 22.024 19.9374 21.8617 19.8925 21.7039C19.8479 21.5473 19.7369 21.4214 19.5904 21.3381L19.589 21.3373Z" fill="#795BDA"/>
</svg>
