<svg width="36" height="36" viewBox="0 0 36 36" fill="none" xmlns="http://www.w3.org/2000/svg">
<path d="M10.5795 26.7262V22.1075C10.7099 22.1341 10.8425 22.147 10.9749 22.147C11.4677 22.147 11.9604 21.9674 12.3222 21.5706C12.6761 21.1825 12.8167 20.6844 12.8167 20.1993V16.1729C12.8167 14.6587 12.3923 13.3871 11.3435 12.5348C10.8449 12.1296 10.2516 11.8588 9.59021 11.689C10.12 11.131 10.4445 10.3773 10.4445 9.56733C10.4445 7.88284 9.09161 6.4875 7.40694 6.4875C5.71607 6.4875 4.37901 7.88918 4.37901 9.56733C4.37901 10.3747 4.70015 11.1288 5.22739 11.6876C4.5634 11.8573 3.96762 12.1281 3.46686 12.5337C2.41552 13.3853 1.9875 14.6567 1.9875 16.1729L1.9875 16.1754L1.99713 20.1935C1.99125 20.6862 2.13471 21.1862 2.49086 21.5737C2.85437 21.9691 3.34845 22.147 3.83896 22.147C3.97486 22.147 4.11078 22.1334 4.24401 22.1054V26.7262C4.24401 27.2609 4.40555 27.7908 4.79332 28.1924C5.18238 28.5953 5.69682 28.7625 6.1919 28.7625C6.61253 28.7625 7.04714 28.6418 7.40695 28.3584C7.76676 28.6418 8.20136 28.7625 8.62199 28.7625C9.11605 28.7625 9.62989 28.5962 10.0203 28.1976C10.4115 27.7983 10.5795 27.2676 10.5795 26.7262ZM25.5748 9.56733C25.5748 10.373 25.8951 11.127 26.4207 11.6862C25.7549 11.8558 25.1578 12.1274 24.6565 12.5348C23.6077 13.3871 23.1833 14.6587 23.1833 16.1729V20.1993C23.1833 20.6918 23.3307 21.1909 23.6882 21.5767C24.0514 21.9686 24.5433 22.147 25.0347 22.147C25.1675 22.147 25.3001 22.1338 25.4301 22.1068V26.7262C25.4301 27.2676 25.5981 27.7983 25.9893 28.1976C26.3798 28.5962 26.8936 28.7625 27.3877 28.7625C27.8074 28.7625 28.2408 28.6422 28.599 28.3584C28.9604 28.6415 29.3963 28.7625 29.8177 28.7625C30.3139 28.7625 30.8289 28.5945 31.2166 28.1871C31.6008 27.7833 31.756 27.2541 31.756 26.7262V22.1033C31.8923 22.1327 32.0315 22.147 32.1707 22.147C32.6635 22.147 33.1562 21.9674 33.518 21.5706C33.8718 21.1825 34.0125 20.6844 34.0125 20.1993V16.1729C34.0125 14.6567 33.5845 13.3853 32.5331 12.5337C32.0334 12.1289 31.439 11.8583 30.7766 11.6887C31.3062 11.1307 31.6306 10.3771 31.6306 9.56733C31.6306 7.88284 30.2777 6.4875 28.5931 6.4875C26.9087 6.4875 25.5748 7.89238 25.5748 9.56733Z" stroke="#795BDA" stroke-width="2.025"/>
<path d="M15.0345 11.2188L15.1729 10.5267C16.5374 10.7574 17.2098 11.5616 17.2098 12.5569V15.4573C17.2098 15.8528 17.4603 16.1231 17.8294 16.1231C18.1986 16.1231 18.4491 15.8528 18.4491 15.4573V12.5569C18.4491 11.5682 19.1214 10.764 20.4662 10.5267L20.6112 11.2188C20.6903 11.6341 21.0265 11.7066 21.3297 11.3902L22.7469 9.86749C22.9908 9.61041 22.9183 9.294 22.6019 9.15557L20.7035 8.31182C20.308 8.14044 20.0311 8.33819 20.1102 8.74688L20.2552 9.47857C19.2862 9.67632 18.159 10.2762 17.8294 11.0211C17.4998 10.2696 16.3595 9.66973 15.3839 9.47857L15.5355 8.74688C15.6146 8.33819 15.3377 8.14044 14.9356 8.31182L13.0438 9.15557C12.7208 9.294 12.6549 9.61041 12.8922 9.86749L14.316 11.3902C14.6126 11.7066 14.9554 11.6341 15.0345 11.2188Z" fill="#795BDA"/>
</svg>
