<svg width="48" height="48" viewBox="0 0 48 48" fill="none" xmlns="http://www.w3.org/2000/svg">
<path d="M5.11861 29.5295C5.29981 29.5295 5.48104 29.5113 5.65868 29.4739V35.635C5.65868 36.348 5.87407 37.0545 6.39109 37.59C6.90984 38.1273 7.59576 38.3501 8.25587 38.3501C8.81671 38.3501 9.39618 38.1892 9.87593 37.8114C10.3557 38.1892 10.9351 38.3501 11.496 38.3501C12.1547 38.3501 12.8399 38.1284 13.3604 37.597C13.882 37.0645 14.106 36.357 14.106 35.635V29.4767C14.2798 29.5122 14.4567 29.5295 14.6332 29.5295C15.2903 29.5295 15.9472 29.29 16.4296 28.7609C16.9014 28.2435 17.089 27.5793 17.089 26.9325V21.564C17.089 19.5451 16.5231 17.8496 15.1246 16.7131C14.4599 16.1729 13.6688 15.8118 12.7869 15.5854C13.4933 14.8415 13.926 13.8365 13.926 12.7566C13.926 10.5106 12.1221 8.65012 9.87592 8.65012C7.62142 8.65012 5.83869 10.519 5.83869 12.7566C5.83869 13.833 6.26687 14.8386 6.96985 15.5836C6.08454 15.8098 5.29016 16.171 4.62248 16.7118C3.2207 17.8472 2.65 19.5424 2.65 21.564L2.65 21.5673L2.66284 26.9248C2.655 27.5818 2.84628 28.2484 3.32115 28.765C3.80583 29.2922 4.46461 29.5295 5.11861 29.5295ZM34.0997 12.7566C34.0997 13.8308 34.5268 14.8362 35.2275 15.5817C34.3398 15.8079 33.5438 16.17 32.8754 16.7131C31.4769 17.8496 30.911 19.5451 30.911 21.564V26.9325C30.911 27.5892 31.1075 28.2546 31.5843 28.769C32.0686 29.2916 32.7243 29.5295 33.3796 29.5295C33.5567 29.5295 33.7335 29.5118 33.9068 29.4758V35.635C33.9068 36.357 34.1309 37.0645 34.6524 37.597C35.173 38.1284 35.8581 38.3501 36.5169 38.3501C37.0765 38.3501 37.6543 38.1898 38.132 37.8114C38.6138 38.1887 39.195 38.3501 39.757 38.3501C40.4185 38.3501 41.1053 38.1261 41.6222 37.5829C42.1345 37.0445 42.3413 36.339 42.3413 35.635V29.4712C42.5231 29.5104 42.7087 29.5295 42.8942 29.5295C43.5513 29.5295 44.2082 29.29 44.6906 28.7609C45.1624 28.2435 45.35 27.5793 45.35 26.9325V21.564C45.35 19.5424 44.7793 17.8472 43.3775 16.7118C42.7112 16.172 41.9187 15.8112 41.0355 15.585C41.7416 14.8411 42.1742 13.8363 42.1742 12.7566C42.1742 10.5106 40.3703 8.65012 38.1241 8.65012C35.8783 8.65012 34.0997 10.5233 34.0997 12.7566Z" stroke="#795BDA" stroke-width="2.7"/>
<path d="M24.1706 20.3429C23.5321 19.9001 22.7461 19.6501 21.8804 19.6501C19.4869 19.6501 17.65 21.5117 17.65 24.0017C17.65 26.6893 19.8049 28.9743 22.4062 30.6899C22.5867 30.8089 22.7898 30.8809 22.9981 30.9044C23.2542 31.1883 23.6193 31.3508 24.003 31.3501C24.3506 31.3495 24.6365 31.234 24.7682 31.1762C24.931 31.1047 25.0766 31.0207 25.1857 30.9523L24.1706 20.3429ZM24.1706 20.3429C24.4064 20.1059 24.7627 19.8377 25.2677 19.7349C25.5448 19.6785 25.8312 19.6501 26.1245 19.6501C28.5146 19.6501 30.35 21.5133 30.35 24.0017C30.35 25.429 29.734 26.7381 28.8224 27.8716C27.9112 29.0046 26.6478 30.0369 25.1866 30.9517L24.1706 20.3429Z" stroke="#795BDA" stroke-width="2.7" stroke-linejoin="round"/>
</svg>
