<svg width="32" height="29" viewBox="0 0 32 29" fill="none" xmlns="http://www.w3.org/2000/svg">
<path d="M16.6929 4.42643C16.6423 4.33513 16.5804 4.24845 16.5071 4.16845C15.0787 2.60858 12.9778 1.65 10.4891 1.65C5.52446 1.65 1.65 5.40201 1.65 10.6708C1.65 13.5591 2.86205 16.3276 4.85618 18.8773C6.84938 21.4259 9.67522 23.8251 13.0542 26.0155C13.4407 26.266 13.9282 26.3022 14.3474 26.1115C14.3762 26.0985 14.4043 26.0845 14.4318 26.0696C14.5211 26.2893 14.6474 26.4981 14.8106 26.687L14.9799 26.8829C15.2369 27.1802 15.6107 27.3507 16.0037 27.35C16.4493 27.3492 16.8585 27.1993 17.1216 27.0858C17.415 26.9593 17.6965 26.8014 17.9278 26.6589L16.6929 4.42643ZM16.6929 4.42643C16.7966 4.29594 16.9049 4.1472 17.0316 3.97055C17.0446 3.95246 17.0578 3.93399 17.0713 3.91519C17.2247 3.70098 17.409 3.4437 17.6081 3.20261C18.0405 2.67883 18.6975 2.03383 19.7041 1.82904C20.2846 1.71096 20.8925 1.65 21.5237 1.65C26.4771 1.65 30.35 5.40354 30.35 10.6708C30.35 13.7002 29.0203 16.5979 26.8478 19.2532C24.6753 21.9084 21.5988 24.4 17.9287 26.6583L16.6929 4.42643Z" stroke="#FF5C8D" stroke-width="2.7" stroke-linejoin="round"/>
</svg>
