<svg width="48" height="48" viewBox="0 0 48 48" fill="none" xmlns="http://www.w3.org/2000/svg">
<path d="M8.73633 19.888C8.73633 26.3216 14.1454 32.6798 22.5527 38.1039C23.0198 38.4053 23.5924 38.7066 23.9841 38.7066C24.3758 38.7066 24.9484 38.4053 25.4155 38.1039C33.8379 32.6798 39.2319 26.3216 39.2319 19.888C39.2319 14.3283 35.3898 10.4711 30.4629 10.4711C27.5851 10.4711 25.3401 11.782 23.9841 13.7708C22.6582 11.797 20.3982 10.4711 17.5204 10.4711C12.5784 10.4711 8.73633 14.3283 8.73633 19.888ZM11.8401 19.8729C11.8401 16.076 14.3412 13.4996 17.7012 13.4996C20.4132 13.4996 21.935 15.1419 22.8842 16.5733C23.3061 17.191 23.5924 17.3869 23.9841 17.3869C24.3909 17.3869 24.647 17.1759 25.084 16.5733C26.1085 15.172 27.57 13.4996 30.267 13.4996C33.642 13.4996 36.1431 16.076 36.1431 19.8729C36.1431 25.1765 30.6286 31.0526 24.2704 35.2714C24.1348 35.3618 24.0444 35.422 23.9841 35.422C23.9238 35.422 23.8334 35.3618 23.7129 35.2714C17.3546 31.0526 11.8401 25.1765 11.8401 19.8729Z" fill="#795BDA"/>
<path fill-rule="evenodd" clip-rule="evenodd" d="M26.1187 28.4499L24.8455 27.7464V27.1881L24.7506 25.7699L26.0239 26.5643L26.5301 26.84L26.5356 28.232V28.2328C26.536 28.7023 26.889 29.0633 27.355 29.0423C27.5908 29.0326 27.8016 28.9383 27.9429 28.7574C28.0764 28.5863 28.1185 28.3756 28.1071 28.1769L28.0988 27.7069L28.7055 28.0437L28.7067 28.0444C28.9061 28.1566 29.1324 28.2018 29.3528 28.1512C29.5759 28.0999 29.7582 27.958 29.8762 27.7608L29.8786 27.7567L29.881 27.7525C29.9924 27.5535 30.0261 27.3276 29.9625 27.1129C29.899 26.8987 29.7479 26.7265 29.5472 26.6168L29.5468 26.6166L28.964 26.2962L29.3849 26.0705C29.5685 25.9844 29.7327 25.8441 29.8193 25.6498C29.912 25.4417 29.8977 25.2095 29.7802 25.0003L29.7782 24.9967L29.7761 24.9932C29.6663 24.8084 29.4934 24.6756 29.2838 24.6241C29.0761 24.5732 28.8583 24.6081 28.6614 24.7088L28.657 24.711L27.3725 25.4154L26.8553 25.129L25.5281 24.5031L26.8553 23.8772L27.3725 23.5909L28.6526 24.2928L28.6529 24.293L28.6532 24.2931C29.0623 24.5165 29.5529 24.4078 29.7797 24.0069L29.7799 24.0064L29.7802 24.006C29.8979 23.7964 29.912 23.5637 29.818 23.3546C29.7303 23.1596 29.5645 23.0187 29.38 22.9305L28.9684 22.7095L29.5461 22.39L29.5474 22.3893C29.7479 22.2801 29.9055 22.1118 29.9698 21.8925C30.0343 21.6724 29.9914 21.4471 29.8796 21.2513L29.8761 21.2452L29.8724 21.2392C29.7544 21.0514 29.5747 20.9132 29.3566 20.8604C29.1388 20.8078 28.9112 20.8469 28.7074 20.9615L28.0988 21.2961L28.1071 20.8294C28.1186 20.628 28.0735 20.4165 27.9403 20.2463C27.7991 20.0659 27.5872 19.9687 27.3477 19.9637C26.8978 19.9535 26.536 20.2931 26.5356 20.7674V20.7682L26.5301 22.1663L26.0236 22.4422L24.7506 23.2405L24.8455 21.8181V21.2598L26.1187 20.5564L26.1206 20.5554C26.3197 20.4421 26.4644 20.2706 26.5217 20.0627C26.579 19.8551 26.5407 19.6407 26.4283 19.4618L26.4267 19.4592L26.425 19.4566C26.2949 19.2577 26.0994 19.1335 25.8732 19.1066C25.6596 19.0813 25.4521 19.1461 25.2781 19.2561L24.8455 19.5024V18.8527C24.8455 18.6318 24.7767 18.4143 24.6196 18.2492C24.46 18.0815 24.24 18.0001 24.0031 18.0001C23.77 18.0001 23.5521 18.083 23.3924 18.2448C23.2334 18.4061 23.1544 18.6231 23.1544 18.8527V19.5043L22.7151 19.2558C22.5436 19.1474 22.3388 19.0809 22.1252 19.1067C21.8989 19.1341 21.7087 19.2599 21.5783 19.4515L21.5769 19.4537L21.5755 19.4559C21.4561 19.6374 21.4167 19.8561 21.4778 20.0669C21.5385 20.2762 21.6886 20.4459 21.8887 20.557L23.1544 21.2594V21.8181L23.2493 23.2434L21.9842 22.4431L21.4761 22.1618L21.4706 20.7682V20.7675C21.4703 20.293 21.1082 19.9533 20.658 19.9637L20.6551 19.9638L20.6523 19.9639C20.4171 19.9733 20.2046 20.0669 20.0621 20.2475C19.9274 20.4182 19.8842 20.6296 19.8991 20.8315L19.9047 21.298L19.293 20.9617C18.8794 20.728 18.3797 20.8378 18.1276 21.2392L18.1254 21.2427L18.1234 21.2462C18.0021 21.4501 17.9659 21.681 18.0341 21.9C18.1012 22.1155 18.2576 22.2828 18.4527 22.3894L18.4531 22.3897L19.0346 22.7093L18.6192 22.9309C18.441 23.0176 18.2747 23.155 18.187 23.3519C18.0932 23.5626 18.1111 23.7927 18.2213 24.0033L18.2231 24.0066L18.2249 24.0099C18.4483 24.4144 18.9433 24.5117 19.3501 24.2947L19.3519 24.2938L20.633 23.5913L21.1442 23.877L22.4771 24.5036L21.1515 25.1288L20.6282 25.4158L19.347 24.7133L19.3468 24.7131C18.9403 24.4912 18.4525 24.5957 18.2312 24.9963L18.2294 24.9996L18.2276 25.003C18.1194 25.2097 18.0968 25.4376 18.1891 25.6491C18.2755 25.8467 18.4416 25.9828 18.6184 26.0689L19.0392 26.296L18.4598 26.6163C18.2574 26.725 18.1031 26.8971 18.0371 27.1105C17.9703 27.3263 18.0029 27.5564 18.1245 27.756C18.2463 27.9598 18.4327 28.1012 18.6566 28.151C18.8763 28.1998 19.0997 28.1536 19.2924 28.0449L19.9012 27.7134L19.8929 28.1769C19.8813 28.3783 19.9264 28.5906 20.0616 28.7614C20.2046 28.9421 20.4182 29.0376 20.6586 29.0425C20.8737 29.0474 21.0808 28.9713 21.2343 28.8205C21.3884 28.6691 21.4703 28.4607 21.4706 28.2335L21.4706 28.232L21.4816 26.8395L21.9835 26.5636L23.2493 25.767L23.1544 27.1881V27.7468L21.8888 28.4491L21.8887 28.4492C21.6905 28.5593 21.5393 28.7265 21.478 28.9366C21.4162 29.1482 21.4572 29.3655 21.5731 29.5468L21.5757 29.5508L21.5783 29.5547C21.7101 29.7484 21.9018 29.8717 22.1273 29.8975C22.3401 29.9219 22.5436 29.8555 22.7136 29.7513L23.1544 29.4991V30.1535C23.1544 30.3819 23.2346 30.5974 23.3934 30.7572C23.5528 30.9174 23.7701 31.0001 24.0031 31.0001C24.237 31.0001 24.457 30.9222 24.6176 30.7561C24.7764 30.5919 24.8455 30.3747 24.8455 30.1535V29.5038L25.2804 29.7515C25.4516 29.8564 25.6562 29.9217 25.869 29.8976C26.0942 29.8721 26.2885 29.7503 26.4216 29.5547L26.4243 29.5508L26.4269 29.5468C26.5428 29.3655 26.5833 29.149 26.5234 28.9387C26.4639 28.7298 26.3159 28.562 26.1206 28.4509L26.1187 28.4499Z" fill="#795BDA"/>
</svg>
