<svg width="36" height="34" viewBox="0 0 36 34" fill="none" xmlns="http://www.w3.org/2000/svg">
<path d="M15.0148 22.459C14.5852 21.8143 13.7155 21.6407 13.0722 22.0712C12.4289 22.5018 12.2557 23.3734 12.6853 24.0181C13.7953 25.684 15.7995 26.7217 18 26.7217C20.2005 26.7217 22.2046 25.684 23.3147 24.0181C23.7443 23.3734 23.5711 22.5018 22.9278 22.0712C22.2845 21.6407 21.4148 21.8143 20.9852 22.459C20.4385 23.2794 19.3461 23.9144 18 23.9144C16.6538 23.9144 15.5615 23.2794 15.0148 22.459Z" fill="#795BDA"/>
<path d="M26.2999 15.9605C26.2999 17.109 25.3709 18.04 24.2249 18.04C23.079 18.04 22.15 17.109 22.15 15.9605C22.15 14.812 23.079 13.881 24.2249 13.881C25.3709 13.881 26.2999 14.812 26.2999 15.9605Z" fill="#795BDA"/>
<path d="M11.7751 18.04C12.9211 18.04 13.8501 17.109 13.8501 15.9605C13.8501 14.812 12.9211 13.881 11.7751 13.881C10.6291 13.881 9.7001 14.812 9.7001 15.9605C9.7001 17.109 10.6291 18.04 11.7751 18.04Z" fill="#795BDA"/>
<path fill-rule="evenodd" clip-rule="evenodd" d="M29.5143 4.04389C27.073 1.42172 23.346 0.00012207 18 0.00012207C12.654 0.00012207 8.92704 1.42172 6.4857 4.04389C4.32618 6.36337 3.35277 9.43431 2.96236 12.7213L2.94788 12.7251C2.21609 12.9151 1.57088 13.2407 1.06401 13.74C0.551284 14.245 0.256126 14.8529 0.112965 15.4802C-0.156026 16.6588 0.1008 17.9662 0.408775 19.0802C0.716825 20.1944 1.24835 21.2066 1.95485 21.9779C2.43443 22.5014 3.02923 22.9478 3.71418 23.2028C5.7884 29.4495 11.0451 34.0001 18 34.0001C24.9549 34.0001 30.2116 29.4495 32.2858 23.2028C32.9708 22.9478 33.5656 22.5014 34.0451 21.9779C34.7516 21.2066 35.2832 20.1944 35.5912 19.0802C35.8992 17.9662 36.156 16.6588 35.887 15.4802C35.7439 14.8529 35.4487 14.245 34.936 13.74C34.4291 13.2407 33.7839 12.9151 33.0521 12.7251L33.0376 12.7213C32.6472 9.43431 31.6738 6.36337 29.5143 4.04389ZM5.64241 14.0841C5.91668 10.6313 6.75786 7.8666 8.53381 5.95911C10.2759 4.08799 13.1413 2.80746 18 2.80746C19.1282 2.80746 19.9003 3.65215 19.9003 4.52306C19.9003 5.39396 19.1282 6.23865 18 6.23865C17.3462 6.23865 16.7908 5.94307 16.4545 5.52003C15.9726 4.91367 15.0914 4.8137 14.4864 5.29672C13.8813 5.77974 13.7816 6.66285 14.2635 7.26921C15.1317 8.36144 16.4939 9.04599 18 9.04599C20.5179 9.04599 22.7015 7.0976 22.7015 4.52306C22.7015 4.08708 22.6389 3.66905 22.5226 3.27541C24.7807 3.80869 26.3528 4.76329 27.4662 5.95911C29.2421 7.8666 30.0833 10.6313 30.3576 14.0841C30.4176 14.8393 31.0648 15.4105 31.8199 15.3748C31.9443 15.3689 32.1169 15.3823 32.3495 15.4426C32.7177 15.5383 32.8903 15.6612 32.9725 15.7422C33.0489 15.8175 33.1142 15.9213 33.1563 16.1061C33.258 16.5516 33.1851 17.2692 32.8917 18.3306C32.6838 19.0825 32.3456 19.682 31.9816 20.0794C31.6122 20.4827 31.2882 20.6077 31.0846 20.6221C30.4959 20.6637 29.9964 21.0708 29.8356 21.6399C28.2408 27.2858 23.7979 31.1928 18 31.1928C12.2021 31.1928 7.75922 27.2858 6.1644 21.6399C6.00363 21.0708 5.50411 20.6637 4.91537 20.6221C4.71175 20.6077 4.38782 20.4827 4.01838 20.0794C3.65442 19.682 3.31617 19.0825 3.10828 18.3306C2.81486 17.2692 2.74198 16.5516 2.84366 16.1061C2.88584 15.9213 2.95111 15.8175 3.02748 15.7422C3.10971 15.6612 3.28229 15.5383 3.65053 15.4426C3.88305 15.3823 4.0557 15.3689 4.1801 15.3748C4.93523 15.4105 5.58242 14.8393 5.64241 14.0841Z" fill="#795BDA"/>
</svg>
