<svg width="48" height="48" viewBox="0 0 48 48" fill="none" xmlns="http://www.w3.org/2000/svg">
<path fill-rule="evenodd" clip-rule="evenodd" d="M29.9063 12.7666C30.9365 12.7304 31.9758 13.0963 32.7679 13.8883C33.4614 14.5819 33.8282 15.465 33.8844 16.3656C34.785 16.4218 35.6681 16.7886 36.3616 17.4821C37.2326 18.3531 37.5883 19.5232 37.4607 20.6511C38.053 20.806 38.6139 21.1148 39.0825 21.5834C40.5277 23.0286 40.4525 25.3509 39.0339 26.7696L30.5969 35.2066C26.6831 39.1203 20.3746 39.2546 16.5073 35.3873L12.2435 31.1235C8.37616 27.2562 8.51049 20.9477 12.4242 17.0339L14.4857 14.9724C16.4273 13.0308 19.0956 12.2272 21.6006 12.6087L23.425 10.7842C24.913 9.29629 27.346 9.21947 28.8585 10.7319C29.4369 11.3103 29.7828 12.0233 29.9063 12.7666ZM26.897 14.2562C27.3843 13.7689 27.3543 13.0462 26.9493 12.6411C26.5443 12.2361 25.8216 12.2061 25.3342 12.6934L24.4198 13.6078C24.9824 13.939 25.5126 14.3461 25.9964 14.8299L26.1599 14.9934L26.897 14.2562ZM28.069 16.9025L29.2932 18.1267C29.4513 18.2848 29.5898 18.4541 29.7089 18.6319L30.8045 17.5363C31.3265 17.0143 31.2973 16.2362 30.8587 15.7975C30.42 15.3589 29.6419 15.3297 29.1199 15.8517L28.069 16.9025ZM29.5282 22.631C29.4427 22.7399 29.35 22.8446 29.2501 22.9445C29.1505 23.0441 29.0459 23.1368 28.9368 23.2224L28.7945 23.3647C28.2725 23.8867 28.3017 24.6648 28.7403 25.1035C29.179 25.5421 29.9571 25.5713 30.4791 25.0493L34.3983 21.1301C34.9203 20.6081 34.8911 19.83 34.4525 19.3913C34.0138 18.9526 33.2357 18.9235 32.7137 19.4455L29.5282 22.631ZM29.0679 28.1068C28.2518 28.005 27.4628 27.6443 26.8312 27.0126C25.9472 26.1287 25.594 24.9366 25.7382 23.7932C25.5669 23.7362 25.3984 23.6648 25.2343 23.5784L20.2126 20.9357C19.5528 20.5885 19.2994 19.7721 19.6466 19.1123C19.9938 18.4525 20.8102 18.1991 21.47 18.5463L26.4917 21.189C26.6919 21.2944 26.9564 21.292 27.1817 21.1591L27.4665 20.8743C27.6394 20.5819 27.5833 20.2352 27.384 20.0359L24.0872 16.7391C22.0289 14.6808 18.5853 14.6912 16.3949 16.8816L14.3334 18.9431C11.4203 21.8562 11.3928 26.4544 14.1527 29.2143L18.4165 33.4781C21.1764 36.238 25.7746 36.2105 28.6877 33.2974L30.8627 31.1224C30.5967 30.969 30.3457 30.7782 30.1167 30.5492C29.4353 29.8678 29.0919 28.9915 29.0679 28.1068ZM37.1247 24.8604C37.5427 24.4423 37.5111 23.8304 37.1733 23.4926C36.8355 23.1548 36.2236 23.1232 35.8055 23.5412L32.0745 27.2722C31.6565 27.6903 31.6881 28.3022 32.0259 28.64C32.3637 28.9778 32.9756 29.0094 33.3937 28.5914L37.1247 24.8604Z" fill="#795BDA"/>
<path fill-rule="evenodd" clip-rule="evenodd" d="M19.9881 7.08735C20.1334 7.81864 19.6584 8.52927 18.9271 8.67461C16.6353 9.13008 14.2958 10.4955 12.3955 12.3957C10.4952 14.296 9.12983 16.6355 8.67436 18.9274C8.52903 19.6586 7.81839 20.1336 7.08711 19.9883C6.35583 19.843 5.88082 19.1323 6.02615 18.4011C6.6066 15.4804 8.29182 12.681 10.4863 10.4866C12.6808 8.29206 15.4802 6.60684 18.4008 6.0264C19.1321 5.88106 19.8427 6.35607 19.9881 7.08735ZM41.2505 28.3498C41.9818 28.4952 42.4568 29.2058 42.3115 29.9371C41.731 32.8577 40.0458 35.6571 37.8513 37.8516C35.6568 40.0461 32.8575 41.7313 29.9368 42.3117C29.2055 42.4571 28.4949 41.9821 28.3496 41.2508C28.2042 40.5195 28.6793 39.8089 29.4105 39.6635C31.7024 39.2081 34.0419 37.8427 35.9422 35.9424C37.8424 34.0421 39.2078 31.7026 39.6633 29.4108C39.8086 28.6795 40.5193 28.2045 41.2505 28.3498Z" fill="#795BDA"/>
</svg>
