<svg width="48" height="48" viewBox="0 0 48 48" fill="none" xmlns="http://www.w3.org/2000/svg">
<path fill-rule="evenodd" clip-rule="evenodd" d="M15.9895 7.3091C16.233 6.90046 16.6735 6.65012 17.1492 6.65012H22.2213C22.5844 6.65012 22.9321 6.79633 23.1861 7.05577C23.4758 7.35172 24.3824 8.22745 25.539 9.20051C25.6933 9.33033 25.9959 9.47846 26.5571 9.65873C26.7141 9.70916 26.9272 9.77178 27.1621 9.84084C27.5634 9.95879 28.0286 10.0955 28.388 10.2225C29.0268 10.4482 29.7848 10.7795 30.3874 11.3565C31.0433 11.9846 31.4418 12.8328 31.4418 13.8964C31.4418 14.6589 31.2316 15.3237 30.9092 15.8935C35.7015 19.1796 37.0022 23.8987 36.068 28.0511C35.2222 31.8109 32.4949 35.1817 28.9845 36.3155C29.3012 37.2619 29.4647 38.1661 29.5149 38.9092C29.54 39.2822 29.4094 39.6489 29.1542 39.922C28.8989 40.1951 28.5418 40.3501 28.1679 40.3501H17.1492C16.8113 40.3501 16.4856 40.2234 16.2366 39.9949C13.8295 37.7868 12.3364 34.5203 11.8383 31.5035C11.5877 29.986 11.5774 28.4667 11.8701 27.1181C12.1612 25.7767 12.7772 24.5032 13.865 23.6459C16.1889 21.8144 16.176 18.885 14.8619 15.8643C14.1412 14.2078 14.2503 12.3926 14.5814 10.9163C14.916 9.42468 15.5158 8.10401 15.9895 7.3091ZM27.7956 33.8475C30.3816 33.182 32.7169 30.6454 33.4339 27.4585C34.1473 24.2871 33.2074 20.5408 28.9843 17.8574C28.051 18.4705 27.0372 18.8577 26.3224 19.0442C25.601 19.2323 24.8636 18.8 24.6754 18.0786C24.4872 17.3571 24.9195 16.6197 25.641 16.4316C26.1995 16.2859 27.0577 15.9433 27.7433 15.4319C27.7649 15.4158 27.7861 15.3997 27.8069 15.3836C27.9114 15.2507 28.0376 15.1416 28.1775 15.0585C28.5679 14.664 28.7418 14.2734 28.7418 13.8964C28.7418 13.5752 28.6484 13.4296 28.5201 13.3067C28.3383 13.1326 28.0196 12.9559 27.4887 12.7683C27.1529 12.6497 26.8714 12.5686 26.5603 12.4789C26.3158 12.4084 26.0531 12.3327 25.7314 12.2294C25.1367 12.0383 24.3899 11.7621 23.8008 11.2666C22.9077 10.5152 22.1488 9.81356 21.6678 9.35012H17.962C17.6883 9.92971 17.3998 10.6874 17.2159 11.5073C16.9466 12.7081 16.9391 13.8709 17.3377 14.7872C18.822 18.1988 19.3338 22.7737 15.5362 25.7665C15.0937 26.1152 14.715 26.7401 14.5087 27.6907C14.3039 28.6342 14.2937 29.8006 14.5022 31.0637C14.8944 33.4393 16.0202 35.9283 17.6962 37.6501H26.5687C26.4221 37.11 26.2079 36.5303 25.9112 35.9632C24.9803 34.184 23.2848 32.5778 20.21 32.5778C19.4644 32.5778 18.86 31.9734 18.86 31.2278C18.86 30.4822 19.4644 29.8778 20.21 29.8778C23.9898 29.8778 26.3935 31.7159 27.7956 33.8475Z" fill="#795BDA"/>
<path d="M27 29.0001C27.1028 29.0001 27.253 28.9254 27.3755 28.8507C29.585 27.506 31 25.9297 31 24.3347C31 22.9564 29.9921 22.0001 28.7312 22.0001C27.9447 22.0001 27.3557 22.411 27 23.0236C26.6522 22.411 26.0593 22.0001 25.2727 22.0001C24.0079 22.0001 23 22.9564 23 24.3347C23 25.9297 24.419 27.506 26.6245 28.8507C26.747 28.9254 26.8972 29.0001 27 29.0001Z" fill="#795BDA"/>
</svg>
