<svg width="48" height="48" viewBox="0 0 48 48" fill="none" xmlns="http://www.w3.org/2000/svg">
<path d="M24.6929 14.4266C24.6423 14.3353 24.5804 14.2486 24.5071 14.1686C23.0787 12.6087 20.9778 11.6501 18.4891 11.6501C13.5245 11.6501 9.65 15.4021 9.65 20.6709C9.65 23.5592 10.862 26.3277 12.8562 28.8775C14.8494 31.426 17.6752 33.8253 21.0542 36.0156C21.4407 36.2661 21.9282 36.3023 22.3474 36.1117C22.3762 36.0986 22.4043 36.0846 22.4318 36.0697C22.5211 36.2894 22.6474 36.4983 22.8106 36.6871L22.9799 36.883C23.2369 37.1803 23.6107 37.3508 24.0037 37.3501C24.4493 37.3493 24.8585 37.1994 25.1216 37.086C25.415 36.9594 25.6965 36.8015 25.9278 36.659L24.6929 14.4266ZM24.6929 14.4266C24.7966 14.2961 24.9049 14.1473 25.0316 13.9707C25.0446 13.9526 25.0578 13.9341 25.0713 13.9153C25.2247 13.7011 25.409 13.4438 25.6081 13.2027C26.0405 12.679 26.6975 12.034 27.7041 11.8292C28.2846 11.7111 28.8925 11.6501 29.5237 11.6501C34.4771 11.6501 38.35 15.4037 38.35 20.6709C38.35 23.7004 37.0203 26.598 34.8478 29.2533C32.6753 31.9086 29.5987 34.4002 25.9287 36.6584L24.6929 14.4266Z" stroke="#795BDA" stroke-width="2.7" stroke-linejoin="round"/>
</svg>
