<svg width="48" height="48" viewBox="0 0 48 48" fill="none" xmlns="http://www.w3.org/2000/svg">
<path d="M39.5793 23.4075C39.5793 31.9354 32.528 38.9867 23.985 38.9867C20.5612 38.9867 17.3754 37.8501 14.7883 35.9377C15.553 34.8158 16 33.4602 16 32.0001C16 31.6378 15.9725 31.2818 15.9194 30.9343C17.7146 29.6226 20.5373 28.6207 23.985 28.6207C28.249 28.6207 31.5486 30.1424 33.1457 31.9053C35.2099 29.6753 36.4604 26.6921 36.4604 23.4075C36.4454 16.4918 30.8857 10.9471 23.9699 10.9471C17.0693 10.9471 11.5397 16.4918 11.5397 23.4075C11.5397 24.1377 11.6015 24.853 11.7201 25.5483C10.8839 25.1953 9.96474 25.0001 9 25.0001C8.82857 25.0001 8.65857 25.0063 8.49023 25.0184C8.4344 24.4884 8.40576 23.9509 8.40576 23.4075C8.40576 14.8796 15.442 7.82825 23.9699 7.82825C32.5129 7.82825 39.5793 14.8796 39.5793 23.4075Z" fill="#795BDA"/>
<path d="M29.1831 20.4544C29.1831 23.6787 26.908 26.1798 23.985 26.1497C21.0771 26.1346 18.817 23.6787 18.802 20.4544C18.7869 17.4108 21.0921 14.8645 23.985 14.8645C26.8929 14.8645 29.1831 17.4108 29.1831 20.4544Z" fill="#795BDA"/>
<path d="M4 32.9153C4 33.5255 4.42355 33.9391 5.03306 33.9391H7.06818V35.9763C7.06818 36.5865 7.47107 37.0001 8.08058 37.0001H9.91942C10.5289 37.0001 10.9421 36.5865 10.9421 35.9763V33.9391H12.9773C13.5868 33.9391 14 33.5255 14 32.9153V31.0746C14 30.4644 13.5868 30.0611 12.9773 30.0611H10.9421V28.0239C10.9421 27.4138 10.5289 27.0001 9.91942 27.0001H8.08058C7.47107 27.0001 7.06818 27.4138 7.06818 28.0239V30.0611H5.03306C4.41322 30.0611 4 30.4644 4 31.0746V32.9153Z" fill="#795BDA"/>
</svg>
