<svg width="46" height="33" viewBox="0 0 46 33" fill="none" xmlns="http://www.w3.org/2000/svg">
<mask id="path-1-outside-1_828_180" maskUnits="userSpaceOnUse" x="0" y="0" width="46" height="33" fill="black">
<rect fill="white" width="46" height="33"/>
<path d="M6.18869 5.75644C6.18869 7.23967 7.3973 8.49976 8.87592 8.49976C10.3545 8.49976 11.576 7.23967 11.576 5.75644C11.576 4.23384 10.3545 3 8.87592 3C7.3973 3 6.18869 4.23384 6.18869 5.75644ZM34.4497 5.75644C34.4497 7.23967 35.6583 8.49976 37.1241 8.49976C38.6027 8.49976 39.8242 7.23967 39.8242 5.75644C39.8242 4.23384 38.6027 3 37.1241 3C35.6583 3 34.4497 4.23384 34.4497 5.75644ZM3.01286 19.9324C3 20.72 3.46287 21.1794 4.11861 21.1794C4.77435 21.1794 5.23722 20.72 5.23722 19.9324V14.4327C5.23722 14.1308 5.39151 13.947 5.62295 13.947C5.85439 13.947 6.00868 14.1308 6.00868 14.4327V28.6349C6.00868 29.5275 6.53584 30 7.25587 30C7.97589 30 8.50305 29.5275 8.50305 28.6349V19.788C8.50305 19.4993 8.64449 19.3024 8.87592 19.3024C9.0945 19.3024 9.24879 19.4993 9.24879 19.788V28.6349C9.24879 29.5275 9.77596 30 10.496 30C11.216 30 11.756 29.5275 11.756 28.6349V14.4327C11.756 14.1308 11.8717 13.947 12.116 13.947C12.3603 13.947 12.5018 14.1308 12.5018 14.4327L12.5146 19.9324C12.5018 20.72 12.9775 21.1794 13.6332 21.1794C14.289 21.1794 14.739 20.72 14.739 19.9324V14.5639C14.739 11.0199 12.7846 9.61546 8.87592 9.61546C4.96721 9.61546 3 11.0199 3 14.5639L3.01286 19.9324ZM31.261 19.9324C31.261 20.72 31.7239 21.1794 32.3796 21.1794C33.0225 21.1794 33.4982 20.72 33.4982 19.9324V14.4327C33.4982 14.1308 33.6525 13.947 33.884 13.947C34.1283 13.947 34.2568 14.1308 34.2568 14.4327V28.6349C34.2568 29.5275 34.7969 30 35.5169 30C36.2369 30 36.7512 29.5275 36.7512 28.6349V19.788C36.7512 19.4993 36.9184 19.3024 37.1241 19.3024C37.3684 19.3024 37.4969 19.4993 37.4969 19.788V28.6349C37.4969 29.5275 38.037 30 38.757 30C39.477 30 39.9913 29.5275 39.9913 28.6349V14.4327C39.9913 14.1308 40.1456 13.947 40.3771 13.947C40.6085 13.947 40.7756 14.1308 40.7756 14.4327V19.9324C40.7756 20.72 41.2385 21.1794 41.8942 21.1794C42.55 21.1794 43 20.72 43 19.9324V14.5639C43 11.0199 41.0328 9.61546 37.1241 9.61546C33.2154 9.61546 31.261 11.0199 31.261 14.5639V19.9324Z"/>
<path d="M22.8121 14.814C22.3661 14.3184 21.6996 14 20.8804 14C19.2599 14 18 15.2295 18 17.0016C18 18.9562 19.6113 20.8889 22.1494 22.5628C22.1755 22.3769 22.2537 22.1964 22.384 22.0431L23.0647 21.242C23.1733 21.1142 23.1733 20.9297 23.0647 20.8019L22.384 20.0008C22.0582 19.6174 22.0582 19.064 22.384 18.6805L23.0647 17.8794C23.1733 17.7516 23.1733 17.5671 23.0647 17.4393L22.384 16.6382C22.0582 16.2547 22.0582 15.7013 22.384 15.3179L22.8121 14.814Z"/>
<path d="M23.0005 23C23.1289 22.9998 23.3164 22.9038 23.4694 22.8079C26.2312 21.079 28 19.0523 28 17.0016C28 15.2295 26.7401 14 25.1245 14C24.9185 14 24.7224 14.0199 24.537 14.0576C24.1036 14.1459 23.9024 14.6198 23.616 14.9569L22.9353 15.758C22.8267 15.8858 22.8267 16.0703 22.9353 16.1981L23.616 16.9992C23.9418 17.3826 23.9418 17.936 23.616 18.3195L22.9353 19.1206C22.8267 19.2484 22.8267 19.4329 22.9353 19.5607L23.616 20.3618C23.9418 20.7453 23.9418 21.2987 23.616 21.6821L22.9353 22.4832C22.8267 22.6111 22.8267 22.7955 22.9353 22.9233L23.0005 23Z"/>
</mask>
<path d="M3.01286 19.9324L5.7125 19.9765L5.71291 19.9512L5.71285 19.926L3.01286 19.9324ZM12.5018 14.4327H9.80176L9.80178 14.439L12.5018 14.4327ZM12.5146 19.9324L15.2143 19.9765L15.2147 19.9513L15.2146 19.9261L12.5146 19.9324ZM3 14.5639H0.299992L0.300008 14.5704L3 14.5639ZM22.8121 14.814L24.8697 16.5622C25.7452 15.5318 25.7235 14.0127 24.8189 13.0077L22.8121 14.814ZM22.1494 22.5628L20.6629 24.8167C21.436 25.3266 22.4165 25.4047 23.2605 25.0236C24.1045 24.6425 24.6944 23.8554 24.8232 22.9383L22.1494 22.5628ZM22.384 22.0431L24.4415 23.7914L22.384 22.0431ZM23.0647 21.242L21.0071 19.4938L21.0071 19.4938L23.0647 21.242ZM23.0647 20.8019L25.1222 19.0537L25.1222 19.0537L23.0647 20.8019ZM22.384 20.0008L20.3264 21.7491L20.3264 21.7491L22.384 20.0008ZM22.384 18.6805L24.4415 20.4288L22.384 18.6805ZM23.0647 17.8794L21.0071 16.1311L23.0647 17.8794ZM23.0647 17.4393L25.1222 15.691V15.691L23.0647 17.4393ZM22.384 16.6382L20.3264 18.3864V18.3864L22.384 16.6382ZM22.384 15.3179L20.3264 13.5696L22.384 15.3179ZM23.4694 22.8079L22.0367 20.5193L22.0349 20.5205L23.4694 22.8079ZM23.0005 23L20.9429 24.7483C21.457 25.3534 22.2114 25.7015 23.0055 25.7L23.0005 23ZM23.616 14.9569L21.5585 13.2086L23.616 14.9569ZM22.9353 15.758L24.9929 17.5062L22.9353 15.758ZM22.9353 16.1981L24.9929 14.4498L22.9353 16.1981ZM23.616 16.9992L25.6736 15.2509L25.6736 15.2509L23.616 16.9992ZM23.616 18.3195L25.6736 20.0678L25.6736 20.0678L23.616 18.3195ZM22.9353 19.1206L20.8778 17.3723L20.8778 17.3723L22.9353 19.1206ZM22.9353 19.5607L20.8778 21.309L20.8778 21.309L22.9353 19.5607ZM23.616 20.3618L25.6736 18.6136L25.6736 18.6136L23.616 20.3618ZM23.616 21.6821L25.6736 23.4304H25.6736L23.616 21.6821ZM22.9353 22.4832L24.9929 24.2315L24.9929 24.2315L22.9353 22.4832ZM22.9353 22.9233L20.8778 24.6716L20.8778 24.6716L22.9353 22.9233ZM24.537 14.0576L23.9985 11.4119L24.537 14.0576ZM3.48869 5.75644C3.48869 8.66106 5.83729 11.1998 8.87592 11.1998V5.79976C8.88344 5.79976 8.89217 5.80062 8.9009 5.80249C8.9094 5.80431 8.91566 5.80659 8.91941 5.80824C8.92615 5.8112 8.92203 5.81075 8.91282 5.80129C8.90351 5.79172 8.89626 5.78029 8.89218 5.77053C8.88881 5.76245 8.88869 5.75845 8.88869 5.75644H3.48869ZM8.87592 11.1998C11.898 11.1998 14.276 8.678 14.276 5.75644H8.87602C8.87602 5.75644 8.87602 5.75629 8.87605 5.75608C8.87607 5.75588 8.87608 5.75589 8.87602 5.75615C8.87592 5.75665 8.87542 5.75887 8.87379 5.76272C8.87007 5.77156 8.86262 5.78375 8.85166 5.79494C8.84077 5.80605 8.83415 5.80837 8.83786 5.80674C8.84016 5.80573 8.84513 5.80385 8.85259 5.80225C8.86028 5.80061 8.86843 5.79976 8.87592 5.79976V11.1998ZM14.276 5.75644C14.276 2.78707 11.8897 0.3 8.87592 0.3V5.7C8.8725 5.7 8.86747 5.69959 8.86185 5.69841C8.85642 5.69727 8.8523 5.69581 8.84977 5.69472C8.84523 5.69275 8.84824 5.69314 8.85476 5.69978C8.86123 5.70636 8.86675 5.71467 8.8703 5.72318C8.8731 5.72987 8.87602 5.73953 8.87602 5.75644H14.276ZM8.87592 0.3C5.84554 0.3 3.48869 2.80398 3.48869 5.75644H8.88869C8.88869 5.73552 8.8924 5.72319 8.89562 5.71541C8.89954 5.70593 8.90491 5.69838 8.90973 5.69344C8.91456 5.68849 8.91506 5.68995 8.90747 5.69325C8.9035 5.69497 8.89809 5.69683 8.89162 5.69819C8.88497 5.69959 8.87938 5.7 8.87592 5.7V0.3ZM31.7497 5.75644C31.7497 8.65253 34.09 11.1998 37.1241 11.1998V5.79976C37.1349 5.79976 37.1463 5.80098 37.1571 5.80331C37.1677 5.80559 37.1754 5.80843 37.1801 5.81051C37.1887 5.81429 37.1849 5.81437 37.1753 5.80449C37.1657 5.79454 37.158 5.78243 37.1535 5.77184C37.1498 5.76296 37.1497 5.75848 37.1497 5.75644H31.7497ZM37.1241 11.1998C40.1462 11.1998 42.5242 8.678 42.5242 5.75644H37.1242C37.1242 5.75644 37.1242 5.75629 37.1242 5.75608C37.1242 5.75588 37.1242 5.75589 37.1242 5.75615C37.1241 5.75665 37.1236 5.75887 37.1219 5.76272C37.1182 5.77156 37.1108 5.78375 37.0998 5.79494C37.0889 5.80605 37.0823 5.80837 37.086 5.80674C37.0883 5.80573 37.0933 5.80385 37.1007 5.80225C37.1084 5.80061 37.1166 5.79976 37.1241 5.79976V11.1998ZM42.5242 5.75644C42.5242 2.78707 40.1379 0.3 37.1241 0.3V5.7C37.1206 5.7 37.1156 5.69959 37.11 5.69841C37.1046 5.69727 37.1005 5.69581 37.0979 5.69472C37.0934 5.69275 37.0964 5.69314 37.1029 5.69978C37.1094 5.70636 37.1149 5.71467 37.1185 5.72318C37.1213 5.72987 37.1242 5.73953 37.1242 5.75644H42.5242ZM37.1241 0.3C34.0983 0.3 31.7497 2.8125 31.7497 5.75644H37.1497C37.1497 5.7355 37.1534 5.72269 37.157 5.71411C37.1612 5.70379 37.1671 5.69556 37.1722 5.69024C37.1775 5.68488 37.1776 5.68691 37.1682 5.69102C37.1632 5.69318 37.1563 5.69558 37.1478 5.69739C37.1391 5.69924 37.1308 5.7 37.1241 5.7V0.3ZM0.313217 19.8884C0.298044 20.8177 0.56673 21.8512 1.32728 22.6785C2.10057 23.5197 3.13847 23.8794 4.11861 23.8794V18.4794C4.44302 18.4794 4.92161 18.6094 5.30274 19.024C5.67114 19.4247 5.71481 19.8347 5.7125 19.9765L0.313217 19.8884ZM4.11861 23.8794C5.10129 23.8794 6.13314 23.5184 6.9041 22.6866C7.65989 21.8711 7.93722 20.852 7.93722 19.9324H2.53722C2.53722 19.8004 2.58311 19.4048 2.94354 19.0159C3.31913 18.6106 3.79167 18.4794 4.11861 18.4794V23.8794ZM7.93722 19.9324V14.4327H2.53722V19.9324H7.93722ZM7.93722 14.4327C7.93722 14.7149 7.86602 15.2497 7.44476 15.7719C6.97674 16.352 6.28633 16.647 5.62295 16.647V11.247C4.72814 11.247 3.84486 11.6339 3.24183 12.3814C2.68557 13.0709 2.53722 13.8486 2.53722 14.4327H7.93722ZM5.62295 16.647C4.95957 16.647 4.26916 16.352 3.80114 15.7719C3.37988 15.2497 3.30868 14.7149 3.30868 14.4327H8.70868C8.70868 13.8486 8.56034 13.0709 8.00407 12.3814C7.40105 11.6339 6.51776 11.247 5.62295 11.247V16.647ZM3.30868 14.4327V28.6349H8.70868V14.4327H3.30868ZM3.30868 28.6349C3.30868 29.6145 3.60767 30.6864 4.41993 31.5276C5.23562 32.3724 6.29566 32.7 7.25587 32.7V27.3C7.49604 27.3 7.9325 27.3913 8.3046 27.7767C8.67327 28.1585 8.70868 28.5478 8.70868 28.6349H3.30868ZM7.25587 32.7C8.21607 32.7 9.27612 32.3724 10.0918 31.5276C10.9041 30.6864 11.2031 29.6145 11.2031 28.6349H5.80305C5.80305 28.5478 5.83846 28.1585 6.20713 27.7767C6.57924 27.3913 7.01569 27.3 7.25587 27.3V32.7ZM11.2031 28.6349V19.788H5.80305V28.6349H11.2031ZM11.2031 19.788C11.2031 20.0495 11.1426 20.5527 10.7591 21.0618C10.3188 21.6461 9.61716 22.0024 8.87592 22.0024V16.6024C7.90325 16.6024 7.01519 17.0572 6.44634 17.8121C5.93421 18.4917 5.80305 19.2378 5.80305 19.788H11.2031ZM8.87592 22.0024C8.09507 22.0024 7.41906 21.6202 7.00746 21.0873C6.63132 20.6003 6.54879 20.1015 6.54879 19.788H11.9488C11.9488 19.1858 11.7891 18.4442 11.2812 17.7865C10.7378 17.083 9.87536 16.6024 8.87592 16.6024V22.0024ZM6.54879 19.788V28.6349H11.9488V19.788H6.54879ZM6.54879 28.6349C6.54879 29.6145 6.84778 30.6864 7.66004 31.5276C8.47573 32.3724 9.53578 32.7 10.496 32.7V27.3C10.7362 27.3 11.1726 27.3913 11.5447 27.7767C11.9134 28.1585 11.9488 28.5478 11.9488 28.6349H6.54879ZM10.496 32.7C11.4535 32.7 12.5087 32.3747 13.3248 31.5415C14.143 30.7063 14.456 29.6325 14.456 28.6349H9.05603C9.05603 28.5298 9.09905 28.1386 9.46721 27.7628C9.8333 27.3891 10.2585 27.3 10.496 27.3V32.7ZM14.456 28.6349V14.4327H9.05603V28.6349H14.456ZM14.456 14.4327C14.456 14.5583 14.4433 15.0806 14.0453 15.6407C13.8285 15.9458 13.5226 16.2216 13.1359 16.4093C12.7576 16.593 12.3962 16.647 12.116 16.647V11.247C11.2213 11.247 10.2656 11.6372 9.64358 12.5126C9.12658 13.2401 9.05603 14.0052 9.05603 14.4327H14.456ZM12.116 16.647C11.4923 16.647 10.7738 16.375 10.2793 15.7471C9.85127 15.2035 9.80177 14.6623 9.80177 14.4327H15.2018C15.2018 13.9012 15.0816 13.1171 14.5217 12.4062C13.8954 11.6109 12.9841 11.247 12.116 11.247V16.647ZM9.80178 14.439L9.81463 19.9387L15.2146 19.9261L15.2018 14.4264L9.80178 14.439ZM9.81499 19.8884C9.79949 20.8377 10.0834 21.8737 10.8504 22.6946C11.6242 23.5228 12.6566 23.8794 13.6332 23.8794V18.4794C13.9542 18.4794 14.4208 18.6063 14.7961 19.0079C15.1644 19.4022 15.2169 19.8147 15.2143 19.9765L9.81499 19.8884ZM13.6332 23.8794C14.6195 23.8794 15.6569 23.5153 16.4272 22.6704C17.1763 21.8487 17.439 20.8322 17.439 19.9324H12.039C12.039 19.8202 12.0766 19.4272 12.4368 19.0321C12.8182 18.6138 13.3027 18.4794 13.6332 18.4794V23.8794ZM17.439 19.9324V14.5639H12.039V19.9324H17.439ZM17.439 14.5639C17.439 12.298 16.7958 10.1442 14.976 8.66536C13.282 7.28865 11.0573 6.91546 8.87592 6.91546V12.3155C10.6033 12.3155 11.3101 12.6445 11.5704 12.856C11.705 12.9654 12.039 13.2858 12.039 14.5639H17.439ZM8.87592 6.91546C6.69413 6.91546 4.46876 7.28886 2.77276 8.66262C0.949588 10.1394 0.3 12.2926 0.3 14.5639H5.7C5.7 13.2912 6.03402 12.9702 6.17163 12.8588C6.43641 12.6443 7.14901 12.3155 8.87592 12.3155V6.91546ZM0.300008 14.5704L0.312865 19.9389L5.71285 19.926L5.69999 14.5575L0.300008 14.5704ZM28.561 19.9324C28.561 20.852 28.8383 21.8711 29.5941 22.6866C30.3651 23.5184 31.3969 23.8794 32.3796 23.8794V18.4794C32.7066 18.4794 33.1791 18.6106 33.5547 19.0159C33.9151 19.4048 33.961 19.8004 33.961 19.9324H28.561ZM32.3796 23.8794C33.3669 23.8794 34.3895 23.5115 35.1529 22.6946C35.9063 21.8882 36.1982 20.8717 36.1982 19.9324H30.7982C30.7982 19.7807 30.8523 19.3877 31.2072 19.0079C31.5719 18.6176 32.0352 18.4794 32.3796 18.4794V23.8794ZM36.1982 19.9324V14.4327H30.7982V19.9324H36.1982ZM36.1982 14.4327C36.1982 14.7149 36.127 15.2497 35.7058 15.7719C35.2378 16.352 34.5473 16.647 33.884 16.647V11.247C32.9891 11.247 32.1059 11.6339 31.5028 12.3814C30.9466 13.0709 30.7982 13.8486 30.7982 14.4327H36.1982ZM33.884 16.647C33.2472 16.647 32.5007 16.3623 32.0011 15.6954C31.5868 15.1424 31.5568 14.6104 31.5568 14.4327H36.9568C36.9568 13.953 36.8625 13.1782 36.323 12.4579C35.698 11.6236 34.765 11.247 33.884 11.247V16.647ZM31.5568 14.4327V28.6349H36.9568V14.4327H31.5568ZM31.5568 28.6349C31.5568 29.6325 31.8699 30.7063 32.688 31.5415C33.5041 32.3747 34.5594 32.7 35.5169 32.7V27.3C35.7543 27.3 36.1796 27.3891 36.5456 27.7628C36.9138 28.1386 36.9568 28.5298 36.9568 28.6349H31.5568ZM35.5169 32.7C36.4798 32.7 37.5448 32.3701 38.36 31.5134C39.166 30.6664 39.4512 29.5965 39.4512 28.6349H34.0512C34.0512 28.5659 34.0792 28.1786 34.4481 27.7909C34.8261 27.3937 35.274 27.3 35.5169 27.3V32.7ZM39.4512 28.6349V19.788H34.0512V28.6349H39.4512ZM39.4512 19.788C39.4512 20.1521 39.3452 20.648 38.9779 21.1122C38.5966 21.5941 37.9435 22.0024 37.1241 22.0024V16.6024C34.8719 16.6024 34.0512 18.6319 34.0512 19.788H39.4512ZM37.1241 22.0024C36.4235 22.0024 35.6935 21.6716 35.2262 21.0355C34.8367 20.5054 34.7969 19.996 34.7969 19.788H40.1969C40.1969 19.2913 40.0929 18.5391 39.578 17.8383C38.9854 17.0316 38.0689 16.6024 37.1241 16.6024V22.0024ZM34.7969 19.788V28.6349H40.1969V19.788H34.7969ZM34.7969 28.6349C34.7969 29.6325 35.11 30.7063 35.9282 31.5415C36.7443 32.3747 37.7995 32.7 38.757 32.7V27.3C38.9945 27.3 39.4197 27.3891 39.7858 27.7628C40.1539 28.1386 40.1969 28.5298 40.1969 28.6349H34.7969ZM38.757 32.7C39.7199 32.7 40.7849 32.3701 41.6001 31.5134C42.4062 30.6664 42.6913 29.5965 42.6913 28.6349H37.2913C37.2913 28.5659 37.3193 28.1786 37.6882 27.7909C38.0662 27.3937 38.5141 27.3 38.757 27.3V32.7ZM42.6913 28.6349V14.4327H37.2913V28.6349H42.6913ZM42.6913 14.4327C42.6913 14.7149 42.6201 15.2497 42.1989 15.7719C41.7308 16.352 41.0404 16.647 40.3771 16.647V11.247C39.4822 11.247 38.599 11.6339 37.9959 12.3814C37.4397 13.0709 37.2913 13.8486 37.2913 14.4327H42.6913ZM40.3771 16.647C39.7278 16.647 39.0622 16.3652 38.6009 15.8194C38.1701 15.3096 38.0756 14.7654 38.0756 14.4327H43.4756C43.4756 13.798 43.2976 13.011 42.7253 12.3339C42.1227 11.6207 41.2577 11.247 40.3771 11.247V16.647ZM38.0756 14.4327V19.9324H43.4756V14.4327H38.0756ZM38.0756 19.9324C38.0756 20.852 38.353 21.8711 39.1088 22.6866C39.8797 23.5184 40.9116 23.8794 41.8942 23.8794V18.4794C42.2212 18.4794 42.6937 18.6106 43.0693 19.0159C43.4297 19.4048 43.4756 19.8004 43.4756 19.9324H38.0756ZM41.8942 23.8794C42.8805 23.8794 43.9179 23.5153 44.6882 22.6703C45.4374 21.8487 45.7 20.8322 45.7 19.9324H40.3C40.3 19.8202 40.3376 19.4272 40.6978 19.0321C41.0792 18.6138 41.5637 18.4794 41.8942 18.4794V23.8794ZM45.7 19.9324V14.5639H40.3V19.9324H45.7ZM45.7 14.5639C45.7 12.2926 45.0504 10.1394 43.2272 8.66262C41.5312 7.28886 39.3059 6.91546 37.1241 6.91546V12.3155C38.851 12.3155 39.5636 12.6443 39.8284 12.8588C39.966 12.9702 40.3 13.2912 40.3 14.5639H45.7ZM37.1241 6.91546C34.9427 6.91546 32.718 7.28865 31.024 8.66536C29.2042 10.1442 28.561 12.298 28.561 14.5639H33.961C33.961 13.2858 34.295 12.9654 34.4296 12.856C34.6899 12.6445 35.3967 12.3155 37.1241 12.3155V6.91546ZM28.561 14.5639V19.9324H33.961V14.5639H28.561ZM20.8804 16.7C20.9098 16.7 20.9244 16.7028 20.9264 16.7032C20.9284 16.7036 20.9212 16.7023 20.9074 16.6963C20.8774 16.6832 20.8394 16.6581 20.8053 16.6203L24.8189 13.0077C23.8401 11.9202 22.4334 11.3 20.8804 11.3V16.7ZM20.7 17.0016C20.7 16.8805 20.721 16.8083 20.7346 16.7737C20.7483 16.739 20.7604 16.7266 20.7623 16.7246C20.7643 16.7225 20.7676 16.7194 20.7777 16.7152C20.7876 16.7111 20.819 16.7 20.8804 16.7V11.3C17.7138 11.3 15.3 13.7938 15.3 17.0016H20.7ZM23.6359 20.3088C21.2241 18.7182 20.7 17.49 20.7 17.0016H15.3C15.3 20.4223 17.9985 23.0595 20.6629 24.8167L23.6359 20.3088ZM24.8232 22.9383C24.7791 23.2523 24.647 23.5495 24.4415 23.7914L20.3264 20.2949C19.8604 20.8433 19.572 21.5015 19.4757 22.1872L24.8232 22.9383ZM24.4415 23.7914L25.1222 22.9903L21.0071 19.4938L20.3264 20.2949L24.4415 23.7914ZM25.1222 22.9903C26.0874 21.8543 26.0874 20.1896 25.1222 19.0537L21.0071 22.5502C20.2591 21.6699 20.2591 20.3741 21.0071 19.4938L25.1222 22.9903ZM25.1222 19.0537L24.4415 18.2526L20.3264 21.7491L21.0071 22.5502L25.1222 19.0537ZM24.4415 18.2526C24.9723 18.8772 24.9723 19.8041 24.4415 20.4288L20.3264 16.9322C19.144 18.3238 19.144 20.3575 20.3264 21.7491L24.4415 18.2526ZM24.4415 20.4288L25.1222 19.6277L21.0071 16.1311L20.3264 16.9322L24.4415 20.4288ZM25.1222 19.6277C26.0874 18.4917 26.0874 16.827 25.1222 15.691L21.0071 19.1875C20.2591 18.3072 20.2591 17.0114 21.0071 16.1311L25.1222 19.6277ZM25.1222 15.691L24.4415 14.8899L20.3264 18.3864L21.0071 19.1875L25.1222 15.691ZM24.4415 14.8899C24.9723 15.5146 24.9723 16.4415 24.4415 17.0661L20.3264 13.5696C19.144 14.9612 19.144 16.9949 20.3264 18.3864L24.4415 14.8899ZM24.4415 17.0661L24.8697 16.5622L20.7545 13.0657L20.3264 13.5696L24.4415 17.0661ZM22.0349 20.5205C22.035 20.5204 22.0363 20.5196 22.039 20.518C22.0417 20.5164 22.0465 20.5136 22.0535 20.5098C22.0655 20.5032 22.0952 20.4874 22.1408 20.4674C22.183 20.4489 22.2676 20.414 22.3862 20.3812C22.4953 20.351 22.7106 20.3005 22.9955 20.3L23.0055 25.7C23.6364 25.6988 24.1293 25.4919 24.3107 25.4123C24.5552 25.305 24.762 25.1843 24.9039 25.0953L22.0349 20.5205ZM25.3 17.0016C25.3 17.2231 25.2055 17.6629 24.6664 18.3333C24.1268 19.0042 23.2564 19.7558 22.0367 20.5193L24.902 25.0965C26.4442 24.1311 27.8391 23.0049 28.8744 21.7175C29.9101 20.4296 30.7 18.8308 30.7 17.0016H25.3ZM25.1245 16.7C25.1836 16.7 25.2135 16.7107 25.2226 16.7145C25.232 16.7183 25.235 16.7213 25.2372 16.7235C25.2392 16.7255 25.2515 16.7383 25.2653 16.7733C25.279 16.8082 25.3 16.8805 25.3 17.0016H30.7C30.7 13.7968 28.2892 11.3 25.1245 11.3V16.7ZM25.0755 16.7034C25.0775 16.703 25.093 16.7 25.1245 16.7V11.3C24.744 11.3 24.3672 11.3368 23.9985 11.4119L25.0755 16.7034ZM21.5585 13.2086L20.8778 14.0097L24.9929 17.5062L25.6736 16.7051L21.5585 13.2086ZM20.8778 14.0097C19.9126 15.1457 19.9126 16.8104 20.8778 17.9463L24.9929 14.4498C25.7409 15.3301 25.7409 16.6259 24.9929 17.5062L20.8778 14.0097ZM20.8778 17.9463L21.5585 18.7474L25.6736 15.2509L24.9929 14.4498L20.8778 17.9463ZM21.5585 18.7474C21.0277 18.1228 21.0277 17.1959 21.5585 16.5712L25.6736 20.0678C26.856 18.6762 26.856 16.6425 25.6736 15.2509L21.5585 18.7474ZM21.5585 16.5712L20.8778 17.3723L24.9929 20.8689L25.6736 20.0678L21.5585 16.5712ZM20.8778 17.3723C19.9126 18.5083 19.9126 20.173 20.8778 21.309L24.9929 17.8125C25.7409 18.6928 25.7409 19.9886 24.9929 20.8689L20.8778 17.3723ZM20.8778 21.309L21.5585 22.1101L25.6736 18.6136L24.9929 17.8125L20.8778 21.309ZM21.5585 22.1101C21.0277 21.4854 21.0277 20.5585 21.5585 19.9339L25.6736 23.4304C26.856 22.0388 26.856 20.0051 25.6736 18.6136L21.5585 22.1101ZM21.5585 19.9339L20.8778 20.735L24.9929 24.2315L25.6736 23.4304L21.5585 19.9339ZM20.8778 20.735C19.9126 21.8709 19.9126 23.5357 20.8778 24.6716L24.9929 21.1751C25.7409 22.0554 25.7409 23.3512 24.9929 24.2315L20.8778 20.735ZM20.8778 24.6716L20.9429 24.7483L25.058 21.2517L24.9929 21.1751L20.8778 24.6716ZM23.9985 11.4119C22.8727 11.641 22.2146 12.3581 21.9307 12.7054C21.7882 12.8797 21.6634 13.0596 21.6152 13.1278C21.5432 13.2296 21.5416 13.2285 21.5585 13.2086L25.6736 16.7051C25.8337 16.5167 25.9646 16.33 26.0244 16.2454C26.108 16.1271 26.1143 16.1198 26.1121 16.1225C26.1032 16.1333 26.0162 16.2408 25.8522 16.3616C25.6716 16.4947 25.4092 16.6355 25.0755 16.7034L23.9985 11.4119Z" fill="#795BDA" mask="url(#path-1-outside-1_828_180)"/>
</svg>
