<svg width="48" height="48" viewBox="0 0 48 48" fill="none" xmlns="http://www.w3.org/2000/svg">
<path d="M23.9855 38.9867C32.5285 38.9867 39.5798 31.9354 39.5798 23.4075C39.5798 14.8796 32.5134 7.82825 23.9704 7.82825C15.4425 7.82825 8.40625 14.8796 8.40625 23.4075C8.40625 31.9354 15.4576 38.9867 23.9855 38.9867ZM23.9855 35.8829C17.0698 35.8829 11.5402 30.3232 11.5402 23.4075C11.5402 16.4918 17.0698 10.9471 23.9704 10.9471C30.8862 10.9471 36.4459 16.4918 36.4609 23.4075C36.476 30.3232 30.9012 35.8829 23.9855 35.8829ZM27.7372 22.6692C29.2891 22.6692 30.5999 21.268 30.5999 19.4901C30.5999 17.7423 29.2891 16.4014 27.7372 16.4014C26.1702 16.4014 24.8594 17.7724 24.8594 19.4901C24.8744 21.268 26.1702 22.6692 27.7372 22.6692ZM19.4805 22.8199C20.8365 22.8199 21.9967 21.6145 21.9967 20.0476C21.9967 18.5409 20.8365 17.3656 19.4805 17.3656C18.1395 17.3656 16.9794 18.5559 16.9794 20.0626C16.9794 21.6145 18.1244 22.8199 19.4805 22.8199ZM15.548 29.2987H20.8968C20.1585 28.2139 20.9872 26.0593 22.5843 24.8087C21.7857 24.2964 20.7762 23.9047 19.4805 23.9047C16.3013 23.9047 14.2372 26.2551 14.2372 28.1837C14.2372 28.8919 14.5837 29.2987 15.548 29.2987ZM23.2773 29.2987H32.1669C33.3421 29.2987 33.7489 28.9371 33.7489 28.2741C33.7489 26.451 31.4286 23.9348 27.7372 23.9348C24.0307 23.9348 21.6953 26.451 21.6953 28.2741C21.6953 28.9371 22.1172 29.2987 23.2773 29.2987Z" fill="#795BDA"/>
</svg>
