<svg width="48" height="48" viewBox="0 0 48 48" fill="none" xmlns="http://www.w3.org/2000/svg">
<path fill-rule="evenodd" clip-rule="evenodd" d="M6.23801 26.9325C6.23801 26.9447 6.2379 26.9568 6.23768 26.9688C6.22365 27.7342 5.765 28.1795 5.1194 28.1795C4.78799 28.1795 4.50584 28.0621 4.30947 27.8444C4.1173 27.6313 4.00729 27.3221 4.01365 26.9325L4.00079 21.564C4.00079 21.52 4.00109 21.4762 4.0017 21.4328C4.01404 20.5528 4.15136 19.8082 4.41324 19.1872C4.83449 18.1883 5.57804 17.5092 6.64218 17.1009C7.50829 16.7685 8.58678 16.6156 9.87671 16.6156C11.169 16.6156 12.2477 16.7691 13.1128 17.1027C14.1699 17.5104 14.908 18.1871 15.327 19.1812C15.4895 19.5668 15.6041 20.0001 15.6706 20.484C15.7112 20.7794 15.734 21.0937 15.7388 21.4276C15.7388 21.4293 15.7388 21.431 15.7389 21.4328C15.7395 21.4762 15.7398 21.52 15.7398 21.564V26.9325C15.7398 26.9447 15.7397 26.9568 15.7395 26.9688C15.733 27.3292 15.6307 27.6186 15.4568 27.824C15.2614 28.0548 14.9756 28.1795 14.634 28.1795C13.9783 28.1795 13.5026 27.7201 13.5154 26.9325L13.5026 21.4328C13.5026 21.1309 13.3611 20.9471 13.1168 20.9471C13.0781 20.9471 13.0426 20.9517 13.0102 20.9607C12.8387 21.0084 12.7568 21.1788 12.7568 21.4328V35.635C12.7568 36.2893 12.4666 36.7179 12.028 36.9001C11.8683 36.9664 11.689 37.0001 11.4968 37.0001C10.7767 37.0001 10.2496 36.5276 10.2496 35.635V26.7882C10.2496 26.5878 10.1753 26.4317 10.0568 26.3548C10.0045 26.3209 9.94363 26.3025 9.87671 26.3025C9.81402 26.3025 9.75793 26.3169 9.70947 26.3437C9.57903 26.4159 9.50384 26.5776 9.50384 26.7882V35.635C9.50384 36.5276 8.97668 37.0001 8.25665 37.0001C8.06341 37.0001 7.88406 36.9661 7.72506 36.899C7.29164 36.7162 7.00947 36.288 7.00947 35.635V21.4328C7.00947 21.1801 6.90142 21.0102 6.73054 20.9615C6.69721 20.952 6.6615 20.9471 6.62374 20.9471C6.3923 20.9471 6.23801 21.1309 6.23801 21.4328V26.9325ZM4.30947 30.7964C3.59174 30.6469 2.89003 30.2899 2.32807 29.6786C1.57594 28.8604 1.30484 27.8407 1.31361 26.9194L1.30078 21.564C1.30079 19.2927 1.95038 17.1395 3.77355 15.6627C4.13847 15.3671 4.52791 15.1179 4.93615 14.9087C4.64807 14.2414 4.48947 13.5113 4.48947 12.7566C4.48947 9.8041 6.84633 7.30011 9.87671 7.30011C12.8905 7.30011 15.2768 9.78718 15.2768 12.7566C15.2768 13.5155 15.1163 14.2475 14.8258 14.9153C15.2299 15.1238 15.6154 15.3718 15.9768 15.6655C17.1122 16.5882 17.7896 17.7736 18.1385 19.085C18.4059 19.0348 18.6827 19.0084 18.967 19.0084C19.9168 19.0084 20.7834 19.3023 21.4936 19.7991C22.2038 19.3023 23.0703 19.0084 24.0201 19.0084C24.9659 19.0084 25.8275 19.3018 26.5337 19.7965C27.24 19.3018 28.1015 19.0084 29.0474 19.0084C29.3274 19.0084 29.6001 19.034 29.8637 19.0827C30.2128 17.7722 30.89 16.5876 32.0248 15.6655C32.3921 15.367 32.7843 15.1156 33.1957 14.9051C32.9085 14.2382 32.7505 13.5091 32.7505 12.7566C32.7505 9.81262 35.099 7.30011 38.1249 7.30011C41.1387 7.30011 43.525 9.78718 43.525 12.7566C43.525 13.5148 43.3648 14.2461 43.0747 14.9134C43.4796 15.1217 43.8659 15.3694 44.228 15.6627C46.0512 17.1395 46.7008 19.2927 46.7008 21.564V26.9325C46.7008 27.8323 46.4381 28.8488 45.689 29.6705C45.1249 30.2892 44.4176 30.6501 43.6921 30.799V35.635C43.6921 36.5966 43.4069 37.6665 42.6009 38.5135C41.7857 39.3702 40.7207 39.7001 39.7578 39.7001C39.2279 39.7001 38.668 39.6005 38.1353 39.3702C37.6041 39.601 37.0455 39.7001 36.5177 39.7001C35.5602 39.7001 34.5049 39.3748 33.6888 38.5416C32.8707 37.7064 32.5576 36.6327 32.5576 35.635V30.7938C31.8452 30.6429 31.1519 30.2877 30.5949 29.6867C30.0971 29.1495 29.8068 28.5241 29.6667 27.8969C29.4647 27.9248 29.2579 27.9393 29.0474 27.9393C28.1063 27.9393 27.243 27.6484 26.5337 27.1545C25.8245 27.6484 24.9612 27.9393 24.0201 27.9393C23.0752 27.9393 22.2067 27.648 21.4936 27.1519C20.7804 27.648 19.912 27.9393 18.967 27.9393C18.7525 27.9393 18.5419 27.9243 18.3362 27.8953C18.1999 28.5122 17.918 29.133 17.428 29.6705C16.8706 30.2819 16.1733 30.6415 15.4568 30.7936V35.635C15.4568 36.6327 15.1438 37.7064 14.3256 38.5416C13.5095 39.3748 12.4543 39.7001 11.4968 39.7001C10.9679 39.7001 10.4087 39.6007 9.87671 39.3702C9.34475 39.6007 8.78555 39.7001 8.25665 39.7001C7.29645 39.7001 6.23641 39.3725 5.42071 38.5277C4.60845 37.6865 4.30947 36.6147 4.30947 35.635V30.7964ZM18.4398 25.1585C18.6058 25.2111 18.7829 25.2393 18.967 25.2393C19.2892 25.2393 19.5898 25.1529 19.8473 25.0011C20.3607 24.6984 20.7028 24.136 20.7028 23.4804C20.7028 22.8262 20.3621 22.2589 19.8504 21.9519C19.5922 21.797 19.2905 21.7084 18.967 21.7084C18.7829 21.7084 18.6058 21.7371 18.4398 21.7904C17.7362 22.0164 17.2313 22.6839 17.2313 23.4804C17.2313 24.2769 17.7362 24.9359 18.4398 25.1585ZM23.1398 25.0011C23.3973 25.1529 23.6979 25.2393 24.0201 25.2393C24.3367 25.2393 24.6334 25.1535 24.8884 25.0028C25.3996 24.7006 25.743 24.1372 25.743 23.4804C25.743 22.8249 25.401 22.2568 24.8915 21.9502C24.6359 21.7964 24.338 21.7084 24.0201 21.7084C23.6966 21.7084 23.3949 21.797 23.1367 21.9519C22.625 22.2589 22.2843 22.8262 22.2843 23.4804C22.2843 24.136 22.6264 24.6984 23.1398 25.0011ZM28.1791 25.0028C28.434 25.1535 28.7307 25.2393 29.0474 25.2393C29.2268 25.2393 29.3995 25.2125 29.5618 25.1625C30.272 24.9439 30.7832 24.2817 30.7832 23.4804C30.7832 22.6791 30.272 22.0082 29.5618 21.7864C29.3995 21.7357 29.2268 21.7084 29.0474 21.7084C28.7294 21.7084 28.4316 21.7964 28.1759 21.9502C27.6665 22.2568 27.3245 22.8249 27.3245 23.4804C27.3245 24.1372 27.6679 24.7006 28.1791 25.0028ZM32.2618 26.9325C32.2618 27.3145 32.3707 27.6193 32.5576 27.8319C32.7561 28.0576 33.0427 28.1795 33.3804 28.1795C34.0233 28.1795 34.499 27.7201 34.499 26.9325V21.4328C34.499 21.1309 34.6533 20.9471 34.8847 20.9471C34.9232 20.9471 34.9587 20.9517 34.9914 20.9605C35.1663 21.0079 35.2576 21.1784 35.2576 21.4328V35.635C35.2576 36.2828 35.5421 36.7094 35.9734 36.8946C36.1363 36.9646 36.3202 37.0001 36.5177 37.0001C37.2377 37.0001 37.752 36.5276 37.752 35.635V26.7882C37.752 26.5838 37.8357 26.4254 37.9576 26.3503C38.0079 26.3193 38.0648 26.3025 38.1249 26.3025C38.1886 26.3025 38.2444 26.3159 38.2921 26.3408C38.4275 26.4114 38.4977 26.5747 38.4977 26.7882V35.635C38.4977 36.5276 39.0378 37.0001 39.7578 37.0001C39.9468 37.0001 40.1217 36.9675 40.2768 36.9033C40.7124 36.723 40.9921 36.2932 40.9921 35.635V21.4328C40.9921 21.1801 41.1002 21.0102 41.271 20.9615C41.3044 20.952 41.3401 20.9471 41.3778 20.9471C41.6093 20.9471 41.7764 21.1309 41.7764 21.4328V26.9325C41.7764 27.7201 42.2393 28.1795 42.895 28.1795C43.2219 28.1795 43.4977 28.0653 43.6921 27.8532C43.8876 27.6399 44.0008 27.3275 44.0008 26.9325V21.564C44.0008 21.52 44.0005 21.4762 43.9999 21.4328C43.9875 20.548 43.8487 19.8 43.584 19.177C43.1623 18.1845 42.4211 17.5089 41.362 17.1019C40.4955 16.7688 39.4161 16.6156 38.1249 16.6156C36.8371 16.6156 35.7615 16.768 34.898 17.0992C33.8323 17.5079 33.0898 18.1888 32.6703 19.1914C32.5114 19.5711 32.3989 19.9969 32.3327 20.4715C32.2908 20.7722 32.2674 21.0923 32.2627 21.4328C32.2621 21.4762 32.2618 21.52 32.2618 21.564V26.9325ZM40.4743 14.0905C40.6972 13.6926 40.825 13.2362 40.825 12.7566C40.825 11.2339 39.6035 10.0001 38.1249 10.0001C36.6591 10.0001 35.4505 11.2339 35.4505 12.7566C35.4505 13.235 35.5762 13.6901 35.7958 14.0873C36.2569 14.9216 37.1319 15.4999 38.1249 15.4999C39.1253 15.4999 40.008 14.923 40.4743 14.0905ZM12.2261 14.0906C12.449 13.6927 12.5768 13.2363 12.5768 12.7566C12.5768 11.2339 11.3553 10.0001 9.87671 10.0001C8.39809 10.0001 7.18947 11.2339 7.18947 12.7566C7.18947 13.2356 7.31557 13.6914 7.53613 14.089C7.99842 14.9223 8.87569 15.4999 9.87671 15.4999C10.8771 15.4999 11.7598 14.9231 12.2261 14.0906Z" fill="#795BDA"/>
</svg>
