<svg width="41" height="28" viewBox="0 0 41 28" fill="none" xmlns="http://www.w3.org/2000/svg">
<path d="M20.4981 14.0674C24.2059 14.0674 27.2088 10.8614 27.2088 6.93633C27.2088 3.07116 24.2059 0 20.4981 0C16.8056 0 13.7873 3.1161 13.7873 6.96629C13.8026 10.8764 16.7903 14.0674 20.4981 14.0674ZM20.4981 11.4457C18.3837 11.4457 16.5911 9.48315 16.5911 6.96629C16.5758 4.50936 18.3684 2.62172 20.4981 2.62172C22.6431 2.62172 24.405 4.4794 24.405 6.93633C24.405 9.45318 22.6278 11.4457 20.4981 11.4457ZM4.67112 10.8914C5.55976 11.5506 6.63225 11.161 6.63225 10.0674V8.20974H10.5392C11.2593 8.20974 11.8262 7.65543 11.8262 6.93633C11.8262 6.24719 11.2593 5.6779 10.5392 5.6779H6.63225V3.86517C6.63225 2.72659 5.52911 2.38202 4.67112 3.02622L0.442423 6.14232C-0.139789 6.5618 -0.15511 7.35581 0.442423 7.79026L4.67112 10.8914ZM30.457 8.20974H34.3639V10.0674C34.3639 11.161 35.4364 11.5506 36.3404 10.8914L40.5691 7.79026C41.1513 7.35581 41.136 6.5618 40.5691 6.14232L36.3404 3.02622C35.4671 2.38202 34.3639 2.72659 34.3639 3.86517V5.6779H30.457C29.7369 5.6779 29.17 6.24719 29.17 6.93633C29.17 7.65543 29.7369 8.20974 30.457 8.20974ZM10.9529 28H30.0433C32.6939 28 33.9656 27.176 33.9656 25.4082C33.9656 21.2884 28.7103 15.8052 20.4981 15.8052C12.2858 15.8052 7.01529 21.2884 7.01529 25.4082C7.01529 27.176 8.30228 28 10.9529 28ZM10.4626 25.3783C10.1102 25.3783 9.97231 25.2584 9.97231 24.9888C9.97231 22.6966 13.7567 18.427 20.4981 18.427C27.2395 18.427 31.0239 22.6966 31.0239 24.9888C31.0239 25.2584 30.886 25.3783 30.5183 25.3783H10.4626Z" fill="#795BDA"/>
</svg>
