<svg width="31" height="31" viewBox="0 0 31 31" fill="none" xmlns="http://www.w3.org/2000/svg">
<path d="M15.4925 31C23.9879 31 31 23.9845 31 15.5C31 7.01547 23.9729 0 15.4775 0C6.9971 0 0 7.01547 0 15.5C0 23.9845 7.01208 31 15.4925 31ZM15.4925 27.912C8.61527 27.912 3.11648 22.3806 3.11648 15.5C3.11648 8.61944 8.61527 3.103 15.4775 3.103C22.3548 3.103 27.8835 8.61944 27.8985 15.5C27.9135 22.3806 22.3697 27.912 15.4925 27.912Z" fill="#795BDA"/>
<path d="M9.9444 12.6721H16.6792C16.8794 12.4516 17.0153 12.2449 17.0868 12.052C17.1726 11.8453 17.2155 11.6248 17.2155 11.3905C17.2155 11.046 17.0796 10.7566 16.8079 10.5224C16.5506 10.2743 16.0858 10.1503 15.4138 10.1503C14.8132 10.1503 14.3771 10.2537 14.1054 10.4604C13.848 10.6533 13.6836 10.9289 13.6121 11.2872H11.1241C11.1813 10.2675 11.5602 9.46133 12.2608 8.86879C12.9615 8.26247 14.0125 7.95931 15.4138 7.95931C16.1144 7.95931 16.7293 8.04199 17.2584 8.20735C17.8017 8.35893 18.2521 8.57252 18.6096 8.84812C18.9814 9.12372 19.2531 9.44755 19.4247 9.8196C19.6105 10.1779 19.7035 10.5637 19.7035 10.9771C19.7035 11.3354 19.6749 11.6386 19.6177 11.8866C19.5605 12.1346 19.4533 12.3965 19.296 12.6721H20.8832V14.615H9.9444V12.6721ZM15.4138 22.883C13.8838 22.883 12.747 22.5936 12.0035 22.0149C11.2742 21.4361 10.9096 20.6851 10.9096 19.7619C10.9096 19.3209 10.9596 18.9557 11.0597 18.6663C11.1598 18.377 11.2957 18.1014 11.4672 17.8395H9.9444V15.8966H20.8832V17.8395H14.3628C14.0911 18.1151 13.8981 18.3839 13.7837 18.6457C13.6693 18.9075 13.6121 19.1762 13.6121 19.4518C13.6121 19.8376 13.7336 20.1408 13.9767 20.3613C14.2198 20.5818 14.6988 20.692 15.4138 20.692C16.0143 20.692 16.4505 20.5955 16.7221 20.4026C16.9938 20.1959 17.1583 19.9134 17.2155 19.5552H19.918C19.8894 20.0375 19.7821 20.4784 19.5962 20.878C19.4247 21.2776 19.1601 21.629 18.8026 21.9322C18.4452 22.2354 17.9876 22.4696 17.4299 22.635C16.8723 22.8003 16.2002 22.883 15.4138 22.883Z" fill="#795BDA"/>
</svg>
