<svg width="48" height="36" viewBox="0 0 48 36" fill="none" xmlns="http://www.w3.org/2000/svg">
<path d="M5.11861 23.5294C5.29981 23.5294 5.48104 23.5112 5.65868 23.4738V29.6349C5.65868 30.3479 5.87407 31.0544 6.39109 31.5899C6.90984 32.1271 7.59576 32.35 8.25587 32.35C8.81671 32.35 9.39618 32.1891 9.87593 31.8112C10.3557 32.1891 10.9351 32.35 11.496 32.35C12.1547 32.35 12.8399 32.1283 13.3604 31.5968C13.882 31.0644 14.106 30.3569 14.106 29.6349V23.4766C14.2798 23.5121 14.4567 23.5294 14.6332 23.5294C15.2903 23.5294 15.9472 23.2899 16.4296 22.7608C16.9014 22.2433 17.089 21.5792 17.089 20.9324V15.5639C17.089 13.545 16.5231 11.8495 15.1246 10.713C14.4599 10.1728 13.6688 9.81172 12.7869 9.58531C13.4933 8.84137 13.926 7.83635 13.926 6.75644C13.926 4.51045 12.1221 2.65 9.87592 2.65C7.62142 2.65 5.83869 4.51891 5.83869 6.75644C5.83869 7.8329 6.26687 8.83845 6.96985 9.58352C6.08454 9.80968 5.29016 10.1708 4.62248 10.7117C3.2207 11.8471 2.65 13.5423 2.65 15.5639L2.65 15.5672L2.66284 20.9247C2.655 21.5817 2.84628 22.2483 3.32115 22.7649C3.80583 23.2921 4.46461 23.5294 5.11861 23.5294ZM34.0997 6.75644C34.0997 7.83066 34.5268 8.83605 35.2275 9.5816C34.3398 9.80778 33.5438 10.1698 32.8754 10.713C31.4769 11.8495 30.911 13.545 30.911 15.5639V20.9324C30.911 21.5891 31.1075 22.2545 31.5843 22.7689C32.0686 23.2915 32.7243 23.5294 33.3796 23.5294C33.5567 23.5294 33.7335 23.5117 33.9068 23.4757V29.6349C33.9068 30.3569 34.1309 31.0644 34.6524 31.5968C35.173 32.1283 35.8581 32.35 36.5169 32.35C37.0765 32.35 37.6543 32.1896 38.132 31.8113C38.6138 32.1886 39.195 32.35 39.757 32.35C40.4185 32.35 41.1053 32.126 41.6222 31.5828C42.1345 31.0444 42.3413 30.3388 42.3413 29.6349V23.4711C42.5231 23.5103 42.7087 23.5294 42.8942 23.5294C43.5513 23.5294 44.2082 23.2899 44.6906 22.7608C45.1624 22.2433 45.35 21.5792 45.35 20.9324V15.5639C45.35 13.5423 44.7793 11.8471 43.3775 10.7117C42.7112 10.1719 41.9187 9.81113 41.0355 9.58489C41.7416 8.841 42.1742 7.83615 42.1742 6.75644C42.1742 4.51045 40.3703 2.65 38.1241 2.65C35.8783 2.65 34.0997 4.52317 34.0997 6.75644Z" stroke="#795BDA" stroke-width="2.7"/>
<path d="M20.046 8.95841L20.2306 8.03556C22.0499 8.34317 22.9464 9.41544 22.9464 10.7426V14.6098C22.9464 15.1371 23.2804 15.4975 23.7726 15.4975C24.2648 15.4975 24.5988 15.1371 24.5988 14.6098V10.7426C24.5988 9.42423 25.4952 8.35196 27.2882 8.03556L27.4816 8.95841C27.587 9.51212 28.0353 9.6088 28.4396 9.18692L30.3292 7.15665C30.6544 6.81388 30.5577 6.392 30.1359 6.20743L27.6046 5.08243C27.0773 4.85391 26.7081 5.11759 26.8136 5.66251L27.007 6.63809C25.715 6.90177 24.212 7.70157 23.7726 8.69474C23.3331 7.69278 21.8126 6.89298 20.5118 6.63809L20.714 5.66251C20.8195 5.11759 20.4503 4.85391 19.9142 5.08243L17.3917 6.20743C16.9611 6.392 16.8732 6.81388 17.1896 7.15665L19.088 9.18692C19.4835 9.6088 19.9406 9.51212 20.046 8.95841Z" fill="#795BDA"/>
</svg>
