<svg width="30" height="28" viewBox="0 0 30 28" fill="none" xmlns="http://www.w3.org/2000/svg">
<path fill-rule="evenodd" clip-rule="evenodd" d="M0 9.33831C0 15.7183 5.32115 22.0235 13.5919 27.4023C14.0514 27.7012 14.6146 28 15 28C15.3854 28 15.9486 27.7012 16.4081 27.4023C24.6937 22.0235 30 15.7183 30 9.33831C30 3.82497 26.2204 0 21.3735 0C18.5425 0 16.334 1.29989 15 3.27215C13.6957 1.31483 11.4723 0 8.6413 0C3.77964 0 0 3.82497 0 9.33831ZM4.12383 5.48294C5.1491 3.92728 6.83135 3.0032 8.81917 3.0032C11.1353 3.0032 12.569 4.23056 13.5177 5.48294L4.12383 5.48294ZM3.27046 7.46626C3.12861 8.04349 3.05336 8.66493 3.05336 9.32337C3.05336 9.69344 3.08022 10.0663 3.13234 10.4412H26.8825C26.9346 10.0663 26.9615 9.69344 26.9615 9.32337C26.9615 8.66493 26.8862 8.04349 26.7443 7.46626L3.27046 7.46626ZM25.8901 5.48294C24.8634 3.92728 23.1776 3.0032 21.1808 3.0032C18.8831 3.0032 17.4969 4.2471 16.5121 5.48294L25.8901 5.48294ZM3.62957 12.4246H26.3853C26.0311 13.4161 25.5238 14.4123 24.8918 15.3995H5.12298C4.49105 14.4123 3.98375 13.4161 3.62957 12.4246ZM6.56477 17.3829H23.45C22.6236 18.3999 21.681 19.3969 20.6553 20.3578H9.35949C8.33377 19.3969 7.3912 18.3999 6.56477 17.3829ZM11.654 22.3412C12.6419 23.1318 13.6757 23.8861 14.7332 24.5934C14.8518 24.683 14.9407 24.7428 15 24.7428C15.0593 24.7428 15.1482 24.683 15.2816 24.5934C16.3392 23.8861 17.373 23.1318 18.3608 22.3412H11.654Z" fill="#795BDA"/>
</svg>
