<svg width="48" height="48" viewBox="0 0 48 48" fill="none" xmlns="http://www.w3.org/2000/svg">
<path d="M16.829 40.2222C17.6878 40.2222 18.3206 39.8003 19.3602 38.8812L24.5282 34.331H33.5985C38.1336 34.331 40.68 31.7094 40.68 27.2345V15.5274C40.68 11.0526 38.1336 8.43091 33.5985 8.43091H14.3881C9.86802 8.43091 7.30664 11.0526 7.30664 15.5274V27.2345C7.30664 31.7244 9.94336 34.331 14.2826 34.331H14.9004V38.0224C14.9004 39.3634 15.6085 40.2222 16.829 40.2222ZM17.5823 36.8472V32.5531C17.5823 31.6642 17.1906 31.3176 16.3468 31.3176H14.4936C11.661 31.3176 10.305 29.8863 10.305 27.1441V15.6179C10.305 12.8757 11.661 11.4443 14.4936 11.4443H33.5081C36.3256 11.4443 37.6816 12.8757 37.6816 15.6179V27.1441C37.6816 29.8863 36.3256 31.3176 33.5081 31.3176H24.3624C23.4434 31.3176 22.9914 31.4683 22.3585 32.1312L17.5823 36.8472ZM16.8742 19.8667C16.8742 21.5542 17.9439 22.8651 19.6013 22.8651C20.2492 22.8651 20.8669 22.7144 21.2586 22.2473H21.4395C20.9573 23.3924 19.8725 24.191 18.7726 24.4622C18.2603 24.5978 18.0795 24.8388 18.0795 25.2004C18.0795 25.5922 18.411 25.8785 18.8479 25.8785C20.4149 25.8785 23.3078 24.0101 23.3078 20.4694C23.3078 18.4052 21.9969 16.8081 20.0081 16.8081C18.2151 16.8081 16.8742 18.0738 16.8742 19.8667ZM24.7994 19.8667C24.7994 21.5542 25.8691 22.8651 27.5265 22.8651C28.1895 22.8651 28.8072 22.7144 29.1989 22.2473H29.3647C28.8825 23.3924 27.7977 24.191 26.6978 24.4622C26.2006 24.5978 26.0198 24.8388 26.0198 25.2004C26.0198 25.5922 26.3362 25.8785 26.7732 25.8785C28.3401 25.8785 31.233 24.0101 31.233 20.4694C31.233 18.4052 29.9222 16.8081 27.9333 16.8081C26.1403 16.8081 24.7994 18.0738 24.7994 19.8667Z" fill="#795BDA"/>
</svg>
