<svg width="42" height="32" viewBox="0 0 42 32" fill="none" xmlns="http://www.w3.org/2000/svg">
<path d="M19.8125 3.08101C17.8833 5.98772 15.9542 6.95662 13.0605 8.40998C12.0959 9.3789 12.5782 13.2545 17.8833 12.2856C22.1275 11.5105 23.1885 9.86335 23.1885 9.86335L34.2811 21.4902M19.8125 3.08101C21.7417 0.174297 28.976 4.04991 31.8697 4.04991C34.7634 4.04991 37.1749 5.01884 38.1394 9.3789C39.104 13.739 41.5155 15.6768 38.6217 18.099C36.3067 20.0368 34.7634 21.1672 34.2811 21.4902M19.8125 3.08101H13.0605C11.9351 3.40398 9.29857 4.14682 7.75525 4.53438C5.82609 5.01884 4.86144 5.01884 3.41467 9.86335C2.13705 14.1414 1.00323 15.6768 3.41467 19.0679L14.0249 29.2414C15.9863 30.5827 18.3978 30.0982 19.8125 28.1604M34.2811 21.4902C30.455 24.7692 29.0081 23.3159 25.1176 19.5524M16.4364 25.3658C19.8125 28.1604 21.2915 29.6138 25.1176 25.83M20.777 22.4591C25.1176 26.707 26.1144 27.1915 29.9727 23.2314" stroke="#FF5C8D" stroke-width="2.7" stroke-linecap="round" stroke-linejoin="round"/>
</svg>
