<svg width="31" height="31" viewBox="0 0 31 31" fill="none" xmlns="http://www.w3.org/2000/svg">
<path d="M15.4925 31C23.9879 31 31 23.9845 31 15.5C31 7.01547 23.9729 0 15.4775 0C6.9971 0 0 7.01547 0 15.5C0 23.9845 7.01208 31 15.4925 31ZM15.4925 27.912C8.61527 27.912 3.11648 22.3806 3.11648 15.5C3.11648 8.61944 8.61527 3.103 15.4775 3.103C22.3548 3.103 27.8835 8.61944 27.8985 15.5C27.9135 22.3806 22.3697 27.912 15.4925 27.912ZM19.2233 14.7655C20.7666 14.7655 22.0701 13.3714 22.0701 11.6025C22.0701 9.86364 20.7666 8.5295 19.2233 8.5295C17.6651 8.5295 16.3615 9.89362 16.3615 11.6025C16.3765 13.3714 17.6651 14.7655 19.2233 14.7655ZM11.0126 14.9154C12.361 14.9154 13.5147 13.7162 13.5147 12.1572C13.5147 10.6581 12.361 9.48888 11.0126 9.48888C9.67907 9.48888 8.52537 10.6731 8.52537 12.1721C8.52537 13.7162 9.66409 14.9154 11.0126 14.9154ZM7.10198 21.3612H12.421C11.6868 20.2819 12.5109 18.1383 14.0991 16.8941C13.305 16.3844 12.3011 15.9947 11.0126 15.9947C7.85114 15.9947 5.79845 18.3332 5.79845 20.2519C5.79845 20.9565 6.14306 21.3612 7.10198 21.3612ZM14.7883 21.3612H23.6283C24.797 21.3612 25.2015 21.0015 25.2015 20.3419C25.2015 18.528 22.8942 16.0247 19.2233 16.0247C15.5375 16.0247 13.2151 18.528 13.2151 20.3419C13.2151 21.0015 13.6346 21.3612 14.7883 21.3612Z" fill="#FF5C8D"/>
</svg>
