<svg width="48" height="35" viewBox="0 0 48 35" fill="none" xmlns="http://www.w3.org/2000/svg">
<path d="M5.11861 23.5294C5.29981 23.5294 5.48104 23.5112 5.65868 23.4738V29.6349C5.65868 30.3479 5.87407 31.0544 6.39109 31.5899C6.90984 32.1271 7.59576 32.35 8.25587 32.35C8.81671 32.35 9.39618 32.1891 9.87593 31.8112C10.3557 32.1891 10.9351 32.35 11.496 32.35C12.1547 32.35 12.8399 32.1283 13.3604 31.5968C13.882 31.0644 14.106 30.3569 14.106 29.6349V23.4766C14.2798 23.5121 14.4567 23.5294 14.6332 23.5294C15.2903 23.5294 15.9472 23.2899 16.4296 22.7608C16.9014 22.2433 17.089 21.5792 17.089 20.9324V15.5639C17.089 13.545 16.5231 11.8495 15.1246 10.713C14.4599 10.1728 13.6688 9.81172 12.7869 9.58531C13.4933 8.84137 13.926 7.83635 13.926 6.75644C13.926 4.51045 12.1221 2.65 9.87592 2.65C7.62142 2.65 5.83869 4.51891 5.83869 6.75644C5.83869 7.8329 6.26687 8.83845 6.96985 9.58352C6.08454 9.80968 5.29016 10.1708 4.62248 10.7117C3.2207 11.8471 2.65 13.5423 2.65 15.5639L2.65 15.5672L2.66284 20.9247C2.655 21.5817 2.84628 22.2483 3.32115 22.7649C3.80583 23.2921 4.46461 23.5294 5.11861 23.5294ZM34.0997 6.75644C34.0997 7.83066 34.5268 8.83605 35.2275 9.5816C34.3398 9.80778 33.5438 10.1698 32.8754 10.713C31.4769 11.8495 30.911 13.545 30.911 15.5639V20.9324C30.911 21.5891 31.1075 22.2545 31.5843 22.7689C32.0686 23.2915 32.7243 23.5294 33.3796 23.5294C33.5567 23.5294 33.7335 23.5117 33.9068 23.4757V29.6349C33.9068 30.3569 34.1309 31.0644 34.6524 31.5968C35.173 32.1283 35.8581 32.35 36.5169 32.35C37.0765 32.35 37.6543 32.1896 38.132 31.8113C38.6138 32.1886 39.195 32.35 39.757 32.35C40.4185 32.35 41.1053 32.126 41.6222 31.5828C42.1345 31.0444 42.3413 30.3388 42.3413 29.6349V23.4711C42.5231 23.5103 42.7087 23.5294 42.8942 23.5294C43.5513 23.5294 44.2082 23.2899 44.6906 22.7608C45.1624 22.2433 45.35 21.5792 45.35 20.9324V15.5639C45.35 13.5423 44.7793 11.8471 43.3775 10.7117C42.7112 10.1719 41.9187 9.81113 41.0355 9.58489C41.7416 8.841 42.1742 7.83615 42.1742 6.75644C42.1742 4.51045 40.3703 2.65 38.1241 2.65C35.8783 2.65 34.0997 4.52317 34.0997 6.75644Z" stroke="#FF5C8D" stroke-width="2.7"/>
<path d="M27.7044 6.29562C28.0985 6.68979 28.0985 7.32886 27.7044 7.72303L25.4274 10L27.7044 12.277C28.0985 12.6711 28.0985 13.3102 27.7044 13.7044C27.3102 14.0985 26.6711 14.0985 26.2769 13.7044L23.9999 11.4274L21.7231 13.7042C21.3289 14.0984 20.6898 14.0984 20.2956 13.7042C19.9015 13.3101 19.9015 12.671 20.2956 12.2768L22.5725 10L20.2956 7.72318C19.9015 7.32901 19.9015 6.68994 20.2956 6.29577C20.6898 5.9016 21.3289 5.9016 21.7231 6.29577L23.9999 8.57259L26.2769 6.29562C26.6711 5.90146 27.3102 5.90146 27.7044 6.29562Z" fill="#FF5C8D"/>
</svg>
