<svg width="24" height="39" viewBox="0 0 24 39" fill="none" xmlns="http://www.w3.org/2000/svg">
<path d="M17.6102 6.55634C13.5 0.568003 13.5 0.568053 8.50515 6.05211M8.50515 6.05211C8.50343 6.05382 8.50172 6.05554 8.5 6.05725M8.50515 6.05211C10.2668 6.69282 11.7012 7.49559 12.5 8.05376L13.5 8.55288M8.50515 6.05211C6.59127 5.35604 4.29112 4.85123 2 5.05915C3 6.72287 5.3 11.5374 4.5 16.3289M12.5 29.5168V32.5114M12.5 39V35.5061M12.5 32.5114L14 33.0106L12.5 33.5097M12.5 32.5114V33.5097M12.5 33.5097V34.5079M12.5 34.5079L11 35.007L12.5 35.5061M12.5 34.5079V35.5061M22 5.05915C16.1667 6.72287 3 13.045 3 21.0309C3 33.0656 22.6244 31.5721 21.8402 20.9664C21.4735 16.0083 18.0467 9.99201 22 5.05915Z" stroke="#795BDA" stroke-width="2.7" stroke-linejoin="round"/>
</svg>
