<svg width="48" height="48" viewBox="0 0 48 48" fill="none" xmlns="http://www.w3.org/2000/svg">
<path fill-rule="evenodd" clip-rule="evenodd" d="M8.73633 19.8878C8.73633 26.3214 14.1454 32.6797 22.5527 38.1038C23.0198 38.4051 23.5924 38.7064 23.9841 38.7064C24.3758 38.7064 24.9484 38.4051 25.4155 38.1038C33.8379 32.6797 39.2319 26.3214 39.2319 19.8878C39.2319 14.3281 35.3898 10.4709 30.4629 10.4709C27.5851 10.4709 25.3401 11.7818 23.9841 13.7706C22.6582 11.7968 20.3982 10.4709 17.5204 10.4709C12.5784 10.4709 8.73633 14.3281 8.73633 19.8878ZM12.9283 16C13.9705 14.4313 15.6805 13.4994 17.7012 13.4994C20.0556 13.4994 21.5129 14.7371 22.4774 16L12.9283 16ZM12.0608 18C11.9166 18.5821 11.8401 19.2087 11.8401 19.8727C11.8401 20.2459 11.8674 20.6219 11.9204 21H36.0629C36.1158 20.6219 36.1431 20.2459 36.1431 19.8727C36.1431 19.2087 36.0666 18.5821 35.9224 18L12.0608 18ZM35.054 16C34.0104 14.4313 32.2967 13.4994 30.267 13.4994C27.9313 13.4994 26.5223 14.7538 25.5212 16L35.054 16ZM12.4258 23H35.5574C35.1974 23.9999 34.6817 25.0045 34.0393 26H13.9439C13.3016 25.0045 12.7859 23.9999 12.4258 23ZM15.4095 28H32.5737C31.7336 29.0256 30.7755 30.031 29.7328 31H18.2504C17.2078 30.031 16.2496 29.0256 15.4095 28ZM20.5828 33C21.587 33.7972 22.6379 34.5579 23.7129 35.2712C23.8334 35.3616 23.9238 35.4218 23.9841 35.4218C24.0444 35.4218 24.1348 35.3616 24.2704 35.2712C25.3454 34.5579 26.3963 33.7972 27.4005 33H20.5828Z" fill="#795BDA"/>
</svg>
