<svg width="32" height="29" viewBox="0 0 32 29" fill="none" xmlns="http://www.w3.org/2000/svg">
<path d="M9.13047 29C9.95395 29 10.5607 28.6152 11.5576 27.7768L16.5129 23.6261H25.2099C29.5585 23.6261 32 21.2346 32 17.1526V6.47346C32 2.39147 29.5585 0 25.2099 0H6.79007C2.45598 0 0 2.39147 0 6.47346V17.1526C0 21.2483 2.52822 23.6261 6.68894 23.6261H7.28126V26.9934C7.28126 28.2166 7.96027 29 9.13047 29ZM9.85282 25.9213V22.0043C9.85282 21.1934 9.4772 20.8773 8.66817 20.8773H6.8912C4.17517 20.8773 2.87494 19.5716 2.87494 17.0701V6.55592C2.87494 4.0545 4.17517 2.74882 6.8912 2.74882H25.1233C27.8248 2.74882 29.1251 4.0545 29.1251 6.55592V17.0701C29.1251 19.5716 27.8248 20.8773 25.1233 20.8773H16.354C15.4727 20.8773 15.0393 21.0147 14.4325 21.6194L9.85282 25.9213ZM9.17381 10.4318C9.17381 11.9711 10.1995 13.1668 11.7887 13.1668C12.4099 13.1668 13.0023 13.0294 13.3779 12.6033H13.5512C13.0889 13.6479 12.0488 14.3763 10.9941 14.6237C10.5029 14.7474 10.3296 14.9673 10.3296 15.2972C10.3296 15.6545 10.6474 15.9156 11.0664 15.9156C12.5688 15.9156 15.3427 14.2114 15.3427 10.9815C15.3427 9.09858 14.0858 7.64171 12.1788 7.64171C10.4596 7.64171 9.17381 8.79621 9.17381 10.4318ZM16.7729 10.4318C16.7729 11.9711 17.7986 13.1668 19.3878 13.1668C20.0235 13.1668 20.6158 13.0294 20.9914 12.6033H21.1503C20.688 13.6479 19.6479 14.3763 18.5932 14.6237C18.1165 14.7474 17.9431 14.9673 17.9431 15.2972C17.9431 15.6545 18.2465 15.9156 18.6655 15.9156C20.1679 15.9156 22.9418 14.2114 22.9418 10.9815C22.9418 9.09858 21.6849 7.64171 19.7779 7.64171C18.0587 7.64171 16.7729 8.79621 16.7729 10.4318Z" fill="#FF5C8D"/>
</svg>
