<svg width="37" height="29" viewBox="0 0 37 29" fill="none" xmlns="http://www.w3.org/2000/svg">
<path d="M8.64674 27.4849C9.36311 27.4849 9.99151 27.1844 10.8587 26.4331L14.893 22.8519C15.823 23.8161 17.2181 24.3294 18.965 24.3294H23.2632L27.4484 27.9106C28.2779 28.6118 28.8685 29 29.5472 29C30.5526 29 31.1433 28.2863 31.1433 27.1969V24.3294H31.7215C34.8886 24.3294 37 22.4011 37 19.158V11.5073C37 8.21416 34.8509 6.23575 31.6209 6.23575H29.4341V5.42185C29.4341 2.01598 27.3353 0 23.8916 0H5.54246C2.19939 0 0 2.01598 0 5.42185V17.1421C0 20.4978 2.16168 22.4888 5.44192 22.4888H7.02548V25.6943C7.02548 26.7962 7.62874 27.4849 8.64674 27.4849ZM9.27514 21.2617C9.27514 20.5104 8.81012 20.1222 8.18173 20.1222H5.84409C3.75781 20.1222 2.50102 18.9577 2.50102 16.7915V5.69732C2.50102 3.53109 3.77038 2.35406 5.84409 2.35406H23.5774C25.6637 2.35406 26.9205 3.53109 26.9205 5.69732V6.23575H18.965C15.6219 6.23575 13.5859 8.21416 13.5859 11.5073V19.158C13.5859 19.6839 13.6362 20.1598 13.7368 20.6105L9.27514 24.7677V21.2617ZM28.9062 26.2828L24.9725 22.7267C24.4195 22.2258 23.9545 22.0004 23.213 22.0004H19.2289C17.2558 22.0004 16.0618 20.9111 16.0618 18.8325V11.7453C16.0618 9.69171 17.2558 8.57729 19.2289 8.57729H31.3444C33.3302 8.57729 34.5241 9.69171 34.5241 11.7453V18.8325C34.5241 20.8985 33.3176 22.0004 31.3444 22.0004H29.9871C29.3713 22.0004 28.9062 22.3761 28.9062 23.1274V26.2828Z" fill="#FF5C8D"/>
</svg>
