<svg width="42" height="38" viewBox="0 0 42 38" fill="none" xmlns="http://www.w3.org/2000/svg">
<path d="M9.91637 16.0836L2 24M10.083 23.6948L2.30479 15.9166M32.0836 21.9164L40 14M40 14L31.917 14M40 14V21.9164M24 10.25C24 14.8063 20.3064 18.5 15.75 18.5C11.1937 18.5 7.5 14.8063 7.5 10.25C7.5 5.69365 11.1937 2 15.75 2C20.3064 2 24 5.69365 24 10.25ZM18 27.75C18 23.1936 21.6937 19.5 26.25 19.5C30.8064 19.5 34.5 23.1937 34.5 27.75C34.5 32.3063 30.8063 36 26.25 36C21.6937 36 18 32.3063 18 27.75Z" stroke="#795BDA" stroke-width="2.7" stroke-linecap="round" stroke-linejoin="round"/>
</svg>
