<svg width="48" height="48" viewBox="0 0 48 48" fill="none" xmlns="http://www.w3.org/2000/svg">
<path d="M8.07422 23.3623C8.07422 30.3986 14.0859 34.527 21.8153 34.527C22.3577 34.527 22.9001 34.4968 23.4425 34.4667C24.1055 34.7379 24.889 34.8886 25.7628 34.8886C28.0229 34.8886 30.2829 34.2859 32.3019 33.2463C32.317 33.3517 32.317 33.4723 32.317 33.5777C32.317 35.2954 31.3075 36.9979 29.6501 38.0677C29.1228 38.4293 28.7762 38.8361 28.7762 39.4539C28.7762 40.162 29.3488 40.7346 30.1925 40.7346C30.5692 40.7346 30.8253 40.6291 31.1568 40.4031C33.5826 38.8361 35.0893 36.2145 35.0893 33.5476C35.0893 32.8696 34.9989 32.2217 34.8331 31.619C37.8465 29.2385 39.9107 25.8032 39.9107 22.0515C39.9107 14.6235 33.5073 9.50073 25.4615 9.50073C16.6021 9.50073 8.07422 15.1358 8.07422 23.3623ZM10.8465 23.3774C10.8465 16.8383 18.1088 12.2881 25.4766 12.2881C31.88 12.2881 37.1384 16.1603 37.1384 22.0515C37.1384 24.7184 35.707 27.2195 33.5826 29.0727C32.2416 27.3852 30.1323 26.3456 27.6763 26.3456C23.9548 26.3456 21.1825 28.3043 21.1825 31.1821C21.1825 31.378 21.1975 31.5738 21.2277 31.7546C15.3817 31.5437 10.8465 28.681 10.8465 23.3774ZM23.9699 31.1369C23.9699 29.9466 25.6875 29.133 27.8571 29.133C29.2885 29.133 30.4939 29.7055 31.2924 30.6548C29.5898 31.5889 27.6613 32.1313 25.7628 32.1313C24.7383 32.1313 23.9699 31.7245 23.9699 31.1369Z" fill="#795BDA"/>
</svg>
