<svg width="48" height="48" viewBox="0 0 48 48" fill="none" xmlns="http://www.w3.org/2000/svg">
<path d="M40.3477 18.7367C40.3477 13.418 36.9425 9.06369 32.5731 9.06369H27.6161C25.582 8.02407 23.1713 7.42139 20.5195 7.42139H18.4102C16.4515 7.42139 14.779 7.54192 13.6942 7.81313C11.4794 8.35554 10.0781 9.93757 10.0781 11.9113C10.0781 12.2579 10.1384 12.5894 10.2288 12.9058C9.18917 13.7194 8.60156 14.8946 8.60156 16.1904C8.60156 16.793 8.7221 17.3807 8.93304 17.8779C8.23996 18.6161 7.83315 19.6859 7.83315 20.7858C7.83315 21.509 8.01395 22.2473 8.31529 22.8198C7.89342 23.4526 7.65234 24.3115 7.65234 25.2607C7.65234 27.6714 9.49051 29.5246 11.8711 29.5246H17.476C17.7924 29.5246 18.0033 29.6753 17.9883 29.9616C17.9129 31.5135 15.4721 35.2501 15.4721 38.3087C15.4721 40.5536 17.0541 42.1959 19.2388 42.1959C20.8209 42.1959 21.9057 41.3673 22.9453 39.3935C24.8287 35.7774 27.0887 32.6134 30.4487 28.4699H33.1456C37.2439 28.4699 40.3477 24.1457 40.3477 18.7367ZM30.9609 18.8572C30.9609 22.0514 30.2528 24.0855 28.2037 26.8276C25.9286 29.8712 22.7645 33.5475 20.4894 38.0977C20.0073 39.0469 19.6758 39.273 19.2087 39.273C18.6362 39.273 18.2595 38.8661 18.2595 38.1429C18.2595 35.913 20.8058 32.1764 20.8058 29.7205C20.8058 27.9125 19.3443 26.7372 17.3555 26.7372H11.9464C11.0725 26.7372 10.4247 26.0894 10.4247 25.2155C10.4247 24.5977 10.6356 24.1909 11.1479 23.6786C11.5396 23.2718 11.5999 22.6993 11.2533 22.3075C10.8164 21.6898 10.6356 21.2981 10.6356 20.7858C10.6356 20.168 10.9219 19.6407 11.5246 19.1887C12.0368 18.8271 12.2176 18.2093 11.9163 17.6067C11.5999 17.004 11.4342 16.6876 11.4342 16.2205C11.4342 15.4973 11.9012 14.9398 12.8354 14.4426C13.3326 14.1714 13.4682 13.644 13.2573 13.1619C12.9408 12.3935 12.8956 12.2579 12.9107 11.9264C12.9107 11.2785 13.3778 10.7663 14.3873 10.5101C15.2762 10.2841 16.6925 10.1937 18.5608 10.2088L20.5045 10.2238C26.7422 10.2841 30.9609 13.7796 30.9609 18.8572ZM37.6205 18.7367C37.6205 22.5637 35.6468 25.6223 33.3867 25.7127C32.995 25.7277 32.6032 25.7277 32.2115 25.7277C33.2812 23.6334 33.7483 21.4638 33.7483 18.8572C33.7483 16.0849 32.784 13.644 31.0363 11.7305C31.5938 11.7305 32.1663 11.7456 32.7388 11.7456C35.3756 11.8511 37.6205 14.9398 37.6205 18.7367Z" fill="#795BDA"/>
</svg>
