<svg width="48" height="28" viewBox="0 0 48 28" fill="none" xmlns="http://www.w3.org/2000/svg">
<path d="M1.39806 27.2037C2.1699 27.2037 2.78155 26.5775 2.78155 25.8057C2.78155 13.1358 12.3204 2.78154 24 2.78154C35.6942 2.78154 45.2184 13.1358 45.2184 25.8057C45.2184 26.5775 45.8447 27.2037 46.6019 27.2037C47.3884 27.2037 48 26.5775 48 25.8057C48 11.5922 37.2233 0 24 0C10.7767 0 0 11.5922 0 25.8057C0 26.5775 0.626214 27.2037 1.39806 27.2037ZM24.0291 16.296C26.6359 16.296 28.8786 13.9514 28.8786 10.9368C28.8786 7.98054 26.6359 5.73783 24.0291 5.73783C21.4078 5.73783 19.165 8.02422 19.165 10.966C19.165 13.9514 21.3932 16.296 24.0291 16.296ZM8.83981 27.1892C9.59709 27.1892 10.2233 26.5629 10.2233 25.8057C10.2233 20.5047 12.932 15.6552 17.199 13.0048C16.9369 12.0727 16.8641 10.9514 17.068 9.90285C11.2427 12.7426 7.44175 18.9319 7.44175 25.8057C7.44175 26.5629 8.0534 27.1892 8.83981 27.1892ZM39.1602 27.1892C39.9466 27.1892 40.5583 26.5629 40.5583 25.8057C40.5583 18.9611 36.7718 12.7863 30.9757 9.93198C31.165 10.9514 31.1068 12.0436 30.8301 13.0485C35.0971 15.6552 37.7767 20.5047 37.7767 25.8057C37.7767 26.5629 38.4029 27.1892 39.1602 27.1892ZM16.0049 27.4804H32.0243C33.3641 27.4804 34.1796 26.8542 34.1796 25.7911C34.1796 22.6892 30.2476 18.4222 24.0291 18.4222C17.7816 18.4222 13.8495 22.6892 13.8495 25.7911C13.8495 26.8542 14.665 27.4804 16.0049 27.4804Z" fill="#FF5C8D"/>
</svg>
