<svg width="48" height="48" viewBox="0 0 48 48" fill="none" xmlns="http://www.w3.org/2000/svg">
<path d="M1.39806 36.6221C2.1699 36.6221 2.78155 35.9958 2.78155 35.224C2.78155 22.5542 12.3204 12.1999 24 12.1999C35.6942 12.1999 45.2184 22.5542 45.2184 35.224C45.2184 35.9958 45.8447 36.6221 46.6019 36.6221C47.3884 36.6221 48 35.9958 48 35.224C48 21.0105 37.2233 9.41833 24 9.41833C10.7767 9.41833 0 21.0105 0 35.224C0 35.9958 0.626214 36.6221 1.39806 36.6221ZM24.0291 25.7144C26.6359 25.7144 28.8786 23.3697 28.8786 20.3552C28.8786 17.3989 26.6359 15.1562 24.0291 15.1562C21.4078 15.1562 19.165 17.4426 19.165 20.3843C19.165 23.3697 21.3932 25.7144 24.0291 25.7144ZM8.83981 36.6075C9.59709 36.6075 10.2233 35.9813 10.2233 35.224C10.2233 29.9231 12.932 25.0736 17.199 22.4231C16.9369 21.4911 16.8641 20.3697 17.068 19.3212C11.2427 22.161 7.44175 28.3503 7.44175 35.224C7.44175 35.9813 8.0534 36.6075 8.83981 36.6075ZM39.1602 36.6075C39.9466 36.6075 40.5583 35.9813 40.5583 35.224C40.5583 28.3794 36.7718 22.2047 30.9757 19.3503C31.1651 20.3697 31.1068 21.462 30.8301 22.4668C35.0971 25.0736 37.7767 29.9231 37.7767 35.224C37.7767 35.9813 38.4029 36.6075 39.1602 36.6075ZM16.0049 36.8988H32.0243C33.3641 36.8988 34.1796 36.2725 34.1796 35.2094C34.1796 32.1075 30.2476 27.8406 24.0291 27.8406C17.7816 27.8406 13.8495 32.1075 13.8495 35.2094C13.8495 36.2725 14.665 36.8988 16.0049 36.8988Z" fill="#795BDA"/>
</svg>
