<svg width="48" height="48" viewBox="0 0 48 48" fill="none" xmlns="http://www.w3.org/2000/svg">
<path d="M34.8479 36.1301C39.5488 36.1301 43.2553 32.6798 43.2553 28.3706C43.2553 25.1614 41.4322 22.3137 38.4339 21.0632C38.4489 14.2529 33.5371 9.34106 27.2241 9.34106C23.2162 9.34106 20.2028 11.4052 18.3195 14.1474C14.4925 13.1229 10.4696 15.9705 10.3189 20.2194C6.86858 20.8372 4.74414 23.9259 4.74414 27.7077C4.74414 32.2881 8.75195 36.1151 14.0254 36.1151L34.8479 36.1301ZM34.8479 33.1167H33.3412C32.166 30.691 29.2732 28.1748 24.9489 28.1748C20.6097 28.1748 17.7319 30.691 16.5416 33.1167H14.0405C10.4545 33.1167 7.78767 30.6156 7.78767 27.7077C7.78767 24.6943 9.6409 22.4644 12.7146 22.4644C12.9406 22.4644 13.031 22.3439 13.0159 22.1329C12.9255 17.658 16.1348 16.1212 19.3742 17.1458C19.57 17.206 19.6906 17.1608 19.781 16.9951C21.2726 14.3734 23.4724 12.3394 27.209 12.3394C31.94 12.3394 35.315 16.0911 35.541 20.4756C35.5862 21.2892 35.5259 22.1631 35.4657 22.8863C35.4355 23.0972 35.5259 23.2177 35.7218 23.2479C38.4489 23.7752 40.2118 25.7038 40.2118 28.3706C40.2118 31.0074 37.8764 33.1167 34.8479 33.1167ZM24.9489 26.3818C27.1638 26.3969 28.9568 24.3779 28.9568 21.9822C28.9568 19.6318 27.1638 17.7032 24.9489 17.7032C22.719 17.7032 20.9261 19.6318 20.9261 21.9822C20.9411 24.3628 22.719 26.3667 24.9489 26.3818Z" fill="#795BDA"/>
</svg>
