<svg width="46" height="22" viewBox="0 0 46 22" fill="none" xmlns="http://www.w3.org/2000/svg">
<path fill-rule="evenodd" clip-rule="evenodd" d="M31.8968 21.0787H8.27176C5.52958 21.0787 3.39007 20.7773 1.8231 19.2254C0.286272 17.6886 0 15.5491 0 12.8069V8.22656C0 5.52958 0.286272 3.40513 1.83817 1.85324C3.375 0.301339 5.52958 0 8.22656 0H31.8968C34.639 0 36.7785 0.301339 38.3454 1.85324C39.8823 3.39007 40.1685 5.51451 40.1685 8.27176V12.8069C40.1685 15.5491 39.8823 17.6735 38.3454 19.2254C36.7935 20.7773 34.639 21.0787 31.8968 21.0787ZM3.99275 17.0709C4.8365 17.8996 6.29799 18.1256 7.84989 18.1256H32.3186C33.8856 18.1256 35.3471 17.9146 36.1758 17.0709C37.0195 16.2271 37.2154 14.7958 37.2154 13.2288V7.84989C37.2154 6.28292 37.0195 4.85156 36.1758 4.00781C35.3471 3.16406 33.8856 2.95312 32.3186 2.95312H7.88002C6.29799 2.95312 4.82143 3.16406 3.97768 4.00781C3.149 4.85156 2.95312 6.29799 2.95312 7.88002V13.2288C2.95312 14.7958 3.149 16.2271 3.99275 17.0709ZM45.2913 10.5318C45.2913 12.9425 43.6189 14.5396 42.3683 14.615V6.44866C43.6189 6.524 45.2913 8.13616 45.2913 10.5318ZM17.6455 10.6795C17.6455 10.8754 17.8001 11.0301 17.9933 11.0301H20.3122L19.0658 14.5462C18.8919 15.0514 19.404 15.3402 19.7228 14.9277L23.5199 9.8752C23.5972 9.7824 23.6455 9.66898 23.6455 9.56587C23.6455 9.36995 23.4813 9.21529 23.288 9.21529H20.6408L22.2156 5.70946C22.3895 5.1939 21.8774 4.90519 21.5682 5.32795L17.7614 10.3701C17.6842 10.4733 17.6455 10.5764 17.6455 10.6795Z" fill="#795BDA"/>
</svg>
