<svg width="31" height="29" viewBox="0 0 31 29" fill="none" xmlns="http://www.w3.org/2000/svg">
<path fill-rule="evenodd" clip-rule="evenodd" d="M0 9.41685C0 15.8504 5.40904 22.2087 13.8164 27.6328C14.2835 27.9342 14.856 28.2355 15.2478 28.2355C15.6395 28.2355 16.2121 27.9342 16.6791 27.6328C25.1016 22.2087 30.4955 15.8504 30.4955 9.41685C30.4955 3.85714 26.6535 0 21.7266 0C18.8488 0 16.6038 1.31083 15.2478 3.29967C13.9219 1.32589 11.6618 0 8.78404 0C3.84208 0 0 3.85714 0 9.41685ZM4.19195 5.52905C5.23415 3.96031 6.94419 3.02846 8.96484 3.02846C11.3192 3.02846 12.7766 4.26614 13.741 5.52905L4.19195 5.52905ZM3.32448 7.52905C3.18028 8.11114 3.10379 8.7378 3.10379 9.40179C3.10379 9.77497 3.1311 10.151 3.18408 10.5291H27.3265C27.3795 10.151 27.4068 9.77497 27.4068 9.40179C27.4068 8.7378 27.3303 8.11114 27.186 7.52906L3.32448 7.52905ZM26.3177 5.52906C25.2741 3.96031 23.5604 3.02846 21.5307 3.02846C19.195 3.02846 17.786 4.28282 16.7849 5.52905L26.3177 5.52906ZM3.68952 12.5291H26.8211C26.4611 13.5289 25.9454 14.5335 25.303 15.5291H5.2076C4.56524 14.5335 4.04955 13.5289 3.68952 12.5291ZM6.67321 17.5291H23.8374C22.9973 18.5547 22.0392 19.56 20.9965 20.5291H9.51409C8.47143 19.56 7.51329 18.5547 6.67321 17.5291ZM11.8465 22.5291C12.8507 23.3263 13.9016 24.087 14.9766 24.8002C15.0971 24.8906 15.1875 24.9509 15.2478 24.9509C15.308 24.9509 15.3984 24.8906 15.534 24.8002C16.609 24.087 17.6599 23.3263 18.6641 22.5291H11.8465Z" fill="#795BDA"/>
</svg>
