<svg width="48" height="48" viewBox="0 0 48 48" fill="none" xmlns="http://www.w3.org/2000/svg">
<path d="M3.70396 36.0486H44.2944C45.3491 36.0486 46.2229 35.1747 46.2229 34.12C46.2229 33.0503 45.3491 32.1764 44.2944 32.1764H41.1152V14.4125C41.1152 12.0469 39.8195 10.7964 37.469 10.7964H10.5293C8.26925 10.7964 6.88309 12.0469 6.88309 14.4125V32.1764H3.70396C2.64927 32.1764 1.77539 33.0503 1.77539 34.12C1.77539 35.1747 2.64927 36.0486 3.70396 36.0486ZM9.88142 15.211C9.88142 14.2467 10.3485 13.7947 11.2977 13.7947H36.7006C37.6348 13.7947 38.1169 14.2467 38.1169 15.211V32.1764H9.88142V15.211Z" fill="#795BDA"/>
</svg>
