<svg width="48" height="48" viewBox="0 0 48 48" fill="none" xmlns="http://www.w3.org/2000/svg">
<path d="M7.48633 36.4405C7.48633 37.2239 7.9986 37.7362 8.78209 37.7362H38.9612C39.7899 37.7362 40.4528 37.1034 40.4528 36.2597C40.4528 35.4159 39.7899 34.7831 38.9612 34.7831H10.8613C10.5449 34.7831 10.4395 34.6776 10.4395 34.3612V27.9728L16.647 21.5995C16.7676 21.4639 16.9182 21.4036 17.0388 21.4036C17.1593 21.4036 17.31 21.4639 17.4456 21.5995L22.8245 27.1592C23.5025 27.8975 24.2257 28.2139 24.9791 28.2139C25.7324 28.2139 26.4255 27.8824 27.1487 27.1743L33.3412 20.9516L35.7068 23.3322C36.3396 23.965 37.2285 23.5883 37.4696 22.6843L39.7296 13.8099C39.9556 12.9812 39.2174 12.2731 38.3887 12.484L29.5444 14.744C28.6403 14.9851 28.2486 15.8439 28.8965 16.4918L31.2469 18.8573L25.3859 24.8088C25.2653 24.9444 25.1147 25.0197 24.9941 25.0197C24.8585 25.0197 24.7229 24.9444 24.5873 24.8088L19.2084 19.2491C18.5153 18.5258 17.7921 18.1944 17.0388 18.1944C16.2854 18.1944 15.6225 18.4957 14.8842 19.2491L10.4395 23.7541V10.676C10.4395 9.84727 9.80664 9.18433 8.96289 9.18433C8.11914 9.18433 7.48633 9.84727 7.48633 10.676V36.4405Z" fill="#795BDA"/>
</svg>
