<svg width="48" height="48" viewBox="0 0 48 48" fill="none" xmlns="http://www.w3.org/2000/svg">
<path d="M26.6074 43.2658C32.815 43.2658 36.5516 41.0359 36.5516 37.3143V29.148C39.1582 26.8579 40.68 23.1966 40.68 19.1436C40.68 9.72672 34.5778 3.45886 25.4171 3.45886C16.3016 3.45886 10.2296 9.59112 10.2296 18.8121C10.2296 19.3244 10.2447 19.7613 10.2899 20.1832L8.12026 24.0705C7.56278 25.0498 7.30664 25.984 7.30664 26.8579C7.30664 28.5152 8.34626 29.8562 10.2296 30.2479V33.3065C10.2296 36.3952 12.3541 37.9321 15.3072 37.6157L16.8139 37.4499C16.9043 41.0961 20.5656 43.2658 26.6074 43.2658ZM26.6074 40.3579C22.2079 40.3579 19.5711 39.0018 19.5711 36.8171V34.7529C19.5711 34.4064 19.3602 34.2407 19.0287 34.2708L14.9607 34.7077C13.7704 34.8433 13.1376 34.3311 13.1376 33.0805V28.2892C13.1376 28.0481 12.9568 27.8824 12.7006 27.8824H11.8719C10.9076 27.8824 10.3502 27.4003 10.3502 26.6469C10.3502 26.2552 10.4858 25.7881 10.757 25.321L13.2882 20.7708C13.1828 20.0928 13.1225 19.4298 13.1225 18.7669C13.1225 11.3238 18.0343 6.36679 25.4171 6.36679C32.8301 6.36679 37.772 11.4745 37.772 19.1436C37.772 22.8802 36.2051 26.1196 33.6286 27.6865V36.8171C33.6286 39.0018 30.9919 40.3579 26.6074 40.3579Z" fill="#795BDA"/>
<path fill-rule="evenodd" clip-rule="evenodd" d="M21.35 14.0001C22.0956 14.0001 22.7 14.6045 22.7 15.3501L22.7 17.3501C22.7 18.0957 22.0956 18.7001 21.35 18.7001C20.6044 18.7001 20 18.0957 20 17.3501L20 15.3501C20 14.6045 20.6044 14.0001 21.35 14.0001Z" fill="#795BDA"/>
<path fill-rule="evenodd" clip-rule="evenodd" d="M25.35 12.0001C26.0956 12.0001 26.7 12.6045 26.7 13.3501L26.7 19.3501C26.7 20.0957 26.0956 20.7001 25.35 20.7001C24.6044 20.7001 24 20.0957 24 19.3501L24 13.3501C24 12.6045 24.6044 12.0001 25.35 12.0001Z" fill="#795BDA"/>
<path fill-rule="evenodd" clip-rule="evenodd" d="M29.35 14.0001C30.0956 14.0001 30.7 14.6045 30.7 15.3501L30.7 17.3501C30.7 18.0957 30.0956 18.7001 29.35 18.7001C28.6044 18.7001 28 18.0957 28 17.3501L28 15.3501C28 14.6045 28.6044 14.0001 29.35 14.0001Z" fill="#795BDA"/>
</svg>
