<svg width="48" height="48" viewBox="0 0 48 48" fill="none" xmlns="http://www.w3.org/2000/svg">
<path fill-rule="evenodd" clip-rule="evenodd" d="M8.73633 19.8879C8.73633 26.3215 14.1454 32.6798 22.5527 38.1039C23.0198 38.4052 23.5924 38.7066 23.9841 38.7066C24.3758 38.7066 24.9484 38.4052 25.4155 38.1039C33.8379 32.6798 39.2319 26.3215 39.2319 19.8879C39.2319 14.3282 35.3898 10.4711 30.4629 10.4711C27.5851 10.4711 25.3401 11.7819 23.9841 13.7707C22.6582 11.797 20.3982 10.4711 17.5204 10.4711C12.5784 10.4711 8.73633 14.3282 8.73633 19.8879ZM12.9283 16.0001C13.9705 14.4314 15.6805 13.4995 17.7012 13.4995C20.0556 13.4995 21.5129 14.7372 22.4774 16.0001L12.9283 16.0001ZM12.0608 18.0001C11.9166 18.5822 11.8401 19.2089 11.8401 19.8729C11.8401 20.246 11.8674 20.622 11.9204 21.0001H36.0629C36.1158 20.622 36.1431 20.246 36.1431 19.8729C36.1431 19.2089 36.0666 18.5822 35.9224 18.0001L12.0608 18.0001ZM35.054 16.0001C34.0104 14.4314 32.2967 13.4995 30.267 13.4995C27.9313 13.4995 26.5223 14.7539 25.5212 16.0001L35.054 16.0001ZM12.4258 23.0001H35.5574C35.1974 24 34.6817 25.0046 34.0393 26.0001H13.9439C13.3016 25.0046 12.7859 24 12.4258 23.0001ZM15.4095 28.0001H32.5737C31.7336 29.0257 30.7755 30.0311 29.7328 31.0001H18.2504C17.2078 30.0311 16.2496 29.0257 15.4095 28.0001ZM20.5828 33.0001C21.587 33.7974 22.6379 34.558 23.7129 35.2713C23.8334 35.3617 23.9238 35.422 23.9841 35.422C24.0444 35.422 24.1348 35.3617 24.2704 35.2713C25.3454 34.558 26.3963 33.7974 27.4005 33.0001H20.5828Z" fill="#795BDA"/>
</svg>
