<svg width="48" height="48" viewBox="0 0 48 48" fill="none" xmlns="http://www.w3.org/2000/svg">
<path d="M9.62528 33.9544H33.2503C35.9925 33.9544 38.147 33.6531 39.6989 32.1012C41.2358 30.5493 41.522 28.4248 41.522 25.6827V21.1475C41.522 18.3902 41.2358 16.2658 39.6989 14.729C38.132 13.1771 35.9925 12.8757 33.2503 12.8757H9.58008C6.88309 12.8757 4.72852 13.1771 3.19169 14.729C1.63979 16.2809 1.35352 18.4053 1.35352 21.1023V25.6827C1.35352 28.4248 1.63979 30.5643 3.17662 32.1012C4.74358 33.6531 6.88309 33.9544 9.62528 33.9544ZM9.2034 31.0013C7.65151 31.0013 6.19001 30.7753 5.34626 29.9466C4.50251 29.1029 4.30664 27.6715 4.30664 26.1045V20.7558C4.30664 19.1737 4.50251 17.7273 5.33119 16.8835C6.17494 16.0398 7.65151 15.8289 9.23354 15.8289H33.6722C35.2391 15.8289 36.7006 16.0398 37.5293 16.8835C38.373 17.7273 38.5689 19.1587 38.5689 20.7256V26.1045C38.5689 27.6715 38.373 29.1029 37.5293 29.9466C36.7006 30.7904 35.2391 31.0013 33.6722 31.0013H9.2034ZM43.7218 27.4907C44.9724 27.4154 46.6448 25.8183 46.6448 23.4075C46.6448 21.0119 44.9724 19.3997 43.7218 19.3244V27.4907Z" fill="#795BDA"/>
<path d="M19.3478 23.9058C19.1546 23.9058 19 23.7511 19 23.5552C19 23.4521 19.0386 23.349 19.1159 23.2459L22.9227 18.2037C23.2319 17.7809 23.744 18.0696 23.57 18.5852L21.9953 22.091H24.6425C24.8357 22.091 25 22.2457 25 22.4416C25 22.5447 24.9517 22.6581 24.8744 22.7509L21.0773 27.8034C20.7585 28.2159 20.2464 27.9272 20.4203 27.4219L21.6667 23.9058H19.3478Z" fill="#795BDA"/>
</svg>
