<svg width="48" height="48" viewBox="0 0 48 48" fill="none" xmlns="http://www.w3.org/2000/svg">
<path d="M16.829 40.2222C17.6878 40.2222 18.3206 39.8003 19.3602 38.8812L24.5282 34.331H33.5985C38.1336 34.331 40.68 31.7094 40.68 27.2345V15.5274C40.68 11.0526 38.1336 8.43091 33.5985 8.43091H14.3881C9.86802 8.43091 7.30664 11.0526 7.30664 15.5274V27.2345C7.30664 31.7244 9.94336 34.331 14.2826 34.331H14.9004V38.0224C14.9004 39.3634 15.6085 40.2222 16.829 40.2222ZM17.5823 36.8472V32.5531C17.5823 31.6642 17.1906 31.3176 16.3468 31.3176H14.4936C11.661 31.3176 10.305 29.8863 10.305 27.1441V15.6179C10.305 12.8757 11.661 11.4443 14.4936 11.4443H33.5081C36.3256 11.4443 37.6816 12.8757 37.6816 15.6179V27.1441C37.6816 29.8863 36.3256 31.3176 33.5081 31.3176H24.3624C23.4434 31.3176 22.9914 31.4683 22.3585 32.1312L17.5823 36.8472ZM24.0008 23.8745C24.8295 23.8745 25.2966 23.4075 25.3267 22.5336L25.5527 15.2864C25.5829 14.3974 24.9199 13.7495 23.9858 13.7495C23.0516 13.7495 22.4037 14.3824 22.4339 15.2713L22.6448 22.5336C22.6749 23.3924 23.1571 23.8745 24.0008 23.8745ZM24.0008 28.8768C24.9802 28.8768 25.7787 28.1686 25.7787 27.2043C25.7787 26.2551 24.9802 25.547 24.0008 25.547C23.0215 25.547 22.2229 26.2551 22.2229 27.2043C22.2229 28.1536 23.0366 28.8768 24.0008 28.8768Z" fill="#795BDA"/>
</svg>
