<svg width="32" height="32" viewBox="0 0 32 32" fill="none" xmlns="http://www.w3.org/2000/svg">
<path d="M4.95496 26.8752C10.9621 32.8823 20.8811 32.8799 26.8806 26.8805C32.88 20.881 32.8718 10.9514 26.8647 4.94426C20.8681 -1.0523 10.9597 -1.03931 4.96026 4.96015C-1.03921 10.9596 -1.04161 20.8786 4.95496 26.8752ZM7.13851 24.6916C2.27557 19.8287 2.29865 12.0291 7.16394 7.16384C12.0292 2.29855 19.8182 2.28607 24.6705 7.13841C29.5335 12.0014 29.5422 19.8115 24.6875 24.6874C19.8328 29.5633 12.0014 29.5546 7.13851 24.6916ZM7.20383 17.4855L13.8059 17.4733C14.1238 17.4732 14.3357 17.6851 14.3356 18.003L14.3234 24.6051C14.3337 25.9509 15.7643 26.2367 16.2414 25.1027L22.4018 11.0175C22.8789 9.92591 21.8724 8.94061 20.7596 9.41776L6.70623 15.5675C5.59341 16.0447 5.85799 17.4752 7.20383 17.4855Z" fill="#FF5C8D"/>
</svg>
