<svg width="33" height="29" viewBox="0 0 33 29" fill="none" xmlns="http://www.w3.org/2000/svg">
<path d="M27.5332 10.7879C28.3836 10.7879 28.9151 10.3182 28.9606 9.69697C28.9606 9.63636 28.9606 9.56061 28.9606 9.51515C29.0214 8.72727 29.5529 8.21212 30.5399 7.57576C32.0433 6.59091 33 5.71212 33 3.9697C33 1.45455 30.7222 0 28.0191 0C25.4224 0 23.6457 1.18182 23.1749 2.60606C23.0838 2.86364 23.0231 3.13636 23.0231 3.40909C23.0231 4.13636 23.6001 4.59091 24.2986 4.59091C25.1946 4.59091 25.392 4.13636 25.8476 3.62121C26.3487 2.86364 26.9865 2.42424 27.8825 2.42424C29.0821 2.42424 29.8566 3.10606 29.8566 4.12121C29.8566 5.04545 29.2188 5.54545 27.9432 6.43939C26.865 7.18182 26.0754 7.95455 26.0754 9.31818V9.48485C26.0754 10.3485 26.6069 10.7879 27.5332 10.7879ZM27.518 15.4545C28.4899 15.4545 29.2947 14.7424 29.2947 13.7727C29.2947 12.8182 28.5051 12.1061 27.518 12.1061C26.5309 12.1061 25.7261 12.8182 25.7261 13.7727C25.7261 14.7273 26.5309 15.4545 27.518 15.4545Z" fill="#FF5C8D"/>
<path d="M13.3633 14.9091C17.0382 14.9091 20.0146 11.6667 20.0146 7.69697C20.0146 3.78788 17.0382 0.681818 13.3633 0.681818C9.7036 0.681818 6.69685 3.83333 6.71204 7.72727C6.72722 11.6818 9.68841 14.9091 13.3633 14.9091ZM13.3633 12.2576C11.2677 12.2576 9.491 10.2727 9.491 7.72727C9.47582 5.24242 11.2525 3.33333 13.3633 3.33333C15.4893 3.33333 17.2357 5.21212 17.2357 7.69697C17.2357 10.2424 15.4741 12.2576 13.3633 12.2576ZM3.88751 29H22.824C25.4511 29 26.7115 28.1667 26.7115 26.3788C26.7115 22.2121 21.5028 16.6667 13.3633 16.6667C5.22385 16.6667 0 22.2121 0 26.3788C0 28.1667 1.26041 29 3.88751 29ZM3.41676 26.3485C3.05231 26.3485 2.91564 26.2273 2.91564 25.9545C2.91564 23.6364 6.66648 19.3182 13.3633 19.3182C20.045 19.3182 23.7958 23.6364 23.7958 25.9545C23.7958 26.2273 23.6592 26.3485 23.2947 26.3485H3.41676Z" fill="#FF5C8D"/>
</svg>
