<svg width="36" height="36" fill="none" xmlns="http://www.w3.org/2000/svg"><path d="M19.954 32.449c4.656 0 7.458-1.672 7.458-4.464v-6.124c1.955-1.718 3.097-4.464 3.097-7.504 0-7.062-4.577-11.763-11.448-11.763-6.836 0-11.39 4.599-11.39 11.515 0 .384.011.712.045 1.028l-1.627 2.915c-.418.735-.61 1.436-.61 2.091 0 1.243.78 2.249 2.192 2.543v2.294c0 2.316 1.593 3.469 3.808 3.231l1.13-.124c.068 2.735 2.814 4.362 7.345 4.362Zm0-2.181c-3.3 0-5.277-1.017-5.277-2.656v-1.548c0-.26-.158-.384-.407-.361l-3.051.327c-.893.102-1.367-.282-1.367-1.22v-3.593c0-.181-.136-.306-.328-.306h-.622c-.723 0-1.14-.361-1.14-.926 0-.294.1-.644.304-.995l1.899-3.412a9.745 9.745 0 0 1-.125-1.503c0-5.583 3.684-9.3 9.221-9.3 5.56 0 9.267 3.83 9.267 9.582 0 2.803-1.176 5.232-3.108 6.408v6.847c0 1.639-1.977 2.656-5.266 2.656Z" fill="#795BDA"/><path fill-rule="evenodd" clip-rule="evenodd" d="M14.475 10.892C14.826 8.965 16.57 7.5 18.672 7.5c1.648 0 2.917.8 3.653 1.998 1.848.115 3.325 1.423 3.325 3.238 0 1.838-1.533 3.265-3.486 3.265h-1.918a.543.543 0 0 1 .088.123c.116.22.05.437-.022.565l-.126.23h.338c.214 0 .473.11.567.389a.607.607 0 0 1-.174.633l-.002.002-2.424 2.278-.001.001a.607.607 0 0 1-.605.15l-.012-.003-.012-.005a.528.528 0 0 1-.325-.363.576.576 0 0 1 .038-.384l.424-.982h-.23a.607.607 0 0 1-.507-.242c-.158-.224-.096-.465-.037-.593m0 0 .718-1.556a.736.736 0 0 1 .17-.243h-2.398c-.878 0-1.62-.274-2.149-.757a2.524 2.524 0 0 1-.815-1.89c0-1.184.745-2.07 1.725-2.462m1.811.73c-.016.181-.06.394-.212.575-.153.182-.358.266-.546.316h-.005c-.369.093-.587.235-.712.376a.71.71 0 0 0-.178.49c0 .237.082.416.228.543.153.132.421.246.858.246h6.476c.946 0 1.572-.654 1.572-1.408 0-.389-.153-.733-.448-.986-.3-.256-.779-.446-1.466-.446-.19 0-.396-.023-.585-.127a1.024 1.024 0 0 1-.413-.442v-.002c-.492-.942-1.249-1.423-2.183-1.423-1.22 0-2.251.897-2.386 2.289Z" fill="#795BDA"/></svg>