<svg width="48" height="48" fill="none" xmlns="http://www.w3.org/2000/svg"><g clip-path="url('#clip0_959_1183')"><path d="M24 23.558c3.646 0 6.599-3.21 6.599-7.157 0-3.887-2.938-6.99-6.6-6.99-3.616 0-6.599 3.148-6.599 7.02.015 3.933 2.953 7.127 6.6 7.127Zm-17.478.347c3.179 0 5.74-2.818 5.74-6.298 0-3.39-2.561-6.133-5.74-6.133-3.15 0-5.756 2.788-5.74 6.148 0 3.48 2.576 6.283 5.74 6.283Zm34.955 0c3.15 0 5.726-2.803 5.74-6.283.016-3.36-2.59-6.148-5.74-6.148-3.179 0-5.755 2.742-5.755 6.133 0 3.48 2.576 6.298 5.755 6.298ZM24 20.92c-2.079 0-3.842-1.958-3.842-4.505 0-2.456 1.748-4.37 3.842-4.37 2.11 0 3.843 1.884 3.843 4.355 0 2.532-1.748 4.52-3.843 4.52Zm-17.477.377c-1.703 0-3.15-1.627-3.15-3.676 0-1.96 1.432-3.556 3.15-3.556 1.748 0 3.164 1.567 3.164 3.54 0 2.065-1.447 3.692-3.164 3.692Zm34.955 0c-1.733 0-3.164-1.627-3.164-3.691 0-1.974 1.416-3.541 3.164-3.541 1.703 0 3.15 1.597 3.15 3.556 0 2.049-1.447 3.676-3.15 3.676ZM-1.765 37.751H9.942c-.829-.482-1.386-1.582-1.28-2.576H-1.902c-.286 0-.406-.136-.406-.392 0-3.45 4.037-6.735 8.814-6.735 1.687 0 3.375.422 4.67 1.145a7.042 7.042 0 0 1 1.974-1.913c-1.913-1.176-4.294-1.809-6.644-1.809-6.374 0-11.527 4.55-11.527 9.553 0 1.808 1.085 2.727 3.255 2.727Zm51.529 0c2.17 0 3.254-.919 3.254-2.727 0-5.002-5.168-9.553-11.54-9.553-2.336 0-4.732.633-6.63 1.809a6.79 6.79 0 0 1 1.958 1.913c1.296-.723 2.999-1.145 4.671-1.145 4.776 0 8.83 3.285 8.83 6.735 0 .256-.121.392-.407.392H39.322c.106.994-.436 2.094-1.265 2.576h11.707Zm-35.151 0h18.773c2.607 0 3.857-.829 3.857-2.606 0-4.144-5.168-9.658-13.244-9.658-8.075 0-13.258 5.514-13.258 9.658 0 1.777 1.265 2.606 3.872 2.606Zm-.482-2.637c-.347 0-.483-.12-.483-.391 0-2.306 3.722-6.6 10.351-6.6 6.63 0 10.351 4.294 10.351 6.6 0 .27-.135.391-.497.391H14.131Z" fill="#795BDA"/></g><defs><clipPath id="clip0_959_1183"><path fill="#fff" d="M0 0h48v48H0z"/></clipPath></defs></svg>