<svg width="36" height="36" fill="none" xmlns="http://www.w3.org/2000/svg"><path d="M27.985 21.086c.508.317 1.13.193 1.48-.316 1.47-2.08 2.328-4.86 2.328-7.718 0-2.87-.848-5.661-2.328-7.73-.35-.508-.972-.632-1.48-.304-.531.327-.61.994-.215 1.582 1.21 1.751 1.899 4.056 1.899 6.452 0 2.384-.712 4.678-1.899 6.441-.384.588-.316 1.254.215 1.593ZM15 18.408c2.723 0 4.938-2.407 4.938-5.356 0-2.915-2.204-5.232-4.938-5.232-2.723 0-4.95 2.35-4.95 5.243.012 2.95 2.215 5.345 4.95 5.345Zm8.475-.339c.475.305 1.096.192 1.446-.294.904-1.22 1.447-2.938 1.447-4.723 0-1.797-.543-3.503-1.447-4.735-.35-.486-.971-.599-1.446-.271-.554.35-.655 1.017-.226 1.65.633.881.983 2.09.983 3.356 0 1.254-.361 2.452-.983 3.356-.418.633-.328 1.288.226 1.661Zm-8.475-1.604c-1.57 0-2.893-1.492-2.893-3.402-.011-1.853 1.31-3.288 2.893-3.288 1.582 0 2.893 1.412 2.893 3.277 0 1.898-1.311 3.413-2.893 3.413ZM7.95 29.053h14.09c1.945 0 2.882-.61 2.882-1.932 0-3.096-3.864-7.255-9.933-7.255-6.056 0-9.932 4.159-9.932 7.255 0 1.322.938 1.932 2.892 1.932Zm-.373-1.955c-.272 0-.373-.079-.373-.294 0-1.729 2.802-4.983 7.785-4.983 4.995 0 7.798 3.254 7.798 4.983 0 .215-.102.294-.373.294H7.577Z" fill="#795BDA"/></svg>