<svg width="36" height="36" fill="none" xmlns="http://www.w3.org/2000/svg"><path d="M8.282 28.574h19.425c2.43 0 3.673-1.22 3.673-3.628V13.872c0-2.396-1.243-3.627-3.673-3.627h-2.859v-.893c0-2.136-1.152-3.153-3.288-3.153h-7.142c-2.034 0-3.277 1.017-3.277 3.153v.893H8.282c-2.418 0-3.673 1.231-3.673 3.627v11.074c0 2.407 1.255 3.628 3.673 3.628Zm4.927-19.312c0-.758.452-1.187 1.243-1.187h7.085c.791 0 1.232.43 1.232 1.187v.983h-9.56v-.983ZM8.372 26.404c-.983 0-1.514-.497-1.514-1.526V13.94c0-1.017.531-1.526 1.514-1.526h19.245c.983 0 1.514.509 1.514 1.526v10.938c0 1.029-.531 1.526-1.514 1.526H8.372Zm4.148-5.99c0 .668.463 1.12 1.13 1.12h2.226v2.226c0 .666.44 1.118 1.107 1.118h2.012c.666 0 1.118-.451 1.118-1.118v-2.226h2.226c.667 0 1.12-.452 1.12-1.12v-2.01c0-.667-.453-1.108-1.12-1.108h-2.226V15.07c0-.667-.452-1.119-1.118-1.119h-2.012c-.667 0-1.107.452-1.107 1.119v2.226H13.65c-.678 0-1.13.44-1.13 1.108v2.01Z" fill="#795BDA"/></svg>