<svg width="36" height="36" fill="none" xmlns="http://www.w3.org/2000/svg"><path fill-rule="evenodd" clip-rule="evenodd" d="M15.428 7.025a1.745 1.745 0 0 1 2.36-.843 25.858 25.858 0 0 1 7.458 5.565 25.81 25.81 0 0 1 5 7.84 1.745 1.745 0 0 1-1.018 2.291l-20.849 7.71c-1.472.545-2.868-.962-2.213-2.388l9.262-20.175Zm.354 4.083L8.27 27.469l3.55-1.312c-.17-.431-.263-.9-.263-1.391 0-2.12 1.73-3.825 3.848-3.825 1.67 0 3.098 1.06 3.628 2.549l6.223-2.302a20.345 20.345 0 0 0-2.235-3.906 4.014 4.014 0 1 1-4.78-4.69 20.675 20.675 0 0 0-2.459-1.484Zm.846-1.842a22.63 22.63 0 0 1 6.272 4.702 22.4 22.4 0 0 1 4.258 6.517l1.1-.407a23.79 23.79 0 0 0-4.495-6.953 23.833 23.833 0 0 0-6.613-4.997l-.522 1.138Zm.505 14.926a1.822 1.822 0 0 0-1.728-1.226 1.812 1.812 0 0 0-1.823 1.8c0 .244.049.477.138.688l3.413-1.262Zm1.948-9.664a1.988 1.988 0 1 0 0 3.976 1.988 1.988 0 0 0 0-3.976Z" fill="#795BDA"/></svg>