<svg width="36" height="36" fill="none" xmlns="http://www.w3.org/2000/svg"><path d="M6.553 14.914c0 4.825 4.057 9.594 10.362 13.662.35.226.78.452 1.074.452.293 0 .723-.226 1.073-.452 6.317-4.068 10.362-8.837 10.362-13.662 0-4.17-2.881-7.062-6.576-7.062-2.159 0-3.842.983-4.86 2.474-.994-1.48-2.689-2.474-4.847-2.474-3.707 0-6.588 2.892-6.588 7.062Zm2.328-.011c0-2.848 1.875-4.78 4.395-4.78 2.034 0 3.176 1.232 3.888 2.305.316.463.53.61.825.61.305 0 .497-.158.825-.61.768-1.05 1.864-2.305 3.887-2.305 2.531 0 4.407 1.932 4.407 4.78 0 3.978-4.136 8.385-8.905 11.549-.101.067-.17.113-.214.113-.046 0-.113-.046-.204-.113-4.768-3.164-8.904-7.571-8.904-11.55Z" fill="#795BDA"/><path fill-rule="evenodd" clip-rule="evenodd" d="m19.589 21.337-.955-.527v-.419l-.071-1.064.955.596.38.207.004 1.044c0 .353.265.623.614.608a.574.574 0 0 0 .441-.214.64.64 0 0 0 .123-.435l-.006-.353.455.253h.001c.15.084.32.118.485.08a.618.618 0 0 0 .392-.293l.002-.003.002-.003a.616.616 0 0 0 .06-.48.631.631 0 0 0-.31-.372l-.438-.24.316-.17a.65.65 0 0 0 .325-.315.534.534 0 0 0-.029-.487l-.001-.003-.002-.002a.592.592 0 0 0-.37-.277.672.672 0 0 0-.466.064l-.003.001-.964.528-.387-.214-.996-.47.995-.47.388-.214.96.526c.308.168.676.087.846-.214a.533.533 0 0 0 .028-.49.665.665 0 0 0-.328-.317l-.309-.166.434-.24a.632.632 0 0 0 .317-.373.614.614 0 0 0-.067-.48l-.003-.005-.003-.005a.633.633 0 0 0-.387-.284.668.668 0 0 0-.486.076l-.457.251.006-.35a.642.642 0 0 0-.125-.437.565.565 0 0 0-.444-.212.587.587 0 0 0-.61.602v.001l-.003 1.049-.38.206-.955.6.071-1.068v-.418l.955-.528h.001a.618.618 0 0 0 .301-.37.562.562 0 0 0-.07-.45l-.001-.003-.001-.002a.57.57 0 0 0-.414-.262.688.688 0 0 0-.446.112l-.325.185v-.488a.646.646 0 0 0-.17-.452.625.625 0 0 0-.462-.187.634.634 0 0 0-.458.184.64.64 0 0 0-.178.456v.488l-.33-.186a.679.679 0 0 0-.442-.112.577.577 0 0 0-.41.259l-.001.001-.001.002c-.09.136-.12.3-.074.458a.625.625 0 0 0 .308.368l.95.527v.418l.071 1.07-.949-.6-.38-.212-.005-1.045a.587.587 0 0 0-.61-.603h-.004a.579.579 0 0 0-.442.212.624.624 0 0 0-.123.439l.005.35-.46-.253a.64.64 0 0 0-.873.208l-.002.003-.002.002a.6.6 0 0 0-.066.49.64.64 0 0 0 .313.368l.437.24-.312.166a.66.66 0 0 0-.324.316.551.551 0 0 0 .026.488l.001.003.002.002c.167.304.538.377.844.214l.962-.528.383.215 1 .47-.994.468-.393.216-.96-.527c-.306-.167-.672-.088-.838.212l-.001.003-.001.002a.55.55 0 0 0-.03.485.65.65 0 0 0 .323.315l.315.17-.434.24a.64.64 0 0 0-.317.37.589.589 0 0 0 .065.485.62.62 0 0 0 .4.296.673.673 0 0 0 .476-.08l.457-.248-.006.348a.64.64 0 0 0 .126.438.57.57 0 0 0 .448.21.592.592 0 0 0 .432-.166.61.61 0 0 0 .177-.44v-.001l.008-1.044.377-.207.949-.598-.071 1.066v.419l-.95.527a.625.625 0 0 0-.308.365.555.555 0 0 0 .072.458l.002.003.002.003a.572.572 0 0 0 .412.257.694.694 0 0 0 .44-.11l.33-.189v.491c0 .171.06.333.18.453.119.12.282.182.456.182.176 0 .34-.058.461-.183a.639.639 0 0 0 .171-.452v-.487l.326.186a.699.699 0 0 0 .442.11.574.574 0 0 0 .414-.258l.002-.003.002-.003a.557.557 0 0 0 .072-.456.622.622 0 0 0-.302-.366h-.001Z" fill="#795BDA"/></svg>