<svg width="36" height="36" fill="none" xmlns="http://www.w3.org/2000/svg"><path d="M10.58 26.726v-4.618c.13.026.262.039.395.039.493 0 .985-.18 1.347-.576.354-.389.495-.887.495-1.372v-4.026c0-1.514-.425-2.786-1.473-3.638-.5-.405-1.092-.676-1.754-.846.53-.558.854-1.312.854-2.122 0-1.684-1.352-3.08-3.037-3.08-1.69 0-3.028 1.402-3.028 3.08 0 .808.321 1.562.848 2.12-.664.17-1.26.441-1.76.847-1.051.851-1.48 2.123-1.48 3.639v.002l.01 4.018c-.006.493.138.993.494 1.38.363.396.857.574 1.348.574.136 0 .272-.014.405-.042v4.621c0 .535.162 1.065.55 1.466.388.403.903.57 1.398.57.42 0 .855-.12 1.215-.404.36.284.794.404 1.215.404.494 0 1.008-.166 1.398-.564.392-.4.56-.93.56-1.472ZM25.575 9.567c0 .806.32 1.56.846 2.12-.666.169-1.263.44-1.764.848-1.05.852-1.474 2.124-1.474 3.638v4.026c0 .493.148.992.505 1.378.363.392.855.57 1.347.57.133 0 .265-.013.395-.04v4.62c0 .54.168 1.071.56 1.47.39.4.904.566 1.398.566.42 0 .853-.12 1.211-.405.361.284.797.404 1.219.404.496 0 1.01-.168 1.399-.575.384-.404.539-.933.539-1.46v-4.624c.136.03.276.044.415.044.492 0 .985-.18 1.347-.576.354-.389.495-.887.495-1.372v-4.026c0-1.516-.428-2.788-1.48-3.64-.5-.404-1.094-.675-1.756-.844.53-.558.854-1.312.854-2.122 0-1.684-1.353-3.08-3.038-3.08-1.684 0-3.018 1.405-3.018 3.08Z" stroke="#795BDA" stroke-width="2.025"/><path d="m15.034 11.219.139-.692c1.364.23 2.037 1.035 2.037 2.03v2.9c0 .396.25.666.62.666.369 0 .62-.27.62-.666v-2.9c0-.989.671-1.793 2.016-2.03l.145.692c.08.415.415.488.719.171l1.417-1.523c.244-.257.171-.573-.145-.711l-1.899-.844c-.395-.172-.672.026-.593.435l.145.732c-.969.197-2.096.797-2.426 1.542-.33-.751-1.47-1.351-2.445-1.542l.152-.732c.079-.409-.198-.607-.6-.435l-1.892.844c-.323.138-.39.454-.152.711l1.424 1.523c.297.317.64.244.718-.171Z" fill="#795BDA"/></svg>