<svg width="48" height="48" fill="none" xmlns="http://www.w3.org/2000/svg"><path fill-rule="evenodd" clip-rule="evenodd" d="M33.21 9.17a2.35 2.35 0 0 1 3.323 0l2.298 2.297a2.35 2.35 0 0 1 0 3.324l-4.634 4.634-1.307 4.549a16.644 16.644 0 0 1-4.228 7.173L17.176 42.633a1.35 1.35 0 0 1-1.91 0l-9.9-9.9a1.35 1.35 0 0 1 0-1.908l11.487-11.487a16.644 16.644 0 0 1 7.173-4.228l4.55-1.306 4.633-4.635Zm1.66 2.156-.573.574 1.803 1.803.574-.574-1.803-1.803Zm-.68 4.287-1.803-1.803-2.15 2.15a1.35 1.35 0 0 1-.581.342l-4.884 1.403a13.945 13.945 0 0 0-5.009 2.634l7.898 7.898a13.945 13.945 0 0 0 2.634-5.009l1.403-4.884c.063-.22.181-.42.343-.582l2.15-2.15Zm-8.392 14.58-7.99-7.99-6.473 6.472 7.99 7.99 6.473-6.473Zm-8.382 8.381-7.99-7.99-1.195 1.195 7.99 7.99 1.195-1.195Zm5.05-7.595a1.35 1.35 0 0 1-1.732.802l-5.885-2.159a1.35 1.35 0 0 1 .93-2.535l5.885 2.16a1.35 1.35 0 0 1 .802 1.732Z" fill="#795BDA"/></svg>