<svg width="17" height="16" fill="none" xmlns="http://www.w3.org/2000/svg"><path d="M8.92 4.023c-.534 0-1.36-.63-2.229-.607-1.147.016-2.2.69-2.791 1.758-1.191 2.144-.307 5.31.855 7.053.57.848 1.242 1.802 2.133 1.772.856-.038 1.176-.575 2.214-.575 1.03 0 1.323.575 2.229.553.92-.016 1.505-.864 2.068-1.72.65-.985.92-1.94.935-1.992a3.075 3.075 0 0 1-1.812-2.833c-.014-1.774 1.396-2.622 1.461-2.66-.804-1.219-2.038-1.355-2.47-1.386-1.125-.09-2.067.637-2.593.637Zm1.9-1.789c.474-.59.788-1.416.7-2.234-.678.03-1.497.47-1.987 1.06-.438.523-.818 1.364-.716 2.167.753.06 1.528-.401 2.003-.992" fill="#000"/></svg>