<svg width="48" height="48" fill="none" xmlns="http://www.w3.org/2000/svg"><path d="M32.151 9.352H20.429c-1.01 0-1.642.572-1.627 1.491.015.934.617 1.507 1.627 1.507h11.526c1.401 0 2.155.723 2.155 2.185v15.654l-2.125-2.32-1.205-1.19c-.633-.618-1.522-.678-2.14-.03-.632.617-.617 1.521.015 2.154l5.153 5.138c1.145 1.13 2.456 1.13 3.601 0l5.138-5.138c.648-.633.663-1.537.03-2.155-.632-.632-1.506-.602-2.154.03l-1.206 1.19-2.094 2.306v-15.91c0-3.24-1.717-4.912-4.972-4.912ZM5.407 20.215c.633.633 1.522.602 2.155-.03l1.205-1.19 2.11-2.306V32.6c0 3.225 1.702 4.913 4.957 4.913H27.57c.994 0 1.627-.573 1.612-1.507 0-.92-.618-1.492-1.612-1.492H16.029c-1.386 0-2.154-.723-2.154-2.184V16.674l2.124 2.32 1.206 1.19c.648.618 1.521.664 2.154.03.618-.632.618-1.52-.03-2.154l-5.153-5.138c-1.145-1.13-2.44-1.13-3.586 0L5.437 18.06c-.633.633-.648 1.522-.03 2.155Z" fill="#FF5C8D"/></svg>