<svg width="409" height="113" fill="none" xmlns="http://www.w3.org/2000/svg"><path d="M404.917.601a1 1 0 0 0-1.316-.518l-8.253 3.59a1 1 0 0 0 .798 1.835l7.336-3.192 3.192 7.336a1 1 0 1 0 1.834-.798L404.917.6ZM.642 94.132c42.533 16.314 72.142 19.818 92.297 16.094 20.227-3.737 30.907-14.755 35.444-27.258 4.509-12.428 2.915-26.22-1.162-35.577-2.032-4.663-4.741-8.364-7.761-10.192-1.528-.925-3.171-1.39-4.847-1.204-1.679.188-3.276 1.018-4.73 2.477l1.417 1.412c1.199-1.204 2.394-1.774 3.535-1.901 1.145-.128 2.35.177 3.589.926 2.512 1.521 5.007 4.79 6.964 9.281 3.901 8.953 5.427 22.213 1.115 34.095-4.285 11.808-14.367 22.361-33.927 25.975-19.631 3.627-48.833.262-91.218-15.995l-.716 1.867Zm109.241-55.66c-1.646 1.653-1.984 3.895-1.38 6.352.596 2.426 2.127 5.178 4.394 8.12 4.544 5.9 12.255 12.831 22.3 19.838 20.104 14.022 49.754 28.482 82.69 35.636 32.938 7.154 69.235 7.015 102.558-8.265 33.344-15.29 63.583-45.682 84.486-98.787l-1.862-.732c-20.747 52.711-50.663 82.663-83.458 97.7-32.816 15.049-68.645 15.222-101.299 8.129-32.657-7.093-62.066-21.438-81.971-35.322-9.959-6.947-17.489-13.743-21.86-19.417-2.19-2.843-3.535-5.338-4.036-7.377-.494-2.01-.151-3.453.855-4.463l-1.417-1.412Z" fill="#fff"/></svg>