<svg width="250" height="54" fill="none" xmlns="http://www.w3.org/2000/svg"><path d="M249.989 26.65a1 1 0 0 0-.839-1.139l-8.899-1.348a1 1 0 1 0-.299 1.977l7.909 1.199-1.198 7.91a1 1 0 1 0 1.977.3l1.349-8.9ZM.652 41.576c31.02 11.504 52.648 13.99 67.4 11.354 14.82-2.648 22.693-10.469 26.041-19.391 3.32-8.848 2.146-18.655-.854-25.313-1.494-3.316-3.502-5.985-5.773-7.314C86.314.238 85.063-.108 83.78.03c-1.289.14-2.505.755-3.602 1.82l1.393 1.434c.837-.812 1.656-1.183 2.423-1.265.772-.084 1.597.113 2.462.619 1.761 1.03 3.546 3.274 4.96 6.41 2.814 6.245 3.914 15.502.805 23.788-3.082 8.21-10.34 15.592-24.52 18.125-14.246 2.545-35.48.19-66.353-11.26l-.696 1.875ZM80.178 1.849c-2.354 2.286-2.396 5.56-.95 9.026 1.446 3.464 4.454 7.372 8.682 11.353 8.472 7.978 22.08 16.473 38.826 22.502 33.508 12.065 79.775 14.32 122.857-17.425l-1.186-1.61c-42.418 31.255-87.948 29.051-120.994 17.153-16.532-5.952-29.89-14.315-38.132-22.076-4.13-3.888-6.915-7.57-8.207-10.667-1.292-3.095-1.015-5.353.497-6.82l-1.393-1.436Z" fill="url('#paint0_linear_3974_8297')"/><defs><linearGradient id="paint0_linear_3974_8297" x1="260" y1="17.714" x2="9.456" y2="6.335" gradientUnits="userSpaceOnUse"><stop stop-color="#fff"/><stop offset="1" stop-color="#fff" stop-opacity="0"/></linearGradient></defs></svg>