<svg width="48" height="48" fill="none" xmlns="http://www.w3.org/2000/svg"><path d="M14.87 37.313h18.245c3.27 0 4.957-1.688 4.957-4.912V14.064c0-3.224-1.687-4.912-4.957-4.912H14.87c-3.254 0-4.957 1.688-4.957 4.912v18.337c0 3.24 1.703 4.911 4.957 4.911Zm.195-2.999c-1.386 0-2.155-.723-2.155-2.184V14.334c0-1.461.769-2.184 2.155-2.184h17.854c1.372 0 2.155.723 2.155 2.184V32.13c0 1.462-.783 2.185-2.155 2.185H15.065ZM25.522 15.48c-3.617 0-5.846 2.577-5.846 6.133v4.46l.075 1.612-.874-1.13-1.461-1.522a1.059 1.059 0 0 0-.814-.362c-.648 0-1.16.513-1.16 1.16 0 .317.105.588.346.799l4.068 4.023c.256.256.588.407.95.407.346 0 .662-.151.919-.407l4.113-4.023c.226-.226.331-.497.331-.829 0-.617-.512-1.145-1.175-1.145a1.1 1.1 0 0 0-.814.362l-1.657 1.793-.633.874.076-1.612v-4.46c0-2.125 1.25-3.707 3.45-3.707 2.26 0 3.661 1.552 3.661 3.707v2.124c0 .723.422 1.266 1.175 1.266.754 0 1.176-.543 1.176-1.28v-2.11c0-3.541-2.29-6.133-5.907-6.133Z" fill="#795BDA"/></svg>