<svg width="48" height="48" fill="none" xmlns="http://www.w3.org/2000/svg"><path d="M21.015 29.459a1.399 1.399 0 0 0-1.943-.388 1.406 1.406 0 0 0-.387 1.947c1.11 1.666 3.114 2.704 5.315 2.704 2.2 0 4.205-1.038 5.315-2.704a1.406 1.406 0 0 0-.387-1.947 1.399 1.399 0 0 0-1.943.388c-.546.82-1.639 1.455-2.985 1.455-1.346 0-2.439-.635-2.985-1.455ZM32.3 22.96c0 1.149-.93 2.08-2.075 2.08a2.077 2.077 0 0 1-2.075-2.08c0-1.148.929-2.08 2.075-2.08 1.146 0 2.075.932 2.075 2.08ZM17.775 25.04a2.077 2.077 0 0 0 2.075-2.08c0-1.148-.929-2.08-2.075-2.08a2.077 2.077 0 0 0-2.075 2.08c0 1.149.93 2.08 2.075 2.08Z" fill="#FF5C8D"/><path fill-rule="evenodd" clip-rule="evenodd" d="M35.514 11.044C33.073 8.422 29.346 7 24 7c-5.346 0-9.073 1.422-11.514 4.044-2.16 2.32-3.133 5.39-3.524 8.677l-.014.004c-.732.19-1.377.516-1.884 1.015a3.493 3.493 0 0 0-.951 1.74c-.269 1.179-.012 2.486.296 3.6.308 1.114.84 2.127 1.546 2.898.48.523 1.074.97 1.76 1.225C11.787 36.449 17.044 41 24 41s12.212-4.55 14.286-10.797c.685-.255 1.28-.702 1.76-1.225.706-.772 1.237-1.784 1.545-2.898.308-1.114.565-2.421.296-3.6a3.493 3.493 0 0 0-.951-1.74c-.507-.5-1.152-.825-1.884-1.015l-.014-.004c-.39-3.287-1.364-6.358-3.524-8.677Zm-23.872 10.04c.275-3.453 1.116-6.217 2.892-8.125C16.276 11.088 19.14 9.807 24 9.807c1.128 0 1.9.845 1.9 1.716 0 .87-.772 1.716-1.9 1.716-.654 0-1.21-.296-1.546-.72a1.399 1.399 0 0 0-1.968-.222 1.406 1.406 0 0 0-.223 1.972A4.762 4.762 0 0 0 24 16.046c2.518 0 4.701-1.948 4.701-4.523 0-.436-.062-.854-.178-1.248 2.258.534 3.83 1.488 4.943 2.684 1.776 1.908 2.617 4.672 2.892 8.125.06.755.707 1.326 1.462 1.29a1.79 1.79 0 0 1 .53.069c.368.095.54.218.622.3.077.074.142.178.184.363.102.445.03 1.163-.264 2.224-.208.752-.546 1.352-.91 1.75-.37.403-.694.528-.897.542a1.401 1.401 0 0 0-1.25 1.018c-1.594 5.646-6.037 9.553-11.835 9.553-5.798 0-10.24-3.907-11.836-9.553-.16-.57-.66-.976-1.249-1.018-.203-.014-.527-.14-.897-.543-.364-.397-.702-.997-.91-1.749-.293-1.06-.366-1.778-.264-2.224a.693.693 0 0 1 .183-.364c.083-.08.255-.204.624-.3.232-.06.405-.073.53-.067a1.402 1.402 0 0 0 1.461-1.291Z" fill="#FF5C8D"/></svg>