<svg width="48" height="48" fill="none" xmlns="http://www.w3.org/2000/svg"><path d="M9.627 33.954h23.625c2.742 0 4.897-.302 6.449-1.854 1.537-1.552 1.823-3.676 1.823-6.418v-4.535c0-2.757-.286-4.882-1.823-6.419-1.567-1.552-3.707-1.853-6.449-1.853H9.582c-2.697 0-4.852.301-6.388 1.853-1.552 1.552-1.839 3.677-1.839 6.374v4.58c0 2.742.287 4.882 1.824 6.418 1.567 1.552 3.706 1.854 6.448 1.854ZM9.205 31c-1.552 0-3.013-.226-3.857-1.055-.844-.844-1.04-2.275-1.04-3.842v-5.349c0-1.582.196-3.028 1.025-3.872.844-.844 2.32-1.055 3.902-1.055h24.44c1.566 0 3.028.211 3.856 1.055.844.844 1.04 2.275 1.04 3.842v5.379c0 1.567-.196 2.998-1.04 3.842-.828.844-2.29 1.055-3.857 1.055H9.205Zm34.519-3.511c1.25-.075 2.923-1.672 2.923-4.083 0-2.396-1.673-4.008-2.923-4.083v8.166Z" fill="#FF5C8D"/><path d="M19.348 23.906a.347.347 0 0 1-.348-.35c0-.104.039-.207.116-.31l3.807-5.042c.309-.423.821-.134.647.381l-1.575 3.506h2.647c.194 0 .358.155.358.35a.505.505 0 0 1-.126.31l-3.797 5.052c-.319.413-.83.124-.657-.381l1.247-3.516h-2.32Z" fill="#FF5C8D"/></svg>