<svg width="48" height="48" fill="none" xmlns="http://www.w3.org/2000/svg"><path d="M3.809 22.324c0 5.635 3.872 9.387 9.657 9.387.874 0 1.703-.075 2.487-.226 1.687 1.461 4.188 2.41 7.036 2.41 1.1 0 2.26-.15 3.435-.436 1.115 1.19 2.803 1.853 4.776 1.853.302 0 .648-.015.98-.03.407 2.637 2.11 5.062 4.73 5.062 3.813 0 5.817-4.46 5.817-9.19 0-1.537-.06-2.683-.151-3.707 1.024-1.296 1.597-3.013 1.597-5.047 0-3.903-2.637-6.931-6.66-7.745-.813-3.646-3.872-6.012-7.367-6.012a6.1 6.1 0 0 0-1.07.12c-1.25-1.476-3.224-2.365-5.334-2.365-2.35 0-4.37.874-5.74 2.381a8.362 8.362 0 0 0-3.36-.708c-3.767 0-6.765 2.576-6.765 6.253v.196c-2.547 1.747-4.068 4.67-4.068 7.804Zm12.204-8.467c-.03.904.587 1.506 1.386 1.506.768 0 1.341-.512 1.371-1.386.12-2.787 2.125-4.806 4.957-4.806 1.703 0 3.194.904 3.797 2.23.15.286.377.316.738.226a6.53 6.53 0 0 1 1.552-.196c2.652.03 5.108 2.034 5.108 5.153 0 6.99-9.9 6.177-9.9 13.183 0 .392.031.784.106 1.145-.602.12-1.22.181-1.823.181-1.431 0-2.863-.331-3.992-.919 2.32-1.461 3.676-3.872 3.676-6.9 0-.257 0-.498-.03-.739 3.314-.934 4.896-3.27 4.866-6.66-.015-.768-.663-1.4-1.416-1.4-.768 0-1.401.632-1.386 1.4.03 2.125-.768 3.436-2.818 3.993A5.354 5.354 0 0 0 21 18.377c-.603-.497-.98-.678-1.552-.678-.798 0-1.34.497-1.34 1.22 0 .814.39.994 1.204 1.748.603.572.935 1.461.935 2.561 0 3.42-2.682 5.71-6.735 5.71-4.159 0-6.916-2.651-6.916-6.629 0-1.853.768-3.6 2.064-4.851 1.01 1.747 2.923 2.832 5.44 2.832.768 0 1.4-.633 1.4-1.386 0-.768-.632-1.401-1.4-1.401-2.125 0-3.436-1.326-3.436-3.18 0-2.033 1.688-3.465 3.963-3.465.617 0 1.265.106 1.898.347a8.38 8.38 0 0 0-.512 2.652Zm17.9 14.976c0 .769.602 1.341 1.386 1.401 1.747.106 3.3-.15 4.595-.723.03.497.06 1.025.06 1.597 0 3.722-1.37 6.434-3.043 6.434-1.733 0-2.486-2.32-2.486-4.31 0-.24-.151-.406-.437-.406-.377.015-.86.015-1.311.015-2.923 0-4.791-.95-4.791-3.164 0-5.093 9.16-4.31 9.808-12.19 2.26.498 3.692 2.336 3.692 4.913 0 3.33-2.411 5.348-6.057 5.047-.784-.06-1.417.618-1.417 1.386Z" fill="#FF5C8D"/></svg>