<svg width="48" height="48" fill="none" xmlns="http://www.w3.org/2000/svg"><path d="M26.605 43.264c6.208 0 9.945-2.23 9.945-5.952v-8.166c2.606-2.29 4.128-5.951 4.128-10.004 0-9.417-6.102-15.685-15.263-15.685-9.115 0-15.187 6.132-15.187 15.353 0 .513.015.95.06 1.371l-2.17 3.888c-.557.979-.813 1.913-.813 2.787 0 1.657 1.04 2.998 2.923 3.39v3.059c0 3.088 2.124 4.625 5.077 4.309l1.507-.166c.09 3.646 3.752 5.816 9.793 5.816Zm0-2.908c-4.4 0-7.036-1.356-7.036-3.54V34.75c0-.346-.21-.512-.542-.482l-4.068.437c-1.19.136-1.823-.377-1.823-1.627v-4.792c0-.24-.181-.406-.437-.406h-.829c-.964 0-1.522-.483-1.522-1.236 0-.392.136-.859.407-1.326l2.531-4.55a12.99 12.99 0 0 1-.165-2.004c0-7.443 4.911-12.4 12.294-12.4 7.413 0 12.355 5.108 12.355 12.777 0 3.736-1.567 6.976-4.143 8.543v9.13c0 2.185-2.637 3.541-7.022 3.541ZM15.471 16.339c0 2.878 1.989 4.837 4.957 4.837.407 0 .784-.03 1.145-.106.904.784 2.2 1.236 3.616 1.236.543 0 1.13-.06 1.703-.211.572.572 1.431.904 2.44.904h.377c.271 1.507 1.25 2.531 2.486 2.531 1.778 0 3.044-1.974 3.044-4.776 0-.738-.03-1.31-.075-1.823.512-.663.798-1.537.798-2.547 0-2.003-1.326-3.57-3.345-4.007-.437-1.763-1.958-3.029-3.812-3.029-.135 0-.316.03-.497.06-.663-.738-1.657-1.19-2.727-1.19-1.175 0-2.2.437-2.908 1.16a4.364 4.364 0 0 0-1.642-.316c-2.02 0-3.541 1.386-3.541 3.27v.014c-1.25.905-2.019 2.411-2.019 3.993Zm6.102-4.233c-.015.497.332.858.814.858.482 0 .798-.316.828-.798.046-1.356 1.025-2.306 2.366-2.306.783 0 1.492.422 1.778 1.07.12.226.361.241.708.15a2.41 2.41 0 0 1 .588-.074c1.37.015 2.425 1.07 2.425 2.455 0 3.45-5.017 2.939-5.017 6.63 0 .166.015.331.045.497-.256.045-.527.06-.783.06-.633 0-1.25-.135-1.763-.361 1.115-.753 1.778-1.974 1.778-3.466 0-.09-.015-.18-.015-.27 1.597-.498 2.44-1.658 2.426-3.436 0-.437-.392-.829-.844-.829a.81.81 0 0 0-.799.829c.015 1.01-.376 1.597-1.235 1.853a2.735 2.735 0 0 0-.603-.708c-.316-.271-.527-.377-.829-.377-.467 0-.798.317-.798.754 0 .482.256.617.618.949.286.271.437.693.437 1.205 0 1.643-1.281 2.727-3.24 2.727-2.019 0-3.345-1.25-3.345-3.179 0-.843.317-1.642.874-2.23.558.844 1.537 1.341 2.757 1.341.437 0 .83-.376.83-.813a.836.836 0 0 0-.83-.829c-.964 0-1.597-.588-1.597-1.476 0-.95.784-1.628 1.869-1.628.256 0 .527.045.783.12a4.3 4.3 0 0 0-.226 1.281Zm9.01 7.488c0 .437.332.783.799.828.813.06 1.552-.06 2.184-.3.015.18.015.39.015.617 0 1.823-.632 3.149-1.386 3.149-.663 0-1.115-.844-1.115-2.05 0-.225-.165-.346-.376-.346-.196 0-.437.015-.663.015-1.522 0-2.306-.497-2.306-1.461 0-2.456 4.566-1.974 4.988-5.982.979.286 1.582 1.145 1.582 2.32 0 1.567-1.145 2.532-2.893 2.396-.452-.03-.829.362-.829.814Z" fill="#FF5C8D"/></svg>