<svg width="48" height="48" fill="none" xmlns="http://www.w3.org/2000/svg"><path d="M12.186 40.162c.86 0 1.613-.362 2.652-1.266l4.837-4.309c1.115 1.16 2.787 1.778 4.881 1.778h5.153l5.018 4.31c.994.843 1.702 1.31 2.516 1.31 1.205 0 1.913-.859 1.913-2.17v-3.45h.693c3.797 0 6.329-2.32 6.329-6.223v-9.206c0-3.962-2.577-6.343-6.45-6.343h-2.62v-.98c0-4.097-2.517-6.523-6.645-6.523H8.465c-4.008 0-6.645 2.426-6.645 6.524v14.102c0 4.038 2.592 6.434 6.524 6.434h1.899v3.857c0 1.326.723 2.155 1.943 2.155Zm.754-7.489c0-.904-.558-1.37-1.311-1.37H8.826c-2.5 0-4.007-1.402-4.007-4.008v-13.35c0-2.606 1.521-4.023 4.007-4.023h21.26c2.501 0 4.008 1.417 4.008 4.023v.648h-9.538c-4.008 0-6.448 2.38-6.448 6.343v9.206c0 .633.06 1.206.18 1.748l-5.348 5.002v-4.219Zm23.534 6.042-4.716-4.279c-.663-.602-1.22-.873-2.109-.873h-4.776c-2.366 0-3.797-1.311-3.797-3.812v-8.528c0-2.471 1.431-3.812 3.797-3.812h14.524c2.38 0 3.812 1.34 3.812 3.812v8.528c0 2.486-1.446 3.811-3.812 3.811H37.77c-.738 0-1.296.453-1.296 1.357v3.796Z" fill="#FF5C8D"/></svg>