<svg width="48" height="48" fill="none" xmlns="http://www.w3.org/2000/svg"><path d="M8.66 32.6c0 3.224 1.703 4.912 4.957 4.912h15.715a8.407 8.407 0 0 1-1.13-2.999h-14.6c-1.25 0-1.944-.648-1.944-1.973V18.678c0-1.326.694-1.974 1.944-1.974H34.38c1.251 0 1.944.648 1.944 1.974v4.038a8.919 8.919 0 0 1 1.522-.136c.497 0 .994.046 1.492.12v-8.437c0-3.224-1.703-4.911-4.973-4.911H13.617c-3.254 0-4.957 1.672-4.957 4.911V32.6Zm12.43-10.698h.89c.542 0 .723-.165.723-.693v-.889c0-.542-.181-.708-.724-.708h-.889c-.542 0-.723.166-.723.708v.89c0 .527.181.692.723.692Zm4.927 0h.89c.527 0 .707-.165.707-.693v-.889c0-.542-.18-.708-.708-.708h-.889c-.542 0-.723.166-.723.708v.89c0 .527.18.692.723.692Zm4.912 0h.89c.542 0 .722-.165.722-.693v-.889c0-.542-.18-.708-.723-.708h-.889c-.527 0-.708.166-.708.708v.89c0 .527.18.692.708.692Zm-14.75 4.852h.873c.543 0 .724-.166.724-.708v-.89c0-.526-.181-.692-.724-.692h-.873c-.543 0-.724.166-.724.693v.889c0 .542.181.708.724.708Zm4.911 0h.89c.542 0 .723-.166.723-.708v-.89c0-.526-.181-.692-.724-.692h-.889c-.542 0-.723.166-.723.693v.889c0 .542.181.708.723.708Zm4.927 0h.89c.527 0 .707-.166.707-.708v-.89c0-.526-.18-.692-.708-.692h-.889c-.542 0-.723.166-.723.693v.889c0 .542.18.708.723.708Zm11.828 13.5c4.219 0 7.774-3.526 7.774-7.775 0-4.248-3.51-7.76-7.774-7.76-4.249 0-7.76 3.511-7.76 7.76 0 4.264 3.511 7.775 7.76 7.775Zm-3.586-6.479c-.603 0-1.07-.482-1.07-1.07 0-.572.482-1.04 1.07-1.04h2.622V28.14c0-.588.467-1.04 1.054-1.04.588 0 1.07.452 1.07 1.04v4.565c0 .603-.467 1.07-1.07 1.07H34.26Zm-18.08-2.185h.873c.543 0 .724-.165.724-.693v-.889c0-.542-.181-.708-.724-.708h-.873c-.543 0-.724.166-.724.708v.89c0 .527.181.692.724.692Zm4.911 0h.89c.542 0 .723-.165.723-.693v-.889c0-.542-.181-.708-.724-.708h-.889c-.542 0-.723.166-.723.708v.89c0 .527.181.692.723.692Zm4.927 0h.89c.527 0 .707-.165.707-.693v-.889c0-.542-.18-.708-.708-.708h-.889c-.542 0-.723.166-.723.708v.89c0 .527.18.692.723.692Z" fill="#795BDA"/></svg>