<svg width="71" height="71" fill="none" xmlns="http://www.w3.org/2000/svg"><path d="M15.225 55.32h40.347c4.802 0 7.292-2.49 7.292-7.224v-23.32c0-4.734-2.49-7.224-7.292-7.224h-6.09c-1.735 0-2.29-.29-3.357-1.423l-1.779-1.912c-1.156-1.2-2.312-1.822-4.58-1.822H30.92c-2.267 0-3.423.622-4.579 1.822l-1.778 1.912c-1.045 1.112-1.623 1.423-3.357 1.423h-5.98c-4.802 0-7.291 2.49-7.291 7.225v23.319c0 4.735 2.49 7.225 7.291 7.225Zm.267-4.356c-2.045 0-3.201-1.09-3.201-3.246V25.154c0-2.156 1.156-3.245 3.2-3.245h6.981c1.978 0 3.023-.333 4.135-1.578l1.712-1.868c1.244-1.356 1.911-1.711 3.868-1.711H38.5c1.956 0 2.623.355 3.868 1.69l1.712 1.889c1.111 1.222 2.156 1.578 4.134 1.578h7.114c2.045 0 3.179 1.09 3.179 3.245v22.564c0 2.156-1.134 3.245-3.18 3.245H15.493Zm19.918-2.957A11.973 11.973 0 0 0 47.414 35.98c0-6.692-5.335-12.05-12.004-12.05-6.67 0-12.004 5.358-12.004 12.05 0 6.69 5.335 12.026 12.004 12.026Zm12.76-20.03a2.851 2.851 0 0 0 2.89 2.868 2.875 2.875 0 0 0 2.867-2.867c0-1.534-1.311-2.868-2.867-2.868-1.579 0-2.89 1.334-2.89 2.868Zm-12.76 16.05a8.03 8.03 0 0 1-8.047-8.047c0-4.49 3.6-8.069 8.047-8.069a8.036 8.036 0 0 1 8.047 8.07 8.031 8.031 0 0 1-8.047 8.047Z" fill="#795BDA"/></svg>