<svg width="48" height="48" fill="none" xmlns="http://www.w3.org/2000/svg"><path d="M7.488 36.44c0 .783.513 1.296 1.296 1.296h30.18c.828 0 1.49-.633 1.49-1.477 0-.844-.662-1.477-1.49-1.477h-28.1c-.317 0-.423-.105-.423-.421v-6.389L16.65 21.6a.545.545 0 0 1 .392-.196c.12 0 .27.06.407.196l5.378 5.56c.678.738 1.402 1.054 2.155 1.054.753 0 1.446-.331 2.17-1.04l6.192-6.222 2.366 2.38c.633.633 1.521.257 1.762-.647l2.26-8.875c.227-.829-.512-1.537-1.34-1.326l-8.845 2.26c-.904.241-1.295 1.1-.648 1.748l2.35 2.366-5.86 5.951c-.12.136-.271.211-.392.211-.136 0-.271-.075-.407-.211l-5.379-5.56c-.693-.723-1.416-1.054-2.17-1.054-.753 0-1.416.301-2.154 1.054l-4.445 4.505V10.675c0-.828-.632-1.491-1.476-1.491s-1.477.663-1.477 1.491V36.44Z" fill="#FF5C8D"/></svg>