<svg width="48" height="48" fill="none" xmlns="http://www.w3.org/2000/svg"><path d="M12.188 33.63h16.378c4.49 0 7.955-3.405 7.955-7.774v-.166c4.882-.105 8.091-2.878 9.282-6.057.527-1.34-.151-2.5-1.432-2.5-.994 0-1.778.42-3.39.42-3.721 0-5.65-2.063-5.65-5.544 0-1.748.542-2.742.542-3.586 0-1.326-1.175-1.973-2.561-1.506-3.36 1.115-6.132 4.64-6.132 8.859v.452c-1.838-2.17-4.445-3.42-7.474-3.42-5.062 0-9.28 3.827-9.868 8.86-2.562.813-4.28 3.043-4.28 5.845 0 3.556 2.683 6.117 6.63 6.117Zm17.463-17.9c0-2.817 1.627-5.062 3.586-6.177l.165.106a9.586 9.586 0 0 0-.467 2.938c0 4.31 3.089 7.322 7.473 7.322 1.1 0 2.05-.195 2.728-.421l.105.12c-.964 1.793-3.39 3.616-7.187 3.571-.919-2.516-3.149-4.354-5.982-4.897a8.008 8.008 0 0 1-.421-2.561ZM12.173 30.814c-2.486 0-3.797-1.416-3.797-3.24 0-1.567.934-2.907 3.119-3.495.753-.196 1.01-.543 1.1-1.326.422-4.264 3.435-7.127 7.111-7.127 2.833 0 5.063 1.582 6.48 4.37.346.663.723.889 1.521.889 3.902 0 5.997 2.275 5.997 5.032 0 2.727-2.185 4.897-5.123 4.897H12.173Zm11.812 9.929 1.944-3.375c.302-.482.15-1.07-.346-1.356-.498-.286-1.04-.12-1.341.392l-1.96 3.39c-.27.467-.15 1.04.363 1.326a.973.973 0 0 0 1.34-.377Zm-11.978.015 1.944-3.375a.972.972 0 0 0-.347-1.356c-.497-.286-1.054-.12-1.356.377l-1.958 3.39a.963.963 0 0 0 .361 1.34.987.987 0 0 0 1.356-.376Zm16.71 4.219 1.943-3.36c.302-.497.15-1.085-.346-1.371-.498-.286-1.055-.12-1.341.392l-1.959 3.39c-.271.467-.15 1.04.346 1.325a.974.974 0 0 0 1.357-.376Zm-11.979.015 1.944-3.375a.964.964 0 0 0-.362-1.356c-.497-.286-1.04-.12-1.34.392l-1.96 3.39c-.27.467-.15 1.04.362 1.326a.994.994 0 0 0 1.356-.377Z" fill="#FF5C8D"/></svg>