<svg width="48" height="48" fill="none" xmlns="http://www.w3.org/2000/svg"><path d="M13.846 30.895h18.789c5.047 0 8.844-3.843 8.844-8.634 0-4.912-3.978-8.573-9.146-8.573-1.853-3.631-5.273-6.102-9.869-6.102-5.785 0-10.471 4.445-11.044 10.05-2.787.858-4.897 3.27-4.897 6.524 0 3.751 2.758 6.735 7.323 6.735Zm.015-2.863c-2.983 0-4.475-1.642-4.475-3.797 0-1.793 1.07-3.33 3.586-3.993.874-.24 1.16-.633 1.236-1.522.452-4.941 3.992-8.271 8.256-8.271 3.27 0 5.892 1.823 7.519 5.107.376.754.828 1.01 1.747 1.01 4.475 0 6.886 2.606 6.886 5.77 0 3.165-2.501 5.696-5.891 5.696H13.86Zm3.496 14.419 4.414-7.624c.287-.512.136-1.085-.346-1.371-.513-.286-1.055-.12-1.356.392l-4.415 7.654c-.271.467-.15 1.054.347 1.34a.992.992 0 0 0 1.356-.391Zm-6.012.015 4.414-7.639c.287-.512.136-1.07-.346-1.356-.497-.286-1.055-.136-1.356.377l-4.415 7.654c-.27.482-.15 1.054.347 1.34a.987.987 0 0 0 1.356-.376Zm12.008 0 4.4-7.639c.286-.512.15-1.07-.347-1.356-.497-.286-1.054-.136-1.34.377l-4.43 7.654c-.256.482-.151 1.054.361 1.34a.994.994 0 0 0 1.356-.376Zm5.967 0 4.43-7.67c.286-.481.15-1.069-.347-1.34-.482-.256-1.055-.12-1.326.377l-4.415 7.654c-.286.482-.165 1.07.332 1.356a.969.969 0 0 0 1.326-.377Z" fill="#FF5C8D"/></svg>