<svg width="48" height="48" fill="none" xmlns="http://www.w3.org/2000/svg"><path d="M13.846 31.61h18.789c5.047 0 8.844-3.843 8.844-8.634 0-4.912-3.978-8.573-9.146-8.573C30.48 10.772 27.06 8.3 22.464 8.3c-5.785 0-10.471 4.444-11.044 10.05-2.787.858-4.897 3.269-4.897 6.523 0 3.752 2.758 6.735 7.323 6.735Zm.015-2.863c-2.983 0-4.475-1.643-4.475-3.797 0-1.793 1.07-3.33 3.586-3.993.874-.241 1.16-.633 1.236-1.522.452-4.942 3.992-8.271 8.256-8.271 3.27 0 5.892 1.823 7.519 5.107.376.754.828 1.01 1.747 1.01 4.475 0 6.886 2.606 6.886 5.77 0 3.164-2.501 5.696-5.891 5.696H13.86Zm12.445 10.14 1.944-3.36c.301-.497.15-1.085-.346-1.371-.498-.287-1.055-.12-1.341.391l-1.96 3.39c-.27.468-.15 1.04.362 1.326.483.287 1.07.106 1.341-.376Zm-11.978.015 1.944-3.375a.972.972 0 0 0-.347-1.356c-.497-.286-1.055-.12-1.356.392l-1.959 3.374c-.27.483-.135 1.055.362 1.342a.994.994 0 0 0 1.356-.377Zm16.71 4.218 1.943-3.36c.286-.497.136-1.084-.346-1.37-.498-.287-1.055-.121-1.356.391l-1.944 3.39c-.287.467-.15 1.04.346 1.326a.974.974 0 0 0 1.356-.377Zm-11.994.016 1.944-3.36c.301-.498.15-1.085-.347-1.371-.497-.287-1.04-.121-1.34.391l-1.96 3.39c-.27.468-.15 1.04.362 1.326.482.286 1.07.106 1.341-.376Z" fill="#FF5C8D"/></svg>