<svg width="48" height="48" fill="none" xmlns="http://www.w3.org/2000/svg"><path d="M30.642 7.861c.754 0 1.371-.633 1.371-1.371V3.386A1.38 1.38 0 0 0 30.643 2a1.38 1.38 0 0 0-1.372 1.386V6.49c0 .738.618 1.371 1.371 1.371Zm-8.965 2.923c.543.542 1.432.527 1.944 0s.527-1.386 0-1.913l-2.215-2.23a1.373 1.373 0 0 0-1.928 0 1.36 1.36 0 0 0 .015 1.928l2.184 2.215Zm15.986 0c.513.527 1.402.542 1.944 0l2.2-2.2a1.392 1.392 0 0 0 0-1.943 1.36 1.36 0 0 0-1.929.015L37.663 8.87c-.527.512-.512 1.386 0 1.913ZM8.63 33.189h16.378c4.49 0 7.956-3.405 7.956-7.775v-.422a7.528 7.528 0 0 0 5.213-7.187c0-4.203-3.345-7.563-7.534-7.563a7.532 7.532 0 0 0-7.217 5.318c-1.823-2.034-4.354-3.194-7.277-3.194-5.063 0-9.281 3.827-9.869 8.86C3.718 22.038 2 24.268 2 27.07c0 3.556 2.682 6.118 6.63 6.118Zm22.013-20.386c2.788 0 4.988 2.185 4.988 4.987a5.026 5.026 0 0 1-3.225 4.701c-1.085-2.622-3.6-4.46-6.735-4.761-.015-2.742 2.185-4.927 4.972-4.927ZM8.614 30.371c-2.486 0-3.796-1.416-3.796-3.24 0-1.566.934-2.907 3.118-3.495.754-.196 1.01-.542 1.1-1.326.422-4.264 3.436-7.126 7.112-7.126 2.832 0 5.062 1.582 6.479 4.369.346.663.723.889 1.521.889 3.903 0 5.997 2.275 5.997 5.032 0 2.727-2.185 4.897-5.123 4.897H8.614Zm33.314-11.21h3.118a1.36 1.36 0 0 0 1.356-1.356c0-.753-.617-1.37-1.356-1.37h-3.118c-.739 0-1.372.617-1.372 1.37 0 .754.633 1.356 1.372 1.356Zm-2.05 9.809a1.373 1.373 0 0 0 1.929 0c.527-.527.512-1.401-.015-1.929l-2.215-2.215c-.512-.512-1.401-.527-1.929 0-.512.528-.512 1.417.015 1.929l2.215 2.215ZM20.427 40.3l1.944-3.375c.3-.482.15-1.07-.347-1.356-.497-.286-1.04-.12-1.341.392l-1.959 3.39c-.27.467-.15 1.04.362 1.326a.973.973 0 0 0 1.34-.377Zm-11.978.015 1.943-3.375a.972.972 0 0 0-.346-1.356c-.497-.286-1.055-.12-1.356.377L6.73 39.35a.963.963 0 0 0 .362 1.341.987.987 0 0 0 1.356-.377Zm16.709 4.219 1.944-3.36c.3-.497.15-1.085-.347-1.371-.497-.286-1.055-.12-1.34.392l-1.96 3.39c-.27.467-.15 1.04.347 1.326a.974.974 0 0 0 1.356-.377Zm-11.978.015 1.943-3.375a.964.964 0 0 0-.361-1.356c-.498-.286-1.04-.12-1.341.392l-1.959 3.39c-.271.467-.15 1.04.362 1.326a.994.994 0 0 0 1.356-.377Z" fill="#FF5C8D"/></svg>