<svg width="48" height="48" fill="none" xmlns="http://www.w3.org/2000/svg"><path d="M23.985 38.987c8.544 0 15.595-7.052 15.595-15.58 0-8.527-7.067-15.579-15.61-15.579-8.527 0-15.564 7.051-15.564 15.58 0 8.527 7.052 15.579 15.58 15.579Zm0-3.104c-6.915 0-12.445-5.56-12.445-12.476 0-6.915 5.53-12.46 12.43-12.46a12.452 12.452 0 0 1 12.49 12.46c.016 6.916-5.559 12.476-12.475 12.476Zm-8.256-11.03c0 .995.678 1.673 1.687 1.673h3.42v3.42c0 1.025.679 1.703 1.688 1.703h2.878c1.024 0 1.687-.678 1.687-1.703v-3.42h3.436c1.009 0 1.687-.678 1.687-1.672v-2.908c0-.995-.678-1.673-1.687-1.673h-3.436v-3.405c0-1.024-.663-1.702-1.687-1.702h-2.878c-1.01 0-1.688.678-1.688 1.702v3.405h-3.435c-1.01 0-1.672.678-1.672 1.673v2.908Z" fill="#795BDA"/></svg>