<svg width="48" height="48" fill="none" xmlns="http://www.w3.org/2000/svg"><path d="M11.043 38.098h25.9c3.24 0 4.897-1.627 4.897-4.836V18.496c0-3.194-1.657-4.836-4.897-4.836h-3.812v-1.19c0-2.848-1.536-4.204-4.384-4.204h-9.522c-2.712 0-4.37 1.356-4.37 4.203v1.19h-3.812c-3.224 0-4.897 1.643-4.897 4.837v14.766c0 3.209 1.673 4.836 4.897 4.836Zm6.57-25.75c0-1.009.602-1.581 1.657-1.581h9.447c1.055 0 1.642.572 1.642 1.582v1.31H17.612v-1.31Zm-6.45 22.857c-1.31 0-2.018-.663-2.018-2.034V18.587c0-1.357.708-2.035 2.019-2.035h25.659c1.31 0 2.019.678 2.019 2.035V33.17c0 1.371-.708 2.034-2.02 2.034H11.165Zm5.53-7.985c0 .889.618 1.492 1.507 1.492h2.968v2.968c0 .889.588 1.491 1.477 1.491h2.682c.889 0 1.491-.602 1.491-1.491v-2.968h2.969c.889 0 1.491-.603 1.491-1.492v-2.682c0-.889-.602-1.477-1.491-1.477h-2.969v-2.968c0-.889-.602-1.491-1.491-1.491h-2.682c-.89 0-1.477.602-1.477 1.491v2.968H18.2c-.904 0-1.507.588-1.507 1.477v2.682Z" fill="#795BDA"/></svg>