<svg width="48" height="48" fill="none" xmlns="http://www.w3.org/2000/svg"><path d="M26.605 43.264c6.208 0 9.945-2.23 9.945-5.952v-8.166c2.606-2.29 4.128-5.951 4.128-10.004 0-9.417-6.102-15.685-15.263-15.685-9.115 0-15.187 6.132-15.187 15.353 0 .513.015.95.06 1.371l-2.17 3.888c-.557.979-.813 1.913-.813 2.787 0 1.657 1.04 2.998 2.923 3.39v3.059c0 3.088 2.124 4.625 5.077 4.309l1.507-.166c.09 3.646 3.752 5.816 9.793 5.816Zm0-2.908c-4.4 0-7.036-1.356-7.036-3.54V34.75c0-.346-.21-.512-.542-.482l-4.068.437c-1.19.136-1.823-.377-1.823-1.627v-4.792c0-.24-.181-.406-.437-.406h-.829c-.964 0-1.522-.483-1.522-1.236 0-.392.136-.859.407-1.326l2.531-4.55a12.99 12.99 0 0 1-.165-2.004c0-7.443 4.911-12.4 12.294-12.4 7.413 0 12.355 5.108 12.355 12.777 0 3.736-1.567 6.976-4.143 8.543v9.13c0 2.185-2.637 3.541-7.022 3.541Z" fill="#FF5C8D"/><path fill-rule="evenodd" clip-rule="evenodd" d="M19.3 14.523c.468-2.57 2.793-4.523 5.597-4.523 2.197 0 3.888 1.067 4.87 2.664 2.464.153 4.433 1.898 4.433 4.317 0 2.45-2.044 4.354-4.648 4.354h-2.557c.044.046.083.1.117.164.154.292.067.582-.03.753l-.167.307h.45c.285 0 .631.147.756.518.118.35-.043.664-.232.844l-.002.003-3.232 3.037-.002.002a.81.81 0 0 1-.806.2l-.017-.004-.015-.006a.703.703 0 0 1-.434-.485.769.769 0 0 1 .051-.513l.566-1.309h-.308c-.169 0-.478-.043-.675-.323-.211-.297-.129-.618-.05-.79m0 0 .958-2.075a.98.98 0 0 1 .226-.323h-3.197c-1.17 0-2.16-.365-2.865-1.01-.706-.647-1.087-1.542-1.087-2.519 0-1.58.994-2.76 2.3-3.283m2.415.974c-.022.24-.081.525-.283.766-.203.243-.477.355-.728.42l-.007.002c-.491.123-.783.313-.949.5a.947.947 0 0 0-.238.654c0 .315.11.555.305.723.203.176.561.328 1.144.328h8.634c1.262 0 2.097-.871 2.097-1.876 0-.519-.204-.978-.598-1.315-.4-.342-1.038-.594-1.954-.594-.255 0-.528-.032-.78-.17a1.365 1.365 0 0 1-.551-.59l-.001-.002c-.655-1.256-1.665-1.898-2.91-1.898-1.627 0-3.002 1.197-3.181 3.052Z" fill="#FF5C8D"/></svg>