<svg width="48" height="48" fill="none" xmlns="http://www.w3.org/2000/svg"><path d="M23.58 39.158c8.542 0 15.593-7.05 15.593-15.579C39.173 15.051 32.107 8 23.564 8 15.036 8 8 15.051 8 23.58c0 8.527 7.051 15.578 15.58 15.578Zm0-3.103c-6.916 0-12.446-5.56-12.446-12.476 0-6.916 5.53-12.46 12.43-12.46a12.452 12.452 0 0 1 12.49 12.46c.016 6.916-5.559 12.476-12.475 12.476Z" fill="#795BDA"/><path d="M18 20.737h6.773c.2-.222.337-.43.41-.623.086-.208.129-.43.129-.665 0-.347-.137-.637-.41-.873-.259-.25-.726-.374-1.402-.374-.604 0-1.043.104-1.316.312-.259.194-.424.47-.496.83h-2.502c.058-1.024.439-1.834 1.143-2.43.705-.61 1.762-.914 3.171-.914.705 0 1.323.083 1.855.25.546.152 1 .366 1.359.643.374.277.647.603.82.977.186.36.28.748.28 1.163 0 .36-.029.665-.087.914-.057.25-.165.513-.323.79H29v1.953H18v-1.953ZM23.5 31c-1.539 0-2.682-.29-3.43-.873-.733-.581-1.1-1.336-1.1-2.264 0-.443.05-.81.152-1.101.1-.291.237-.568.41-.831H18v-1.953h11v1.953h-6.557c-.273.277-.467.547-.582.81a2.004 2.004 0 0 0-.173.81c0 .388.123.693.367.914.244.222.726.333 1.445.333.604 0 1.043-.097 1.316-.291a1.28 1.28 0 0 0 .496-.852h2.717a3.631 3.631 0 0 1-.323 1.33 2.863 2.863 0 0 1-.798 1.06c-.36.304-.82.54-1.38.706-.561.166-1.237.249-2.028.249Z" fill="#795BDA"/></svg>