<svg width="48" height="48" fill="none" xmlns="http://www.w3.org/2000/svg"><path d="M16.827 40.221c.859 0 1.492-.422 2.531-1.341l5.168-4.55h9.07c4.536 0 7.082-2.622 7.082-7.097V15.526c0-4.475-2.546-7.096-7.081-7.096h-19.21c-4.52 0-7.082 2.621-7.082 7.096v11.707c0 4.49 2.636 7.097 6.976 7.097h.617v3.691c0 1.341.709 2.2 1.929 2.2Zm.753-3.375v-4.294c0-.89-.391-1.236-1.235-1.236h-1.853c-2.833 0-4.189-1.431-4.189-4.173V15.617c0-2.743 1.356-4.174 4.189-4.174h19.014c2.818 0 4.174 1.431 4.174 4.174v11.526c0 2.742-1.356 4.173-4.174 4.173H24.36c-.919 0-1.37.151-2.003.814l-4.777 4.716ZM24 23.873c.829 0 1.296-.467 1.326-1.34l.226-7.248c.03-.889-.633-1.537-1.567-1.537-.934 0-1.582.633-1.552 1.522l.21 7.262c.031.86.513 1.341 1.357 1.341Zm0 5.003c.98 0 1.778-.709 1.778-1.673 0-.95-.799-1.657-1.778-1.657-.98 0-1.778.708-1.778 1.657 0 .95.814 1.673 1.778 1.673Z" fill="#FF5C8D"/></svg>