<svg width="48" height="48" fill="none" xmlns="http://www.w3.org/2000/svg"><path d="M11.93 31.174a.25.25 0 0 1-.009.37L9.077 34.01a.25.25 0 0 0 .164.439h6.28a.25.25 0 0 0 .164-.06l1.77-1.525a.25.25 0 0 0 .017-.363l-2.42-2.494a.25.25 0 0 1 .152-.423l3.295-.376a.25.25 0 0 0 .214-.31l-1.352-5.296a.25.25 0 0 1 .381-.27l3.935 2.633a.25.25 0 0 0 .365-.101l2.648-5.61a.25.25 0 0 1 .472.06l1.189 6.206a.25.25 0 0 0 .396.152l2.056-1.557a.25.25 0 0 1 .4.183l.236 3.63a.25.25 0 0 0 .264.233l3.952-.234a.25.25 0 0 1 .19.428l-3.501 3.477a.25.25 0 0 0 .04.387l1.826 1.19a.25.25 0 0 0 .137.04h6.737a.25.25 0 0 0 .138-.458l-3.167-2.096a.25.25 0 0 1-.036-.389l7.484-7.198a.25.25 0 0 0-.19-.43l-8.73.615a.25.25 0 0 1-.268-.25v-7.275a.25.25 0 0 0-.397-.202l-4.987 3.637a.25.25 0 0 1-.393-.156L26.052 6.83c-.046-.245-.382-.28-.477-.05l-5.052 12.172a.25.25 0 0 1-.373.11l-7.78-5.381a.25.25 0 0 0-.387.26l2.345 10.65a.25.25 0 0 1-.189.298l-6.63 1.494a.25.25 0 0 0-.118.424l4.54 4.367ZM6 35.955a.25.25 0 0 1 .25-.25h35.21a.25.25 0 0 1 .25.25v1.796a.25.25 0 0 1-.25.25H6.25a.25.25 0 0 1-.25-.25v-1.796Z" fill="#795BDA"/></svg>