<svg width="48" height="48" fill="none" xmlns="http://www.w3.org/2000/svg"><path d="M14.373 37.42c4.836 0 8.543-5.666 8.543-14.013 0-8.362-3.707-13.997-8.543-13.997-4.836 0-8.543 5.635-8.543 13.997 0 8.348 3.707 14.013 8.543 14.013Zm19.24 0c4.837 0 8.544-5.666 8.544-14.013 0-8.362-3.707-13.997-8.543-13.997-4.822 0-8.543 5.635-8.543 13.997 0 8.348 3.721 14.013 8.543 14.013Zm-22.268-8.83c2.53 0 4.218-1.747 4.218-4.4 0-2.62-1.687-4.399-4.218-4.399-1.04 0-1.929.302-2.622.829.603-5.153 2.923-8.513 5.65-8.528 3.224-.015 5.846 4.565 5.846 11.315 0 6.705-2.622 11.316-5.846 11.33-2.41.016-4.49-2.59-5.364-6.764.648.407 1.432.617 2.336.617Zm19.24 0c2.516 0 4.219-1.747 4.219-4.4 0-2.62-1.703-4.399-4.219-4.399-1.055 0-1.944.302-2.652.829.618-5.153 2.938-8.513 5.68-8.513 3.21 0 5.831 4.58 5.831 11.3 0 6.72-2.621 11.316-5.83 11.316-2.411 0-4.505-2.592-5.38-6.75.648.407 1.447.617 2.351.617Zm-20.43-4.927c-.528-.09-.875-.723-.754-1.386.136-.663.663-1.13 1.175-1.04.543.106.859.739.723 1.387-.12.663-.617 1.13-1.145 1.04Zm19.24 0c-.543-.105-.874-.723-.753-1.386.135-.663.632-1.13 1.16-1.04.557.091.873.739.738 1.387-.136.663-.618 1.13-1.145 1.04Z" fill="#FF5C8D"/></svg>