<svg width="48" height="48" fill="none" xmlns="http://www.w3.org/2000/svg"><path d="M16.554 23.968c3.18 0 5.757-2.72 5.757-6.054 0-3.296-2.563-5.914-5.757-5.914-3.155 0-5.757 2.657-5.744 5.927 0 3.333 2.576 6.041 5.744 6.041Zm14.892 0c3.168 0 5.744-2.72 5.744-6.054 0-3.296-2.55-5.914-5.744-5.914-3.168 0-5.757 2.657-5.744 5.927 0 3.333 2.576 6.041 5.744 6.041Zm-14.892-2.197c-1.814 0-3.365-1.686-3.365-3.844-.013-2.095 1.525-3.717 3.365-3.717 1.853 0 3.378 1.596 3.378 3.704 0 2.146-1.538 3.857-3.378 3.857Zm14.892 0c-1.827 0-3.365-1.686-3.365-3.844-.013-2.095 1.525-3.717 3.365-3.717 1.854 0 3.365 1.596 3.365 3.704 0 2.146-1.525 3.857-3.365 3.857ZM8.365 36h16.39c2.262 0 3.353-.69 3.353-2.184 0-3.5-4.496-8.2-11.554-8.2-7.059 0-11.554 4.7-11.554 8.2C5 35.31 6.091 36 8.365 36Zm23.081-10.384c-2.155 0-4.061.447-5.678 1.162a10.34 10.34 0 0 1 1.827 1.686 11.756 11.756 0 0 1 3.851-.639c5.797 0 9.057 3.679 9.057 5.633 0 .243-.119.332-.434.332H29.882c.013.792-.131 1.533-.605 2.21h10.358c2.26 0 3.365-.69 3.365-2.184 0-3.5-4.508-8.2-11.554-8.2ZM7.918 33.79c-.302 0-.42-.09-.42-.332 0-1.954 3.246-5.633 9.056-5.633 5.81 0 9.07 3.679 9.07 5.633 0 .243-.132.332-.434.332H7.918Z" fill="#FF5C8D"/></svg>