<svg width="46" height="33" fill="none" xmlns="http://www.w3.org/2000/svg"><mask id="path-1-outside-1_828_180" maskUnits="userSpaceOnUse" x="0" y="0" width="46" height="33" fill="#000"><path fill="#fff" d="M0 0h46v33H0z"/><path d="M6.189 5.756C6.189 7.24 7.397 8.5 8.876 8.5c1.479 0 2.7-1.26 2.7-2.744 0-1.522-1.222-2.756-2.7-2.756-1.479 0-2.687 1.234-2.687 2.756Zm28.26 0c0 1.484 1.21 2.744 2.675 2.744 1.479 0 2.7-1.26 2.7-2.744 0-1.522-1.221-2.756-2.7-2.756-1.466 0-2.674 1.234-2.674 2.756ZM3.014 19.932c-.013.788.45 1.247 1.106 1.247.655 0 1.118-.459 1.118-1.247v-5.5c0-.301.155-.485.386-.485s.386.184.386.486v14.202c0 .892.527 1.365 1.247 1.365.72 0 1.247-.473 1.247-1.365v-8.847c0-.289.141-.486.373-.486.219 0 .373.197.373.486v8.847c0 .892.527 1.365 1.247 1.365.72 0 1.26-.473 1.26-1.365V14.433c0-.302.116-.486.36-.486s.386.184.386.486l.013 5.5c-.013.787.462 1.246 1.118 1.246.656 0 1.106-.459 1.106-1.247v-5.368c0-3.544-1.954-4.949-5.863-4.949C4.967 9.615 3 11.02 3 14.564l.013 5.368Zm28.248 0c0 .788.463 1.247 1.119 1.247.642 0 1.118-.459 1.118-1.247v-5.5c0-.301.155-.485.386-.485.244 0 .373.184.373.486v14.202c0 .892.54 1.365 1.26 1.365s1.234-.473 1.234-1.365v-8.847c0-.289.167-.486.373-.486.244 0 .373.197.373.486v8.847c0 .892.54 1.365 1.26 1.365s1.234-.473 1.234-1.365V14.433c0-.302.155-.486.386-.486s.399.184.399.486v5.5c0 .787.462 1.246 1.118 1.246.656 0 1.106-.459 1.106-1.247v-5.368c0-3.544-1.967-4.949-5.876-4.949-3.909 0-5.863 1.405-5.863 4.949v5.368ZM22.812 14.814C22.366 14.318 21.7 14 20.88 14 19.26 14 18 15.23 18 17.002c0 1.954 1.611 3.887 4.15 5.56a1.02 1.02 0 0 1 .234-.519l.68-.801a.338.338 0 0 0 0-.44l-.68-.801a1.014 1.014 0 0 1 0-1.32l.68-.802a.338.338 0 0 0 0-.44l-.68-.8a1.014 1.014 0 0 1 0-1.321l.428-.504Z"/><path d="M23 23c.129 0 .316-.096.47-.192C26.23 21.079 28 19.052 28 17.002 28 15.23 26.74 14 25.125 14c-.206 0-.403.02-.588.058-.433.088-.635.562-.921.899l-.68.801a.338.338 0 0 0 0 .44l.68.801c.326.384.326.937 0 1.32l-.68.802a.338.338 0 0 0 0 .44l.68.8c.326.384.326.938 0 1.321l-.68.801a.338.338 0 0 0 0 .44L23 23Z"/></mask><path d="m3.013 19.932 2.7.045V19.926l-2.7.006Zm9.489-5.5h-2.7v.007l2.7-.006Zm.013 5.5 2.7.045V19.926l-2.7.006ZM3 14.564H.3v.006l2.7-.006Zm19.812.25 2.058 1.748a2.7 2.7 0 0 0-.051-3.554l-2.007 1.806Zm-.663 7.749-1.486 2.254a2.7 2.7 0 0 0 4.16-1.879l-2.674-.375Zm.235-.52 2.058 1.748-2.058-1.748Zm.68-.801-2.057-1.748 2.058 1.748Zm0-.44 2.058-1.748-2.057 1.748Zm-.68-.801-2.058 1.748 2.058-1.748Zm0-1.32 2.058 1.748-2.058-1.748Zm.68-.802-2.057-1.748 2.058 1.748Zm0-.44 2.058-1.748-2.057 1.748Zm-.68-.8-2.058 1.747 2.058-1.748Zm0-1.321-2.058-1.748 2.058 1.748Zm1.085 7.49-1.432-2.289-.002.002 1.434 2.287ZM23 23l-2.057 1.748a2.7 2.7 0 0 0 2.063.952L23 23Zm.616-8.043-2.058-1.748 2.058 1.748Zm-.68.801 2.057 1.748-2.058-1.748Zm0 .44 2.057-1.748-2.058 1.748Zm.68.801 2.058-1.748-2.058 1.748Zm0 1.32 2.058 1.749-2.058-1.748Zm-.68.802-2.058-1.749 2.057 1.749Zm0 .44-2.058 1.748 2.057-1.748Zm.68.8 2.058-1.747-2.058 1.748Zm0 1.321 2.058 1.748-2.058-1.748Zm-.68.801 2.057 1.748-2.058-1.748Zm0 .44-2.058 1.749 2.057-1.749Zm1.601-8.865-.538-2.646.538 2.646ZM3.489 5.756c0 2.905 2.348 5.444 5.387 5.444V5.8a.122.122 0 0 1 .043.008c.007.003.003.003-.006-.007a.103.103 0 0 1-.02-.03.035.035 0 0 1-.004-.015h-5.4ZM8.876 11.2c3.022 0 5.4-2.522 5.4-5.444h-5.4l-.002.007a.11.11 0 0 1-.022.032c-.011.011-.018.013-.014.012a.114.114 0 0 1 .038-.007v5.4Zm5.4-5.444C14.276 2.787 11.89.3 8.876.3v5.4a.071.071 0 0 1-.026-.005c-.005-.002-.002-.002.005.005a.076.076 0 0 1 .021.056h5.4ZM8.876.3c-3.03 0-5.387 2.504-5.387 5.456h5.4c0-.02.003-.033.007-.04a.07.07 0 0 1 .014-.023c.005-.005.005-.003-.003 0a.084.084 0 0 1-.031.007V.3ZM31.75 5.756c0 2.897 2.34 5.444 5.374 5.444V5.8a.159.159 0 0 1 .056.01c.009.004.005.004-.005-.006a.112.112 0 0 1-.021-.032.038.038 0 0 1-.004-.016h-5.4Zm5.374 5.444c3.022 0 5.4-2.522 5.4-5.444h-5.4l-.002.007a.108.108 0 0 1-.022.032c-.011.011-.018.013-.014.012a.115.115 0 0 1 .038-.007v5.4Zm5.4-5.444c0-2.969-2.386-5.456-5.4-5.456v5.4a.07.07 0 0 1-.026-.005c-.005-.002-.002-.002.005.005a.076.076 0 0 1 .015.023.082.082 0 0 1 .006.033h5.4ZM37.124.3c-3.026 0-5.374 2.513-5.374 5.456h5.4c0-.02.003-.033.007-.042a.077.077 0 0 1 .015-.024c.006-.005.006-.003-.004.001a.11.11 0 0 1-.044.009V.3ZM.314 19.888c-.016.93.253 1.963 1.013 2.79.774.842 1.811 1.201 2.792 1.201v-5.4c.324 0 .803.13 1.184.545.368.4.412.81.41.953l-5.4-.089Zm3.805 3.991c.982 0 2.014-.36 2.785-1.192.756-.816 1.033-1.835 1.033-2.755h-5.4c0-.132.046-.527.407-.916a1.639 1.639 0 0 1 1.175-.537v5.4Zm3.818-3.947v-5.5h-5.4v5.5h5.4Zm0-5.5c0 .283-.071.818-.492 1.34a2.354 2.354 0 0 1-1.822.875v-5.4c-.895 0-1.778.387-2.381 1.134a3.252 3.252 0 0 0-.705 2.052h5.4Zm-2.314 2.215a2.354 2.354 0 0 1-1.822-.875 2.152 2.152 0 0 1-.492-1.34h5.4c0-.583-.149-1.361-.705-2.05a3.047 3.047 0 0 0-2.381-1.135v5.4Zm-2.314-2.214v14.202h5.4V14.433h-5.4Zm0 14.202c0 .98.299 2.051 1.11 2.893.817.844 1.877 1.172 2.837 1.172v-5.4c.24 0 .676.091 1.049.477.368.381.404.77.404.858h-5.4ZM7.256 32.7c.96 0 2.02-.328 2.836-1.172.812-.842 1.111-1.913 1.111-2.893h-5.4c0-.087.035-.477.404-.858a1.503 1.503 0 0 1 1.049-.477v5.4Zm3.947-4.065v-8.847h-5.4v8.847h5.4Zm0-8.847c0 .261-.06.765-.444 1.274a2.37 2.37 0 0 1-1.883.94v-5.4a3.03 3.03 0 0 0-2.43 1.21 3.273 3.273 0 0 0-.643 1.976h5.4Zm-2.327 2.214c-.78 0-1.457-.382-1.869-.915a2.137 2.137 0 0 1-.458-1.299h5.4c0-.602-.16-1.344-.668-2.002a3.032 3.032 0 0 0-2.405-1.184v5.4Zm-2.327-2.214v8.847h5.4v-8.847h-5.4Zm0 8.847c0 .98.299 2.051 1.111 2.893.816.844 1.876 1.172 2.836 1.172v-5.4c.24 0 .677.091 1.049.477.368.381.404.77.404.858h-5.4Zm3.947 4.065c.957 0 2.013-.325 2.829-1.159.818-.835 1.131-1.909 1.131-2.906h-5.4c0-.105.043-.496.411-.872a1.482 1.482 0 0 1 1.029-.463v5.4Zm3.96-4.065V14.433h-5.4v14.202h5.4Zm0-14.202c0 .125-.013.648-.41 1.208-.217.305-.523.58-.91.768-.378.184-.74.238-1.02.238v-5.4c-.895 0-1.85.39-2.472 1.266-.517.727-.588 1.492-.588 1.92h5.4Zm-2.34 2.214a2.356 2.356 0 0 1-1.837-.9 2.147 2.147 0 0 1-.477-1.314h5.4c0-.532-.12-1.316-.68-2.027a3.044 3.044 0 0 0-2.406-1.159v5.4Zm-2.314-2.208.013 5.5 5.4-.013-.013-5.5-5.4.013Zm.013 5.45c-.016.949.268 1.985 1.035 2.806.774.828 1.807 1.184 2.783 1.184v-5.4c.321 0 .788.127 1.163.529.368.394.42.807.418.969l-5.399-.089Zm3.818 3.99c.987 0 2.024-.364 2.794-1.209.75-.821 1.012-1.838 1.012-2.738h-5.4c0-.112.038-.505.398-.9a1.659 1.659 0 0 1 1.196-.553v5.4Zm3.806-3.947v-5.368h-5.4v5.368h5.4Zm0-5.368c0-2.266-.643-4.42-2.463-5.899-1.694-1.376-3.919-1.75-6.1-1.75v5.4c1.727 0 2.434.33 2.694.541.135.11.469.43.469 1.708h5.4ZM8.876 6.915c-2.182 0-4.407.374-6.103 1.748C.95 10.139.3 12.293.3 14.563h5.4c0-1.272.334-1.593.472-1.704.264-.215.977-.543 2.704-.543v-5.4ZM.3 14.57l.013 5.369 5.4-.013-.013-5.368-5.4.012Zm28.261 5.362c0 .92.277 1.94 1.033 2.755.771.831 1.803 1.192 2.786 1.192v-5.4c.327 0 .8.132 1.175.537.36.389.406.784.406.916h-5.4Zm3.819 3.947c.987 0 2.01-.367 2.773-1.184.753-.807 1.045-1.823 1.045-2.763h-5.4c0-.151.054-.544.41-.924.364-.39.827-.529 1.172-.529v5.4Zm3.818-3.947v-5.5h-5.4v5.5h5.4Zm0-5.5c0 .283-.071.818-.492 1.34a2.354 2.354 0 0 1-1.822.875v-5.4c-.895 0-1.778.387-2.381 1.134a3.252 3.252 0 0 0-.705 2.052h5.4Zm-2.314 2.215a2.373 2.373 0 0 1-1.883-.952 2.131 2.131 0 0 1-.444-1.262h5.4c0-.48-.095-1.255-.634-1.975a3.028 3.028 0 0 0-2.439-1.211v5.4Zm-2.327-2.214v14.202h5.4V14.433h-5.4Zm0 14.202c0 .997.313 2.071 1.131 2.906.816.834 1.871 1.159 2.829 1.159v-5.4c.237 0 .663.09 1.029.463.368.376.41.767.41.872h-5.4Zm3.96 4.065c.963 0 2.028-.33 2.843-1.187.806-.847 1.091-1.917 1.091-2.878h-5.4c0-.07.028-.456.397-.844.378-.397.826-.491 1.069-.491v5.4Zm3.934-4.065v-8.847h-5.4v8.847h5.4Zm0-8.847c0 .364-.106.86-.473 1.324a2.367 2.367 0 0 1-1.854.89v-5.4c-2.252 0-3.073 2.03-3.073 3.186h5.4Zm-2.327 2.214c-.7 0-1.43-.33-1.898-.966-.39-.53-.43-1.04-.43-1.248h5.4a3.28 3.28 0 0 0-.618-1.95 3.027 3.027 0 0 0-2.454-1.236v5.4Zm-2.327-2.214v8.847h5.4v-8.847h-5.4Zm0 8.847c0 .997.313 2.071 1.131 2.906.816.834 1.872 1.159 2.829 1.159v-5.4c.238 0 .663.09 1.029.463.368.376.41.767.41.872h-5.4Zm3.96 4.065c.963 0 2.028-.33 2.843-1.187.806-.847 1.091-1.917 1.091-2.878h-5.4c0-.07.028-.456.397-.844.378-.397.826-.491 1.069-.491v5.4Zm3.934-4.065V14.433h-5.4v14.202h5.4Zm0-14.202c0 .282-.07.817-.492 1.339a2.354 2.354 0 0 1-1.822.875v-5.4c-.895 0-1.778.387-2.381 1.134a3.252 3.252 0 0 0-.705 2.052h5.4Zm-2.314 2.214c-.65 0-1.315-.282-1.776-.828a2.166 2.166 0 0 1-.525-1.386h5.4c0-.635-.178-1.422-.75-2.1a3.064 3.064 0 0 0-2.349-1.086v5.4Zm-2.301-2.214v5.5h5.4v-5.5h-5.4Zm0 5.5c0 .919.277 1.938 1.033 2.754.77.831 1.803 1.192 2.785 1.192v-5.4c.327 0 .8.132 1.175.537.36.389.407.784.407.916h-5.4Zm3.818 3.946c.986 0 2.024-.364 2.794-1.209.75-.821 1.012-1.838 1.012-2.738h-5.4c0-.112.038-.505.398-.9a1.659 1.659 0 0 1 1.196-.553v5.4Zm3.806-3.947v-5.368h-5.4v5.368h5.4Zm0-5.368c0-2.271-.65-4.425-2.473-5.901-1.696-1.374-3.921-1.748-6.103-1.748v5.4c1.727 0 2.44.33 2.704.544.138.111.472.432.472 1.705h5.4Zm-8.576-7.649c-2.181 0-4.406.374-6.1 1.75-1.82 1.48-2.463 3.633-2.463 5.899h5.4c0-1.278.334-1.599.469-1.708.26-.211.967-.54 2.694-.54v-5.4Zm-8.563 7.649v5.368h5.4v-5.368h-5.4Zm-7.68 2.136c.029 0 .043.003.045.003.002 0-.005 0-.019-.007a.31.31 0 0 1-.102-.076l4.014-3.612C23.84 11.92 22.433 11.3 20.88 11.3v5.4Zm-.181.302c0-.121.021-.194.035-.228.013-.035.025-.047.027-.05a.04.04 0 0 1 .016-.009.272.272 0 0 1 .102-.015v-5.4c-3.166 0-5.58 2.494-5.58 5.702h5.4Zm2.936 3.307c-2.412-1.59-2.936-2.819-2.936-3.307h-5.4c0 3.42 2.698 6.058 5.363 7.815l2.973-4.508Zm1.187 2.63a1.68 1.68 0 0 1-.381.852l-4.116-3.496a3.72 3.72 0 0 0-.85 1.892l5.347.751Zm-.381.852.68-.8-4.115-3.497-.68.8 4.114 3.497Zm.68-.8a3.038 3.038 0 0 0 0-3.937l-4.115 3.496a2.362 2.362 0 0 1 0-3.056l4.115 3.496Zm0-3.937-.68-.801-4.116 3.496.681.801 4.115-3.496Zm-.68-.801c.53.624.53 1.551 0 2.176l-4.116-3.497a3.714 3.714 0 0 0 0 4.817l4.116-3.496Zm0 2.176.68-.801-4.115-3.497-.68.801 4.114 3.497Zm.68-.801a3.038 3.038 0 0 0 0-3.937l-4.115 3.496a2.362 2.362 0 0 1 0-3.056l4.115 3.497Zm0-3.937-.68-.801-4.116 3.496.681.802 4.115-3.497Zm-.68-.801c.53.625.53 1.552 0 2.176l-4.116-3.496a3.714 3.714 0 0 0 0 4.816l4.116-3.496Zm0 2.176.428-.504-4.116-3.496-.428.504 4.116 3.496Zm-2.407 3.454.004-.002a1.815 1.815 0 0 1 .347-.137c.11-.03.325-.08.61-.081l.01 5.4a3.28 3.28 0 0 0 1.305-.288 4.63 4.63 0 0 0 .593-.317l-2.87-4.575Zm3.265-3.518c0 .221-.095.66-.634 1.331-.54.671-1.41 1.423-2.63 2.186l2.866 4.578c1.542-.966 2.937-2.092 3.972-3.38 1.036-1.287 1.826-2.886 1.826-4.715h-5.4Zm-.175-.302c.059 0 .088.01.098.015.009.003.012.006.014.009a.148.148 0 0 1 .028.05.628.628 0 0 1 .035.228h5.4c0-3.205-2.41-5.702-5.575-5.702v5.4Zm-.05.003a.264.264 0 0 1 .05-.003v-5.4c-.381 0-.758.037-1.127.112l1.078 5.291Zm-3.517-3.494-.68.8 4.115 3.497.68-.8-4.114-3.497Zm-.68.8a3.038 3.038 0 0 0 0 3.937l4.115-3.496c.748.88.748 2.176 0 3.056l-4.115-3.496Zm0 3.937.68.801 4.116-3.496-.681-.801-4.115 3.496Zm.68.801a1.686 1.686 0 0 1 0-2.176l4.116 3.497a3.714 3.714 0 0 0 0-4.817l-4.116 3.496Zm0-2.176-.68.801 4.115 3.497.68-.801-4.114-3.497Zm-.68.801a3.038 3.038 0 0 0 0 3.937l4.115-3.497c.748.88.748 2.177 0 3.057l-4.115-3.497Zm0 3.937.68.801 4.116-3.496-.681-.802-4.115 3.497Zm.68.801a1.686 1.686 0 0 1 0-2.176l4.116 3.496a3.714 3.714 0 0 0 0-4.816l-4.116 3.496Zm0-2.176-.68.801 4.115 3.497.68-.802-4.114-3.496Zm-.68.801a3.038 3.038 0 0 0 0 3.937l4.115-3.497c.748.88.748 2.176 0 3.056l-4.115-3.496Zm0 3.937.065.076 4.115-3.496-.065-.077-4.115 3.497Zm3.12-13.26c-1.125.229-1.783.946-2.067 1.293-.143.175-.268.355-.316.423-.072.102-.073.1-.056.08l4.115 3.497c.16-.188.29-.375.35-.46l.088-.123c-.009.011-.096.119-.26.24-.18.133-.443.274-.776.341l-1.078-5.291Z" fill="#795BDA" mask="url('#path-1-outside-1_828_180')"/></svg>