<svg width="48" height="48" fill="none" xmlns="http://www.w3.org/2000/svg"><path fill-rule="evenodd" clip-rule="evenodd" d="M29.906 12.766a3.83 3.83 0 0 1 2.862 1.122 3.818 3.818 0 0 1 1.116 2.477 3.84 3.84 0 0 1 3.576 4.286 3.558 3.558 0 0 1 1.623.932c1.445 1.445 1.37 3.768-.05 5.186l-8.436 8.437c-3.914 3.914-10.222 4.048-14.09.181l-4.264-4.264c-3.867-3.867-3.733-10.176.181-14.09l2.062-2.06a8.31 8.31 0 0 1 7.115-2.365l1.824-1.824c1.488-1.488 3.921-1.565 5.433-.052a3.726 3.726 0 0 1 1.048 2.034Zm-3.009 1.49c.487-.487.457-1.21.052-1.615s-1.127-.435-1.615.052l-.914.915a7.884 7.884 0 0 1 1.576 1.222l.164.163.737-.737Zm1.172 2.646 1.224 1.224c.158.159.297.328.416.506l1.096-1.096c.521-.522.492-1.3.054-1.739-.439-.438-1.217-.468-1.74.054l-1.05 1.051Zm1.46 5.729a3.5 3.5 0 0 1-.592.591l-.143.142c-.521.523-.492 1.3-.054 1.74.439.438 1.217.467 1.74-.055l3.918-3.92c.522-.521.493-1.3.054-1.738-.438-.439-1.216-.468-1.738.054l-3.186 3.186Zm-.461 5.476a3.842 3.842 0 0 1-3.33-4.314 3.355 3.355 0 0 1-.504-.215l-5.021-2.643a1.35 1.35 0 1 1 1.257-2.389l5.022 2.643c.2.105.464.103.69-.03l.285-.285a.693.693 0 0 0-.083-.838l-3.297-3.297c-2.058-2.058-5.502-2.048-7.692.142l-2.062 2.062c-2.913 2.913-2.94 7.511-.18 10.271l4.263 4.264c2.76 2.76 7.359 2.732 10.272-.18l2.175-2.176a3.59 3.59 0 0 1-1.795-3.015Zm8.057-3.247c.418-.418.386-1.03.048-1.368-.337-.337-.95-.369-1.367.049l-3.731 3.731c-.419.418-.387 1.03-.05 1.368.339.337.95.37 1.369-.049l3.73-3.73ZM19.988 7.087a1.35 1.35 0 0 1-1.06 1.587c-2.293.456-4.632 1.821-6.533 3.722-1.9 1.9-3.265 4.24-3.72 6.531a1.35 1.35 0 1 1-2.649-.526c.58-2.92 2.266-5.72 4.46-7.915 2.195-2.194 4.994-3.88 7.915-4.46a1.35 1.35 0 0 1 1.587 1.061ZM41.251 28.35a1.35 1.35 0 0 1 1.06 1.587c-.58 2.92-2.265 5.72-4.46 7.914-2.194 2.195-4.993 3.88-7.914 4.46a1.35 1.35 0 0 1-.527-2.648c2.292-.455 4.632-1.82 6.532-3.72 1.9-1.901 3.266-4.24 3.721-6.532a1.35 1.35 0 0 1 1.588-1.061Z" fill="#795BDA"/></svg>