<svg width="76" height="18" fill="none" xmlns="http://www.w3.org/2000/svg"><path d="M30.563 3.323V1.488h-7.129v12.541h2.048v-5.2h4.626V6.917h-4.626V3.323h5.08ZM50.129 8.523v5.43h1.896V7.988c0-1.377-.683-3.9-3.64-3.9-2.275 0-3.185 1.453-3.185 1.453l-.152-1.224h-1.669v9.712h1.972V9.135C45.351 6.994 46.49 6 47.93 6c1.744-.153 2.199 1.3 2.199 2.523ZM71.06 13.111l3.944-8.87h-1.972l-2.882 6.806-3.033-6.806h-2.124l4.171 9.023c-.076.23-.606 1.53-1.061 1.912-.38.382-.835.459-1.441.459l.303 1.682c.455 0 .834-.076 1.29-.23.378-.152.758-.382 1.06-.688.911-.917 1.67-2.905 1.67-2.905l.075-.383ZM36.933 4.088h-.53c-1.29 0-2.503.535-3.338 1.453-.91.917-1.365 2.14-1.365 3.44v.383c0 1.3.531 2.524 1.365 3.441a4.685 4.685 0 0 0 3.337 1.377h.531c1.29 0 2.503-.535 3.413-1.377.91-.917 1.365-2.14 1.365-3.44v-.383c0-1.3-.531-2.524-1.365-3.441-.91-.918-2.124-1.453-3.413-1.453Zm2.882 5.2c0 .84-.303 1.606-.91 2.14-.607.613-1.365.919-2.124.919h-.075c-.835 0-1.593-.306-2.124-.918-.607-.612-.91-1.377-.91-2.141v-.23c0-.84.303-1.606.91-2.14.607-.613 1.365-.918 2.123-.918h.076c.834 0 1.593.305 2.124.917.606.612.91 1.377.91 2.141v.23ZM61.732.8v4.358a4.688 4.688 0 0 0-2.957-1.07h-.304c-1.29 0-2.502.535-3.413 1.453-.91.917-1.365 2.14-1.365 3.44v.383c0 1.3.531 2.524 1.365 3.441.91.918 2.124 1.377 3.413 1.377h.304c1.213 0 2.35-.459 3.26-1.3l.152 1.07h1.517V.8h-1.972Zm.076 8.488c0 .841-.303 1.606-.91 2.141-.607.612-1.365.918-2.123.918h-.076c-.835 0-1.593-.306-2.124-.918-.607-.612-.91-1.377-.91-2.141v-.23c0-.84.303-1.606.91-2.14C57.182 6.304 57.94 6 58.7 6h.076c.834 0 1.592.305 2.123.917.607.612.91 1.377.91 2.141v.23Z" fill="#000"/><path d="M10.466 13.876v-2.065c0-.076 0-.229-.076-.306l-.228-.229-1.82-1.07c-.076-.077-.227-.077-.303-.077-.076 0-.228 0-.303.077L5.99 11.2l-.227.229c-.076.076-.076.23-.076.306V13.8c0 .076 0 .229.076.305l.227.23 1.745.994c.075.076.227.076.303.076.076 0 .227 0 .303-.076l1.745-.994.227-.23c.152 0 .152-.152.152-.229ZM16.23 13.876v-2.065c0-.076 0-.229-.076-.306l-.228-.229-1.82-1.07c-.076-.077-.227-.077-.303-.077-.076 0-.228 0-.304.077l-1.744.994-.228.229c-.075.076-.075.23-.075.306V13.8c0 .076 0 .229.075.305l.228.23 1.744.994c.076.076.228.076.304.076.075 0 .227 0 .303-.076l1.744-.994.228-.23c.076 0 .151-.152.151-.229ZM7.584 8.829V6.764c0-.076 0-.23-.076-.306l-.227-.229-1.745-.994c-.076-.077-.227-.077-.303-.077-.076 0-.228 0-.303.077l-1.745.994-.227.23c-.152.076-.152.152-.152.305V8.83c0 .077 0 .23.076.306l.228.23 1.744.993c.076.077.227.077.303.077.076 0 .228 0 .303-.077l1.745-.994.227-.23c.152-.076.152-.228.152-.305ZM13.348 8.829V6.764c0-.076 0-.23-.076-.306l-.228-.229-1.744-.994c-.076-.077-.228-.077-.303-.077-.076 0-.228 0-.304.077l-1.82.918-.227.229c-.076.076-.076.23-.076.306v2.065c0 .076 0 .229.076.305l.227.23 1.744.994c.076.076.228.076.304.076.076 0 .227 0 .303-.076l1.744-.994.228-.23c.076 0 .152-.152.152-.229ZM4.702 13.876v-2.065c0-.076 0-.229-.076-.306l-.227-.229-1.745-1.07c-.076-.077-.227-.077-.303-.077-.076 0-.228 0-.303.077L.303 11.2l-.227.229c-.076.076-.076.23-.076.306V13.8c0 .076 0 .229.076.305l.227.23 1.745.994c.075.076.227.076.303.076.076 0 .227 0 .303-.076l1.745-.994.227-.23c.076 0 .076-.152.076-.229Z" fill="#08A835"/><path d="M10.466 3.782V1.717c0-.076 0-.23-.076-.306l-.228-.23L8.418.189C8.342.11 8.19.11 8.115.11c-.076 0-.228 0-.304.077l-1.744.994-.227.23c-.076.076-.076.229-.076.305v2.065c0 .076 0 .23.076.306l.227.23 1.744.993c.076.077.228.077.304.077.075 0 .227 0 .303-.077l1.744-.994.228-.23c.076-.076.076-.229.076-.305Z" fill="#000"/></svg>