<svg width="48" height="48" fill="none" xmlns="http://www.w3.org/2000/svg"><path d="M24.002 38.972c8.512 0 15.564-7.036 15.564-15.564 0-8.513-7.052-15.564-15.58-15.564-8.512 0-15.549 7.051-15.549 15.564 0 8.528 7.052 15.564 15.565 15.564ZM13.68 17.698c0 3.284 2.26 5.152 6.313 5.152.497 0 .783.422.482.89-.708 1.114-.934 1.732-.934 2.546 0 2.049 1.748 3.073 3.013 3.57l-.557 2.351c-.497 2.11 1.793 3.119 3.345 1.462l3.646-3.933c1.205-1.31 1.717-2.305 1.717-3.39 0-.799-.919-2.41-1.853-3.27-.889-.843-1.763-.979-3.27-.979H24.8l-.813-1.582 2.245-.844c1.295.829 1.928 1.296 2.651 1.296 1.402 0 1.96-1.537.934-2.637l-2.35-2.486c-.286-.286-.271-.527-.03-.828.663-.724 1.552-1.763 1.552-2.938 0-.317-.06-.603-.226-.904 4.881 1.943 8.392 6.72 8.392 12.234 0 7.187-5.966 13.153-13.153 13.153s-13.154-5.966-13.154-13.153c0-3.255 1.22-6.268 3.24-8.588a10.794 10.794 0 0 0-.407 2.878Z" fill="#795BDA"/></svg>