<svg width="48" height="48" fill="none" xmlns="http://www.w3.org/2000/svg"><path d="M22.467 11.116c-2 3-4 4-7 5.5-1 1-.5 5 5 4 4.4-.8 5.5-2.5 5.5-2.5l11.5 12m-15-19c2-3 9.5 1 12.5 1s5.5 1 6.5 5.5 3.5 6.5.5 9c-2.4 2-4 3.166-4.5 3.5m-15-19h-7c-1.167.333-3.9 1.1-5.5 1.5-2 .5-3 .5-4.5 5.5-1.325 4.415-2.5 6 0 9.5l11 10.5C18.5 39.5 21 39 22.466 37m15-6.884C33.5 33.5 32 32 27.967 28.116m-9 6c3.5 2.884 5.033 4.384 9 .479m-4.5-3.48C27.967 35.5 29 36 33 31.914" stroke="#795BDA" stroke-width="2.7" stroke-linecap="round" stroke-linejoin="round"/></svg>