<svg width="48" height="48" fill="none" xmlns="http://www.w3.org/2000/svg"><path d="M40.348 18.737c0-5.318-3.405-9.673-7.775-9.673h-4.957c-2.034-1.04-4.445-1.642-7.096-1.642h-2.11c-1.959 0-3.631.12-4.716.392-2.215.542-3.616 2.124-3.616 4.098 0 .346.06.678.15.994-1.039.814-1.626 1.99-1.626 3.285 0 .603.12 1.19.331 1.687-.693.739-1.1 1.808-1.1 2.908a4.5 4.5 0 0 0 .482 2.034c-.422.633-.663 1.492-.663 2.441 0 2.41 1.839 4.264 4.22 4.264h5.604c.316 0 .527.15.512.437-.075 1.552-2.516 5.289-2.516 8.347 0 2.245 1.582 3.887 3.767 3.887 1.582 0 2.667-.828 3.706-2.802 1.884-3.616 4.144-6.78 7.504-10.924h2.697c4.098 0 7.202-4.324 7.202-9.733Zm-9.387.12c0 3.195-.708 5.229-2.757 7.971-2.275 3.044-5.44 6.72-7.715 11.27-.482.95-.813 1.175-1.28 1.175-.573 0-.95-.406-.95-1.13 0-2.23 2.547-5.966 2.547-8.422 0-1.808-1.462-2.983-3.45-2.983h-5.41c-.873 0-1.521-.648-1.521-1.522 0-.618.21-1.025.723-1.537.392-.407.452-.98.105-1.371-.437-.618-.617-1.01-.617-1.522 0-.617.286-1.145.889-1.597.512-.361.693-.98.391-1.582-.316-.602-.482-.919-.482-1.386 0-.723.467-1.28 1.401-1.778.498-.271.633-.798.422-1.28-.316-.769-.361-.905-.346-1.236 0-.648.467-1.16 1.476-1.416.89-.226 2.305-.317 4.174-.302l1.944.015c6.237.06 10.456 3.556 10.456 8.634Zm6.66-.12c0 3.827-1.974 6.886-4.234 6.976-.392.015-.784.015-1.175.015 1.07-2.094 1.536-4.264 1.536-6.87 0-2.773-.964-5.213-2.712-7.127.558 0 1.13.015 1.703.015 2.637.106 4.882 3.194 4.882 6.991Z" fill="#795BDA"/></svg>