<svg width="48" height="48" fill="none" xmlns="http://www.w3.org/2000/svg"><path d="M26.607 43.264c6.208 0 9.945-2.23 9.945-5.952v-8.166c2.606-2.29 4.128-5.951 4.128-10.004 0-9.417-6.102-15.685-15.263-15.685-9.115 0-15.187 6.132-15.187 15.353 0 .513.015.95.06 1.371L8.12 24.07c-.557.979-.813 1.913-.813 2.787 0 1.657 1.04 2.998 2.923 3.39v3.059c0 3.088 2.124 4.625 5.077 4.309l1.507-.166c.09 3.646 3.752 5.816 9.793 5.816Zm0-2.908c-4.4 0-7.036-1.356-7.036-3.54V34.75c0-.346-.21-.512-.542-.482l-4.068.437c-1.19.136-1.823-.377-1.823-1.627v-4.792c0-.24-.181-.406-.437-.406h-.83c-.963 0-1.52-.483-1.52-1.236 0-.392.135-.859.406-1.326l2.531-4.55a13.002 13.002 0 0 1-.165-2.004c0-7.443 4.911-12.4 12.294-12.4 7.413 0 12.355 5.108 12.355 12.777 0 3.736-1.567 6.976-4.143 8.543v9.13c0 2.185-2.637 3.541-7.022 3.541Z" fill="#795BDA"/><path d="M25.48 13.228c-.361 0-.709.125-.967.377-.26.256-.392.605-.38.976l.102 2.499c.012.311.109.635.357.88.25.25.578.342.896.342.31 0 .639-.09.89-.34.247-.248.34-.573.347-.886l.109-2.482v-.006c.027-.797-.596-1.36-1.354-1.36ZM25.488 18.908c-.754 0-1.456.562-1.456 1.397 0 .832.705 1.406 1.456 1.406.757 0 1.455-.566 1.455-1.405 0-.833-.691-1.398-1.455-1.398Z" fill="#795BDA"/><path fill-rule="evenodd" clip-rule="evenodd" d="M25.488 9.398c-4.436 0-8.09 3.665-8.09 8.1 0 4.437 3.662 8.1 8.097 8.1 4.442 0 8.103-3.663 8.103-8.1 0-4.437-3.67-8.1-8.11-8.1Zm-5.382 8.1c0-3 2.394-5.398 5.382-5.398a5.393 5.393 0 0 1 5.41 5.4 5.384 5.384 0 0 1-5.403 5.404 5.376 5.376 0 0 1-5.389-5.406Z" fill="#795BDA"/></svg>