<svg width="48" height="48" fill="none" xmlns="http://www.w3.org/2000/svg"><path d="M26.605 43.264c6.208 0 9.945-2.23 9.945-5.952v-8.166c2.606-2.29 4.128-5.951 4.128-10.004 0-9.417-6.102-15.685-15.263-15.685-9.115 0-15.187 6.132-15.187 15.353 0 .513.015.95.06 1.371l-2.17 3.888c-.557.979-.813 1.913-.813 2.787 0 1.657 1.04 2.998 2.923 3.39v3.059c0 3.088 2.124 4.625 5.077 4.309l1.507-.166c.09 3.646 3.752 5.816 9.793 5.816Zm0-2.908c-4.4 0-7.036-1.356-7.036-3.54V34.75c0-.346-.21-.512-.542-.482l-4.068.437c-1.19.136-1.823-.377-1.823-1.627v-4.792c0-.24-.181-.406-.437-.406h-.829c-.964 0-1.522-.483-1.522-1.236 0-.392.136-.859.407-1.326l2.531-4.55a12.99 12.99 0 0 1-.165-2.004c0-7.443 4.911-12.4 12.294-12.4 7.413 0 12.355 5.108 12.355 12.777 0 3.736-1.567 6.976-4.143 8.543v9.13c0 2.185-2.637 3.541-7.022 3.541Z" fill="#FF5C8D"/><path d="M25.672 25C29.183 25 31 22.34 31 19.167c0-3.19-1.74-6.57-5.008-8.141-.183-.08-.35.032-.305.256.26 2.468-.03 4.744-.81 5.978-.35-.962-.793-1.747-1.45-2.388-.168-.144-.32-.064-.35.128-.23 1.923-2.077 2.837-2.077 5.593C21 23.237 22.863 25 25.672 25Z" fill="#FF5C8D"/></svg>