<svg width="48" height="48" fill="none" xmlns="http://www.w3.org/2000/svg"><path d="M24.693 14.426a1.351 1.351 0 0 0-.186-.258c-1.428-1.56-3.53-2.518-6.018-2.518-4.965 0-8.839 3.752-8.839 9.02 0 2.89 1.212 5.658 3.206 8.207 1.993 2.549 4.82 4.948 8.198 7.139a1.35 1.35 0 0 0 1.378.054c.09.22.215.428.379.617l.169.196c.257.297.63.468 1.024.467.445 0 .854-.15 1.118-.264a6.42 6.42 0 0 0 .806-.427l-1.235-22.233Zm0 0c.104-.13.212-.279.339-.455l.04-.056c.153-.214.337-.471.536-.712.433-.524 1.09-1.17 2.096-1.374a9.125 9.125 0 0 1 1.82-.179c4.953 0 8.826 3.753 8.826 9.02 0 3.03-1.33 5.928-3.502 8.583-2.173 2.655-5.25 5.147-8.92 7.405l-1.235-22.232Z" stroke="#795BDA" stroke-width="2.7" stroke-linejoin="round"/></svg>