<svg width="48" height="48" fill="none" xmlns="http://www.w3.org/2000/svg"><path d="M8.738 19.89c0 6.433 5.41 12.791 13.817 18.215.467.302 1.04.603 1.431.603.392 0 .964-.301 1.431-.602C33.84 32.68 39.234 26.322 39.234 19.89c0-5.56-3.842-9.417-8.77-9.417-2.877 0-5.122 1.31-6.478 3.3-1.326-1.974-3.586-3.3-6.464-3.3-4.942 0-8.784 3.857-8.784 9.417Zm3.104-.016c0-3.796 2.501-6.373 5.861-6.373 2.712 0 4.234 1.642 5.183 3.074.422.617.708.813 1.1.813.407 0 .663-.21 1.1-.813 1.024-1.401 2.486-3.074 5.183-3.074 3.375 0 5.876 2.577 5.876 6.373 0 5.304-5.514 11.18-11.873 15.399-.135.09-.226.15-.286.15-.06 0-.15-.06-.271-.15-6.358-4.219-11.873-10.095-11.873-15.399Zm7.488 6.057c0 .287.241.513.543.513h3.616l-1.944 5.137c-.271.739.527 1.16 1.025.558l5.921-7.383a.714.714 0 0 0 .196-.452c0-.286-.256-.512-.558-.512h-3.6l1.928-5.123c.271-.753-.527-1.175-1.01-.557l-5.936 7.367a.723.723 0 0 0-.18.452Z" fill="#FF5C8D"/></svg>