<svg width="48" height="48" fill="none" xmlns="http://www.w3.org/2000/svg"><path d="M8.736 19.89c0 6.433 5.41 12.791 13.817 18.215.467.302 1.04.603 1.431.603.392 0 .964-.301 1.431-.602 8.423-5.425 13.817-11.783 13.817-18.216 0-5.56-3.842-9.417-8.77-9.417-2.877 0-5.122 1.31-6.478 3.3-1.326-1.974-3.586-3.3-6.464-3.3-4.942 0-8.784 3.857-8.784 9.417Zm3.104-.016c0-3.796 2.501-6.373 5.861-6.373 2.712 0 4.234 1.642 5.183 3.074.422.617.708.813 1.1.813.407 0 .663-.21 1.1-.813 1.024-1.401 2.486-3.074 5.183-3.074 3.375 0 5.876 2.577 5.876 6.373 0 5.304-5.514 11.18-11.873 15.399-.135.09-.226.15-.286.15-.06 0-.15-.06-.271-.15-6.358-4.219-11.873-10.095-11.873-15.399Z" fill="#795BDA"/><path fill-rule="evenodd" clip-rule="evenodd" d="m26.119 28.45-1.273-.704v-.558l-.095-1.418 1.273.794.506.276.006 1.392c0 .47.353.831.819.81a.765.765 0 0 0 .588-.285.853.853 0 0 0 .164-.58l-.008-.47.607.337c.2.113.426.158.647.107a.824.824 0 0 0 .523-.39l.003-.004.002-.005a.822.822 0 0 0 .081-.64.842.842 0 0 0-.415-.495l-.583-.32.42-.227a.867.867 0 0 0 .435-.42.712.712 0 0 0-.039-.65l-.002-.003-.002-.004a.789.789 0 0 0-.492-.369.895.895 0 0 0-.623.085l-.004.002-1.285.704-.517-.286-1.327-.626 1.327-.626.517-.286 1.28.702h.001c.41.223.9.115 1.127-.286v-.001a.711.711 0 0 0 .038-.651.886.886 0 0 0-.438-.425l-.412-.22.578-.32h.001c.2-.11.358-.278.423-.498a.819.819 0 0 0-.09-.64l-.004-.007-.004-.006a.844.844 0 0 0-.515-.379.891.891 0 0 0-.65.101l-.608.335.008-.467a.857.857 0 0 0-.167-.583.754.754 0 0 0-.592-.282.783.783 0 0 0-.812.803v.001l-.006 1.398-.506.276-1.273.798.095-1.422v-.558l1.273-.704h.002a.824.824 0 0 0 .4-.494.748.748 0 0 0-.093-.6l-.001-.003-.002-.003a.76.76 0 0 0-.552-.35.918.918 0 0 0-.595.15l-.432.246v-.65a.862.862 0 0 0-.226-.603.834.834 0 0 0-.617-.249.846.846 0 0 0-.61.245.854.854 0 0 0-.239.608v.651l-.439-.248a.904.904 0 0 0-.59-.15.769.769 0 0 0-.547.345l-.001.003-.002.002a.732.732 0 0 0-.097.61c.06.21.21.38.41.49l1.266.703v.559l.095 1.425-1.265-.8-.508-.281-.005-1.394a.782.782 0 0 0-.813-.804h-.006a.771.771 0 0 0-.59.283.832.832 0 0 0-.163.584l.006.467-.612-.336c-.414-.234-.913-.124-1.165.277l-.003.003-.002.004a.8.8 0 0 0-.089.654.855.855 0 0 0 .419.49l.582.32-.416.22a.88.88 0 0 0-.432.422.734.734 0 0 0 .034.651l.002.003.002.004c.223.404.718.502 1.125.285l.002-.001 1.281-.703.511.286 1.333.627-1.326.625-.523.287-1.281-.703c-.407-.222-.895-.117-1.116.283L18.23 25l-.001.003a.734.734 0 0 0-.039.646.868.868 0 0 0 .43.42l.42.227-.58.32a.853.853 0 0 0-.422.494.784.784 0 0 0 .088.646.828.828 0 0 0 .532.395c.22.049.443.003.635-.106l.61-.332-.01.464a.853.853 0 0 0 .17.584c.143.181.356.277.597.281a.79.79 0 0 0 .575-.222.812.812 0 0 0 .237-.587v-.001l.01-1.393.502-.275 1.266-.797-.095 1.421v.559l-1.265.702a.832.832 0 0 0-.411.487.739.739 0 0 0 .095.61l.003.005.002.004a.764.764 0 0 0 .55.342.926.926 0 0 0 .586-.146l.44-.252v.654c0 .229.08.444.24.604.159.16.376.243.61.243a.837.837 0 0 0 .614-.244.852.852 0 0 0 .228-.603v-.65l.434.248c.172.105.376.17.589.146a.766.766 0 0 0 .553-.342l.002-.004.003-.004a.743.743 0 0 0 .096-.608.83.83 0 0 0-.402-.488l-.002-.001Z" fill="#795BDA"/></svg>