<svg width="48" height="48" fill="none" xmlns="http://www.w3.org/2000/svg"><path fill-rule="evenodd" clip-rule="evenodd" d="M6.238 26.933v.037c-.014.765-.473 1.21-1.119 1.21-.331 0-.613-.117-.81-.335-.192-.213-.302-.522-.295-.912L4 21.565v-.132c.013-.88.15-1.624.412-2.245.421-.999 1.165-1.678 2.23-2.086.865-.333 1.944-.486 3.234-.486 1.292 0 2.37.154 3.236.487 1.057.408 1.795 1.085 2.214 2.079.162.386.277.819.344 1.303a7.754 7.754 0 0 1 .069 1.08v5.405c-.007.36-.11.65-.283.855-.196.23-.481.355-.823.355-.656 0-1.131-.46-1.119-1.247l-.012-5.5c0-.301-.142-.485-.386-.485a.397.397 0 0 0-.107.013c-.171.048-.253.218-.253.472v14.203c0 .654-.29 1.083-.729 1.265-.16.066-.339.1-.531.1-.72 0-1.247-.473-1.247-1.365v-8.847c0-.2-.075-.357-.193-.434a.327.327 0 0 0-.18-.052.341.341 0 0 0-.168.041c-.13.073-.205.234-.205.445v8.847c0 .892-.527 1.365-1.247 1.365-.194 0-.373-.034-.532-.101-.433-.183-.716-.611-.716-1.264V21.433c0-.252-.108-.422-.278-.47a.389.389 0 0 0-.107-.015c-.232 0-.386.184-.386.485v5.5Zm-1.929 3.864a3.69 3.69 0 0 1-1.98-1.118c-.753-.818-1.024-1.838-1.015-2.759L1.3 21.565c0-2.272.65-4.425 2.473-5.902a6.681 6.681 0 0 1 1.162-.754 5.426 5.426 0 0 1-.447-2.152c0-2.952 2.357-5.456 5.388-5.456 3.013 0 5.4 2.487 5.4 5.456 0 .76-.16 1.491-.451 2.159.404.208.79.456 1.15.75 1.136.923 1.814 2.108 2.162 3.42.268-.05.545-.077.829-.077.95 0 1.816.294 2.527.79a4.381 4.381 0 0 1 2.526-.79c.946 0 1.808.293 2.514.788a4.354 4.354 0 0 1 2.513-.788c.28 0 .553.026.817.074.349-1.31 1.026-2.495 2.16-3.417.368-.298.76-.55 1.172-.76a5.43 5.43 0 0 1-.445-2.149c0-2.944 2.348-5.456 5.374-5.456 3.014 0 5.4 2.487 5.4 5.456 0 .758-.16 1.49-.45 2.157.405.208.79.456 1.153.75 1.823 1.476 2.473 3.63 2.473 5.9v5.37c0 .899-.263 1.915-1.012 2.737a3.68 3.68 0 0 1-1.997 1.129v4.836c0 .961-.285 2.031-1.091 2.878-.815.857-1.88 1.187-2.843 1.187-.53 0-1.09-.1-1.623-.33-.53.23-1.09.33-1.617.33-.958 0-2.013-.325-2.83-1.159-.817-.835-1.13-1.909-1.13-2.906v-4.842a3.698 3.698 0 0 1-1.963-1.107 3.839 3.839 0 0 1-.928-1.79 4.51 4.51 0 0 1-.62.043c-.94 0-1.804-.29-2.513-.785a4.375 4.375 0 0 1-2.514.785 4.403 4.403 0 0 1-2.526-.787 4.403 4.403 0 0 1-2.527.787c-.214 0-.425-.015-.63-.044a3.836 3.836 0 0 1-.909 1.775 3.677 3.677 0 0 1-1.971 1.123v4.842c0 .997-.313 2.071-1.131 2.906-.817.834-1.872 1.159-2.83 1.159-.528 0-1.087-.1-1.62-.33-.531.23-1.09.33-1.62.33-.96 0-2.02-.328-2.835-1.173-.813-.84-1.112-1.913-1.112-2.892v-4.839Zm14.13-5.638a1.745 1.745 0 0 0 1.408-.157 1.75 1.75 0 0 0 .856-1.52c0-.655-.34-1.222-.853-1.53a1.71 1.71 0 0 0-1.41-.16 1.76 1.76 0 0 0-1.209 1.69c0 .796.505 1.455 1.209 1.677Zm4.7-.157a1.726 1.726 0 0 0 1.75.001c.51-.302.854-.865.854-1.522 0-.655-.342-1.224-.851-1.53a1.71 1.71 0 0 0-1.755.002 1.772 1.772 0 0 0-.853 1.528c0 .656.342 1.218.856 1.52Zm5.04.001c.255.151.552.237.868.237.18 0 .352-.027.515-.077a1.742 1.742 0 0 0 1.221-1.682 1.76 1.76 0 0 0-1.221-1.694 1.722 1.722 0 0 0-.515-.078c-.318 0-.615.088-.871.242-.51.306-.851.875-.851 1.53 0 .657.343 1.22.854 1.522Zm4.083 1.93c0 .382.109.687.296.9.198.225.485.347.822.347.643 0 1.119-.46 1.119-1.247v-5.5c0-.301.154-.485.386-.485.038 0 .074.004.106.013.175.048.267.218.267.472v14.203c0 .647.284 1.074.715 1.26.163.07.347.105.545.105.72 0 1.234-.473 1.234-1.365v-8.847c0-.205.084-.363.206-.438a.317.317 0 0 1 .167-.048c.064 0 .12.014.167.038.136.071.206.234.206.448v8.847c0 .892.54 1.365 1.26 1.365.189 0 .364-.033.519-.097.435-.18.715-.61.715-1.268V21.433c0-.252.108-.422.279-.47a.39.39 0 0 1 .107-.015c.231 0 .398.184.398.485v5.5c0 .788.463 1.247 1.119 1.247.327 0 .603-.114.797-.326.196-.213.309-.526.309-.92v-5.37l-.001-.13c-.013-.885-.151-1.633-.416-2.256-.422-.993-1.163-1.668-2.222-2.075-.867-.334-1.946-.487-3.237-.487-1.288 0-2.364.153-3.227.484-1.066.409-1.808 1.09-2.228 2.092-.159.38-.271.806-.337 1.28a7.743 7.743 0 0 0-.071 1.093v5.368Zm8.212-12.842c.223-.398.351-.854.351-1.334 0-1.522-1.222-2.756-2.7-2.756-1.466 0-2.675 1.234-2.675 2.756 0 .479.126.934.346 1.331.46.834 1.336 1.413 2.329 1.413 1 0 1.883-.577 2.35-1.41Zm-28.248 0c.223-.398.35-.854.35-1.334 0-1.522-1.22-2.756-2.7-2.756-1.478 0-2.687 1.234-2.687 2.756 0 .48.127.935.347 1.333.462.833 1.34 1.41 2.34 1.41 1.001 0 1.884-.576 2.35-1.409Z" fill="#FF5C8D"/></svg>