<svg width="48" height="48" fill="none" xmlns="http://www.w3.org/2000/svg"><path d="M5.119 29.53c.18 0 .362-.019.54-.056v6.16c0 .714.215 1.42.732 1.956.519.537 1.205.76 1.865.76a2.6 2.6 0 0 0 1.62-.539 2.6 2.6 0 0 0 1.62.539c.659 0 1.344-.222 1.864-.753.522-.533.746-1.24.746-1.962v-6.158c.174.035.35.052.527.052.657 0 1.314-.24 1.797-.768.471-.518.659-1.182.659-1.829v-5.368c0-2.019-.566-3.715-1.964-4.851-.665-.54-1.456-.901-2.338-1.128a4.116 4.116 0 0 0 1.139-2.829c0-2.245-1.804-4.106-4.05-4.106-2.255 0-4.037 1.869-4.037 4.106 0 1.077.428 2.082 1.13 2.828-.884.226-1.679.587-2.347 1.128-1.401 1.135-1.972 2.83-1.972 4.852v.003l.013 5.358c-.008.657.183 1.323.658 1.84.485.527 1.144.764 1.798.764Zm28.98-16.774c0 1.075.428 2.08 1.129 2.826-.888.226-1.684.588-2.353 1.131-1.398 1.136-1.964 2.832-1.964 4.85v5.37c0 .656.197 1.322.673 1.836.485.523 1.14.76 1.796.76.177 0 .353-.017.527-.053v6.159c0 .722.224 1.43.745 1.962.521.531 1.206.753 1.865.753.56 0 1.137-.16 1.615-.539a2.62 2.62 0 0 0 1.625.539c.662 0 1.348-.224 1.865-.767.513-.539.72-1.244.72-1.948V29.47c.181.04.367.058.552.058.657 0 1.314-.24 1.797-.768.471-.518.659-1.182.659-1.829v-5.368c0-2.022-.57-3.717-1.973-4.852-.666-.54-1.458-.9-2.342-1.127a4.117 4.117 0 0 0 1.14-2.829c0-2.245-1.805-4.106-4.05-4.106-2.247 0-4.025 1.873-4.025 4.106Z" stroke="#FF5C8D" stroke-width="2.7"/><path d="M25.186 30.952c1.461-.915 2.725-1.947 3.636-3.08.912-1.134 1.528-2.443 1.528-3.87 0-2.489-1.835-4.352-4.226-4.352-.293 0-.58.028-.856.085a2.141 2.141 0 0 0-1.097.608 3.986 3.986 0 0 0-2.29-.693c-2.394 0-4.231 1.862-4.231 4.352 0 2.687 2.155 4.972 4.756 6.688.18.119.384.19.592.214a1.35 1.35 0 0 0 1.005.446c.348 0 .634-.116.765-.174.163-.071.309-.155.418-.224Z" stroke="#FF5C8D" stroke-width="2.7" stroke-linejoin="round"/></svg>