<svg width="48" height="48" fill="none" xmlns="http://www.w3.org/2000/svg"><path d="M23.985 38.987c8.544 0 15.595-7.052 15.595-15.58 0-8.527-7.067-15.579-15.61-15.579-8.527 0-15.564 7.051-15.564 15.58 0 8.527 7.052 15.579 15.58 15.579Zm0-10.367c-4.248 0-7.548 1.522-9.145 3.27a12.445 12.445 0 0 1-3.3-8.483c0-6.915 5.53-12.46 12.43-12.46a12.452 12.452 0 0 1 12.49 12.46c0 3.285-1.25 6.268-3.314 8.498-1.597-1.763-4.897-3.285-9.16-3.285Zm0-2.47c2.924.03 5.199-2.471 5.199-5.696 0-3.043-2.29-5.59-5.199-5.59-2.892 0-5.198 2.547-5.183 5.59.015 3.225 2.276 5.68 5.183 5.696Z" fill="#795BDA"/></svg>