<svg width="48" height="48" fill="none" xmlns="http://www.w3.org/2000/svg"><path d="M5.119 29.53c.18 0 .362-.019.54-.056v6.16c0 .714.215 1.42.732 1.956.519.537 1.205.76 1.865.76a2.6 2.6 0 0 0 1.62-.539 2.6 2.6 0 0 0 1.62.539c.659 0 1.344-.222 1.864-.753.522-.533.746-1.24.746-1.962v-6.158c.174.035.35.052.527.052.657 0 1.314-.24 1.797-.768.471-.518.659-1.182.659-1.829v-5.368c0-2.019-.566-3.715-1.964-4.851-.665-.54-1.456-.901-2.338-1.128a4.116 4.116 0 0 0 1.139-2.829c0-2.245-1.804-4.106-4.05-4.106-2.255 0-4.037 1.869-4.037 4.106 0 1.077.428 2.082 1.13 2.828-.884.226-1.679.587-2.347 1.128-1.401 1.135-1.972 2.83-1.972 4.852v.003l.013 5.358c-.008.657.183 1.323.658 1.84.485.527 1.144.764 1.798.764Zm28.98-16.774c0 1.075.428 2.08 1.129 2.826-.888.226-1.684.588-2.353 1.131-1.398 1.136-1.964 2.832-1.964 4.85v5.37c0 .656.197 1.322.673 1.836.485.523 1.14.76 1.796.76.177 0 .353-.017.527-.053v6.159c0 .722.224 1.43.745 1.962.521.531 1.206.753 1.865.753.56 0 1.137-.16 1.615-.539a2.62 2.62 0 0 0 1.625.539c.662 0 1.348-.224 1.865-.767.513-.539.72-1.244.72-1.948V29.47c.181.04.367.058.552.058.657 0 1.314-.24 1.797-.768.471-.518.659-1.182.659-1.829v-5.368c0-2.022-.57-3.717-1.973-4.852-.666-.54-1.458-.9-2.342-1.127a4.117 4.117 0 0 0 1.14-2.829c0-2.245-1.805-4.106-4.05-4.106-2.247 0-4.025 1.873-4.025 4.106Z" stroke="#FF5C8D" stroke-width="2.7"/><path d="m20.046 14.958.185-.922c1.819.307 2.715 1.38 2.715 2.707v3.867c0 .527.334.887.827.887.492 0 .826-.36.826-.887v-3.867c0-1.319.896-2.391 2.69-2.707l.193.922c.105.554.553.65.958.229l1.89-2.03c.324-.343.228-.765-.194-.95l-2.531-1.125c-.528-.228-.897.036-.791.58l.193.976c-1.292.264-2.795 1.064-3.234 2.057-.44-1.002-1.96-1.802-3.261-2.057l.202-.976c.106-.544-.264-.808-.8-.58l-2.522 1.125c-.43.185-.519.607-.202.95l1.898 2.03c.395.422.853.325.958-.229Z" fill="#FF5C8D"/></svg>