<svg width="47" height="47" fill="none" xmlns="http://www.w3.org/2000/svg"><path d="M7.906 22.874c0 6.89 5.887 10.932 13.455 10.932.531 0 1.062-.03 1.593-.06.65.266 1.417.414 2.272.414 2.213 0 4.426-.59 6.403-1.608.015.103.015.22.015.324 0 1.682-.988 3.35-2.611 4.397-.517.354-.856.752-.856 1.357 0 .693.56 1.254 1.387 1.254.369 0 .62-.103.944-.325 2.375-1.534 3.85-4.101 3.85-6.712a7.12 7.12 0 0 0-.25-1.889c2.95-2.33 4.972-5.694 4.972-9.368 0-7.273-6.27-12.29-14.149-12.29-8.675 0-17.025 5.518-17.025 13.574Zm2.715.014c0-6.403 7.11-10.858 14.325-10.858 6.27 0 11.419 3.792 11.419 9.56 0 2.611-1.402 5.06-3.482 6.875-1.313-1.652-3.378-2.67-5.783-2.67-3.644 0-6.359 1.918-6.359 4.735 0 .192.015.384.045.561-5.725-.207-10.165-3.01-10.165-8.203Zm12.85 7.598c0-1.165 1.682-1.962 3.806-1.962 1.402 0 2.582.56 3.364 1.49-1.667.915-3.556 1.446-5.415 1.446-1.003 0-1.755-.398-1.755-.974Z" fill="#FF5C8D"/></svg>