<svg width="48" height="48" fill="none" xmlns="http://www.w3.org/2000/svg"><path fill-rule="evenodd" clip-rule="evenodd" d="M8.738 19.89c0 6.433 5.41 12.791 13.817 18.215.467.302 1.04.603 1.431.603.392 0 .964-.301 1.431-.602C33.84 32.68 39.234 26.322 39.234 19.89c0-5.56-3.842-9.417-8.77-9.417-2.877 0-5.122 1.31-6.478 3.3-1.326-1.974-3.586-3.3-6.464-3.3-4.942 0-8.784 3.857-8.784 9.417Zm4.192-3.888c1.042-1.569 2.752-2.5 4.773-2.5 2.355 0 3.812 1.237 4.776 2.5H12.93Zm-.867 2a7.781 7.781 0 0 0-.22 1.872c0 .374.026.75.08 1.128h24.142c.053-.378.08-.754.08-1.128 0-.663-.076-1.29-.22-1.872H12.062Zm22.993-2c-1.044-1.569-2.757-2.5-4.787-2.5-2.336 0-3.745 1.253-4.746 2.5h9.533Zm-22.628 7h23.131c-.36 1-.875 2.004-1.518 3H13.946c-.643-.996-1.158-2-1.518-3Zm2.983 5h17.165a30.614 30.614 0 0 1-2.841 3H18.252c-1.042-.97-2-1.975-2.84-3Zm5.174 5a45.518 45.518 0 0 0 3.13 2.27c.12.091.21.151.271.151.06 0 .15-.06.286-.15a45.52 45.52 0 0 0 3.13-2.271h-6.817Z" fill="#795BDA"/></svg>