<svg width="31" height="31" fill="none" xmlns="http://www.w3.org/2000/svg"><path d="M15.492 31C23.989 31 31 23.985 31 15.5S23.973 0 15.477 0C6.997 0 0 7.015 0 15.5S7.012 31 15.492 31Zm0-3.088c-6.877 0-12.376-5.531-12.376-12.412 0-6.88 5.5-12.397 12.361-12.397A12.386 12.386 0 0 1 27.898 15.5c.015 6.88-5.528 12.412-12.405 12.412Z" fill="#FF5C8D"/><path d="M9.944 12.672h6.735c.2-.22.336-.427.408-.62.086-.207.128-.427.128-.662 0-.344-.135-.633-.407-.868-.257-.248-.722-.372-1.394-.372-.6 0-1.037.104-1.309.31-.257.193-.421.469-.493.827h-2.488c.057-1.02.436-1.826 1.137-2.418.7-.607 1.752-.91 3.153-.91.7 0 1.315.083 1.844.248.544.152.994.366 1.352.641.371.276.643.6.815.972.185.358.278.744.278 1.157 0 .358-.028.662-.085.91-.057.248-.165.51-.322.785h1.587v1.943H9.944v-1.943Zm5.47 10.211c-1.53 0-2.667-.29-3.41-.868-.73-.579-1.094-1.33-1.094-2.253 0-.441.05-.806.15-1.096.1-.289.236-.565.407-.826H9.944v-1.943h10.94v1.943h-6.521c-.272.275-.465.544-.58.806-.114.261-.17.53-.17.806 0 .386.12.689.364.91.243.22.722.33 1.437.33.6 0 1.037-.096 1.308-.29.272-.206.436-.489.493-.847h2.703a3.614 3.614 0 0 1-.322 1.323c-.171.4-.436.751-.793 1.054-.358.303-.815.538-1.373.703-.558.165-1.23.248-2.016.248Z" fill="#FF5C8D"/></svg>