<svg width="41" height="28" fill="none" xmlns="http://www.w3.org/2000/svg"><path d="M20.498 14.067c3.708 0 6.71-3.206 6.71-7.13C27.209 3.07 24.207 0 20.499 0c-3.692 0-6.71 3.116-6.71 6.966.015 3.91 3.002 7.101 6.71 7.101Zm0-2.621c-2.114 0-3.907-1.963-3.907-4.48-.015-2.457 1.777-4.344 3.907-4.344 2.145 0 3.907 1.857 3.907 4.314 0 2.517-1.777 4.51-3.907 4.51ZM4.671 10.89c.889.66 1.961.27 1.961-.824V8.21h3.907c.72 0 1.287-.555 1.287-1.274a1.27 1.27 0 0 0-1.287-1.258H6.632V3.865c0-1.138-1.103-1.483-1.96-.839L.441 6.142c-.582.42-.597 1.214 0 1.648l4.23 3.101ZM30.457 8.21h3.907v1.857c0 1.094 1.072 1.484 1.976.824l4.23-3.1c.581-.435.566-1.23 0-1.649l-4.23-3.116c-.873-.644-1.976-.3-1.976.84v1.812h-3.907c-.72 0-1.287.57-1.287 1.258 0 .72.567 1.274 1.287 1.274ZM10.953 28h19.09c2.65 0 3.923-.824 3.923-2.592 0-4.12-5.256-9.603-13.468-9.603S7.015 21.288 7.015 25.408c0 1.768 1.287 2.592 3.938 2.592Zm-.49-2.622c-.353 0-.49-.12-.49-.39 0-2.291 3.784-6.561 10.525-6.561 6.741 0 10.526 4.27 10.526 6.562 0 .27-.138.39-.506.39H10.463Z" fill="#FF5C8D"/></svg>