<svg width="48" height="48" fill="none" xmlns="http://www.w3.org/2000/svg"><path d="M12.972 34.42c6.04 6.04 16.013 6.04 22.043.01 6.03-6.03 6.02-16.013-.021-22.053-6.03-6.03-15.992-6.02-22.022.01-6.03 6.03-6.03 16.003 0 22.033Zm2.195-2.195c-4.89-4.89-4.869-12.732.021-17.622 4.89-4.89 12.72-4.9 17.6-.021 4.89 4.89 4.901 12.742.022 17.643-4.88 4.9-12.753 4.89-17.643 0Zm.064-7.245 6.637-.01c.32 0 .533.213.533.532l-.01 6.638c.01 1.353 1.448 1.64 1.928.5l6.19-14.159c.479-1.097-.533-2.088-1.652-1.608L14.73 23.052c-1.119.48-.852 1.918.5 1.928Z" fill="#FF5C8D"/></svg>