<svg width="24" height="24" fill="none" xmlns="http://www.w3.org/2000/svg"><path fill-rule="evenodd" clip-rule="evenodd" d="M12 5.25a5.5 5.5 0 0 0-5.5 5.5c0 2.674 1.404 4.805 2.858 6.293A14.564 14.564 0 0 0 12 19.17a14.564 14.564 0 0 0 2.642-2.126c1.454-1.488 2.858-3.62 2.858-6.293a5.5 5.5 0 0 0-5.5-5.5Zm0 14.5-.24.438h-.003l-.004-.003-.015-.009a5.502 5.502 0 0 1-.258-.153 15.566 15.566 0 0 1-2.838-2.281C7.096 16.159 5.5 13.79 5.5 10.75a6.5 6.5 0 0 1 13 0c0 3.04-1.596 5.409-3.142 6.992a15.566 15.566 0 0 1-2.838 2.281 8.975 8.975 0 0 1-.258.153l-.015.009-.005.002v.001h-.001L12 19.75Zm0 0 .24.439-.24.131-.24-.131.24-.439Zm0-10.9a1.9 1.9 0 1 0 0 3.8 1.9 1.9 0 0 0 0-3.8Zm-2.9 1.9a2.9 2.9 0 1 1 5.8 0 2.9 2.9 0 0 1-5.8 0Z" fill="#222B40"/></svg>