<svg width="31" height="24" fill="none" xmlns="http://www.w3.org/2000/svg"><path d="M6.09 23.35v-1.564c0-.587-.351-.978-.977-.978-.313 0-.665.117-.86.43-.196-.274-.43-.43-.822-.43-.274 0-.508.078-.704.352v-.274H2.18v2.464h.547v-1.369c0-.43.235-.665.587-.665s.547.235.547.665v1.37h.548v-1.37c0-.43.274-.665.587-.665.352 0 .547.235.547.665v1.37h.548Zm8.019-2.464h-.86v-.782H12.7v.782h-.509v.509h.509v1.134c0 .587.234.9.86.9.235 0 .509-.079.665-.196l-.156-.47c-.157.118-.352.118-.47.118-.273 0-.352-.157-.352-.43v-1.096h.86v-.469Zm4.576-.078c-.313 0-.508.156-.665.352v-.313h-.548v2.464h.548v-1.408c0-.43.196-.665.509-.665.117 0 .234.04.352.04l.156-.51c-.078.04-.235.04-.352.04Zm-6.923.274c-.274-.196-.626-.274-1.017-.274-.626 0-1.017.313-1.017.782 0 .43.313.665.86.704l.275.04c.273.038.43.117.43.273 0 .196-.196.313-.587.313-.352 0-.665-.117-.821-.274l-.274.43c.274.196.665.313 1.056.313.704 0 1.134-.352 1.134-.782 0-.43-.352-.665-.86-.743l-.274-.04c-.235-.038-.43-.077-.43-.234 0-.195.195-.274.47-.274.312 0 .625.118.781.196l.274-.43Zm14.393-.274c-.313 0-.508.156-.665.352v-.313h-.547v2.464h.547v-1.408c0-.43.196-.665.509-.665.117 0 .235.04.352.04l.156-.51c-.078.04-.234.04-.352.04Zm-6.922 1.29c0 .744.508 1.291 1.33 1.291.351 0 .625-.078.86-.273l-.274-.43c-.196.156-.43.234-.665.234-.43 0-.743-.313-.743-.782 0-.47.313-.783.743-.783.235 0 .43.079.665.235l.274-.43a1.332 1.332 0 0 0-.86-.274c-.822-.078-1.33.47-1.33 1.213Zm5.006 0v-1.212h-.548v.313c-.195-.235-.43-.352-.782-.352-.704 0-1.252.548-1.252 1.29 0 .744.548 1.291 1.252 1.291.352 0 .626-.117.782-.352v.313h.548V22.1Zm-1.995 0c0-.43.274-.782.743-.782.43 0 .743.352.743.783 0 .43-.313.782-.743.782s-.743-.352-.743-.782Zm-6.453-1.29c-.704 0-1.252.508-1.252 1.29 0 .783.508 1.291 1.252 1.291.352 0 .704-.117 1.017-.352l-.274-.39c-.196.156-.47.273-.704.273-.352 0-.665-.157-.743-.587h1.838v-.195c.039-.822-.43-1.33-1.134-1.33Zm0 .47c.352 0 .586.195.625.586h-1.29a.647.647 0 0 1 .665-.587Zm13.415.82V19.87h-.548v1.291c-.195-.235-.43-.352-.782-.352-.704 0-1.251.547-1.251 1.29 0 .744.547 1.291 1.251 1.291.352 0 .626-.117.782-.352v.313h.548V22.1Zm-1.956 0c0-.43.274-.782.744-.782.43 0 .743.352.743.783 0 .43-.313.782-.743.782-.47 0-.744-.352-.744-.782Zm-18.108 0v-1.212h-.548v.313c-.196-.235-.43-.352-.782-.352-.704 0-1.252.548-1.252 1.29 0 .744.548 1.291 1.252 1.291.352 0 .626-.117.782-.352v.313h.548V22.1Zm-2.034 0c0-.43.274-.782.743-.782.43 0 .743.352.743.783 0 .43-.313.782-.743.782s-.743-.352-.743-.782Z" fill="#000"/><path d="M19.702 2.073h-8.136v14.589h8.136V2.073Z" fill="#FF5A00"/><path d="M12.114 9.348c0-2.973 1.408-5.593 3.52-7.314A9.125 9.125 0 0 0 9.924.039a9.264 9.264 0 0 0-9.27 9.27 9.264 9.264 0 0 0 9.27 9.27 9.125 9.125 0 0 0 5.71-1.996c-2.112-1.603-3.52-4.263-3.52-7.235Z" fill="#EB001B"/><path d="M30.653 9.348a9.264 9.264 0 0 1-9.27 9.27 9.125 9.125 0 0 1-5.71-1.995 9.314 9.314 0 0 0 3.52-7.314c0-2.973-1.408-5.593-3.52-7.314A9.125 9.125 0 0 1 21.383 0c5.124.078 9.27 4.263 9.27 9.348Z" fill="#F79E1B"/></svg>