<svg width="24" height="24" fill="none" xmlns="http://www.w3.org/2000/svg"><path d="M6.093 20.083c.43 0 .806-.18 1.326-.633l2.418-2.154c.558.58 1.394.888 2.441.888h2.577l2.508 2.155c.497.422.852.655 1.258.655.603 0 .957-.429.957-1.084v-1.726h.347c1.898 0 3.164-1.16 3.164-3.11V10.47c0-1.981-1.288-3.171-3.225-3.171h-1.31v-.49c0-2.05-1.258-3.262-3.323-3.262H4.232C2.23 3.547.91 4.76.91 6.809v7.051c0 2.02 1.296 3.217 3.262 3.217h.95v1.929c0 .663.361 1.077.971 1.077Zm.377-3.744c0-.452-.279-.686-.656-.686h-1.4c-1.251 0-2.005-.7-2.005-2.004V6.975c0-1.304.761-2.012 2.004-2.012h10.63c1.25 0 2.004.708 2.004 2.012v.324h-4.769c-2.004 0-3.224 1.19-3.224 3.171v4.603c0 .316.03.603.09.874L6.47 18.448v-2.11Zm11.767 3.02L15.88 17.22c-.331-.301-.61-.437-1.054-.437h-2.389c-1.182 0-1.898-.655-1.898-1.906v-4.264c0-1.235.716-1.906 1.898-1.906H19.7c1.19 0 1.906.67 1.906 1.906v4.264c0 1.243-.724 1.906-1.906 1.906h-.814c-.37 0-.648.226-.648.678v1.899Z" fill="#795BDA"/></svg>