<svg width="48" height="48" fill="none" xmlns="http://www.w3.org/2000/svg"><path d="M26.351 12.018c.196 0 .317-.135.347-.316.452-2.501.437-2.546 3.028-3.028.196-.046.332-.151.332-.362 0-.196-.136-.316-.317-.362-2.606-.512-2.546-.557-3.043-3.013-.03-.196-.15-.332-.347-.332-.196 0-.316.136-.346.317-.497 2.486-.422 2.546-3.029 3.028-.196.046-.331.166-.331.362 0 .21.135.316.316.362 2.622.527 2.592.542 3.044 3.028.03.18.15.316.346.316Zm-4.188 25.027c5.68 0 10.38-2.953 12.52-7.88.362-.814.241-1.462-.135-1.823-.347-.347-.95-.422-1.628-.136-1.13.467-2.53.738-4.203.738-6.705 0-10.984-4.143-10.984-10.697 0-1.808.362-3.601.844-4.626.346-.753.316-1.371-.03-1.763-.362-.422-1.025-.527-1.854-.18-4.896 1.973-8.226 7.02-8.226 12.806 0 7.7 5.665 13.56 13.696 13.56Zm11.436-14.63c.3 0 .527-.211.572-.543.482-3.992.663-4.113 4.731-4.746.362-.06.573-.256.573-.588 0-.3-.211-.512-.513-.572-4.113-.799-4.309-.753-4.791-4.746-.045-.332-.271-.543-.572-.543-.317 0-.543.211-.588.528-.512 4.068-.648 4.188-4.791 4.761-.302.045-.513.271-.513.572 0 .317.211.528.513.588 4.158.814 4.264.784 4.79 4.776a.576.576 0 0 0 .589.513ZM22.193 34.152c-6.359 0-10.833-4.656-10.833-10.803 0-3.51 1.582-6.72 4.128-8.814-.301.873-.467 2.17-.467 3.42 0 7.639 5.183 12.701 13.003 12.701 1.115 0 2.14-.15 2.682-.331-1.854 2.38-5.018 3.827-8.513 3.827Z" fill="#795BDA"/></svg>