<svg width="48" height="48" fill="none" xmlns="http://www.w3.org/2000/svg"><path d="M7.968 34.392c-.482 1.1-.03 1.853 1.145 1.989l6.238.693c1.597.196 2.53-.86 1.687-2.29l-.98-1.688L24 29.103l7.925 3.993-.98 1.688c-.828 1.43.106 2.486 1.688 2.29l6.253-.693c1.16-.136 1.612-.89 1.145-1.99l-2.546-5.755c-.618-1.446-2.004-1.717-2.803-.316l-1.31 2.275-7.926-3.978v-9.643h2.245c1.673 0 2.125-1.31 1.16-2.606L25.13 9.305c-.723-.964-1.582-.964-2.305 0l-3.707 5.048c-.949 1.28-.482 2.621 1.145 2.621h2.276v9.643l-7.91 3.978-1.326-2.275c-.8-1.401-2.17-1.13-2.803.316l-2.531 5.756Z" fill="#795BDA"/></svg>