<svg width="24" height="24" fill="none" xmlns="http://www.w3.org/2000/svg"><path d="M11.322.953c.411-.27.945-.27 1.356 0l1.182.779c.492.324 1.075.48 1.663.445l1.413-.083c.492-.029.954.238 1.174.678l.635 1.265c.264.527.691.954 1.218 1.218l1.265.634c.44.221.707.683.678 1.175l-.083 1.413a2.732 2.732 0 0 0 .445 1.663l.779 1.182c.27.411.27.945 0 1.356l-.779 1.182a2.732 2.732 0 0 0-.445 1.663l.083 1.413c.029.492-.238.954-.678 1.174l-1.265.635a2.733 2.733 0 0 0-1.218 1.218l-.635 1.265c-.22.44-.682.707-1.174.678l-1.413-.083a2.732 2.732 0 0 0-1.663.445l-1.182.779c-.411.27-.945.27-1.356 0l-1.182-.779a2.732 2.732 0 0 0-1.663-.445l-1.413.083a1.233 1.233 0 0 1-1.175-.678l-.634-1.265a2.733 2.733 0 0 0-1.218-1.218l-1.265-.635a1.233 1.233 0 0 1-.678-1.174l.083-1.413a2.733 2.733 0 0 0-.445-1.663l-.779-1.182a1.233 1.233 0 0 1 0-1.356l.779-1.182c.324-.492.48-1.075.445-1.663l-.083-1.413a1.233 1.233 0 0 1 .678-1.175l1.265-.634a2.733 2.733 0 0 0 1.218-1.218l.634-1.265c.221-.44.683-.707 1.175-.678l1.413.083a2.733 2.733 0 0 0 1.663-.445l1.182-.779Z" stroke="#6843D1" stroke-width="1.5"/><path d="M8 11.483 10.957 15 16 9" stroke="#6843D1" stroke-width="1.5"/></svg>