<svg width="24" height="24" fill="none" xmlns="http://www.w3.org/2000/svg"><path d="M11.273 4.218a1.322 1.322 0 0 1 1.454 0l.788.519c.238.157.52.232.804.215l.942-.055a1.322 1.322 0 0 1 1.26.727l.423.843c.127.255.334.462.589.59l.843.422c.472.237.758.732.727 1.26l-.055.941c-.017.285.059.567.215.805l.52.788c.29.441.29 1.013 0 1.454l-.52.788c-.157.238-.232.52-.215.804l.055.942a1.322 1.322 0 0 1-.727 1.26l-.843.423a1.321 1.321 0 0 0-.59.589l-.422.843a1.322 1.322 0 0 1-1.26.727l-.941-.055a1.322 1.322 0 0 0-.805.215l-.788.52c-.441.29-1.013.29-1.454 0l-.788-.52a1.322 1.322 0 0 0-.805-.215l-.942.055a1.322 1.322 0 0 1-1.259-.727l-.423-.843a1.322 1.322 0 0 0-.589-.59l-.843-.422a1.322 1.322 0 0 1-.727-1.26l.055-.941a1.322 1.322 0 0 0-.215-.805l-.52-.788a1.322 1.322 0 0 1 0-1.454l.52-.788c.157-.238.232-.52.215-.805l-.055-.942a1.322 1.322 0 0 1 .727-1.259l.843-.423c.255-.127.462-.334.59-.589l.422-.843a1.322 1.322 0 0 1 1.26-.727l.941.055c.285.017.567-.058.805-.215l.788-.52Z" fill="#6843D1"/><path d="M9 11.655 11.217 14 15 10" stroke="#fff" stroke-width="1.5"/></svg>