<svg width="48" height="35" fill="none" xmlns="http://www.w3.org/2000/svg"><path d="M5.119 23.53c.18 0 .362-.019.54-.056v6.16c0 .714.215 1.42.732 1.956.519.537 1.205.76 1.865.76a2.6 2.6 0 0 0 1.62-.539 2.6 2.6 0 0 0 1.62.539c.659 0 1.344-.222 1.864-.753.522-.533.746-1.24.746-1.962v-6.158c.174.035.35.052.527.052.657 0 1.314-.24 1.797-.768.471-.518.659-1.182.659-1.829v-5.368c0-2.019-.566-3.714-1.964-4.851-.665-.54-1.456-.901-2.338-1.128a4.116 4.116 0 0 0 1.139-2.829c0-2.246-1.804-4.106-4.05-4.106-2.255 0-4.037 1.869-4.037 4.106 0 1.077.428 2.082 1.13 2.828-.884.226-1.679.587-2.347 1.128-1.401 1.135-1.972 2.83-1.972 4.852v.003l.013 5.358c-.008.657.183 1.323.658 1.84.485.527 1.144.764 1.798.764Zm28.98-16.774c0 1.075.428 2.08 1.129 2.826-.888.226-1.684.588-2.353 1.131-1.398 1.137-1.964 2.832-1.964 4.85v5.37c0 .656.197 1.322.673 1.836.485.523 1.14.76 1.796.76.177 0 .353-.017.527-.053v6.159c0 .722.224 1.43.745 1.962.521.531 1.206.753 1.865.753.56 0 1.137-.16 1.615-.539a2.62 2.62 0 0 0 1.625.539c.662 0 1.348-.224 1.865-.767.513-.539.72-1.244.72-1.948V23.47c.181.04.367.058.552.058.657 0 1.314-.24 1.797-.768.471-.518.659-1.182.659-1.829v-5.368c0-2.022-.57-3.717-1.973-4.852-.666-.54-1.458-.9-2.342-1.127a4.117 4.117 0 0 0 1.14-2.829c0-2.246-1.805-4.106-4.05-4.106-2.247 0-4.025 1.873-4.025 4.106Z" stroke="#795BDA" stroke-width="2.7"/><path d="M27.704 6.296a1.01 1.01 0 0 1 0 1.427L25.427 10l2.277 2.277a1.01 1.01 0 0 1-1.427 1.427L24 11.427l-2.277 2.277a1.01 1.01 0 0 1-1.427-1.427L22.573 10l-2.277-2.277a1.01 1.01 0 0 1 1.427-1.427L24 8.573l2.277-2.277a1.01 1.01 0 0 1 1.427 0Z" fill="#795BDA"/></svg>