<svg width="24" height="39" fill="none" xmlns="http://www.w3.org/2000/svg"><path d="M17.61 6.556C13.5.568 13.5.568 8.505 6.052m0 0-.005.005m.005-.005c1.762.64 3.196 1.444 3.995 2.002l1 .499m-4.995-2.5C6.591 5.355 4.291 4.85 2 5.058c1 1.664 3.3 6.478 2.5 11.27m8 13.188v2.994m0 6.489v-3.494m0-2.995 1.5.5-1.5.499m0-.999v.999m0 0v.998m0 0-1.5.499 1.5.5m0-1v1M22 5.058C16.167 6.723 3 13.045 3 21.031c0 12.035 19.624 10.541 18.84-.065-.366-4.958-3.793-10.974.16-15.907Z" stroke="#FF5C8D" stroke-width="2.7" stroke-linejoin="round"/></svg>