<svg width="42" height="32" fill="none" xmlns="http://www.w3.org/2000/svg"><path d="M19.813 3.081c-1.93 2.907-3.859 3.876-6.752 5.329-.965.969-.483 4.845 4.822 3.876 4.245-.775 5.306-2.423 5.306-2.423L34.28 21.49M19.813 3.081c1.929-2.907 9.163.969 12.057.969 2.893 0 5.305.969 6.27 5.329.964 4.36 3.376 6.298.482 8.72-2.315 1.938-3.859 3.068-4.34 3.391M19.811 3.081H13.06c-1.125.323-3.761 1.066-5.305 1.453-1.929.485-2.894.485-4.34 5.33-1.278 4.277-2.412 5.813 0 9.204l10.61 10.173c1.961 1.342 4.373.857 5.787-1.08m14.47-6.67c-3.827 3.278-5.274 1.825-9.164-1.939m-8.682 5.814c3.377 2.794 4.855 4.248 8.682.464m-4.341-3.37c4.34 4.247 5.337 4.732 9.196.771" stroke="#FF5C8D" stroke-width="2.7" stroke-linecap="round" stroke-linejoin="round"/></svg>