<svg width="30" height="28" fill="none" xmlns="http://www.w3.org/2000/svg"><path fill-rule="evenodd" clip-rule="evenodd" d="M0 9.338c0 6.38 5.321 12.685 13.592 18.064.46.3 1.023.598 1.408.598s.949-.299 1.408-.598C24.694 22.023 30 15.718 30 9.338 30 3.825 26.22 0 21.373 0 18.544 0 16.334 1.3 15 3.272 13.696 1.315 11.472 0 8.641 0 3.78 0 0 3.825 0 9.338Zm4.124-3.855c1.025-1.556 2.707-2.48 4.695-2.48 2.316 0 3.75 1.228 4.699 2.48H4.124ZM3.27 7.466a7.775 7.775 0 0 0-.217 1.857c0 .37.027.743.08 1.118h23.75c.052-.375.079-.748.079-1.118 0-.658-.076-1.28-.218-1.857H3.27Zm22.62-1.983c-1.027-1.556-2.712-2.48-4.71-2.48-2.297 0-3.683 1.244-4.668 2.48h9.378ZM3.63 12.425h22.755c-.354.991-.861 1.987-1.493 2.974H5.123c-.632-.987-1.14-1.983-1.493-2.974Zm2.935 4.958H23.45a30.262 30.262 0 0 1-2.795 2.975H9.36a30.263 30.263 0 0 1-2.794-2.975Zm5.089 4.958c.988.79 2.022 1.545 3.08 2.252.118.09.207.15.266.15.06 0 .148-.06.282-.15a44.757 44.757 0 0 0 3.079-2.252h-6.707Z" fill="#795BDA"/></svg>