<svg width="32" height="29" fill="none" xmlns="http://www.w3.org/2000/svg"><path d="M9.13 29c.824 0 1.43-.385 2.428-1.223l4.955-4.15h8.697c4.348 0 6.79-2.392 6.79-6.474V6.473C32 2.391 29.558 0 25.21 0H6.79C2.456 0 0 2.391 0 6.473v10.68c0 4.095 2.528 6.473 6.689 6.473h.592v3.367c0 1.224.68 2.007 1.85 2.007Zm.723-3.079v-3.917c0-.81-.376-1.127-1.185-1.127H6.891c-2.716 0-4.016-1.305-4.016-3.807V6.556c0-2.502 1.3-3.807 4.016-3.807h18.232c2.702 0 4.002 1.305 4.002 3.807V17.07c0 2.502-1.3 3.807-4.002 3.807h-8.769c-.881 0-1.315.138-1.921.742l-4.58 4.302Zm-.68-15.49c0 1.54 1.027 2.736 2.616 2.736.62 0 1.213-.138 1.589-.564h.173c-.462 1.045-1.502 1.773-2.557 2.02-.491.124-.664.344-.664.674 0 .357.317.619.736.619 1.503 0 4.277-1.705 4.277-4.934 0-1.883-1.257-3.34-3.164-3.34-1.72 0-3.005 1.154-3.005 2.79Zm7.6 0c0 1.54 1.026 2.736 2.615 2.736.635 0 1.228-.138 1.603-.564h.16c-.463 1.045-1.503 1.773-2.558 2.02-.477.124-.65.344-.65.674 0 .357.303.619.723.619 1.502 0 4.276-1.705 4.276-4.934 0-1.883-1.257-3.34-3.164-3.34-1.72 0-3.005 1.154-3.005 2.79Z" fill="#795BDA"/></svg>