<svg width="37" height="29" fill="none" xmlns="http://www.w3.org/2000/svg"><path d="M8.647 27.485c.716 0 1.345-.3 2.212-1.052l4.034-3.581c.93.964 2.325 1.477 4.072 1.477h4.298l4.185 3.582c.83.7 1.42 1.089 2.1 1.089 1.005 0 1.595-.714 1.595-1.803v-2.868h.578c3.168 0 5.279-1.928 5.279-5.171v-7.65c0-3.294-2.15-5.272-5.38-5.272h-2.186v-.814C29.434 2.016 27.335 0 23.892 0H5.542C2.2 0 0 2.016 0 5.422v11.72c0 3.356 2.162 5.347 5.442 5.347h1.583v3.205c0 1.102.604 1.79 1.622 1.79Zm.628-6.223c0-.752-.465-1.14-1.093-1.14H5.844c-2.086 0-3.343-1.164-3.343-3.33V5.696c0-2.166 1.27-3.343 3.343-3.343h17.733c2.087 0 3.343 1.177 3.343 3.343v.539h-7.955c-3.343 0-5.38 1.978-5.38 5.271v7.651c0 .526.051 1.002.152 1.452l-4.462 4.158v-3.506Zm19.631 5.02-3.933-3.555c-.553-.501-1.018-.727-1.76-.727h-3.984c-1.973 0-3.167-1.089-3.167-3.168v-7.087c0-2.053 1.194-3.168 3.167-3.168h12.115c1.986 0 3.18 1.115 3.18 3.168v7.088c0 2.066-1.206 3.167-3.18 3.167h-1.357c-.616 0-1.08.376-1.08 1.127v3.156Z" fill="#795BDA"/></svg>