<svg width="31" height="31" fill="none" xmlns="http://www.w3.org/2000/svg"><path d="M15.492 31C23.989 31 31 23.985 31 15.5S23.973 0 15.477 0C6.997 0 0 7.015 0 15.5S7.012 31 15.492 31Zm0-3.088c-6.877 0-12.376-5.531-12.376-12.412 0-6.88 5.5-12.397 12.361-12.397A12.386 12.386 0 0 1 27.898 15.5c.015 6.88-5.528 12.412-12.405 12.412Zm3.731-13.146c1.544 0 2.847-1.395 2.847-3.164 0-1.738-1.303-3.072-2.847-3.072-1.558 0-2.861 1.364-2.861 3.072.015 1.77 1.303 3.163 2.861 3.163Zm-8.21.15c1.348 0 2.502-1.2 2.502-2.759 0-1.499-1.154-2.668-2.502-2.668-1.334 0-2.488 1.184-2.488 2.683 0 1.544 1.14 2.743 2.488 2.743ZM7.102 21.36h5.319c-.734-1.08.09-3.223 1.678-4.467a5.575 5.575 0 0 0-3.086-.9c-3.162 0-5.215 2.34-5.215 4.258 0 .704.345 1.11 1.304 1.11Zm7.686 0h8.84c1.169 0 1.573-.36 1.573-1.02 0-1.813-2.307-4.316-5.978-4.316-3.685 0-6.008 2.503-6.008 4.317 0 .66.42 1.02 1.573 1.02Z" fill="#FF5C8D"/></svg>