<svg width="48" height="48" fill="none" xmlns="http://www.w3.org/2000/svg"><path d="M8.738 19.89c0 6.433 5.41 12.791 13.817 18.215.467.302 1.04.603 1.431.603.392 0 .964-.301 1.431-.602C33.84 32.68 39.234 26.322 39.234 19.89c0-5.56-3.842-9.417-8.77-9.417-2.877 0-5.122 1.31-6.478 3.3-1.326-1.974-3.586-3.3-6.464-3.3-4.942 0-8.784 3.857-8.784 9.417Zm3.104-.016c0-3.796 2.501-6.373 5.861-6.373 2.712 0 4.234 1.642 5.183 3.074.422.617.708.813 1.1.813.407 0 .663-.21 1.1-.813 1.024-1.401 2.486-3.074 5.183-3.074 3.375 0 5.876 2.577 5.876 6.373 0 5.304-5.514 11.18-11.873 15.399-.135.09-.226.15-.286.15-.06 0-.15-.06-.271-.15-6.358-4.219-11.873-10.095-11.873-15.399Z" fill="#795BDA"/><path fill-rule="evenodd" clip-rule="evenodd" d="M21.006 17.65a1.35 1.35 0 0 1 1.206.922l2.125 6.38 1.991-5.316a1.35 1.35 0 0 1 2.495-.08l1.308 2.907H32a1.35 1.35 0 1 1 0 2.7h-2.743a1.35 1.35 0 0 1-1.232-.796l-.32-.713-2.18 5.818a1.35 1.35 0 0 1-2.545-.047l-2.253-6.763-.792 1.717c-.22.478-.699.784-1.225.784H16a1.35 1.35 0 0 1 0-2.7h1.845l1.86-4.03a1.35 1.35 0 0 1 1.3-.782Z" fill="#795BDA"/></svg>