<svg width="48" height="48" fill="none" xmlns="http://www.w3.org/2000/svg"><path fill-rule="evenodd" clip-rule="evenodd" d="M15.99 7.307a1.35 1.35 0 0 1 1.16-.659h5.071c.363 0 .711.147.965.406A37.74 37.74 0 0 0 25.54 9.2c.154.13.457.278 1.018.458.157.05.37.113.605.182.401.118.867.255 1.226.382.639.226 1.397.557 2 1.134.655.628 1.054 1.476 1.054 2.54 0 .762-.21 1.427-.533 1.997 4.793 3.286 6.093 8.005 5.159 12.157-.846 3.76-3.573 7.131-7.083 8.265.316.946.48 1.85.53 2.593a1.35 1.35 0 0 1-1.347 1.441H17.149a1.35 1.35 0 0 1-.912-.355c-2.407-2.208-3.9-5.474-4.399-8.491-.25-1.518-.26-3.037.032-4.386.291-1.341.907-2.614 1.995-3.472 2.324-1.831 2.311-4.76.997-7.781-.72-1.657-.612-3.472-.28-4.948.334-1.492.934-2.813 1.407-3.608Zm11.806 26.539c2.586-.666 4.92-3.202 5.638-6.39.713-3.17-.227-6.917-4.45-9.6-.933.613-1.947 1-2.662 1.186a1.35 1.35 0 1 1-.681-2.612c.559-.146 1.417-.488 2.102-1l.064-.048c.104-.133.23-.242.37-.325.39-.395.565-.785.565-1.162 0-.322-.094-.467-.222-.59-.182-.174-.5-.35-1.031-.538-.336-.119-.618-.2-.929-.29-.244-.07-.507-.146-.829-.25-.594-.19-1.341-.467-1.93-.962a44.018 44.018 0 0 1-2.133-1.917h-3.706c-.274.58-.562 1.338-.746 2.158-.27 1.2-.277 2.363.122 3.28 1.484 3.411 1.996 7.986-1.802 10.979-.442.349-.821.973-1.027 1.924-.205.944-.215 2.11-.007 3.373.392 2.376 1.518 4.865 3.194 6.586h8.873a8.417 8.417 0 0 0-.658-1.687c-.93-1.779-2.626-3.385-5.701-3.385a1.35 1.35 0 1 1 0-2.7c3.78 0 6.183 1.838 7.586 3.97Z" fill="#795BDA"/><path d="M27 29c.103 0 .253-.075.375-.15C29.585 27.507 31 25.93 31 24.336 31 22.956 29.992 22 28.731 22c-.786 0-1.375.41-1.731 1.023-.348-.612-.94-1.023-1.727-1.023-1.265 0-2.273.956-2.273 2.335 0 1.595 1.419 3.17 3.625 4.516.122.074.272.149.375.149Z" fill="#795BDA"/></svg>