<svg width="48" height="48" fill="none" xmlns="http://www.w3.org/2000/svg"><path d="M37.313 28.113c.678.422 1.507.256 1.974-.422 1.959-2.773 3.104-6.48 3.104-10.291 0-3.827-1.13-7.549-3.104-10.306-.467-.678-1.296-.844-1.974-.407-.708.437-.814 1.326-.286 2.11 1.612 2.335 2.531 5.409 2.531 8.603 0 3.18-.95 6.238-2.531 8.588-.513.784-.422 1.673.286 2.125Zm-17.312-3.571c3.631 0 6.584-3.21 6.584-7.142 0-3.887-2.938-6.976-6.584-6.976-3.631 0-6.6 3.134-6.6 6.991.016 3.933 2.954 7.127 6.6 7.127Zm11.3-.452c.633.407 1.462.256 1.929-.392 1.205-1.627 1.928-3.917 1.928-6.298 0-2.396-.723-4.67-1.928-6.313-.467-.648-1.296-.799-1.929-.362-.738.467-.873 1.356-.301 2.2.844 1.175 1.31 2.787 1.31 4.475 0 1.672-.481 3.27-1.31 4.475-.558.844-.437 1.718.301 2.215Zm-11.3-2.14c-2.094 0-3.857-1.989-3.857-4.535-.015-2.47 1.748-4.384 3.857-4.384 2.11 0 3.857 1.883 3.857 4.369 0 2.531-1.748 4.55-3.857 4.55ZM10.6 38.735h18.789c2.591 0 3.842-.814 3.842-2.577 0-4.128-5.153-9.673-13.244-9.673-8.076 0-13.244 5.545-13.244 9.673 0 1.763 1.25 2.577 3.857 2.577Zm-.497-2.607c-.361 0-.497-.105-.497-.392 0-2.305 3.736-6.644 10.381-6.644 6.66 0 10.396 4.34 10.396 6.645 0 .286-.135.391-.497.391H10.102Z" fill="#FF5C8D"/></svg>