<svg width="48" height="48" fill="none" xmlns="http://www.w3.org/2000/svg"><path d="M39.58 23.407c0 8.528-7.052 15.58-15.595 15.58-3.424 0-6.61-1.137-9.197-3.05A6.967 6.967 0 0 0 16 32c0-.362-.027-.718-.08-1.066 1.795-1.312 4.617-2.314 8.065-2.314 4.264 0 7.564 1.522 9.16 3.285a12.453 12.453 0 0 0 3.315-8.498 12.452 12.452 0 0 0-12.49-12.46c-6.9 0-12.43 5.545-12.43 12.46 0 .73.062 1.446.18 2.141a6.978 6.978 0 0 0-3.23-.53 15.374 15.374 0 0 1-.084-1.61c0-8.529 7.036-15.58 15.564-15.58 8.543 0 15.61 7.051 15.61 15.58Z" fill="#FF5C8D"/><path d="M29.183 20.454c0 3.225-2.275 5.726-5.198 5.696-2.908-.015-5.168-2.471-5.183-5.696-.015-3.043 2.29-5.59 5.183-5.59 2.908 0 5.198 2.547 5.198 5.59ZM4 32.915c0 .61.424 1.024 1.033 1.024h2.035v2.037c0 .61.403 1.024 1.013 1.024h1.838c.61 0 1.023-.414 1.023-1.024V33.94h2.035c.61 0 1.023-.414 1.023-1.024v-1.84c0-.61-.413-1.014-1.023-1.014h-2.035v-2.037c0-.61-.413-1.024-1.023-1.024H8.081c-.61 0-1.013.414-1.013 1.024v2.037H5.033c-.62 0-1.033.403-1.033 1.014v1.84Z" fill="#FF5C8D"/></svg>