<svg width="48" height="48" fill="none" xmlns="http://www.w3.org/2000/svg"><path d="M34.85 36.129c4.7 0 8.407-3.45 8.407-7.76 0-3.209-1.823-6.056-4.821-7.307.015-6.81-4.897-11.722-11.21-11.722-4.008 0-7.021 2.064-8.905 4.806-3.827-1.024-7.85 1.823-8 6.072-3.45.618-5.575 3.707-5.575 7.488 0 4.58 4.008 8.408 9.281 8.408l20.823.015Zm0-3.014h-1.507c-1.175-2.425-4.068-4.942-8.392-4.942-4.34 0-7.217 2.517-8.407 4.942h-2.502c-3.585 0-6.252-2.5-6.252-5.409 0-3.013 1.853-5.243 4.926-5.243.227 0 .317-.12.302-.331-.09-4.475 3.119-6.012 6.358-4.988.196.06.316.016.407-.15 1.492-2.622 3.691-4.656 7.428-4.656 4.731 0 8.106 3.752 8.332 8.136.045.814-.015 1.688-.075 2.411-.03.211.06.331.256.362 2.727.527 4.49 2.456 4.49 5.122 0 2.637-2.336 4.746-5.364 4.746Zm-9.9-6.734c2.216.015 4.009-2.004 4.009-4.4 0-2.35-1.793-4.279-4.008-4.279-2.23 0-4.023 1.929-4.023 4.279.015 2.38 1.793 4.384 4.023 4.4Z" fill="#FF5C8D"/></svg>