<svg width="48" height="48" fill="none" xmlns="http://www.w3.org/2000/svg"><path d="M24.002 23.738c3.646 0 6.599-3.225 6.599-7.172 0-3.887-2.953-6.976-6.6-6.976-3.63 0-6.599 3.134-6.599 7.006.015 3.933 2.953 7.142 6.6 7.142Zm0-2.637c-2.08 0-3.843-1.974-3.843-4.505-.015-2.471 1.748-4.37 3.843-4.37 2.109 0 3.842 1.869 3.842 4.34 0 2.531-1.748 4.535-3.843 4.535Zm-15.565-.557c.874.662 1.929.27 1.929-.83v-1.867h3.842c.708 0 1.266-.558 1.266-1.281 0-.693-.558-1.266-1.266-1.266h-3.842v-1.823c0-1.145-1.085-1.492-1.929-.844L4.28 15.767c-.573.422-.588 1.22 0 1.658l4.158 3.119Zm25.358-2.698h3.842v1.869c0 1.1 1.055 1.491 1.944.829l4.158-3.12a1.022 1.022 0 0 0 0-1.657l-4.158-3.134c-.86-.647-1.944-.301-1.944.844V15.3h-3.842c-.708 0-1.266.573-1.266 1.266 0 .723.558 1.28 1.266 1.28ZM14.615 37.75h18.773c2.607 0 3.857-.829 3.857-2.607 0-4.143-5.168-9.658-13.243-9.658-8.076 0-13.26 5.515-13.26 9.658 0 1.778 1.266 2.607 3.873 2.607Zm-.482-2.637c-.347 0-.482-.12-.482-.392 0-2.305 3.721-6.599 10.35-6.599 6.63 0 10.351 4.294 10.351 6.6 0 .27-.135.391-.497.391H14.133Z" fill="#795BDA"/></svg>