<svg width="48" height="48" fill="none" xmlns="http://www.w3.org/2000/svg"><path d="M35.06 19.642c.844 0 1.371-.467 1.417-1.085v-.18c.06-.784.587-1.297 1.567-1.93 1.491-.979 2.44-1.853 2.44-3.585 0-2.502-2.26-3.948-4.942-3.948-2.576 0-4.339 1.175-4.806 2.592a2.42 2.42 0 0 0-.15.798c0 .723.572 1.175 1.265 1.175.889 0 1.085-.452 1.537-.964.497-.753 1.13-1.19 2.019-1.19 1.19 0 1.959.678 1.959 1.687 0 .92-.633 1.417-1.899 2.306-1.07.738-1.853 1.506-1.853 2.862v.166c0 .859.527 1.296 1.446 1.296Zm-.015 4.64c.965 0 1.763-.708 1.763-1.672 0-.95-.783-1.657-1.763-1.657-.98 0-1.778.708-1.778 1.657 0 .95.799 1.672 1.778 1.672ZM21.001 23.74c3.646 0 6.6-3.224 6.6-7.172 0-3.887-2.954-6.976-6.6-6.976-3.631 0-6.614 3.134-6.6 7.006.016 3.933 2.954 7.142 6.6 7.142Zm0-2.637c-2.08 0-3.842-1.974-3.842-4.505-.015-2.47 1.748-4.37 3.842-4.37 2.11 0 3.842 1.87 3.842 4.34 0 2.531-1.748 4.535-3.842 4.535ZM11.6 37.753h18.789c2.606 0 3.857-.83 3.857-2.607 0-4.144-5.168-9.658-13.244-9.658S7.742 31.002 7.742 35.146c0 1.777 1.25 2.606 3.857 2.606Zm-.467-2.638c-.361 0-.497-.12-.497-.391 0-2.305 3.722-6.6 10.366-6.6 6.63 0 10.351 4.295 10.351 6.6 0 .271-.136.392-.497.392H11.132Z" fill="#795BDA"/></svg>