<svg width="48" height="48" fill="none" xmlns="http://www.w3.org/2000/svg"><path d="M23.985 38.987c8.544 0 15.595-7.052 15.595-15.58 0-8.527-7.067-15.579-15.61-15.579-8.527 0-15.564 7.051-15.564 15.58 0 8.527 7.052 15.579 15.58 15.579Zm0-3.104c-6.915 0-12.445-5.56-12.445-12.476 0-6.915 5.53-12.46 12.43-12.46a12.452 12.452 0 0 1 12.49 12.46c.016 6.916-5.559 12.476-12.475 12.476Zm3.752-13.214c1.552 0 2.863-1.401 2.863-3.179 0-1.748-1.31-3.089-2.863-3.089-1.567 0-2.878 1.371-2.878 3.089.015 1.778 1.311 3.18 2.878 3.18Zm-8.256.15c1.355 0 2.516-1.205 2.516-2.772 0-1.506-1.16-2.681-2.517-2.681-1.34 0-2.5 1.19-2.5 2.697 0 1.551 1.144 2.757 2.5 2.757Zm-3.933 6.48h5.349c-.738-1.085.09-3.24 1.687-4.49a5.608 5.608 0 0 0-3.104-.904c-3.179 0-5.243 2.35-5.243 4.279 0 .708.347 1.114 1.311 1.114Zm7.73 0h8.889c1.175 0 1.582-.362 1.582-1.025 0-1.823-2.32-4.34-6.012-4.34-3.706 0-6.042 2.517-6.042 4.34 0 .663.422 1.024 1.582 1.024Z" fill="#FF5C8D"/></svg>