<svg width="24" height="24" fill="none" xmlns="http://www.w3.org/2000/svg"><path fill-rule="evenodd" clip-rule="evenodd" d="m8.607 4.75-2.02.06c-1.23.035-2.041 1.065-1.787 2.082a16.854 16.854 0 0 0 4.454 7.854 16.854 16.854 0 0 0 7.854 4.455c1.017.254 2.048-.557 2.084-1.788l.058-2.02a12.744 12.744 0 0 1-3.565-1.108l-1.225 1.8a.75.75 0 0 1-.993.229 15.63 15.63 0 0 1-3.273-2.508c-.999-1-1.835-2.101-2.507-3.272a.75.75 0 0 1 .228-.994l1.8-1.225a12.743 12.743 0 0 1-1.108-3.564Zm-.023-1.5c.774-.022 1.393.554 1.505 1.269.169 1.081.495 2.142.978 3.146.309.64.138 1.451-.49 1.88l-1.229.835a14.167 14.167 0 0 0 1.907 2.365c.734.734 1.528 1.37 2.366 1.908l.835-1.228c.428-.63 1.24-.8 1.88-.491 1.004.483 2.065.81 3.146.978.715.111 1.29.731 1.268 1.505l-.06 2.04c-.057 2-1.825 3.729-3.945 3.199a18.355 18.355 0 0 1-8.551-4.849 18.354 18.354 0 0 1-4.85-8.551c-.529-2.12 1.199-3.888 3.2-3.946l2.04-.06Z" fill="#795BDA"/></svg>