<svg width="48" height="48" fill="none" xmlns="http://www.w3.org/2000/svg"><path fill-rule="evenodd" clip-rule="evenodd" d="M20.571 9.366c.537-1.169 1.945-1.719 3.146-1.124a34.477 34.477 0 0 1 9.945 7.42 34.415 34.415 0 0 1 6.667 10.453c.506 1.243-.15 2.61-1.359 3.056l-27.798 10.28c-1.963.726-3.824-1.283-2.95-3.184l12.35-26.9Zm.472 5.444L11.027 36.626l4.732-1.75a5.063 5.063 0 0 1-.35-1.855c0-2.827 2.307-5.1 5.13-5.1a5.13 5.13 0 0 1 4.838 3.398l8.298-3.068a27.114 27.114 0 0 0-2.98-5.208 5.352 5.352 0 0 1-10.603-1.022 5.352 5.352 0 0 1 4.23-5.232 27.568 27.568 0 0 0-3.28-1.979Zm1.127-2.456a30.172 30.172 0 0 1 8.363 6.27 29.867 29.867 0 0 1 5.678 8.689l1.467-.543a31.718 31.718 0 0 0-5.994-9.27 31.775 31.775 0 0 0-8.817-6.663l-.697 1.518Zm.674 19.902a2.429 2.429 0 0 0-2.304-1.635c-1.353 0-2.43 1.085-2.43 2.4 0 .326.064.636.183.918l4.551-1.683Zm2.598-12.885a2.65 2.65 0 1 0 0 5.3 2.65 2.65 0 0 0 0-5.3Z" fill="#FF5C8D"/></svg>