<svg width="24" height="24" fill="none" xmlns="http://www.w3.org/2000/svg"><path fill-rule="evenodd" clip-rule="evenodd" d="M5.696 11.5h2.241c.014-.418.046-.826.095-1.22a7.526 7.526 0 0 0-1.078.361c-.506.217-.883.462-1.127.71-.05.05-.094.1-.131.149Zm3.374-1.43c-.069.45-.114.93-.132 1.43H10.5V9.938c-.5.018-.98.063-1.43.132Zm1.43-1.133c-.418.014-.826.046-1.22.095a7.53 7.53 0 0 1 .361-1.078c.217-.506.462-.883.71-1.127.05-.05.1-.094.149-.131v2.241Zm1 1V11.5h1.562c-.018-.5-.063-.98-.132-1.43-.45-.069-.93-.114-1.43-.132Zm1.22-.905c-.394-.049-.802-.08-1.22-.095V6.696c.049.037.099.081.15.131.247.244.492.621.709 1.127.137.32.258.682.36 1.078Zm1.248 1.248c.049.394.08.802.095 1.22h2.241a1.618 1.618 0 0 0-.131-.15c-.244-.247-.621-.492-1.127-.709a7.527 7.527 0 0 0-1.078-.36Zm2.336 2.22h-2.241a13.9 13.9 0 0 1-.095 1.22 7.527 7.527 0 0 0 1.078-.361c.506-.217.883-.462 1.127-.71.05-.05.094-.1.131-.149Zm-3.374 1.43c.069-.45.114-.93.132-1.43H11.5v1.562c.5-.018.98-.063 1.43-.132Zm-1.43 1.133a13.9 13.9 0 0 0 1.22-.095 7.527 7.527 0 0 1-.361 1.078c-.217.506-.462.883-.71 1.127-.05.05-.1.094-.149.131v-2.241Zm-1-1V12.5H8.938c.018.5.063.98.132 1.43.45.069.93.114 1.43.132Zm-1.22.905c.394.049.802.08 1.22.095v2.241a1.618 1.618 0 0 1-.15-.131c-.247-.244-.492-.621-.709-1.127a7.53 7.53 0 0 1-.36-1.078ZM8.032 13.72a13.88 13.88 0 0 1-.095-1.22H5.696c.037.049.081.099.131.15.244.247.621.492 1.127.709.32.137.682.258 1.078.36Zm-2.19.192c.22.134.462.256.718.366a9.02 9.02 0 0 0 1.65.511c.131.609.304 1.165.512 1.65.11.257.232.499.366.72a5.516 5.516 0 0 1-3.246-3.247Zm0-3.824c.22-.134.462-.256.718-.366a9.026 9.026 0 0 1 1.65-.511c.131-.609.304-1.165.512-1.65.11-.257.232-.499.366-.72a5.516 5.516 0 0 0-3.246 3.247ZM11 5.5a6.5 6.5 0 1 0 0 13 6.5 6.5 0 0 0 0-13Zm1.912 1.342c.134.22.256.462.366.718a9.02 9.02 0 0 1 .511 1.65c.609.131 1.165.304 1.65.512.257.11.499.232.72.366a5.516 5.516 0 0 0-3.247-3.246Zm3.246 7.07c-.22.134-.462.256-.718.366a9.02 9.02 0 0 1-1.65.511 9.02 9.02 0 0 1-.512 1.65c-.11.257-.232.499-.366.72a5.516 5.516 0 0 0 3.246-3.247Z" fill="#222B40"/></svg>