<svg width="48" height="48" fill="none" xmlns="http://www.w3.org/2000/svg"><path d="M9.988 27.224h6.69c.768 0 1.235-.346 1.401-1.024l2.064-9.508 3.797 22.902c.211 1.28 2.17 1.266 2.426.015l3.646-17.206.723 3.66c.166.784.618 1.161 1.417 1.161h5.876c.693 0 1.25-.542 1.25-1.235 0-.709-.542-1.251-1.25-1.251H32.8l-1.688-7.534c-.271-1.22-2.11-1.22-2.395.046l-3.571 16.016-3.812-23.143c-.196-1.25-2.02-1.28-2.29-.015l-3.165 14.63H9.99a1.25 1.25 0 0 0-1.266 1.25c0 .694.557 1.236 1.265 1.236Z" fill="#FF5C8D"/></svg>