<svg width="12" height="12" fill="none" xmlns="http://www.w3.org/2000/svg"><path d="M5.14 7.105c0-.35.086-.663.26-.94.174-.285.457-.602.848-.952a7.51 7.51 0 0 0 .73-.746c.183-.212.274-.46.274-.746 0-.35-.109-.63-.326-.843-.209-.22-.517-.331-.926-.331-.374 0-.678.11-.913.331-.226.212-.34.516-.34.912H3c0-.377.074-.732.222-1.063.156-.341.365-.64.626-.898.27-.258.587-.46.952-.608A3.179 3.179 0 0 1 6 1c.47 0 .887.07 1.252.207.374.13.691.313.952.553.261.24.457.52.587.842.14.322.209.672.209 1.05 0 .249-.022.474-.065.677a2.039 2.039 0 0 1-.222.58 3.039 3.039 0 0 1-.391.566 10.25 10.25 0 0 1-.6.608c-.2.184-.357.34-.47.47-.113.12-.2.23-.26.331a.922.922 0 0 0-.105.262 1.019 1.019 0 0 0-.026.235v.276H5.139v-.552ZM6 11c-.304 0-.565-.115-.783-.345a1.165 1.165 0 0 1-.326-.829c0-.34.109-.622.326-.843.218-.22.479-.331.783-.331.304 0 .565.11.783.331.217.221.326.502.326.843 0 .322-.109.598-.326.829-.218.23-.479.345-.783.345Z" fill="#222B40" fill-opacity=".4"/></svg>