<svg width="48" height="48" fill="none" xmlns="http://www.w3.org/2000/svg"><path d="M16.827 40.221c.859 0 1.492-.422 2.531-1.341l5.168-4.55h9.07c4.536 0 7.082-2.622 7.082-7.097V15.526c0-4.475-2.546-7.096-7.081-7.096h-19.21c-4.52 0-7.082 2.621-7.082 7.096v11.707c0 4.49 2.636 7.097 6.976 7.097h.617v3.691c0 1.341.709 2.2 1.929 2.2Zm.753-3.375v-4.294c0-.89-.391-1.236-1.235-1.236h-1.853c-2.833 0-4.189-1.431-4.189-4.173V15.617c0-2.743 1.356-4.174 4.189-4.174h19.014c2.818 0 4.174 1.431 4.174 4.174v11.526c0 2.742-1.356 4.173-4.174 4.173H24.36c-.919 0-1.37.151-2.003.814l-4.777 4.716Zm-.708-16.98c0 1.687 1.07 2.998 2.727 2.998.648 0 1.266-.15 1.658-.618h.18c-.482 1.145-1.567 1.944-2.666 2.215-.513.136-.693.377-.693.738 0 .392.331.678.768.678 1.567 0 4.46-1.868 4.46-5.409 0-2.064-1.311-3.661-3.3-3.661-1.793 0-3.134 1.266-3.134 3.059Zm7.925 0c0 1.687 1.07 2.998 2.728 2.998.663 0 1.28-.15 1.672-.618h.166c-.482 1.145-1.567 1.944-2.667 2.215-.497.136-.678.377-.678.738 0 .392.316.678.753.678 1.567 0 4.46-1.868 4.46-5.409 0-2.064-1.31-3.661-3.3-3.661-1.793 0-3.134 1.266-3.134 3.059Z" fill="#795BDA"/></svg>