<svg width="31" height="29" fill="none" xmlns="http://www.w3.org/2000/svg"><path fill-rule="evenodd" clip-rule="evenodd" d="M0 9.417c0 6.433 5.409 12.792 13.816 18.216.467.301 1.04.602 1.432.602.392 0 .964-.3 1.431-.602 8.423-5.424 13.817-11.783 13.817-18.216 0-5.56-3.842-9.417-8.77-9.417-2.877 0-5.122 1.31-6.478 3.3C13.922 1.326 11.662 0 8.784 0 3.842 0 0 3.857 0 9.417Zm4.192-3.888c1.042-1.569 2.752-2.5 4.773-2.5 2.354 0 3.812 1.237 4.776 2.5H4.192Zm-.868 2a7.781 7.781 0 0 0-.22 1.873c0 .373.027.749.08 1.127h24.143c.052-.378.08-.754.08-1.127 0-.664-.077-1.29-.221-1.873H3.324Zm22.994-2c-1.044-1.569-2.758-2.5-4.787-2.5-2.336 0-3.745 1.254-4.746 2.5h9.533Zm-22.628 7H26.82c-.36 1-.876 2.005-1.518 3H5.208c-.643-.995-1.158-2-1.518-3Zm2.983 5h17.164a30.625 30.625 0 0 1-2.84 3H9.514c-1.043-.969-2-1.974-2.84-3Zm5.174 5a45.519 45.519 0 0 0 3.13 2.271c.12.09.21.15.27.15.061 0 .151-.06.287-.15a45.519 45.519 0 0 0 3.13-2.27h-6.818Z" fill="#795BDA"/></svg>