<svg width="48" height="28" fill="none" xmlns="http://www.w3.org/2000/svg"><path d="M1.398 27.204c.772 0 1.384-.627 1.384-1.398C2.782 13.136 12.32 2.782 24 2.782c11.694 0 21.218 10.354 21.218 23.024 0 .771.627 1.398 1.384 1.398A1.39 1.39 0 0 0 48 25.806C48 11.592 37.223 0 24 0S0 11.592 0 25.806c0 .771.626 1.398 1.398 1.398ZM24.03 16.296c2.607 0 4.85-2.345 4.85-5.36 0-2.955-2.243-5.198-4.85-5.198-2.621 0-4.864 2.286-4.864 5.228 0 2.985 2.228 5.33 4.864 5.33ZM8.84 27.189c.758 0 1.384-.626 1.384-1.383 0-5.301 2.709-10.15 6.976-12.801a6.914 6.914 0 0 1-.131-3.102c-5.825 2.84-9.626 9.029-9.626 15.903 0 .757.611 1.383 1.398 1.383Zm30.321 0c.787 0 1.398-.626 1.398-1.383 0-6.845-3.786-13.02-9.582-15.874a7.048 7.048 0 0 1-.146 3.117c4.267 2.606 6.947 7.456 6.947 12.757 0 .757.626 1.383 1.383 1.383Zm-23.155.291h16.02c1.34 0 2.155-.626 2.155-1.689 0-3.102-3.932-7.369-10.15-7.369-6.248 0-10.18 4.267-10.18 7.37 0 1.062.815 1.688 2.155 1.688Z" fill="#FF5C8D"/></svg>