<svg width="46" height="22" fill="none" xmlns="http://www.w3.org/2000/svg"><path fill-rule="evenodd" clip-rule="evenodd" d="M31.897 21.079H8.272c-2.742 0-4.882-.302-6.449-1.854C.286 17.69 0 15.55 0 12.807v-4.58C0 5.53.286 3.405 1.838 1.853 3.375.301 5.53 0 8.227 0h23.67c2.742 0 4.882.301 6.448 1.853 1.537 1.537 1.824 3.662 1.824 6.419v4.535c0 2.742-.287 4.867-1.824 6.418-1.551 1.552-3.706 1.854-6.448 1.854ZM3.993 17.07c.844.829 2.305 1.055 3.857 1.055h24.469c1.567 0 3.028-.211 3.857-1.055.843-.844 1.04-2.275 1.04-3.842v-5.38c0-1.566-.197-2.997-1.04-3.841-.829-.844-2.29-1.055-3.857-1.055H7.88c-1.582 0-3.059.211-3.902 1.055-.829.844-1.025 2.29-1.025 3.872v5.349c0 1.567.196 2.998 1.04 3.842Zm41.298-6.54c0 2.412-1.672 4.009-2.923 4.084V6.449c1.25.075 2.923 1.687 2.923 4.083Zm-27.645.149c0 .195.154.35.347.35h2.32l-1.247 3.516c-.174.505.338.794.657.382l3.797-5.053a.505.505 0 0 0 .125-.31.355.355 0 0 0-.357-.35h-2.647l1.575-3.506c.174-.515-.339-.804-.648-.381l-3.807 5.042a.515.515 0 0 0-.116.31Z" fill="#FF5C8D"/></svg>