<svg width="48" height="48" fill="none" xmlns="http://www.w3.org/2000/svg"><path d="M29.61 9.564c-4.11-5.999-4.11-5.998-9.105-.505m0 0-.005.005m.005-.005c1.762.642 3.196 1.446 3.995 2.006l1 .5m-4.995-2.506c-1.914-.697-4.214-1.203-6.505-.994 1 1.666 3.3 6.49 2.5 11.29m8 13.21v3m0 6.5v-3.5m0-3 1.5.5-1.5.5m0-1v1m0 0v1m0 0-1.5.5 1.5.5m0-1v1m9.5-30.5c-5.833 1.666-19 8-19 16C15 36.12 34.624 34.625 33.84 24c-.367-4.967-3.793-10.994.16-15.935Z" stroke="#795BDA" stroke-width="2.7" stroke-linejoin="round"/></svg>