<svg width="31" height="31" fill="none" xmlns="http://www.w3.org/2000/svg"><g clip-path="url('#clip0_984_216')"><path d="M15.5 31C24.06 31 31 24.06 31 15.5 31 6.94 24.06 0 15.5 0 6.94 0 0 6.94 0 15.5 0 24.06 6.94 31 15.5 31Z" fill="#fff"/><path d="M30.036 20.892c.623-1.68.964-3.495.964-5.391s-.341-3.712-.964-5.392H.964A15.467 15.467 0 0 0 0 15.501c0 1.896.341 3.712.964 5.39h29.072Z" fill="#0052B4"/></g><defs><clipPath id="clip0_984_216"><path fill="#fff" d="M0 0h31v31H0z"/></clipPath></defs></svg>