<svg width="17" height="17" fill="none" xmlns="http://www.w3.org/2000/svg"><path d="M2.987 17h11.026C15.98 17 17 15.98 17 14.04V2.96C17 1.01 15.98 0 14.013 0H2.987C1.02 0 0 1.01 0 2.96v11.08C0 15.99 1.02 17 2.987 17Zm.109-1.785c-.847 0-1.311-.446-1.311-1.33V3.106c0-.883.464-1.32 1.31-1.32h10.81c.837 0 1.31.437 1.31 1.32v10.78c0 .884-.473 1.33-1.31 1.33H3.094Zm.446-11v2.113c0 .592.346.93.929.93h2.112c.592 0 .938-.338.938-.93V4.216c0-.592-.346-.929-.938-.929H4.471c-.583 0-.929.337-.929.929Zm.565 6.074h8.723a.568.568 0 0 0 .573-.583.558.558 0 0 0-.573-.564H4.107a.56.56 0 0 0-.583.564.57.57 0 0 0 .583.583Zm0 3.005h6.446a.566.566 0 0 0 .574-.574.568.568 0 0 0-.574-.582H4.107a.57.57 0 0 0-.583.582c0 .32.246.574.583.574Z" fill="#222B40" fill-opacity=".4"/></svg>