<svg width="16" height="16" fill="none" xmlns="http://www.w3.org/2000/svg"><path d="m14.646.646-14 14 .708.708 2.49-2.49 2.418-2.419 4.183-4.183 2.556-2.556 2.353-2.352-.707-.708ZM8 2c1.14 0 2.227.235 3.218.66l-2.44 2.442A3.004 3.004 0 0 0 5 8c0 .269.035.53.102.777L2.24 11.638A8.776 8.776 0 0 1 0 8c1.105-3.484 4.269-6 8-6ZM8 11c-.269 0-.53-.035-.777-.102L4.782 13.34C5.773 13.765 6.86 14 8 14c3.731 0 6.895-2.516 8-6a8.776 8.776 0 0 0-2.24-3.638l-2.862 2.861A3.002 3.002 0 0 1 8 11Z" fill="#222B40"/></svg>