<svg aria-hidden="true" style="width:0;height:0;position:absolute;overflow:hidden" xmlns="http://www.w3.org/2000/svg"><defs><symbol id="Layer_1" viewBox="0 0 182 32"><path fill="#795bda" style="fill:var(--color1,#795bda)" d="M47.663.993A65.849 65.849 0 0 1 44.814 19.6l.122-.466a67.985 67.985 0 0 0-.847-7.547l.056.399c-.377-2.727-1.071-5.193-2.056-7.506l.072.191a7.09 7.09 0 0 0-3.392-3.658l-.041-.018a5.636 5.636 0 0 0-2.171-.427l-.107.001h.005-.076c-1.25 0-2.439.266-3.511.744l.055-.022c2.897 5.409 7.19 18.394 7.19 22.387 0 1.229-.41 2.116-1.524 2.492a8.53 8.53 0 0 1-2.219.286c-.238 0-.474-.009-.707-.028l.031.002c-1.652 0-3.1 1.22-3.1 3.718a9.85 9.85 0 0 0 4.86 1.265c2.42 0 4.638-.862 6.364-2.296l-.016.013C50.249 23.764 54.219 9.342 54.219.965l-6.554.029zm32.634 14.668c0-7.735-10.458-6.298-10.458-9.171 0-.888 1.03-1.445 2.767-1.445 2.214.108 4.393.595 6.447 1.444l.084-4.607C77.038 1.077 74.609.611 72.072.611h-.049.003c-5.042 0-8.602 2.282-8.602 6.766 0 7.569 10.254 5.836 10.254 9.006 0 1.315-1.737 1.907-3.805 1.907a15.883 15.883 0 0 1-6.627-1.61l.094.042.333 4.333c1.115.722 4.343 1.777 7.731 1.777 5.129-.064 8.892-2.513 8.892-7.171zm12.641 7.105c6.413 0 8.355-3.676 8.355-5.834a4.609 4.609 0 0 0-.3-1.592l.011.032a7.623 7.623 0 0 1-2.627 1.942l-.048.019a7.309 7.309 0 0 1-3.249.617h.013c-2.691 0-5.544-1.14-5.911-5.286h12.571c.128-.841.196-1.69.205-2.542 0-4.86-2.733-9.554-9.096-9.554-6.166 0-10.593 4.442-10.593 11.122-.036 5.531 2.98 11.077 10.67 11.077zm2.777-13.722h-6.66c0-1.984 1.201-3.805 3.474-3.805.431-.019.86.055 1.262.218.401.163.763.41 1.062.724.302.316.534.694.682 1.107s.209.855.179 1.295v.461zm8.72-8.071s.458 3.676.458 15.05v6.304h6.738V10.634c0-2.282.911-4.608 3.636-4.608 2.317 0 2.825 1.69 2.825 3.466v12.856h6.746V8.091c0-4.564-2.487-7.525-6.993-7.525a7.33 7.33 0 0 0-3.95.978l.035-.019a7.632 7.632 0 0 0-2.846 2.853l-.02.038c-.924-3.084-4.518-3.423-6.63-3.423v-.02zm40.254 14.667c0-7.735-10.459-6.298-10.459-9.171 0-.888 1.032-1.445 2.769-1.445 2.213.106 4.393.595 6.447 1.445l.086-4.608c-2.1-.805-4.528-1.271-7.066-1.271h-.048.002c-5.043 0-8.602 2.282-8.602 6.767 0 7.567 10.254 5.834 10.254 9.005 0 1.315-1.738 1.907-3.8 1.907a15.833 15.833 0 0 1-6.626-1.61l.094.041.325 4.333c1.115.722 4.343 1.777 7.732 1.777 5.106-.044 8.87-2.491 8.87-7.149l.02-.022zm12.366 7.106c6.406 0 8.348-3.675 8.348-5.834a4.609 4.609 0 0 0-.3-1.592l.011.032a7.608 7.608 0 0 1-2.626 1.946l-.048.019a7.296 7.296 0 0 1-3.251.614h.014c-2.684 0-5.537-1.142-5.911-5.286h12.57c.129-.842.197-1.692.205-2.543 0-4.86-2.725-9.554-9.096-9.554-6.158 0-10.628 4.442-10.628 11.122.006 5.553 3 11.099 10.692 11.099l.02-.022zm2.768-13.722h-6.66c0-1.984 1.201-3.804 3.475-3.804.43-.02.86.054 1.261.216s.763.41 1.064.724a3.17 3.17 0 0 1 .86 2.412l.001-.01v.463zM0 .995s.46 3.676.46 15.05v6.304h6.765V10.634c0-2.246.58-4.608 3.059-4.608 2.195 0 2.563 1.814 2.563 3.466v12.856h6.746V10.294c0-2.116.704-4.269 3.057-4.269 2.189 0 2.564 1.814 2.564 3.466v12.856h6.73V8.09c0-4.564-2.118-7.525-6.49-7.525-3.264 0-5.65 1.654-6.653 3.892-.579-2.202-2.564-3.891-5.65-3.891-3.085 0-5.536 1.69-6.49 3.848C5.707 1.33 2.113.991.001.991z"/><path fill="#ff5c8d" style="fill:var(--color2,#ff5c8d)" d="M173.038 15.213a3.83 3.83 0 0 1 1.592 1.065 3.94 3.94 0 0 1 .893 1.715 3.77 3.77 0 0 1 2.283-.847h.005l.096-.001c.839 0 1.615.273 2.243.734l-.011-.007a3.932 3.932 0 0 1 1.436 2.01 4.012 4.012 0 0 1-.037 2.517l.008-.028c-1.032 3.077-6.589 4.378-9.117 4.659-1.71-1.885-5.361-6.182-4.287-9.389.164-.489.421-.941.756-1.327a3.84 3.84 0 0 1 1.196-.931 3.736 3.736 0 0 1 1.687-.397c.45 0 .881.078 1.281.222l-.026-.008z"/></symbol><symbol id="Arrow" viewBox="0 0 11 6" fill="none"><path d="m1 1 4.5 4L10 1" stroke="#222B40" stroke-opacity=".4"/></symbol><symbol id="close_40px" viewBox="0 0 32 32"><path d="M23.734 10.304 22.23 8.8l-5.963 5.962L10.305 8.8l-1.504 1.504 5.962 5.962-5.962 5.963 1.504 1.504 5.962-5.963 5.963 5.963 1.504-1.504-5.963-5.963 5.963-5.962z"/></symbol><symbol id="menu_40px" viewBox="0 0 32 32"><path d="M6.4 11.734V9.6h19.2v2.134H6.4zm0 5.332h19.2v-2.133H6.4v2.133zm0 5.334h19.2v-2.134H6.4V22.4z"/></symbol><symbol id="menu_40px" viewBox="0 0 34 32"><path stroke-width="2.824" d="M0 2.931h33.882M0 16.107h33.882M0 29.284h33.882"/></symbol><symbol id="menu" viewBox="0 0 18 17"><path d="M0 1.557h18M0 8.557h18M0 15.557h18" stroke="#222B40" stroke-width="1.5"/></symbol><symbol id="login" viewBox="0 0 24 32"><path fill="none" stroke="#795bda" style="stroke:var(--color1,#795bda)" stroke-linejoin="round" stroke-width="3" d="M0 16h12m0 0-6-6m6 6-6 6"/><path fill="none" stroke="#795bda" style="stroke:var(--color1,#795bda)" stroke-width="3" d="M4 2h14a4 4 0 0 1 4 4v20a4 4 0 0 1-4 4H4"/></symbol><symbol id="icon-telegram" viewBox="0 0 37 32"><path d="M35.048 0c.283-.006.909.068 1.317.415.271.246.444.59.484.963.045.276.102.907.057 1.399-.51 5.624-2.725 19.266-3.853 25.563-.476 2.667-1.414 3.559-2.323 3.645-1.972.193-3.471-1.363-5.383-2.673-2.992-2.053-4.683-3.33-7.587-5.334-3.357-2.311-1.181-3.585.731-5.659.502-.545 9.2-8.821 9.37-9.571.02-.095.04-.444-.159-.628s-.493-.121-.705-.071c-.3.071-5.08 3.378-14.339 9.911-1.36.978-2.587 1.452-3.689 1.422-1.213-.024-3.547-.714-5.284-1.304C1.554 17.352-.137 16.97.01 15.74c.076-.64.921-1.295 2.53-1.964 9.911-4.516 16.518-7.494 19.827-8.931C31.807.738 33.771.024 35.049 0z"/></symbol><symbol id="icon-instagram" viewBox="0 0 32 32"><path d="M16 0c-4.347 0-4.889.02-6.596.096C7.7.176 6.54.444 5.52.84c-1.052.408-1.945.956-2.835 1.845S1.246 4.466.84 5.52C.444 6.54.175 7.7.096 9.404.016 11.111 0 11.653 0 16s.02 4.889.096 6.596c.08 1.703.348 2.864.744 3.884a7.854 7.854 0 0 0 1.845 2.835A7.807 7.807 0 0 0 5.52 31.16c1.021.395 2.181.665 3.884.744 1.707.08 2.249.096 6.596.096s4.889-.02 6.596-.096c1.703-.08 2.864-.349 3.884-.744a7.867 7.867 0 0 0 2.835-1.845 7.799 7.799 0 0 0 1.845-2.835c.395-1.02.665-2.181.744-3.884.08-1.707.096-2.249.096-6.596s-.02-4.889-.096-6.596c-.08-1.703-.349-2.865-.744-3.884a7.859 7.859 0 0 0-1.845-2.835A7.786 7.786 0 0 0 26.48.84C25.46.444 24.299.175 22.596.096 20.889.016 20.347 0 16 0zm0 2.88c4.271 0 4.78.021 6.467.095 1.56.073 2.407.332 2.969.553.749.289 1.28.636 1.843 1.195a4.95 4.95 0 0 1 1.195 1.841c.218.563.48 1.409.551 2.969.076 1.688.093 2.195.093 6.467s-.02 4.78-.099 6.467c-.081 1.56-.341 2.407-.561 2.969-.299.749-.639 1.28-1.199 1.843a5.002 5.002 0 0 1-1.84 1.195c-.56.218-1.42.48-2.98.551-1.698.076-2.199.093-6.479.093-4.281 0-4.781-.02-6.479-.099-1.561-.081-2.421-.341-2.981-.561-.759-.299-1.28-.639-1.839-1.199a4.867 4.867 0 0 1-1.2-1.84c-.22-.56-.479-1.42-.56-2.98-.06-1.68-.081-2.199-.081-6.459 0-4.261.021-4.781.081-6.481.081-1.56.34-2.419.56-2.979.28-.76.639-1.28 1.2-1.841.559-.559 1.08-.919 1.839-1.197.56-.221 1.401-.481 2.961-.561 1.7-.06 2.2-.08 6.479-.08l.06.04zm0 4.904A8.215 8.215 0 0 0 7.784 16c0 4.54 3.68 8.216 8.216 8.216 4.54 0 8.216-3.68 8.216-8.216 0-4.54-3.68-8.216-8.216-8.216zm0 13.549c-2.947 0-5.333-2.387-5.333-5.333s2.387-5.333 5.333-5.333c2.947 0 5.333 2.387 5.333 5.333S18.946 21.333 16 21.333zM26.461 7.46a1.921 1.921 0 0 1-3.84 0 1.92 1.92 0 0 1 3.84 0z"/></symbol><symbol id="icon-facebook" viewBox="0 0 32 32"><path d="M32 16.097C32 7.207 24.836 0 16 0S0 7.208 0 16.097c0 8.035 5.851 14.694 13.5 15.901V20.75H9.437v-4.655H13.5v-3.544c0-4.034 2.389-6.263 6.044-6.263 1.749 0 3.581.315 3.581.315v3.961h-2.019c-1.988 0-2.608 1.241-2.608 2.514v3.018h4.437l-.709 4.655h-3.728v11.248c7.651-1.209 13.501-7.869 13.501-15.903z"/></symbol><symbol id="icon-sign-in" viewBox="0 0 24 32"><path fill="none" stroke="#795bda" style="stroke:var(--color1,#795bda)" stroke-linejoin="round" stroke-width="3" d="M0 16h12m0 0-6-6m6 6-6 6"/><path fill="none" stroke="#795bda" style="stroke:var(--color1,#795bda)" stroke-width="3" d="M4 2h14a4 4 0 0 1 4 4v20a4 4 0 0 1-4 4H4"/></symbol><symbol id="test" viewBox="0 0 14 14"><path d="M.5 7h12m0 0-6 6m6-6-6-6" stroke="#fff" stroke-width="1.5"/></symbol><symbol id="icon-love-heart" viewBox="0 0 37 32"><path fill="#ff5c8d" style="fill:var(--color1,#ff5c8d)" d="M13.755.611a10.398 10.398 0 0 1 4.294 2.818l.007.008a10.427 10.427 0 0 1 2.419 4.56 10.306 10.306 0 0 1 6.454-2.252c2.261 0 4.352.723 6.057 1.951l-.031-.021a10.499 10.499 0 0 1 3.862 5.262l.021.074c.314.952.495 2.048.495 3.186 0 1.227-.211 2.406-.597 3.501l.023-.074C33.975 27.797 18.951 31.251 12.116 32 7.495 26.992-2.372 15.573.527 7.056c.925-2.648 2.805-4.763 5.217-5.973l.06-.027A10.224 10.224 0 0 1 10.36.001c1.217 0 2.384.21 3.469.595l-.072-.022z"/></symbol><symbol id="icon-boltheart" viewBox="0 0 35 32"><path fill="#795bda" style="fill:var(--color1,#795bda)" d="M.813 10.911c0 7.099 5.969 14.115 15.246 20.1.515.332 1.147.665 1.579.665s1.064-.332 1.579-.665c9.294-5.985 15.246-13.001 15.246-20.1 0-6.135-4.24-10.391-9.676-10.391-3.175 0-5.653 1.446-7.149 3.641C16.175 1.983 13.681.52 10.506.52 5.053.52.813 4.776.813 10.911zm3.425-.017c0-4.19 2.76-7.033 6.467-7.033 2.993 0 4.672 1.812 5.719 3.392.465.682.781.898 1.214.898.449 0 .731-.233 1.214-.898 1.131-1.546 2.743-3.392 5.719-3.392 3.724 0 6.484 2.843 6.484 7.033 0 5.852-6.085 12.336-13.101 16.991-.15.1-.249.166-.316.166s-.166-.066-.299-.166C10.323 23.23 4.238 16.746 4.238 10.894zm8.263 6.684c0 .316.266.565.598.565h3.99l-2.145 5.669c-.299.815.582 1.28 1.131.615l6.534-8.147c.133-.15.216-.332.216-.499 0-.316-.283-.565-.615-.565h-3.974l2.128-5.653c.299-.831-.582-1.297-1.114-.615l-6.55 8.13c-.133.166-.2.333-.2.499z"/></symbol><symbol id="icon-bolt" viewBox="0 0 20 32"><path fill="#795bda" style="fill:var(--color1,#795bda)" d="m6.644 30.72 12.549-15.991c.241-.308.362-.589.362-.911 0-.549-.429-.964-1.018-.964h-7.661L14.84 2.341c.549-1.473-.991-2.25-1.929-1.045L.362 17.287c-.241.295-.362.576-.362.897 0 .563.429.978 1.018.978h7.661l-3.964 10.5c-.549 1.473.991 2.263 1.929 1.058zm5.397-13.741h-8.33l7.406-9.79-3.616 7.835h8.344l-7.406 9.804 3.603-7.848z"/></symbol><symbol id="icon-btn-arrow" viewBox="0 0 32 32"><path fill="none" stroke="#795bda" style="stroke:var(--color1,#795bda)" stroke-width="3.429" d="M0 16h27.429m0 0L13.715 29.714M27.429 16 13.715 2.286"/></symbol><symbol id="icon-clouddrizzle" viewBox="0 0 32 32"><path fill="#795bda" style="fill:var(--color1,#795bda)" d="M6.973 20.987h16.701c4.487 0 7.862-3.415 7.862-7.674 0-4.366-3.536-7.621-8.13-7.621C21.759 2.464 18.719.268 14.634.268c-5.143 0-9.308 3.951-9.817 8.933C2.339 9.964.464 12.107.464 15c0 3.335 2.451 5.987 6.509 5.987zm.014-2.545c-2.652 0-3.978-1.46-3.978-3.375 0-1.594.951-2.96 3.188-3.549.777-.214 1.031-.563 1.098-1.353.402-4.393 3.549-7.353 7.339-7.353 2.906 0 5.237 1.621 6.683 4.54.335.67.737.897 1.554.897 3.978 0 6.121 2.317 6.121 5.129s-2.223 5.063-5.237 5.063H6.987zm11.062 9.013 1.728-2.987c.268-.442.134-.964-.308-1.219s-.938-.107-1.192.348l-1.741 3.013c-.241.415-.134.924.321 1.179.429.255.951.094 1.192-.335zm-10.647.014 1.728-3a.864.864 0 0 0-.308-1.205c-.442-.255-.938-.107-1.205.348l-1.741 3c-.241.429-.121.938.321 1.192a.883.883 0 0 0 1.205-.335zm14.853 3.75 1.728-2.987c.255-.442.121-.964-.308-1.219-.442-.255-.938-.107-1.205.348l-1.728 3.013c-.254.415-.134.924.308 1.179s.964.094 1.205-.335zm-10.661.013 1.728-2.987c.268-.442.134-.964-.308-1.219s-.924-.107-1.192.348l-1.741 3.013c-.241.415-.134.924.321 1.179.429.255.951.094 1.192-.335z"/></symbol><symbol id="icon-cloudmoonrain" viewBox="0 0 33 32"><path fill="#795bda" style="fill:var(--color1,#795bda)" d="M5.75 22.103h13.102c3.592 0 6.364-2.724 6.364-6.22v-.133c3.905-.084 6.473-2.302 7.425-4.846.422-1.073-.121-2.001-1.145-2.001-.796 0-1.422.338-2.712.338-2.977 0-4.52-1.651-4.52-4.436 0-1.398.434-2.194.434-2.869 0-1.061-.94-1.579-2.049-1.205-2.688.892-4.906 3.712-4.906 7.088v.362c-1.47-1.736-3.556-2.736-5.979-2.736-4.05 0-7.425 3.062-7.895 7.088C1.82 13.184.446 14.968.446 17.21c0 2.845 2.146 4.894 5.304 4.894zM19.72 7.784c0-2.254 1.302-4.05 2.869-4.942l.133.084a7.661 7.661 0 0 0-.374 2.35c0 3.447 2.471 5.858 5.979 5.858a7.02 7.02 0 0 0 2.182-.338l.084.096c-.771 1.434-2.712 2.893-5.75 2.857-.735-2.013-2.519-3.483-4.785-3.917a6.407 6.407 0 0 1-.338-2.049zM5.738 19.849c-1.989 0-3.038-1.133-3.038-2.592 0-1.254.747-2.326 2.495-2.796.603-.157.808-.434.88-1.061.338-3.411 2.748-5.701 5.689-5.701 2.266 0 4.05 1.266 5.183 3.496.277.53.579.711 1.217.711 3.122 0 4.797 1.82 4.797 4.026 0 2.182-1.748 3.917-4.098 3.917H5.737zm9.45 7.943 1.555-2.7c.241-.386.121-.856-.277-1.085s-.832-.096-1.073.313l-1.567 2.712c-.217.374-.121.832.289 1.061a.78.78 0 0 0 1.073-.301zm-9.583.012 1.555-2.7a.778.778 0 0 0-.277-1.085c-.398-.229-.844-.096-1.085.301l-1.567 2.712a.77.77 0 0 0 .289 1.073.79.79 0 0 0 1.085-.301zm13.368 3.375 1.555-2.688c.241-.398.121-.868-.277-1.097s-.844-.096-1.073.313l-1.567 2.712c-.217.374-.121.832.277 1.061s.868.084 1.085-.301zm-9.583.013 1.555-2.7c.229-.386.108-.856-.289-1.085s-.832-.096-1.073.313l-1.567 2.712c-.217.374-.121.832.289 1.061a.796.796 0 0 0 1.085-.301z"/></symbol><symbol id="icon-flame" viewBox="0 0 24 32"><path fill="#795bda" style="fill:var(--color1,#795bda)" d="M11.555 31.321c7.643 0 12.748-5.148 12.748-12.904C24.303 5.583 13.327.209 5.755.209 4.28.209 3.33.762 3.33 1.811c0 .411.184.823.51 1.205 1.758 2.113 3.361 4.396 3.389 7.119 0 .269-.014.525-.071.78-.837-1.758-2.226-2.751-3.488-2.751-.681 0-1.134.468-1.134 1.205 0 .454.113 1.22.113 1.929 0 3.262-2.482 4.921-2.482 10.153 0 5.927 4.538 9.87 11.387 9.87zm.156-2.425c-5.46 0-9.104-2.992-9.104-7.445s2.425-5.871 2.411-9.927v-.298c.723.837 1.262 1.999 1.574 3.446.085.397.298.596.61.596 1.305 0 2.184-2.935 2.184-5.006 0-2.85-1.078-5.616-2.879-7.672 9.303.78 15.273 7.19 15.273 15.741 0 6.325-4.041 10.565-10.068 10.565zm.184-1.985c3.262 0 4.949-2.354 4.949-5.162 0-2.822-1.617-5.814-4.651-7.204-.17-.071-.326.028-.284.227.241 2.184-.028 4.197-.752 5.289-.326-.851-.737-1.546-1.347-2.113-.156-.128-.298-.057-.326.113-.213 1.702-1.929 2.51-1.929 4.949 0 2.34 1.73 3.9 4.339 3.9z"/></symbol><symbol id="icon-personicloud" viewBox="0 0 46 32"><path fill="#795bda" style="fill:var(--color1,#795bda)" d="M35.255 31.006c5.372 0 9.608-3.943 9.608-8.868 0-3.668-2.084-6.922-5.51-8.351C39.37 6.004 33.757.39 26.542.39c-4.58 0-8.024 2.359-10.177 5.493-4.374-1.171-8.971 2.084-9.144 6.939C3.278 13.528.85 17.058.85 21.38c0 5.235 4.58 9.608 10.607 9.608l23.797.017zm0-3.444h-1.722c-1.343-2.772-4.649-5.648-9.591-5.648-4.959 0-8.248 2.876-9.608 5.648h-2.858c-4.098 0-7.146-2.858-7.146-6.182 0-3.444 2.118-5.992 5.631-5.992.258 0 .362-.138.344-.379-.103-5.114 3.564-6.871 7.267-5.7.224.069.362.017.465-.172 1.705-2.996 4.219-5.321 8.489-5.321 5.407 0 9.264 4.288 9.522 9.298.052.93-.017 1.929-.086 2.755-.035.241.069.379.293.413 3.117.603 5.131 2.807 5.131 5.855 0 3.013-2.669 5.424-6.13 5.424zm-11.313-7.697c2.531.017 4.58-2.29 4.58-5.028 0-2.686-2.049-4.89-4.58-4.89-2.548 0-4.598 2.204-4.598 4.89.017 2.721 2.049 5.011 4.598 5.028z"/></symbol><symbol id="icon-tornado" viewBox="0 0 27 32"><path fill="#795bda" style="fill:var(--color1,#795bda)" d="M13.508 13.538c8.596 0 13.624-2.149 13.624-5.18 0-2.769-3.857-4.449-9.615-4.449-4.16 0-7.466.758-10.015 1.887-.744.331-.909 1.088-.661 1.612.289.592 1.019.785 1.708.523 2.232-.895 5.028-1.75 8.83-1.75 4.463 0 7.274 1.006 7.274 2.163 0 1.391-4.518 2.851-11.255 2.851-6.97 0-10.621-1.35-10.621-3.926 0-1.612 1.488-3.168 5.372-4.381.771-.234 1.075-.854.868-1.502-.22-.634-.785-.882-1.653-.647C2.611 2.103.297 4.651.297 7.324c0 4.022 4.573 6.213 13.211 6.213zm.413 4.697c4.394 0 8.444-.716 11.296-1.86.62-.248.895-.882.606-1.419-.276-.537-.84-.647-1.543-.399-2.59.964-6.351 1.626-10.359 1.626-3.003 0-6.419-.372-9.119-1.157-.689-.207-1.267.014-1.433.606-.179.579.138 1.143.854 1.35 2.907.826 6.543 1.254 9.698 1.254zm.978 4.629c3.664-.041 7.081-.565 10.249-1.598.785-.262.964-.909.758-1.433-.207-.537-.744-.73-1.515-.482a31.1 31.1 0 0 1-9.519 1.46c-1.405 0-2.893-.096-4.022-.248-.744-.096-1.212.22-1.309.771-.11.565.193 1.116.992 1.24 1.088.179 2.59.303 4.367.289zm-1.323 4.38c2.535.289 5.717.193 8.293-.496.689-.179.964-.785.799-1.35-.179-.579-.73-.799-1.46-.634-2.218.565-4.877.744-7.315.468-.744-.069-1.254.289-1.322.854-.069.551.22 1.061 1.006 1.157zm-.95 4.505c.909.11 1.929.11 2.879-.014.675-.069 1.033-.51.978-1.102-.041-.537-.482-.923-1.212-.826-.785.096-1.694.096-2.452 0-.703-.083-1.143.303-1.212.826-.069.565.289 1.033 1.019 1.116z"/></symbol><symbol id="icon-waveformpathecg" viewBox="0 0 32 32"><path fill="#795bda" style="fill:var(--color1,#795bda)" d="M1.988 18.225h6.69c.768 0 1.236-.346 1.401-1.025l2.064-9.507 3.797 22.902c.211 1.281 2.17 1.266 2.426.015l3.646-17.206.723 3.661c.166.784.618 1.16 1.416 1.16h5.876c.693 0 1.25-.542 1.25-1.235 0-.708-.542-1.251-1.25-1.251h-5.228l-1.688-7.534c-.271-1.22-2.109-1.22-2.396.045l-3.571 16.016-3.812-23.143c-.196-1.251-2.019-1.281-2.29-.015l-3.164 14.63H1.987c-.708 0-1.266.557-1.266 1.25s.557 1.235 1.266 1.235z"/></symbol><symbol id="icon-pink-heart" viewBox="0 0 37 32"><path fill="#ff5c8d" style="fill:var(--color1,#ff5c8d)" d="M13.755.609c1.648.564 3.128 1.536 4.302 2.828s2.006 2.86 2.418 4.56a10.361 10.361 0 0 1 12.479-.323 10.458 10.458 0 0 1 3.884 5.338 10.508 10.508 0 0 1-.079 6.612C33.972 27.798 18.947 31.252 12.113 32 7.493 26.992-2.377 15.576.525 7.056.97 5.757 1.665 4.558 2.57 3.529A10.398 10.398 0 0 1 9.731.019a10.341 10.341 0 0 1 4.024.552z"/></symbol></defs></svg>