<svg aria-hidden="true" style="width:0;height:0;position:absolute;overflow:hidden" xmlns="http://www.w3.org/2000/svg"><defs><symbol id="Layer_1" viewBox="0 0 182 32"><path fill="#795bda" style="fill:var(--color1,#795bda)" d="M47.663.993A65.849 65.849 0 0 1 44.814 19.6l.122-.466a67.985 67.985 0 0 0-.847-7.547l.056.399c-.377-2.727-1.071-5.193-2.056-7.506l.072.191a7.09 7.09 0 0 0-3.392-3.658l-.041-.018a5.636 5.636 0 0 0-2.171-.427l-.107.001h.005-.076c-1.25 0-2.439.266-3.511.744l.055-.022c2.897 5.409 7.19 18.394 7.19 22.387 0 1.229-.41 2.116-1.524 2.492a8.53 8.53 0 0 1-2.219.286c-.238 0-.474-.009-.707-.028l.031.002c-1.652 0-3.1 1.22-3.1 3.718a9.85 9.85 0 0 0 4.86 1.265c2.42 0 4.638-.862 6.364-2.296l-.016.013C50.249 23.764 54.219 9.342 54.219.965l-6.554.029zm32.634 14.668c0-7.735-10.458-6.298-10.458-9.171 0-.888 1.03-1.445 2.767-1.445 2.214.108 4.393.595 6.447 1.444l.084-4.607C77.038 1.077 74.609.611 72.072.611h-.049.003c-5.042 0-8.602 2.282-8.602 6.766 0 7.569 10.254 5.836 10.254 9.006 0 1.315-1.737 1.907-3.805 1.907a15.883 15.883 0 0 1-6.627-1.61l.094.042.333 4.333c1.115.722 4.343 1.777 7.731 1.777 5.129-.064 8.892-2.513 8.892-7.171zm12.641 7.105c6.413 0 8.355-3.676 8.355-5.834a4.609 4.609 0 0 0-.3-1.592l.011.032a7.623 7.623 0 0 1-2.627 1.942l-.048.019a7.309 7.309 0 0 1-3.249.617h.013c-2.691 0-5.544-1.14-5.911-5.286h12.571c.128-.841.196-1.69.205-2.542 0-4.86-2.733-9.554-9.096-9.554-6.166 0-10.593 4.442-10.593 11.122-.036 5.531 2.98 11.077 10.67 11.077zm2.777-13.722h-6.66c0-1.984 1.201-3.805 3.474-3.805.431-.019.86.055 1.262.218.401.163.763.41 1.062.724.302.316.534.694.682 1.107s.209.855.179 1.295v.461zm8.72-8.071s.458 3.676.458 15.05v6.304h6.738V10.634c0-2.282.911-4.608 3.636-4.608 2.317 0 2.825 1.69 2.825 3.466v12.856h6.746V8.091c0-4.564-2.487-7.525-6.993-7.525a7.33 7.33 0 0 0-3.95.978l.035-.019a7.632 7.632 0 0 0-2.846 2.853l-.02.038c-.924-3.084-4.518-3.423-6.63-3.423v-.02zm40.254 14.667c0-7.735-10.459-6.298-10.459-9.171 0-.888 1.032-1.445 2.769-1.445 2.213.106 4.393.595 6.447 1.445l.086-4.608c-2.1-.805-4.528-1.271-7.066-1.271h-.048.002c-5.043 0-8.602 2.282-8.602 6.767 0 7.567 10.254 5.834 10.254 9.005 0 1.315-1.738 1.907-3.8 1.907a15.833 15.833 0 0 1-6.626-1.61l.094.041.325 4.333c1.115.722 4.343 1.777 7.732 1.777 5.106-.044 8.87-2.491 8.87-7.149l.02-.022zm12.366 7.106c6.406 0 8.348-3.675 8.348-5.834a4.609 4.609 0 0 0-.3-1.592l.011.032a7.608 7.608 0 0 1-2.626 1.946l-.048.019a7.296 7.296 0 0 1-3.251.614h.014c-2.684 0-5.537-1.142-5.911-5.286h12.57c.129-.842.197-1.692.205-2.543 0-4.86-2.725-9.554-9.096-9.554-6.158 0-10.628 4.442-10.628 11.122.006 5.553 3 11.099 10.692 11.099l.02-.022zm2.768-13.722h-6.66c0-1.984 1.201-3.804 3.475-3.804.43-.02.86.054 1.261.216s.763.41 1.064.724a3.17 3.17 0 0 1 .86 2.412l.001-.01v.463zM0 .995s.46 3.676.46 15.05v6.304h6.765V10.634c0-2.246.58-4.608 3.059-4.608 2.195 0 2.563 1.814 2.563 3.466v12.856h6.746V10.294c0-2.116.704-4.269 3.057-4.269 2.189 0 2.564 1.814 2.564 3.466v12.856h6.73V8.09c0-4.564-2.118-7.525-6.49-7.525-3.264 0-5.65 1.654-6.653 3.892-.579-2.202-2.564-3.891-5.65-3.891-3.085 0-5.536 1.69-6.49 3.848C5.707 1.33 2.113.991.001.991z"/><path fill="#ff5c8d" style="fill:var(--color2,#ff5c8d)" d="M173.038 15.213a3.83 3.83 0 0 1 1.592 1.065 3.94 3.94 0 0 1 .893 1.715 3.77 3.77 0 0 1 2.283-.847h.005l.096-.001c.839 0 1.615.273 2.243.734l-.011-.007a3.932 3.932 0 0 1 1.436 2.01 4.012 4.012 0 0 1-.037 2.517l.008-.028c-1.032 3.077-6.589 4.378-9.117 4.659-1.71-1.885-5.361-6.182-4.287-9.389.164-.489.421-.941.756-1.327a3.84 3.84 0 0 1 1.196-.931 3.736 3.736 0 0 1 1.687-.397c.45 0 .881.078 1.281.222l-.026-.008z"/></symbol><symbol id="Arrow" viewBox="0 0 11 6" fill="none"><path d="m1 1 4.5 4L10 1" stroke="#222B40" stroke-opacity=".4"/></symbol><symbol id="close_40px" viewBox="0 0 32 32"><path d="M23.734 10.304 22.23 8.8l-5.963 5.962L10.305 8.8l-1.504 1.504 5.962 5.962-5.962 5.963 1.504 1.504 5.962-5.963 5.963 5.963 1.504-1.504-5.963-5.963 5.963-5.962z"/></symbol><symbol id="menu_40px" viewBox="0 0 32 32"><path d="M6.4 11.734V9.6h19.2v2.134H6.4zm0 5.332h19.2v-2.133H6.4v2.133zm0 5.334h19.2v-2.134H6.4V22.4z"/></symbol><symbol id="menu_40px" viewBox="0 0 34 32"><path stroke-width="2.824" d="M0 2.931h33.882M0 16.107h33.882M0 29.284h33.882"/></symbol><symbol id="menu" viewBox="0 0 18 17"><path d="M0 1.557h18M0 8.557h18M0 15.557h18" stroke="#222B40" stroke-width="1.5"/></symbol><symbol id="login" viewBox="0 0 24 32"><path fill="none" stroke="#795bda" style="stroke:var(--color1,#795bda)" stroke-linejoin="round" stroke-width="3" d="M0 16h12m0 0-6-6m6 6-6 6"/><path fill="none" stroke="#795bda" style="stroke:var(--color1,#795bda)" stroke-width="3" d="M4 2h14a4 4 0 0 1 4 4v20a4 4 0 0 1-4 4H4"/></symbol><symbol id="icon-telegram" viewBox="0 0 37 32"><path d="M35.048 0c.283-.006.909.068 1.317.415.271.246.444.59.484.963.045.276.102.907.057 1.399-.51 5.624-2.725 19.266-3.853 25.563-.476 2.667-1.414 3.559-2.323 3.645-1.972.193-3.471-1.363-5.383-2.673-2.992-2.053-4.683-3.33-7.587-5.334-3.357-2.311-1.181-3.585.731-5.659.502-.545 9.2-8.821 9.37-9.571.02-.095.04-.444-.159-.628s-.493-.121-.705-.071c-.3.071-5.08 3.378-14.339 9.911-1.36.978-2.587 1.452-3.689 1.422-1.213-.024-3.547-.714-5.284-1.304C1.554 17.352-.137 16.97.01 15.74c.076-.64.921-1.295 2.53-1.964 9.911-4.516 16.518-7.494 19.827-8.931C31.807.738 33.771.024 35.049 0z"/></symbol><symbol id="icon-instagram" viewBox="0 0 32 32"><path d="M16 0c-4.347 0-4.889.02-6.596.096C7.7.176 6.54.444 5.52.84c-1.052.408-1.945.956-2.835 1.845S1.246 4.466.84 5.52C.444 6.54.175 7.7.096 9.404.016 11.111 0 11.653 0 16s.02 4.889.096 6.596c.08 1.703.348 2.864.744 3.884a7.854 7.854 0 0 0 1.845 2.835A7.807 7.807 0 0 0 5.52 31.16c1.021.395 2.181.665 3.884.744 1.707.08 2.249.096 6.596.096s4.889-.02 6.596-.096c1.703-.08 2.864-.349 3.884-.744a7.867 7.867 0 0 0 2.835-1.845 7.799 7.799 0 0 0 1.845-2.835c.395-1.02.665-2.181.744-3.884.08-1.707.096-2.249.096-6.596s-.02-4.889-.096-6.596c-.08-1.703-.349-2.865-.744-3.884a7.859 7.859 0 0 0-1.845-2.835A7.786 7.786 0 0 0 26.48.84C25.46.444 24.299.175 22.596.096 20.889.016 20.347 0 16 0zm0 2.88c4.271 0 4.78.021 6.467.095 1.56.073 2.407.332 2.969.553.749.289 1.28.636 1.843 1.195a4.95 4.95 0 0 1 1.195 1.841c.218.563.48 1.409.551 2.969.076 1.688.093 2.195.093 6.467s-.02 4.78-.099 6.467c-.081 1.56-.341 2.407-.561 2.969-.299.749-.639 1.28-1.199 1.843a5.002 5.002 0 0 1-1.84 1.195c-.56.218-1.42.48-2.98.551-1.698.076-2.199.093-6.479.093-4.281 0-4.781-.02-6.479-.099-1.561-.081-2.421-.341-2.981-.561-.759-.299-1.28-.639-1.839-1.199a4.867 4.867 0 0 1-1.2-1.84c-.22-.56-.479-1.42-.56-2.98-.06-1.68-.081-2.199-.081-6.459 0-4.261.021-4.781.081-6.481.081-1.56.34-2.419.56-2.979.28-.76.639-1.28 1.2-1.841.559-.559 1.08-.919 1.839-1.197.56-.221 1.401-.481 2.961-.561 1.7-.06 2.2-.08 6.479-.08l.06.04zm0 4.904A8.215 8.215 0 0 0 7.784 16c0 4.54 3.68 8.216 8.216 8.216 4.54 0 8.216-3.68 8.216-8.216 0-4.54-3.68-8.216-8.216-8.216zm0 13.549c-2.947 0-5.333-2.387-5.333-5.333s2.387-5.333 5.333-5.333c2.947 0 5.333 2.387 5.333 5.333S18.946 21.333 16 21.333zM26.461 7.46a1.921 1.921 0 0 1-3.84 0 1.92 1.92 0 0 1 3.84 0z"/></symbol><symbol id="icon-facebook" viewBox="0 0 32 32"><path d="M32 16.097C32 7.207 24.836 0 16 0S0 7.208 0 16.097c0 8.035 5.851 14.694 13.5 15.901V20.75H9.437v-4.655H13.5v-3.544c0-4.034 2.389-6.263 6.044-6.263 1.749 0 3.581.315 3.581.315v3.961h-2.019c-1.988 0-2.608 1.241-2.608 2.514v3.018h4.437l-.709 4.655h-3.728v11.248c7.651-1.209 13.501-7.869 13.501-15.903z"/></symbol><symbol id="icon-sign-in" viewBox="0 0 24 32"><path fill="none" stroke="#795bda" style="stroke:var(--color1,#795bda)" stroke-linejoin="round" stroke-width="3" d="M0 16h12m0 0-6-6m6 6-6 6"/><path fill="none" stroke="#795bda" style="stroke:var(--color1,#795bda)" stroke-width="3" d="M4 2h14a4 4 0 0 1 4 4v20a4 4 0 0 1-4 4H4"/></symbol><symbol id="test" viewBox="0 0 14 14"><path d="M.5 7h12m0 0-6 6m6-6-6-6" stroke="#fff" stroke-width="1.5"/></symbol><symbol id="next" viewBox="0 0 14 14"><path d="M.5 7h12m0 0-6 6m6-6-6-6" stroke="#795bda" style="stroke:var(--color1,#795bda)" stroke-width="1.5"/></symbol><symbol id="next2" viewBox="0 0 14 14"><path d="M.5 7h12m0 0-6 6m6-6-6-6" stroke="#222B40" style="stroke:var(--color1,#222b40)" stroke-width="1.5"/></symbol><symbol id="icon-love-heart" viewBox="0 0 37 32"><path fill="#ff5c8d" style="fill:var(--color1,#ff5c8d)" d="M13.755.611a10.398 10.398 0 0 1 4.294 2.818l.007.008a10.427 10.427 0 0 1 2.419 4.56 10.306 10.306 0 0 1 6.454-2.252c2.261 0 4.352.723 6.057 1.951l-.031-.021a10.499 10.499 0 0 1 3.862 5.262l.021.074c.314.952.495 2.048.495 3.186 0 1.227-.211 2.406-.597 3.501l.023-.074C33.975 27.797 18.951 31.251 12.116 32 7.495 26.992-2.372 15.573.527 7.056c.925-2.648 2.805-4.763 5.217-5.973l.06-.027A10.224 10.224 0 0 1 10.36.001c1.217 0 2.384.21 3.469.595l-.072-.022z"/></symbol><symbol id="icon-boltheart" viewBox="0 0 35 32"><path fill="#795bda" style="fill:var(--color1,#795bda)" d="M.813 10.911c0 7.099 5.969 14.115 15.246 20.1.515.332 1.147.665 1.579.665s1.064-.332 1.579-.665c9.294-5.985 15.246-13.001 15.246-20.1 0-6.135-4.24-10.391-9.676-10.391-3.175 0-5.653 1.446-7.149 3.641C16.175 1.983 13.681.52 10.506.52 5.053.52.813 4.776.813 10.911zm3.425-.017c0-4.19 2.76-7.033 6.467-7.033 2.993 0 4.672 1.812 5.719 3.392.465.682.781.898 1.214.898.449 0 .731-.233 1.214-.898 1.131-1.546 2.743-3.392 5.719-3.392 3.724 0 6.484 2.843 6.484 7.033 0 5.852-6.085 12.336-13.101 16.991-.15.1-.249.166-.316.166s-.166-.066-.299-.166C10.323 23.23 4.238 16.746 4.238 10.894zm8.263 6.684c0 .316.266.565.598.565h3.99l-2.145 5.669c-.299.815.582 1.28 1.131.615l6.534-8.147c.133-.15.216-.332.216-.499 0-.316-.283-.565-.615-.565h-3.974l2.128-5.653c.299-.831-.582-1.297-1.114-.615l-6.55 8.13c-.133.166-.2.333-.2.499z"/></symbol><symbol id="icon-bolt" viewBox="0 0 20 32"><path fill="#795bda" style="fill:var(--color1,#795bda)" d="m6.644 30.72 12.549-15.991c.241-.308.362-.589.362-.911 0-.549-.429-.964-1.018-.964h-7.661L14.84 2.341c.549-1.473-.991-2.25-1.929-1.045L.362 17.287c-.241.295-.362.576-.362.897 0 .563.429.978 1.018.978h7.661l-3.964 10.5c-.549 1.473.991 2.263 1.929 1.058zm5.397-13.741h-8.33l7.406-9.79-3.616 7.835h8.344l-7.406 9.804 3.603-7.848z"/></symbol><symbol id="icon-btn-arrow" viewBox="0 0 32 32"><path fill="none" stroke="#795bda" style="stroke:var(--color1,#795bda)" stroke-width="3.429" d="M0 16h27.429m0 0L13.715 29.714M27.429 16 13.715 2.286"/></symbol><symbol id="icon-clouddrizzle" viewBox="0 0 32 32"><path fill="#795bda" style="fill:var(--color1,#795bda)" d="M6.973 20.987h16.701c4.487 0 7.862-3.415 7.862-7.674 0-4.366-3.536-7.621-8.13-7.621C21.759 2.464 18.719.268 14.634.268c-5.143 0-9.308 3.951-9.817 8.933C2.339 9.964.464 12.107.464 15c0 3.335 2.451 5.987 6.509 5.987zm.014-2.545c-2.652 0-3.978-1.46-3.978-3.375 0-1.594.951-2.96 3.188-3.549.777-.214 1.031-.563 1.098-1.353.402-4.393 3.549-7.353 7.339-7.353 2.906 0 5.237 1.621 6.683 4.54.335.67.737.897 1.554.897 3.978 0 6.121 2.317 6.121 5.129s-2.223 5.063-5.237 5.063H6.987zm11.062 9.013 1.728-2.987c.268-.442.134-.964-.308-1.219s-.938-.107-1.192.348l-1.741 3.013c-.241.415-.134.924.321 1.179.429.255.951.094 1.192-.335zm-10.647.014 1.728-3a.864.864 0 0 0-.308-1.205c-.442-.255-.938-.107-1.205.348l-1.741 3c-.241.429-.121.938.321 1.192a.883.883 0 0 0 1.205-.335zm14.853 3.75 1.728-2.987c.255-.442.121-.964-.308-1.219-.442-.255-.938-.107-1.205.348l-1.728 3.013c-.254.415-.134.924.308 1.179s.964.094 1.205-.335zm-10.661.013 1.728-2.987c.268-.442.134-.964-.308-1.219s-.924-.107-1.192.348l-1.741 3.013c-.241.415-.134.924.321 1.179.429.255.951.094 1.192-.335z"/></symbol><symbol id="icon-cloudmoonrain" viewBox="0 0 33 32"><path fill="#795bda" style="fill:var(--color1,#795bda)" d="M5.75 22.103h13.102c3.592 0 6.364-2.724 6.364-6.22v-.133c3.905-.084 6.473-2.302 7.425-4.846.422-1.073-.121-2.001-1.145-2.001-.796 0-1.422.338-2.712.338-2.977 0-4.52-1.651-4.52-4.436 0-1.398.434-2.194.434-2.869 0-1.061-.94-1.579-2.049-1.205-2.688.892-4.906 3.712-4.906 7.088v.362c-1.47-1.736-3.556-2.736-5.979-2.736-4.05 0-7.425 3.062-7.895 7.088C1.82 13.184.446 14.968.446 17.21c0 2.845 2.146 4.894 5.304 4.894zM19.72 7.784c0-2.254 1.302-4.05 2.869-4.942l.133.084a7.661 7.661 0 0 0-.374 2.35c0 3.447 2.471 5.858 5.979 5.858a7.02 7.02 0 0 0 2.182-.338l.084.096c-.771 1.434-2.712 2.893-5.75 2.857-.735-2.013-2.519-3.483-4.785-3.917a6.407 6.407 0 0 1-.338-2.049zM5.738 19.849c-1.989 0-3.038-1.133-3.038-2.592 0-1.254.747-2.326 2.495-2.796.603-.157.808-.434.88-1.061.338-3.411 2.748-5.701 5.689-5.701 2.266 0 4.05 1.266 5.183 3.496.277.53.579.711 1.217.711 3.122 0 4.797 1.82 4.797 4.026 0 2.182-1.748 3.917-4.098 3.917H5.737zm9.45 7.943 1.555-2.7c.241-.386.121-.856-.277-1.085s-.832-.096-1.073.313l-1.567 2.712c-.217.374-.121.832.289 1.061a.78.78 0 0 0 1.073-.301zm-9.583.012 1.555-2.7a.778.778 0 0 0-.277-1.085c-.398-.229-.844-.096-1.085.301l-1.567 2.712a.77.77 0 0 0 .289 1.073.79.79 0 0 0 1.085-.301zm13.368 3.375 1.555-2.688c.241-.398.121-.868-.277-1.097s-.844-.096-1.073.313l-1.567 2.712c-.217.374-.121.832.277 1.061s.868.084 1.085-.301zm-9.583.013 1.555-2.7c.229-.386.108-.856-.289-1.085s-.832-.096-1.073.313l-1.567 2.712c-.217.374-.121.832.289 1.061a.796.796 0 0 0 1.085-.301z"/></symbol><symbol id="icon-flame" viewBox="0 0 24 32"><path fill="#795bda" style="fill:var(--color1,#795bda)" d="M11.555 31.321c7.643 0 12.748-5.148 12.748-12.904C24.303 5.583 13.327.209 5.755.209 4.28.209 3.33.762 3.33 1.811c0 .411.184.823.51 1.205 1.758 2.113 3.361 4.396 3.389 7.119 0 .269-.014.525-.071.78-.837-1.758-2.226-2.751-3.488-2.751-.681 0-1.134.468-1.134 1.205 0 .454.113 1.22.113 1.929 0 3.262-2.482 4.921-2.482 10.153 0 5.927 4.538 9.87 11.387 9.87zm.156-2.425c-5.46 0-9.104-2.992-9.104-7.445s2.425-5.871 2.411-9.927v-.298c.723.837 1.262 1.999 1.574 3.446.085.397.298.596.61.596 1.305 0 2.184-2.935 2.184-5.006 0-2.85-1.078-5.616-2.879-7.672 9.303.78 15.273 7.19 15.273 15.741 0 6.325-4.041 10.565-10.068 10.565zm.184-1.985c3.262 0 4.949-2.354 4.949-5.162 0-2.822-1.617-5.814-4.651-7.204-.17-.071-.326.028-.284.227.241 2.184-.028 4.197-.752 5.289-.326-.851-.737-1.546-1.347-2.113-.156-.128-.298-.057-.326.113-.213 1.702-1.929 2.51-1.929 4.949 0 2.34 1.73 3.9 4.339 3.9z"/></symbol><symbol id="icon-personicloud" viewBox="0 0 46 32"><path fill="#795bda" style="fill:var(--color1,#795bda)" d="M35.255 31.006c5.372 0 9.608-3.943 9.608-8.868 0-3.668-2.084-6.922-5.51-8.351C39.37 6.004 33.757.39 26.542.39c-4.58 0-8.024 2.359-10.177 5.493-4.374-1.171-8.971 2.084-9.144 6.939C3.278 13.528.85 17.058.85 21.38c0 5.235 4.58 9.608 10.607 9.608l23.797.017zm0-3.444h-1.722c-1.343-2.772-4.649-5.648-9.591-5.648-4.959 0-8.248 2.876-9.608 5.648h-2.858c-4.098 0-7.146-2.858-7.146-6.182 0-3.444 2.118-5.992 5.631-5.992.258 0 .362-.138.344-.379-.103-5.114 3.564-6.871 7.267-5.7.224.069.362.017.465-.172 1.705-2.996 4.219-5.321 8.489-5.321 5.407 0 9.264 4.288 9.522 9.298.052.93-.017 1.929-.086 2.755-.035.241.069.379.293.413 3.117.603 5.131 2.807 5.131 5.855 0 3.013-2.669 5.424-6.13 5.424zm-11.313-7.697c2.531.017 4.58-2.29 4.58-5.028 0-2.686-2.049-4.89-4.58-4.89-2.548 0-4.598 2.204-4.598 4.89.017 2.721 2.049 5.011 4.598 5.028z"/></symbol><symbol id="icon-tornado" viewBox="0 0 27 32"><path fill="#795bda" style="fill:var(--color1,#795bda)" d="M13.508 13.538c8.596 0 13.624-2.149 13.624-5.18 0-2.769-3.857-4.449-9.615-4.449-4.16 0-7.466.758-10.015 1.887-.744.331-.909 1.088-.661 1.612.289.592 1.019.785 1.708.523 2.232-.895 5.028-1.75 8.83-1.75 4.463 0 7.274 1.006 7.274 2.163 0 1.391-4.518 2.851-11.255 2.851-6.97 0-10.621-1.35-10.621-3.926 0-1.612 1.488-3.168 5.372-4.381.771-.234 1.075-.854.868-1.502-.22-.634-.785-.882-1.653-.647C2.611 2.103.297 4.651.297 7.324c0 4.022 4.573 6.213 13.211 6.213zm.413 4.697c4.394 0 8.444-.716 11.296-1.86.62-.248.895-.882.606-1.419-.276-.537-.84-.647-1.543-.399-2.59.964-6.351 1.626-10.359 1.626-3.003 0-6.419-.372-9.119-1.157-.689-.207-1.267.014-1.433.606-.179.579.138 1.143.854 1.35 2.907.826 6.543 1.254 9.698 1.254zm.978 4.629c3.664-.041 7.081-.565 10.249-1.598.785-.262.964-.909.758-1.433-.207-.537-.744-.73-1.515-.482a31.1 31.1 0 0 1-9.519 1.46c-1.405 0-2.893-.096-4.022-.248-.744-.096-1.212.22-1.309.771-.11.565.193 1.116.992 1.24 1.088.179 2.59.303 4.367.289zm-1.323 4.38c2.535.289 5.717.193 8.293-.496.689-.179.964-.785.799-1.35-.179-.579-.73-.799-1.46-.634-2.218.565-4.877.744-7.315.468-.744-.069-1.254.289-1.322.854-.069.551.22 1.061 1.006 1.157zm-.95 4.505c.909.11 1.929.11 2.879-.014.675-.069 1.033-.51.978-1.102-.041-.537-.482-.923-1.212-.826-.785.096-1.694.096-2.452 0-.703-.083-1.143.303-1.212.826-.069.565.289 1.033 1.019 1.116z"/></symbol><symbol id="icon-waveformpathecg" viewBox="0 0 32 32"><path fill="#795bda" style="fill:var(--color1,#795bda)" d="M1.988 18.225h6.69c.768 0 1.236-.346 1.401-1.025l2.064-9.507 3.797 22.902c.211 1.281 2.17 1.266 2.426.015l3.646-17.206.723 3.661c.166.784.618 1.16 1.416 1.16h5.876c.693 0 1.25-.542 1.25-1.235 0-.708-.542-1.251-1.25-1.251h-5.228l-1.688-7.534c-.271-1.22-2.109-1.22-2.396.045l-3.571 16.016-3.812-23.143c-.196-1.251-2.019-1.281-2.29-.015l-3.164 14.63H1.987c-.708 0-1.266.557-1.266 1.25s.557 1.235 1.266 1.235z"/></symbol><symbol id="icon-pink-heart" viewBox="0 0 37 32"><path fill="#ff5c8d" style="fill:var(--color1,#ff5c8d)" d="M13.755.609c1.648.564 3.128 1.536 4.302 2.828s2.006 2.86 2.418 4.56a10.361 10.361 0 0 1 12.479-.323 10.458 10.458 0 0 1 3.884 5.338 10.508 10.508 0 0 1-.079 6.612C33.972 27.798 18.947 31.252 12.113 32 7.493 26.992-2.377 15.576.525 7.056.97 5.757 1.665 4.558 2.57 3.529A10.398 10.398 0 0 1 9.731.019a10.341 10.341 0 0 1 4.024.552z"/></symbol><symbol id="icon-heart" viewBox="0 0 37 32"><path fill="#ff5c8d" style="fill:var(--color1,#ff5c8d)" d="M13.755.609c1.648.564 3.128 1.536 4.302 2.828s2.006 2.86 2.418 4.56a10.361 10.361 0 0 1 12.479-.323 10.458 10.458 0 0 1 3.884 5.338 10.508 10.508 0 0 1-.079 6.612C33.972 27.798 18.947 31.252 12.113 32 7.493 26.992-2.377 15.576.525 7.056.97 5.757 1.665 4.558 2.57 3.529A10.398 10.398 0 0 1 9.731.019a10.341 10.341 0 0 1 4.024.552z"/><symbol id="icon-black-heart" viewBox="0 0 43 32"><path d="M3.489 20.11C-8.143 5.697 12.285-8.77 21.333 6.557c9.048-15.327 29.476-.86 17.844 13.553C34.408 26.019 24.811 30.478 21.333 32c-3.478-1.523-13.076-5.981-17.844-11.89z"/></symbol><symbol id="icon-subtract" viewBox="0 0 43 32"><path d="M21.333 0c9.949 0 18.387 6.709 21.333 16-2.946 9.291-11.384 16-21.333 16S2.946 25.291 0 16C2.946 6.709 11.384 0 21.333 0zm0 24a8 8 0 1 0 0-16 8 8 0 0 0 0 16z"/></symbol><symbol id="icon-arrow-r-grey" viewBox="0 0 32 32"><path fill="none" stroke="#b5b5b5" style="stroke:var(--color1,#b5b5b5)" stroke-width="3.556" d="M0 16h28.444m0 0L14.222 30.222M28.444 16 14.222 1.778"/></symbol><symbol id="icon-select-arrow" viewBox="0 0 59 32"><path fill="none" stroke="#91959f" style="stroke:var(--color1,#91959f)" stroke-width="5.333" d="m5.333 5.333 24 21.333 24-21.333"/></symbol><symbol id="icon-test-person-purple" viewBox="0 0 51 32"><path d="M15.405 15.957c4.241 0 7.676-3.627 7.676-8.072C23.081 3.491 19.663 0 15.405 0c-4.206 0-7.676 3.542-7.659 7.902 0 4.445 3.435 8.055 7.659 8.055zm19.857 0c4.224 0 7.659-3.627 7.659-8.072 0-4.394-3.4-7.885-7.659-7.885-4.224 0-7.676 3.542-7.659 7.902 0 4.445 3.435 8.055 7.659 8.055zm-19.857-2.929c-2.419 0-4.487-2.248-4.487-5.126-.018-2.793 2.033-4.956 4.487-4.956 2.471 0 4.504 2.129 4.504 4.939 0 2.861-2.051 5.143-4.504 5.143zm19.857 0c-2.436 0-4.487-2.248-4.487-5.126-.018-2.793 2.033-4.956 4.487-4.956 2.471 0 4.487 2.129 4.487 4.939 0 2.861-2.033 5.143-4.487 5.143zM4.487 32h21.855c3.014 0 4.469-.92 4.469-2.912 0-4.666-5.994-10.933-15.405-10.933S.001 24.422.001 29.088C.001 31.081 1.456 32 4.488 32zm30.775-13.846c-2.874 0-5.415.596-7.571 1.55.929.681 1.753 1.431 2.436 2.248a15.67 15.67 0 0 1 5.135-.852c7.729 0 12.075 4.905 12.075 7.51 0 .324-.158.443-.578.443H33.177c.018 1.056-.175 2.044-.806 2.946h13.81c3.014 0 4.487-.92 4.487-2.912 0-4.666-6.011-10.933-15.405-10.933zm-31.371 10.9c-.403 0-.561-.119-.561-.443 0-2.606 4.329-7.51 12.075-7.51s12.093 4.905 12.093 7.51c0 .324-.175.443-.578.443H3.891z"/></symbol><symbol id="icon-test-person" viewBox="0 0 51 32"><path d="M15.405 15.957c4.241 0 7.676-3.627 7.676-8.072C23.081 3.491 19.663 0 15.405 0c-4.206 0-7.676 3.542-7.659 7.902 0 4.445 3.435 8.055 7.659 8.055zm19.857 0c4.224 0 7.659-3.627 7.659-8.072 0-4.394-3.4-7.885-7.659-7.885-4.224 0-7.676 3.542-7.659 7.902 0 4.445 3.435 8.055 7.659 8.055zm-19.857-2.929c-2.419 0-4.487-2.248-4.487-5.126-.018-2.793 2.033-4.956 4.487-4.956 2.471 0 4.504 2.129 4.504 4.939 0 2.861-2.051 5.143-4.504 5.143zm19.857 0c-2.436 0-4.487-2.248-4.487-5.126-.018-2.793 2.033-4.956 4.487-4.956 2.471 0 4.487 2.129 4.487 4.939 0 2.861-2.033 5.143-4.487 5.143zM4.487 32h21.855c3.014 0 4.469-.92 4.469-2.912 0-4.666-5.994-10.933-15.405-10.933S.001 24.422.001 29.088C.001 31.081 1.456 32 4.488 32zm30.775-13.846c-2.874 0-5.415.596-7.571 1.55.929.681 1.753 1.431 2.436 2.248a15.67 15.67 0 0 1 5.135-.852c7.729 0 12.075 4.905 12.075 7.51 0 .324-.158.443-.578.443H33.177c.018 1.056-.175 2.044-.806 2.946h13.81c3.014 0 4.487-.92 4.487-2.912 0-4.666-6.011-10.933-15.405-10.933zm-31.371 10.9c-.403 0-.561-.119-.561-.443 0-2.606 4.329-7.51 12.075-7.51s12.093 4.905 12.093 7.51c0 .324-.175.443-.578.443H3.891z"/></symbol><symbol id="icon-user-circle" viewBox="0 0 32 32"><path d="M15.986 31.987c8.543 0 15.594-7.051 15.594-15.579S24.514.829 15.971.829C7.443.829.407 7.88.407 16.408s7.051 15.579 15.579 15.579zm0-10.367c-4.249 0-7.549 1.522-9.146 3.27a12.446 12.446 0 0 1-3.3-8.483c0-6.916 5.53-12.46 12.43-12.46a12.453 12.453 0 0 1 12.491 12.46 12.45 12.45 0 0 1-3.315 8.498c-1.597-1.763-4.897-3.285-9.161-3.285zm0-2.47c2.923.03 5.198-2.471 5.198-5.695 0-3.043-2.29-5.59-5.198-5.59-2.893 0-5.198 2.546-5.183 5.59.015 3.224 2.275 5.68 5.183 5.695z"/></symbol><symbol id="icon-face-child" viewBox="0 0 34 32"><path d="M14.132 21.138c-.404-.607-1.223-.77-1.828-.365s-.768 1.226-.364 1.832c1.045 1.568 2.931 2.545 5.002 2.545s3.957-.977 5.002-2.545c.404-.607.241-1.427-.364-1.832s-1.424-.242-1.828.365c-.515.772-1.543 1.37-2.81 1.37s-2.295-.598-2.81-1.37zM24.753 15.021c0 1.081-.874 1.957-1.953 1.957s-1.953-.876-1.953-1.957.874-1.957 1.953-1.957 1.953.876 1.953 1.957zM11.082 16.979c1.079 0 1.953-.876 1.953-1.957s-.874-1.957-1.953-1.957-1.953.876-1.953 1.957.874 1.957 1.953 1.957z"/><path d="M27.778 3.806C25.48 1.338 21.973 0 16.941 0S8.402 1.338 6.104 3.806c-2.033 2.183-2.949 5.073-3.316 8.167l-.014.003c-.689.179-1.296.485-1.773.955a3.287 3.287 0 0 0-.895 1.638c-.253 1.109-.011 2.34.278 3.388s.79 2.001 1.455 2.727c.451.493 1.011.913 1.656 1.153 1.952 5.879 6.9 10.162 13.445 10.162s11.493-4.283 13.445-10.162c.645-.24 1.205-.66 1.656-1.153.665-.726 1.165-1.679 1.455-2.727s.532-2.279.278-3.388a3.294 3.294 0 0 0-.895-1.638c-.477-.47-1.084-.776-1.773-.955l-.014-.003c-.367-3.094-1.284-5.984-3.316-8.167zM5.311 13.255c.258-3.25 1.05-5.852 2.721-7.647 1.64-1.761 4.336-2.966 8.909-2.966 1.062 0 1.789.795 1.789 1.615s-.727 1.615-1.789 1.615a1.851 1.851 0 0 1-1.455-.676c-.454-.571-1.283-.665-1.852-.21s-.663 1.286-.21 1.856a4.482 4.482 0 0 0 3.517 1.672c2.37 0 4.425-1.834 4.425-4.257 0-.41-.059-.804-.168-1.174 2.125.502 3.605 1.4 4.653 2.526 1.671 1.795 2.463 4.397 2.721 7.647a1.32 1.32 0 0 0 1.376 1.215c.117-.006.28.007.498.064.347.09.509.206.586.282a.656.656 0 0 1 .173.342c.096.419.027 1.095-.249 2.094-.196.708-.514 1.272-.857 1.646-.348.38-.653.497-.844.511a1.32 1.32 0 0 0-1.176.958c-1.501 5.314-5.683 8.991-11.139 8.991s-9.638-3.677-11.139-8.991a1.317 1.317 0 0 0-1.176-.958c-.192-.014-.497-.131-.844-.511-.343-.374-.661-.938-.857-1.646-.276-.999-.345-1.674-.249-2.094a.648.648 0 0 1 .173-.342c.077-.076.24-.192.586-.282.219-.057.381-.069.498-.064a1.318 1.318 0 0 0 1.376-1.215z"/></symbol><symbol id="icon-arrow-top-right" viewBox="0 0 32 32"><path fill="none" stroke="#fff" style="stroke:var(--color1,#fff)" stroke-width="4.571" d="M2.286 29.714 29.715 2.285m-.001.001v27.429m0-27.429H2.285"/></symbol><symbol id="icon-bolt_heart" viewBox="0 0 35 32"><path d="M.813 10.911c0 7.099 5.969 14.115 15.246 20.1.515.332 1.147.665 1.579.665s1.064-.332 1.579-.665c9.294-5.985 15.246-13.001 15.246-20.1 0-6.135-4.24-10.391-9.676-10.391-3.175 0-5.653 1.446-7.149 3.641C16.175 1.983 13.681.52 10.506.52 5.053.52.813 4.776.813 10.911zm3.424-.017c0-4.19 2.76-7.033 6.467-7.033 2.993 0 4.672 1.812 5.719 3.392.466.682.781.898 1.214.898.449 0 .731-.233 1.214-.898 1.13-1.546 2.743-3.392 5.719-3.392 3.724 0 6.484 2.843 6.484 7.033 0 5.852-6.085 12.336-13.101 16.991-.15.1-.249.166-.316.166s-.166-.066-.299-.166C10.322 23.23 4.237 16.746 4.237 10.894zm8.263 6.684c0 .316.266.565.598.565h3.99l-2.145 5.669c-.299.815.582 1.28 1.131.615l6.534-8.147c.133-.15.216-.332.216-.499 0-.316-.283-.565-.615-.565h-3.974l2.128-5.653c.299-.831-.582-1.297-1.114-.615l-6.55 8.13c-.133.166-.2.333-.2.499z"/></symbol><symbol id="icon-brain-head-profile" viewBox="0 0 27 32"><path d="M15.303 31.427c4.845 0 7.761-1.74 7.761-4.645v-6.374c2.034-1.787 3.222-4.645 3.222-7.808 0-7.35-4.763-12.242-11.912-12.242C7.259.358 2.52 5.144 2.52 12.341c0 .4.012.741.047 1.07L.874 16.445c-.435.764-.635 1.494-.635 2.176 0 1.294.811 2.34 2.281 2.646v2.387c0 2.411 1.658 3.61 3.963 3.363l1.176-.129c.071 2.846 2.928 4.539 7.644 4.539zm0-2.27c-3.434 0-5.492-1.058-5.492-2.763v-1.611c0-.27-.165-.4-.423-.376l-3.175.341c-.929.106-1.423-.294-1.423-1.27v-3.74c0-.188-.141-.317-.341-.317h-.647c-.753 0-1.188-.376-1.188-.964 0-.306.106-.67.317-1.035l1.976-3.551a10.182 10.182 0 0 1-.129-1.564c0-5.809 3.834-9.678 9.596-9.678 5.786 0 9.643 3.986 9.643 9.972 0 2.916-1.223 5.445-3.234 6.668v7.126c0 1.705-2.058 2.763-5.48 2.763zm-8.69-18.745c0 2.246 1.552 3.775 3.869 3.775.318 0 .611-.024.894-.082.706.611 1.717.964 2.822.964.423 0 .882-.047 1.329-.165.447.447 1.117.706 1.905.706h.294c.212 1.176.976 1.976 1.94 1.976 1.388 0 2.375-1.54 2.375-3.728 0-.576-.023-1.023-.059-1.423.4-.517.623-1.199.623-1.987 0-1.564-1.035-2.787-2.611-3.128-.341-1.376-1.529-2.364-2.975-2.364-.106 0-.247.024-.388.047a2.867 2.867 0 0 0-2.128-.929c-.917 0-1.717.341-2.27.905a3.4 3.4 0 0 0-1.282-.247c-1.576 0-2.763 1.082-2.763 2.552v.012a3.872 3.872 0 0 0-1.576 3.116zm4.763-3.304c-.012.388.259.67.635.67s.623-.247.647-.623c.035-1.058.8-1.799 1.846-1.799.611 0 1.164.329 1.388.835.094.176.282.188.553.118a1.883 1.883 0 0 1 2.352 1.858c0 2.693-3.916 2.293-3.916 5.174 0 .129.012.259.035.388-.2.035-.412.047-.611.047a3.47 3.47 0 0 1-1.376-.282c.87-.588 1.388-1.54 1.388-2.705 0-.071-.012-.141-.012-.212 1.247-.388 1.905-1.293 1.893-2.681a.671.671 0 0 0-.659-.647.632.632 0 0 0-.623.647c.012.788-.294 1.247-.964 1.446a2.127 2.127 0 0 0-.47-.553c-.247-.212-.412-.294-.647-.294-.365 0-.623.247-.623.588 0 .376.2.482.482.741.223.212.341.541.341.941 0 1.282-1 2.128-2.528 2.128-1.576 0-2.611-.976-2.611-2.481 0-.659.247-1.282.682-1.74.435.659 1.199 1.047 2.152 1.047.341 0 .647-.294.647-.635a.653.653 0 0 0-.647-.647c-.753 0-1.247-.459-1.247-1.152 0-.741.611-1.27 1.458-1.27.2 0 .412.035.611.094a3.327 3.327 0 0 0-.176 1zm7.032 5.845c0 .341.259.611.623.647a3.956 3.956 0 0 0 1.705-.235c.012.141.012.306.012.482 0 1.423-.494 2.458-1.082 2.458-.517 0-.87-.659-.87-1.599 0-.176-.129-.27-.294-.27-.153 0-.341.012-.517.012-1.188 0-1.799-.388-1.799-1.141 0-1.917 3.563-1.541 3.892-4.669.764.223 1.235.894 1.235 1.811 0 1.223-.894 1.976-2.258 1.87-.353-.024-.647.282-.647.635z"/></symbol><symbol id="icon-bubble-left-and-bubbleright" viewBox="0 0 42 32"><path d="M10.229 30.319c.785 0 1.474-.331 2.425-1.157l4.422-3.94c1.019 1.061 2.548 1.625 4.463 1.625h4.711l4.587 3.94c.909.771 1.557 1.198 2.301 1.198 1.102 0 1.749-.785 1.749-1.984v-3.155h.634c3.471 0 5.786-2.122 5.786-5.689V12.74c0-3.623-2.356-5.8-5.896-5.8h-2.397v-.895c0-3.747-2.301-5.965-6.075-5.965H6.827C3.163.08.752 2.298.752 6.045v12.894c0 3.692 2.369 5.882 5.965 5.882h1.736v3.527c0 1.212.661 1.97 1.777 1.97zm.689-6.846c0-.826-.51-1.253-1.198-1.253H7.158c-2.287 0-3.664-1.281-3.664-3.664V6.351c0-2.383 1.391-3.678 3.664-3.678h19.437c2.287 0 3.664 1.295 3.664 3.678v.592h-8.72c-3.664 0-5.896 2.177-5.896 5.8v8.417c0 .579.055 1.102.165 1.598l-4.89 4.573v-3.857zm21.517 5.524-4.312-3.912c-.606-.551-1.116-.799-1.929-.799h-4.367c-2.163 0-3.471-1.198-3.471-3.485v-7.797c0-2.259 1.309-3.485 3.471-3.485h13.28c2.177 0 3.485 1.226 3.485 3.485v7.797c0 2.273-1.322 3.485-3.485 3.485h-1.488c-.675 0-1.185.413-1.185 1.24v3.471z"/></symbol><symbol id="icon-cloud-drizzle" viewBox="0 0 32 32"><path d="M6.972 20.987h16.701c4.487 0 7.862-3.415 7.862-7.674 0-4.366-3.536-7.621-8.129-7.621C21.759 2.464 18.719.268 14.634.268c-5.143 0-9.308 3.951-9.817 8.933C2.339 9.964.464 12.107.464 15c0 3.335 2.451 5.987 6.509 5.987zm.014-2.545c-2.652 0-3.978-1.46-3.978-3.375 0-1.594.951-2.96 3.188-3.549.777-.214 1.031-.563 1.098-1.353.402-4.393 3.549-7.353 7.339-7.353 2.906 0 5.237 1.621 6.683 4.54.335.67.737.897 1.554.897 3.978 0 6.121 2.317 6.121 5.129s-2.223 5.063-5.237 5.063H6.986zm11.062 9.013 1.728-2.987c.268-.442.134-.964-.308-1.219s-.938-.107-1.192.348l-1.741 3.013c-.241.415-.134.924.321 1.179.429.255.951.094 1.192-.335zm-10.647.014 1.728-3a.863.863 0 0 0-.308-1.205c-.442-.254-.938-.107-1.205.348l-1.741 3c-.241.429-.121.938.321 1.192a.883.883 0 0 0 1.205-.335zm14.853 3.75 1.728-2.987c.254-.442.121-.964-.308-1.219-.442-.255-.938-.107-1.205.348l-1.728 3.013c-.255.415-.134.924.308 1.179s.964.094 1.205-.335zm-10.661.013 1.728-2.987c.268-.442.134-.964-.308-1.219s-.924-.107-1.192.348l-1.741 3.013c-.241.415-.134.924.321 1.179.429.254.951.094 1.192-.335z"/></symbol><symbol id="icon-cloud-heavyrain" viewBox="0 0 32 32"><path d="M6.972 21.241h16.701c4.487 0 7.862-3.415 7.862-7.674 0-4.366-3.536-7.621-8.129-7.621C21.759 2.718 18.719.522 14.634.522c-5.143 0-9.308 3.951-9.817 8.933-2.478.763-4.353 2.906-4.353 5.799 0 3.335 2.451 5.987 6.509 5.987zm.014-2.545c-2.652 0-3.978-1.46-3.978-3.375 0-1.594.951-2.96 3.188-3.549.777-.214 1.031-.563 1.098-1.353.402-4.393 3.549-7.353 7.339-7.353 2.906 0 5.237 1.621 6.683 4.54.335.67.737.897 1.554.897 3.978 0 6.121 2.317 6.121 5.129s-2.223 5.063-5.237 5.063H6.986zm3.107 12.817 3.924-6.777c.254-.455.121-.964-.308-1.219-.455-.254-.938-.107-1.205.348L8.58 30.669c-.241.415-.134.938.308 1.192a.882.882 0 0 0 1.205-.348zm-5.344.013 3.924-6.79c.254-.455.121-.951-.308-1.205-.442-.255-.938-.121-1.205.335L3.236 30.67c-.241.429-.134.938.308 1.192a.877.877 0 0 0 1.205-.335zm10.674 0 3.911-6.79c.255-.455.134-.951-.308-1.205s-.938-.121-1.192.335l-3.938 6.804c-.228.429-.134.938.322 1.192a.883.883 0 0 0 1.205-.335zm5.304 0 3.938-6.817c.255-.429.134-.951-.308-1.192-.429-.228-.937-.107-1.178.335l-3.924 6.804c-.254.429-.147.951.295 1.205a.862.862 0 0 0 1.179-.335z"/></symbol><symbol id="icon-cloud-moon-rain" viewBox="0 0 33 32"><path d="M5.75 22.103h13.102c3.592 0 6.364-2.724 6.364-6.22v-.133c3.905-.084 6.473-2.302 7.425-4.846.422-1.073-.121-2.001-1.145-2.001-.796 0-1.422.338-2.712.338-2.977 0-4.52-1.651-4.52-4.436 0-1.398.434-2.194.434-2.869 0-1.061-.94-1.579-2.049-1.205-2.688.892-4.906 3.712-4.906 7.088v.362c-1.471-1.736-3.556-2.736-5.979-2.736-4.05 0-7.425 3.062-7.895 7.088C1.82 13.184.446 14.968.446 17.21c0 2.845 2.146 4.894 5.304 4.894zM19.721 7.784c0-2.254 1.302-4.05 2.869-4.942l.133.084a7.661 7.661 0 0 0-.374 2.35c0 3.447 2.471 5.858 5.979 5.858a7.02 7.02 0 0 0 2.182-.338l.084.096c-.771 1.434-2.712 2.893-5.75 2.857-.735-2.013-2.519-3.483-4.785-3.917a6.407 6.407 0 0 1-.337-2.049zM5.738 19.849c-1.989 0-3.038-1.133-3.038-2.592 0-1.254.747-2.326 2.495-2.796.603-.157.808-.434.88-1.061.338-3.411 2.748-5.701 5.689-5.701 2.266 0 4.05 1.266 5.183 3.496.277.53.579.711 1.217.711 3.122 0 4.797 1.82 4.797 4.026 0 2.182-1.748 3.917-4.098 3.917H5.737zm9.45 7.943 1.555-2.7c.241-.386.121-.856-.277-1.085s-.832-.096-1.073.313l-1.567 2.712c-.217.374-.12.832.289 1.061a.78.78 0 0 0 1.073-.301zm-9.582.012 1.555-2.7a.778.778 0 0 0-.277-1.085c-.398-.229-.844-.096-1.085.301l-1.567 2.712a.77.77 0 0 0 .289 1.073.79.79 0 0 0 1.085-.301zm13.367 3.375 1.555-2.688c.241-.398.12-.868-.277-1.097s-.844-.096-1.073.313l-1.567 2.712c-.217.374-.121.832.277 1.061s.868.084 1.085-.301zm-9.582.013 1.555-2.7c.229-.386.108-.856-.289-1.085s-.832-.096-1.073.313l-1.567 2.712c-.217.374-.12.832.289 1.061a.796.796 0 0 0 1.085-.301z"/></symbol><symbol id="icon-cloudsunrain" viewBox="0 0 33 32"><path d="M20.831 4.263c.548 0 .997-.46.997-.997V1.009c0-.559-.449-1.008-.997-1.008s-.997.449-.997 1.008v2.257c0 .537.449.997.997.997zm-6.52 2.125c.394.394 1.041.384 1.414 0s.384-1.008 0-1.392l-1.611-1.622c-.383-.384-1.019-.384-1.403 0s-.384 1.019.011 1.403l1.589 1.611zm11.626 0a1.002 1.002 0 0 0 1.414 0l1.6-1.6c.384-.394.384-1.03 0-1.414s-1.008-.384-1.403.011l-1.611 1.611c-.384.373-.373 1.008 0 1.392zM4.821 22.683h11.911c3.265 0 5.786-2.476 5.786-5.654v-.307a5.475 5.475 0 0 0 3.791-5.227 5.465 5.465 0 0 0-5.479-5.501 5.48 5.48 0 0 0-5.249 3.868c-1.326-1.479-3.167-2.323-5.293-2.323-3.682 0-6.75 2.783-7.177 6.443-1.863.592-3.112 2.214-3.112 4.252 0 2.586 1.95 4.449 4.821 4.449zm16.01-14.826a3.59 3.59 0 0 1 3.627 3.627 3.655 3.655 0 0 1-2.345 3.419c-.789-1.907-2.619-3.244-4.898-3.463-.011-1.994 1.589-3.583 3.616-3.583zM4.81 20.634c-1.808 0-2.761-1.03-2.761-2.356 0-1.14.679-2.115 2.268-2.542.548-.142.734-.394.8-.964.307-3.101 2.498-5.183 5.172-5.183 2.06 0 3.682 1.151 4.712 3.178.252.482.526.647 1.107.647 2.838 0 4.361 1.655 4.361 3.66 0 1.983-1.589 3.561-3.726 3.561H4.81zm24.228-8.153h2.268c.537 0 .986-.438.986-.986s-.449-.997-.986-.997h-2.268c-.537 0-.997.449-.997.997s.46.986.997.986zm-1.49 7.133c.395.384 1.019.384 1.403 0s.373-1.019-.011-1.403L27.329 16.6a1.009 1.009 0 0 0-1.403 0c-.372.384-.372 1.03.011 1.403l1.611 1.611zm-14.147 8.241 1.414-2.455c.219-.351.11-.778-.252-.986s-.756-.088-.975.285l-1.425 2.466c-.197.34-.11.756.263.964a.707.707 0 0 0 .975-.274zm-8.711.011 1.414-2.455a.707.707 0 0 0-.252-.986c-.362-.208-.767-.088-.986.274l-1.425 2.466a.7.7 0 0 0 .263.975.717.717 0 0 0 .986-.274zm12.152 3.068 1.414-2.444c.219-.362.11-.789-.252-.997s-.767-.088-.975.285l-1.425 2.465c-.197.34-.11.756.252.964s.789.077.986-.274zm-8.711.011 1.414-2.455c.208-.351.099-.778-.263-.986s-.756-.088-.975.285l-1.425 2.466c-.197.34-.11.756.263.964a.723.723 0 0 0 .986-.274z"/></symbol><symbol id="icon-cross-case" viewBox="0 0 37 32"><path d="M5.206 31.069h26.736c3.344 0 5.055-1.68 5.055-4.993V10.834c0-3.297-1.711-4.992-5.055-4.992h-3.935V4.613c0-2.94-1.586-4.339-4.526-4.339h-9.829c-2.799 0-4.51 1.4-4.51 4.339v1.229H5.207c-3.328 0-5.055 1.695-5.055 4.992v15.242c0 3.313 1.726 4.993 5.055 4.993zm6.781-26.58c0-1.042.622-1.633 1.711-1.633h9.752c1.089 0 1.695.591 1.695 1.633v1.353H11.987V4.489zM5.33 28.082c-1.353 0-2.084-.684-2.084-2.1V10.927c0-1.4.731-2.1 2.084-2.1h26.487c1.353 0 2.084.7 2.084 2.1v15.055c0 1.415-.731 2.1-2.084 2.1H5.33zm5.708-8.243c0 .918.638 1.54 1.555 1.54h3.064v3.064c0 .918.607 1.54 1.524 1.54h2.768c.918 0 1.54-.622 1.54-1.54v-3.064h3.064c.918 0 1.54-.622 1.54-1.54v-2.768c0-.918-.622-1.524-1.54-1.524h-3.064v-3.064c0-.918-.622-1.54-1.54-1.54h-2.768c-.918 0-1.524.622-1.524 1.54v3.064h-3.064c-.933 0-1.555.607-1.555 1.524v2.768z"/></symbol><symbol id="icon-eye-trianglebadgeexclamationmark" viewBox="0 0 57 32"><path d="M25.333 30.97c2.947 0 5.714-.5 8.214-1.304-.339-1.5-.089-2.607.732-4.053-2.697 1.161-5.714 1.929-8.947 1.929-11.411 0-20.482-9.536-20.482-12.036 0-2.089 9.071-12.018 20.482-12.018 7.393 0 13.786 4.179 17.357 7.696.946-1.107 2.268-1.714 3.75-1.643C42.35 5.059 34.832.059 25.332.059 10.903.059.796 11.845.796 15.505s10.089 15.464 24.536 15.464zm0-5.839c5.357 0 9.643-4.375 9.643-9.625 0-5.375-4.286-9.607-9.643-9.607-5.375 0-9.679 4.232-9.643 9.607.018 5.25 4.268 9.625 9.643 9.625zm13.178 5.839h15.464c1.518 0 2.518-1.125 2.518-2.5 0-.429-.125-.839-.357-1.232l-7.732-13.839c-.482-.857-1.321-1.268-2.161-1.268s-1.696.411-2.161 1.268L36.35 27.238a2.38 2.38 0 0 0-.339 1.232c0 1.375.982 2.5 2.5 2.5zM25.333 18.613c-1.732 0-3.125-1.393-3.125-3.107s1.393-3.107 3.125-3.107 3.125 1.393 3.125 3.107-1.393 3.107-3.125 3.107zm20.91 5.286c-.679 0-1.179-.464-1.196-1.143l-.143-4.964c-.018-.786.536-1.339 1.339-1.339.821 0 1.375.536 1.357 1.339l-.143 4.964c-.036.679-.518 1.143-1.214 1.143zm0 4.357a1.585 1.585 0 0 1-1.607-1.589c0-.875.714-1.571 1.607-1.571.911 0 1.625.714 1.625 1.571a1.6 1.6 0 0 1-1.625 1.589z"/></symbol><symbol id="icon-person-cropcirclebadgexmark" viewBox="0 0 37 32"><path d="M21.334 31.017c8.284 0 15.107-6.838 15.107-15.107S29.589.803 21.319.803c-7.685 0-14.114 5.888-14.976 13.354.906-.204 2.104-.263 3.068-.102A11.98 11.98 0 0 1 21.318 3.828c6.706 0 12.112 5.377 12.112 12.083 0 3.2-1.227 6.092-3.258 8.24-1.505-1.666-4.69-3.185-8.854-3.185-1.3 0-2.513.146-3.609.409.175.701.263 1.432.263 2.177 0 2.381-.92 4.588-2.411 6.297a14.968 14.968 0 0 0 5.771 1.169zm-.015-12.448c2.834.015 5.041-2.396 5.041-5.523 0-2.951-2.221-5.42-5.041-5.42-2.805 0-5.055 2.469-5.026 5.42.015 3.127 2.192 5.494 5.026 5.523zM8.36 31.09c4.091 0 7.524-3.419 7.524-7.539s-3.39-7.524-7.524-7.524c-4.12 0-7.524 3.404-7.524 7.524 0 4.135 3.404 7.539 7.524 7.539zm-2.017-4.017c-.409.424-1.067.365-1.461-.029s-.453-1.052-.029-1.461l2.06-2.06-1.914-1.929c-.38-.394-.394-1.037 0-1.403.38-.38 1.023-.38 1.403 0l1.929 1.914 2.06-2.06c.424-.424 1.052-.365 1.447.044.409.394.467 1.023.044 1.446l-2.06 2.06 1.914 1.914c.38.394.394 1.037 0 1.417-.38.38-1.008.38-1.403 0l-1.929-1.914-2.06 2.06z"/></symbol><symbol id="icon-wave-formpathecg" viewBox="0 0 32 32"><path d="M1.988 18.226h6.69c.768 0 1.236-.346 1.401-1.024l2.064-9.507 3.797 22.902c.211 1.281 2.17 1.266 2.426.015l3.646-17.206.723 3.661c.166.783.618 1.16 1.416 1.16h5.876c.693 0 1.251-.542 1.251-1.236a1.23 1.23 0 0 0-1.251-1.251h-5.228l-1.688-7.534c-.271-1.22-2.109-1.22-2.396.045l-3.571 16.016-3.812-23.143c-.196-1.251-2.019-1.281-2.29-.015l-3.164 14.63H1.987c-.708 0-1.266.558-1.266 1.25s.557 1.235 1.266 1.235z"/></symbol><symbol id="icon-card-1" viewBox="0 0 32 32"><path d="M17.738 28.844c4.138 0 6.629-1.487 6.629-3.968v-5.444c1.738-1.527 2.752-3.968 2.752-6.67 0-6.278-4.068-10.456-10.175-10.456-6.077 0-10.125 4.088-10.125 10.236 0 .342.01.633.04.914l-1.446 2.591c-.372.653-.542 1.276-.542 1.858 0 1.105.693 1.999 1.949 2.26v2.039c0 2.059 1.416 3.084 3.385 2.873l1.004-.11c.06 2.431 2.501 3.877 6.529 3.877zm0-1.939c-2.933 0-4.691-.904-4.691-2.36v-1.376c0-.231-.141-.342-.362-.321l-2.712.291c-.794.09-1.215-.251-1.215-1.085V18.86c0-.161-.121-.271-.291-.271h-.552c-.643 0-1.014-.321-1.014-.824 0-.261.09-.573.271-.884l1.687-3.033a8.7 8.7 0 0 1-.11-1.336c0-4.962 3.275-8.267 8.196-8.267 4.942 0 8.237 3.405 8.237 8.518 0 2.491-1.045 4.651-2.762 5.695v6.087c0 1.456-1.758 2.36-4.681 2.36z"/><path d="M12.867 9.682c.312-1.713 1.862-3.015 3.731-3.015 1.465 0 2.592.712 3.247 1.776 1.643.102 2.955 1.265 2.955 2.878 0 1.634-1.362 2.903-3.099 2.903h-1.705a.497.497 0 0 1 .078.109.521.521 0 0 1-.019.502l-.112.205h.3c.19 0 .42.098.504.345a.538.538 0 0 1-.155.563l-.002.002-2.156 2.026a.539.539 0 0 1-.538.134l-.011-.003-.011-.004a.468.468 0 0 1-.289-.323.514.514 0 0 1 .034-.342l.377-.873h-.205a.54.54 0 0 1-.45-.215.52.52 0 0 1-.033-.527zm2.443 6.14.638-1.383a.66.66 0 0 1 .15-.216h-2.131c-.78 0-1.44-.243-1.91-.673a2.243 2.243 0 0 1-.725-1.679c0-1.053.663-1.841 1.533-2.189zm-.834-5.491c-.014.161-.054.35-.189.511s-.318.236-.485.28l-.004.001c-.328.082-.522.208-.633.333a.632.632 0 0 0-.159.436c0 .21.073.37.203.482.135.117.374.218.762.218h5.756c.841 0 1.398-.581 1.398-1.251a1.12 1.12 0 0 0-.399-.876c-.266-.228-.692-.396-1.303-.396-.17 0-.352-.021-.521-.113a.909.909 0 0 1-.367-.393l-.001-.001c-.437-.837-1.11-1.266-1.94-1.266-1.085 0-2.002.798-2.121 2.035z"/></symbol><symbol id="icon-card-2" viewBox="0 0 32 32"><path d="M5.826 13.259c0 4.289 3.606 8.528 9.211 12.144.311.201.693.402.954.402s.643-.201.954-.402c5.615-3.616 9.211-7.855 9.211-12.144 0-3.706-2.561-6.278-5.846-6.278-1.918 0-3.415.874-4.319 2.2-.884-1.316-2.391-2.2-4.309-2.2-3.295 0-5.856 2.571-5.856 6.278zm2.069-.01C7.895 10.718 9.562 9 11.802 9c1.808 0 2.823 1.095 3.455 2.049.281.412.472.542.733.542.271 0 .442-.141.733-.542C17.406 10.115 18.38 9 20.178 9c2.25 0 3.917 1.718 3.917 4.249 0 3.536-3.676 7.453-7.915 10.266-.09.06-.151.1-.191.1s-.1-.04-.181-.1c-4.239-2.812-7.915-6.73-7.915-10.266z"/><path d="M14.004 11.768a.9.9 0 0 1 .804.614l1.416 4.253 1.328-3.543a.9.9 0 0 1 1.664-.054l.871 1.938h1.246a.9.9 0 0 1 0 1.8h-1.829a.9.9 0 0 1-.821-.531l-.214-.475-1.453 3.879a.9.9 0 0 1-1.696-.031l-1.502-4.509-.528 1.145a.9.9 0 0 1-.817.523h-1.807a.9.9 0 0 1 0-1.8h1.231l1.239-2.687a.901.901 0 0 1 .867-.522z"/></symbol><symbol id="icon-card-3" viewBox="0 0 32 32"><path d="M17.738 28.844c4.138 0 6.629-1.487 6.629-3.968v-5.444c1.738-1.527 2.752-3.968 2.752-6.67 0-6.278-4.068-10.456-10.175-10.456-6.077 0-10.125 4.088-10.125 10.236 0 .342.01.633.04.914l-1.446 2.591c-.372.653-.542 1.276-.542 1.858 0 1.105.693 1.999 1.949 2.26v2.039c0 2.059 1.416 3.084 3.385 2.873l1.004-.11c.06 2.431 2.501 3.877 6.529 3.877zm0-1.939c-2.933 0-4.691-.904-4.691-2.36v-1.376c0-.231-.141-.342-.362-.321l-2.712.291c-.794.09-1.215-.251-1.215-1.085V18.86c0-.161-.121-.271-.291-.271h-.552c-.643 0-1.014-.321-1.014-.824 0-.261.09-.573.271-.884l1.687-3.033a8.7 8.7 0 0 1-.11-1.336c0-4.962 3.275-8.267 8.196-8.267 4.942 0 8.237 3.405 8.237 8.518 0 2.491-1.045 4.651-2.762 5.695v6.087c0 1.456-1.758 2.36-4.681 2.36z"/><path d="M16.988 8.82a.91.91 0 0 0-.645.252.858.858 0 0 0-.253.65l.068 1.666a.846.846 0 0 0 .238.587.829.829 0 0 0 .597.228.82.82 0 0 0 .593-.227.844.844 0 0 0 .232-.59l.072-1.655v-.004c.018-.532-.397-.907-.902-.907zM16.993 12.606c-.502 0-.97.375-.97.932 0 .554.47.937.97.937.505 0 .97-.377.97-.937 0-.555-.461-.932-.97-.932z"/><path d="M16.993 6.267c-2.957 0-5.393 2.443-5.393 5.4s2.441 5.4 5.398 5.4c2.961 0 5.402-2.442 5.402-5.4s-2.446-5.4-5.407-5.4zm-3.587 5.4c0-2 1.596-3.599 3.587-3.599a3.596 3.596 0 0 1 3.607 3.6 3.59 3.59 0 0 1-3.602 3.603 3.584 3.584 0 0 1-3.592-3.604z"/></symbol><symbol id="icon-card-4" viewBox="0 0 32 32"><path d="M17.568 8.011c.131 0 .211-.09.231-.211.301-1.667.291-1.698 2.019-2.019.131-.03.221-.1.221-.241 0-.131-.09-.211-.211-.241-1.738-.342-1.698-.372-2.029-2.009-.02-.131-.1-.221-.231-.221s-.211.09-.231.211c-.331 1.657-.281 1.698-2.019 2.019-.131.03-.221.111-.221.241 0 .141.09.211.211.241 1.748.352 1.728.362 2.029 2.019.02.121.1.211.231.211zm-2.793 16.684c3.787 0 6.921-1.969 8.347-5.253.241-.542.161-.974-.09-1.215-.231-.231-.633-.281-1.085-.09-.753.311-1.688.492-2.802.492-4.47 0-7.323-2.762-7.323-7.132 0-1.205.241-2.401.562-3.084.231-.502.211-.914-.02-1.175-.241-.281-.683-.352-1.235-.121-3.265 1.316-5.484 4.681-5.484 8.538 0 5.133 3.777 9.04 9.131 9.04zm7.624-9.753c.201 0 .352-.141.382-.362.321-2.662.442-2.742 3.154-3.164.241-.04.382-.171.382-.392 0-.201-.141-.342-.342-.382-2.742-.532-2.873-.502-3.194-3.164-.03-.221-.181-.362-.382-.362-.211 0-.362.141-.392.352-.342 2.712-.432 2.792-3.194 3.174-.201.03-.342.181-.342.382 0 .211.141.352.342.392 2.772.542 2.843.522 3.194 3.184.03.201.181.342.392.342zm-7.604 7.825c-4.239 0-7.222-3.104-7.222-7.202 0-2.34 1.055-4.48 2.752-5.876-.201.583-.311 1.446-.311 2.28 0 5.093 3.455 8.468 8.669 8.468.743 0 1.426-.1 1.788-.221-1.235 1.587-3.345 2.551-5.675 2.551z"/></symbol><symbol id="icon-card-5" viewBox="0 0 32 32"><path d="M17.738 28.844c4.138 0 6.629-1.487 6.629-3.968v-5.444c1.738-1.527 2.752-3.968 2.752-6.67 0-6.278-4.068-10.456-10.175-10.456-6.077 0-10.125 4.088-10.125 10.236 0 .342.01.633.04.914l-1.446 2.591c-.372.653-.542 1.276-.542 1.858 0 1.105.693 1.999 1.949 2.26v2.039c0 2.059 1.416 3.084 3.385 2.873l1.004-.11c.06 2.431 2.501 3.877 6.529 3.877zm0-1.939c-2.933 0-4.691-.904-4.691-2.36v-1.376c0-.231-.141-.342-.362-.321l-2.712.291c-.794.09-1.215-.251-1.215-1.085V18.86c0-.161-.121-.271-.291-.271h-.552c-.643 0-1.014-.321-1.014-.824 0-.261.09-.573.271-.884l1.687-3.033a8.7 8.7 0 0 1-.11-1.336c0-4.962 3.275-8.267 8.196-8.267 4.942 0 8.237 3.405 8.237 8.518 0 2.491-1.045 4.651-2.762 5.695v6.087c0 1.456-1.758 2.36-4.681 2.36z"/><path d="M17.115 16.667c2.341 0 3.552-1.773 3.552-3.889 0-2.126-1.16-4.38-3.338-5.427-.122-.053-.234.021-.204.171.173 1.645-.02 3.162-.539 3.985-.234-.641-.529-1.165-.967-1.592-.112-.096-.214-.043-.234.085-.153 1.282-1.384 1.891-1.384 3.729 0 1.763 1.242 2.938 3.115 2.938z"/></symbol><symbol id="icon-card-6" viewBox="0 0 32 32"><path d="M22.139 6.112a1.567 1.567 0 0 1 2.216 0l1.532 1.532a1.567 1.567 0 0 1 0 2.216l-3.089 3.089-.871 3.032a11.087 11.087 0 0 1-2.819 4.782l-7.657 7.657a.901.901 0 0 1-1.273 0l-6.6-6.6a.901.901 0 0 1 0-1.273l7.657-7.657a11.103 11.103 0 0 1 4.782-2.819l3.032-.871 3.089-3.089zm1.108 1.438-.383.383 1.202 1.202.383-.383-1.202-1.202zm-.453 2.858-1.202-1.202-1.433 1.433a.897.897 0 0 1-.388.229l-3.256.935a9.309 9.309 0 0 0-3.339 1.756l5.265 5.265a9.309 9.309 0 0 0 1.756-3.339l.935-3.256a.897.897 0 0 1 .229-.388l1.433-1.433zm-5.595 9.72-5.327-5.327-4.315 4.315 5.327 5.327 4.315-4.315zm-5.588 5.587-5.327-5.327-.797.797 5.327 5.327.797-.797zm3.366-5.063a.9.9 0 0 1-1.155.535l-3.923-1.439a.9.9 0 1 1 .62-1.69l3.923 1.439a.9.9 0 0 1 .535 1.155z"/></symbol><symbol id="icon-card-7" viewBox="0 0 32 32"><path d="M7.362 25.398h17.267c2.16 0 3.264-1.085 3.264-3.224V12.33c0-2.129-1.105-3.224-3.264-3.224h-2.541v-.794c0-1.898-1.025-2.802-2.923-2.802h-6.348c-1.808 0-2.913.904-2.913 2.802v.794H7.363c-2.15 0-3.264 1.095-3.264 3.224v9.844c0 2.14 1.115 3.224 3.264 3.224zm4.38-17.166c0-.673.402-1.055 1.105-1.055h6.298c.703 0 1.095.382 1.095 1.055v.874h-8.498v-.874zM7.443 23.47c-.874 0-1.346-.442-1.346-1.356v-9.723c0-.904.472-1.356 1.346-1.356h17.106c.874 0 1.346.452 1.346 1.356v9.723c0 .914-.472 1.356-1.346 1.356H7.443zm3.686-5.324c0 .593.412.994 1.004.994h1.979v1.979c0 .593.392.994.984.994h1.788c.593 0 .994-.402.994-.994V19.14h1.979c.593 0 .994-.402.994-.994v-1.788c0-.593-.402-.984-.994-.984h-1.979v-1.979c0-.593-.402-.994-.994-.994h-1.788c-.593 0-.984.402-.984.994v1.979h-1.979c-.603 0-1.004.392-1.004.984v1.788z"/></symbol><symbol id="icon-card-8" viewBox="0 0 32 32"><path d="M13.714 6.244a1.552 1.552 0 0 1 2.097-.75 22.966 22.966 0 0 1 11.075 11.915c.338.829-.1 1.74-.906 2.038L7.448 26.3c-1.309.484-2.549-.855-1.967-2.123l8.233-17.933zm.315 3.63L7.352 24.418l3.155-1.167a3.367 3.367 0 0 1-.233-1.237c0-1.885 1.538-3.4 3.42-3.4a3.42 3.42 0 0 1 3.225 2.265l5.532-2.046a18.103 18.103 0 0 0-1.987-3.472 3.569 3.569 0 0 1-7.069-.681 3.567 3.567 0 0 1 2.82-3.488 18.33 18.33 0 0 0-2.186-1.319zm.751-1.638a20.12 20.12 0 0 1 5.575 4.179 19.904 19.904 0 0 1 3.785 5.793l.978-.362a21.186 21.186 0 0 0-9.874-10.622l-.464 1.012zm.449 13.268a1.62 1.62 0 0 0-1.536-1.09 1.61 1.61 0 0 0-1.62 1.6c0 .217.043.424.122.612l3.034-1.122zm1.732-8.59a1.767 1.767 0 1 0 0 3.534 1.767 1.767 0 0 0 0-3.534z"/></symbol><symbol id="icon-card-9" viewBox="0 0 32 32"><path d="M24.874 18.743c.452.281 1.004.171 1.316-.281 1.306-1.848 2.069-4.319 2.069-6.861 0-2.551-.753-5.032-2.069-6.871-.311-.452-.864-.563-1.316-.271-.472.291-.542.884-.191 1.406 1.075 1.557 1.688 3.606 1.688 5.735 0 2.119-.633 4.158-1.688 5.725-.341.522-.281 1.115.191 1.416zm-11.541-2.381c2.421 0 4.389-2.14 4.389-4.761 0-2.592-1.959-4.651-4.389-4.651-2.421 0-4.4 2.089-4.4 4.661.01 2.622 1.969 4.751 4.4 4.751zm7.533-.301c.422.271.974.171 1.286-.261.804-1.085 1.286-2.612 1.286-4.199 0-1.597-.482-3.114-1.286-4.209-.311-.432-.864-.532-1.286-.241-.492.311-.583.904-.201 1.466.563.784.874 1.858.874 2.983 0 1.115-.321 2.18-.874 2.983-.372.563-.291 1.145.201 1.477zm-7.533-1.427c-1.396 0-2.571-1.326-2.571-3.023-.01-1.647 1.165-2.923 2.571-2.923s2.571 1.256 2.571 2.913c0 1.688-1.165 3.033-2.571 3.033zm-6.268 11.19h12.526c1.728 0 2.561-.542 2.561-1.718 0-2.752-3.435-6.449-8.829-6.449-5.384 0-8.829 3.696-8.829 6.449 0 1.175.834 1.718 2.571 1.718zm-.332-1.738c-.241 0-.332-.07-.332-.261 0-1.537 2.491-4.43 6.921-4.43 4.44 0 6.931 2.893 6.931 4.43 0 .191-.09.261-.331.261H6.733z"/></symbol><symbol id="icon-card-10" viewBox="0 0 32 32"><path d="M2.54 14.882c0 3.757 2.581 6.258 6.439 6.258.583 0 1.135-.05 1.657-.151 1.125.974 2.792 1.607 4.691 1.607.733 0 1.507-.1 2.29-.291.743.794 1.868 1.235 3.184 1.235.201 0 .432-.01.653-.02.271 1.758 1.406 3.375 3.154 3.375 2.541 0 3.877-2.973 3.877-6.127 0-1.025-.04-1.788-.1-2.471.683-.864 1.065-2.009 1.065-3.365 0-2.602-1.758-4.621-4.44-5.163-.542-2.431-2.581-4.008-4.912-4.008-.191 0-.452.03-.713.08-.834-.984-2.15-1.577-3.556-1.577-1.567 0-2.913.583-3.827 1.587a5.582 5.582 0 0 0-2.24-.472c-2.511 0-4.51 1.718-4.51 4.169v.131c-1.698 1.165-2.712 3.114-2.712 5.203zm8.137-5.645c-.02.603.392 1.004.924 1.004.512 0 .894-.342.914-.924.08-1.858 1.416-3.204 3.305-3.204 1.135 0 2.129.603 2.531 1.487.1.191.251.211.492.151.321-.08.683-.131 1.035-.131 1.768.02 3.405 1.356 3.405 3.435 0 4.661-6.599 4.118-6.599 8.789 0 .261.02.522.07.763-.402.08-.814.121-1.215.121-.954 0-1.908-.221-2.662-.613 1.547-.974 2.451-2.581 2.451-4.6 0-.171 0-.331-.02-.492 2.21-.623 3.264-2.18 3.244-4.44a.961.961 0 0 0-.944-.934.924.924 0 0 0-.924.934c.02 1.416-.512 2.29-1.878 2.662a3.551 3.551 0 0 0-.804-.994c-.402-.331-.653-.452-1.035-.452-.532 0-.894.331-.894.814 0 .542.261.663.804 1.165.402.382.623.974.623 1.708 0 2.28-1.788 3.807-4.49 3.807-2.772 0-4.611-1.768-4.611-4.42 0-1.235.512-2.401 1.376-3.234.673 1.165 1.949 1.888 3.626 1.888a.937.937 0 0 0 .934-.924.939.939 0 0 0-.934-.934c-1.416 0-2.29-.884-2.29-2.119 0-1.356 1.125-2.31 2.642-2.31.412 0 .844.07 1.266.231a5.605 5.605 0 0 0-.342 1.768zm11.933 9.984c0 .512.402.894.924.934 1.165.07 2.2-.1 3.064-.482.02.331.04.683.04 1.065 0 2.481-.914 4.289-2.029 4.289-1.155 0-1.657-1.547-1.657-2.873 0-.161-.1-.271-.291-.271-.251.01-.573.01-.874.01-1.949 0-3.194-.633-3.194-2.109 0-3.395 6.107-2.873 6.539-8.126 1.507.331 2.461 1.557 2.461 3.275 0 2.22-1.607 3.566-4.038 3.365-.522-.04-.944.412-.944.924z"/></symbol><symbol id="icon-crosscircle" viewBox="0 0 32 32"><path d="M15.986 31.987c8.543 0 15.594-7.051 15.594-15.579S24.514.829 15.971.829C7.443.829.407 7.88.407 16.408s7.051 15.579 15.579 15.579zm0-3.104c-6.916 0-12.445-5.56-12.445-12.475s5.53-12.46 12.43-12.46c6.916 0 12.476 5.545 12.491 12.46s-5.56 12.475-12.475 12.475zM7.729 17.854c0 .994.678 1.672 1.688 1.672h3.42v3.42c0 1.025.678 1.703 1.688 1.703h2.878c1.024 0 1.688-.678 1.688-1.703v-3.42h3.435c1.009 0 1.688-.678 1.688-1.672v-2.908c0-.994-.678-1.672-1.688-1.672h-3.435V9.869c0-1.025-.663-1.703-1.688-1.703h-2.878c-1.009 0-1.688.678-1.688 1.703v3.405H9.402c-1.009 0-1.672.678-1.672 1.672v2.908z"/></symbol></symbol></defs></svg>