<svg aria-hidden="true" style="width:0;height:0;position:absolute;overflow:hidden" xmlns="http://www.w3.org/2000/svg"><defs><symbol id="Layer_1" viewBox="0 0 182 32"><path fill="#795bda" style="fill:var(--color1,#795bda)" d="M47.663.993A65.849 65.849 0 0 1 44.814 19.6l.122-.466a67.985 67.985 0 0 0-.847-7.547l.056.399c-.377-2.727-1.071-5.193-2.056-7.506l.072.191a7.09 7.09 0 0 0-3.392-3.658l-.041-.018a5.636 5.636 0 0 0-2.171-.427l-.107.001h.005-.076c-1.25 0-2.439.266-3.511.744l.055-.022c2.897 5.409 7.19 18.394 7.19 22.387 0 1.229-.41 2.116-1.524 2.492a8.53 8.53 0 0 1-2.219.286c-.238 0-.474-.009-.707-.028l.031.002c-1.652 0-3.1 1.22-3.1 3.718a9.85 9.85 0 0 0 4.86 1.265c2.42 0 4.638-.862 6.364-2.296l-.016.013C50.249 23.764 54.219 9.342 54.219.965l-6.554.029zm32.634 14.668c0-7.735-10.458-6.298-10.458-9.171 0-.888 1.03-1.445 2.767-1.445 2.214.108 4.393.595 6.447 1.444l.084-4.607C77.038 1.077 74.609.611 72.072.611h-.049.003c-5.042 0-8.602 2.282-8.602 6.766 0 7.569 10.254 5.836 10.254 9.006 0 1.315-1.737 1.907-3.805 1.907a15.883 15.883 0 0 1-6.627-1.61l.094.042.333 4.333c1.115.722 4.343 1.777 7.731 1.777 5.129-.064 8.892-2.513 8.892-7.171zm12.641 7.105c6.413 0 8.355-3.676 8.355-5.834a4.609 4.609 0 0 0-.3-1.592l.011.032a7.623 7.623 0 0 1-2.627 1.942l-.048.019a7.309 7.309 0 0 1-3.249.617h.013c-2.691 0-5.544-1.14-5.911-5.286h12.571c.128-.841.196-1.69.205-2.542 0-4.86-2.733-9.554-9.096-9.554-6.166 0-10.593 4.442-10.593 11.122-.036 5.531 2.98 11.077 10.67 11.077zm2.777-13.722h-6.66c0-1.984 1.201-3.805 3.474-3.805.431-.019.86.055 1.262.218.401.163.763.41 1.062.724.302.316.534.694.682 1.107s.209.855.179 1.295v.461zm8.72-8.071s.458 3.676.458 15.05v6.304h6.738V10.634c0-2.282.911-4.608 3.636-4.608 2.317 0 2.825 1.69 2.825 3.466v12.856h6.746V8.091c0-4.564-2.487-7.525-6.993-7.525a7.33 7.33 0 0 0-3.95.978l.035-.019a7.632 7.632 0 0 0-2.846 2.853l-.02.038c-.924-3.084-4.518-3.423-6.63-3.423v-.02zm40.254 14.667c0-7.735-10.459-6.298-10.459-9.171 0-.888 1.032-1.445 2.769-1.445 2.213.106 4.393.595 6.447 1.445l.086-4.608c-2.1-.805-4.528-1.271-7.066-1.271h-.048.002c-5.043 0-8.602 2.282-8.602 6.767 0 7.567 10.254 5.834 10.254 9.005 0 1.315-1.738 1.907-3.8 1.907a15.833 15.833 0 0 1-6.626-1.61l.094.041.325 4.333c1.115.722 4.343 1.777 7.732 1.777 5.106-.044 8.87-2.491 8.87-7.149l.02-.022zm12.366 7.106c6.406 0 8.348-3.675 8.348-5.834a4.609 4.609 0 0 0-.3-1.592l.011.032a7.608 7.608 0 0 1-2.626 1.946l-.048.019a7.296 7.296 0 0 1-3.251.614h.014c-2.684 0-5.537-1.142-5.911-5.286h12.57c.129-.842.197-1.692.205-2.543 0-4.86-2.725-9.554-9.096-9.554-6.158 0-10.628 4.442-10.628 11.122.006 5.553 3 11.099 10.692 11.099l.02-.022zm2.768-13.722h-6.66c0-1.984 1.201-3.804 3.475-3.804.43-.02.86.054 1.261.216s.763.41 1.064.724a3.17 3.17 0 0 1 .86 2.412l.001-.01v.463zM0 .995s.46 3.676.46 15.05v6.304h6.765V10.634c0-2.246.58-4.608 3.059-4.608 2.195 0 2.563 1.814 2.563 3.466v12.856h6.746V10.294c0-2.116.704-4.269 3.057-4.269 2.189 0 2.564 1.814 2.564 3.466v12.856h6.73V8.09c0-4.564-2.118-7.525-6.49-7.525-3.264 0-5.65 1.654-6.653 3.892-.579-2.202-2.564-3.891-5.65-3.891-3.085 0-5.536 1.69-6.49 3.848C5.707 1.33 2.113.991.001.991z"/><path fill="#ff5c8d" style="fill:var(--color2,#ff5c8d)" d="M173.038 15.213a3.83 3.83 0 0 1 1.592 1.065 3.94 3.94 0 0 1 .893 1.715 3.77 3.77 0 0 1 2.283-.847h.005l.096-.001c.839 0 1.615.273 2.243.734l-.011-.007a3.932 3.932 0 0 1 1.436 2.01 4.012 4.012 0 0 1-.037 2.517l.008-.028c-1.032 3.077-6.589 4.378-9.117 4.659-1.71-1.885-5.361-6.182-4.287-9.389.164-.489.421-.941.756-1.327a3.84 3.84 0 0 1 1.196-.931 3.736 3.736 0 0 1 1.687-.397c.45 0 .881.078 1.281.222l-.026-.008z"/></symbol><symbol id="Arrow" viewBox="0 0 11 6" fill="none"><path d="m1 1 4.5 4L10 1" stroke="#222B40" stroke-opacity=".4"/></symbol><symbol id="close_40px" viewBox="0 0 32 32"><path d="M23.734 10.304 22.23 8.8l-5.963 5.962L10.305 8.8l-1.504 1.504 5.962 5.962-5.962 5.963 1.504 1.504 5.962-5.963 5.963 5.963 1.504-1.504-5.963-5.963 5.963-5.962z"/></symbol><symbol id="menu_40px" viewBox="0 0 32 32"><path d="M6.4 11.734V9.6h19.2v2.134H6.4zm0 5.332h19.2v-2.133H6.4v2.133zm0 5.334h19.2v-2.134H6.4V22.4z"/></symbol><symbol id="menu_40px" viewBox="0 0 34 32"><path stroke-width="2.824" d="M0 2.931h33.882M0 16.107h33.882M0 29.284h33.882"/></symbol><symbol id="menu" viewBox="0 0 18 17"><path d="M0 1.557h18M0 8.557h18M0 15.557h18" stroke="#222B40" stroke-width="1.5"/></symbol><symbol id="login" viewBox="0 0 24 32"><path fill="none" stroke="#795bda" style="stroke:var(--color1,#795bda)" stroke-linejoin="round" stroke-width="3" d="M0 16h12m0 0-6-6m6 6-6 6"/><path fill="none" stroke="#795bda" style="stroke:var(--color1,#795bda)" stroke-width="3" d="M4 2h14a4 4 0 0 1 4 4v20a4 4 0 0 1-4 4H4"/></symbol><symbol id="icon-telegram" viewBox="0 0 37 32"><path d="M35.048 0c.283-.006.909.068 1.317.415.271.246.444.59.484.963.045.276.102.907.057 1.399-.51 5.624-2.725 19.266-3.853 25.563-.476 2.667-1.414 3.559-2.323 3.645-1.972.193-3.471-1.363-5.383-2.673-2.992-2.053-4.683-3.33-7.587-5.334-3.357-2.311-1.181-3.585.731-5.659.502-.545 9.2-8.821 9.37-9.571.02-.095.04-.444-.159-.628s-.493-.121-.705-.071c-.3.071-5.08 3.378-14.339 9.911-1.36.978-2.587 1.452-3.689 1.422-1.213-.024-3.547-.714-5.284-1.304C1.554 17.352-.137 16.97.01 15.74c.076-.64.921-1.295 2.53-1.964 9.911-4.516 16.518-7.494 19.827-8.931C31.807.738 33.771.024 35.049 0z"/></symbol><symbol id="icon-instagram" viewBox="0 0 32 32"><path d="M16 0c-4.347 0-4.889.02-6.596.096C7.7.176 6.54.444 5.52.84c-1.052.408-1.945.956-2.835 1.845S1.246 4.466.84 5.52C.444 6.54.175 7.7.096 9.404.016 11.111 0 11.653 0 16s.02 4.889.096 6.596c.08 1.703.348 2.864.744 3.884a7.854 7.854 0 0 0 1.845 2.835A7.807 7.807 0 0 0 5.52 31.16c1.021.395 2.181.665 3.884.744 1.707.08 2.249.096 6.596.096s4.889-.02 6.596-.096c1.703-.08 2.864-.349 3.884-.744a7.867 7.867 0 0 0 2.835-1.845 7.799 7.799 0 0 0 1.845-2.835c.395-1.02.665-2.181.744-3.884.08-1.707.096-2.249.096-6.596s-.02-4.889-.096-6.596c-.08-1.703-.349-2.865-.744-3.884a7.859 7.859 0 0 0-1.845-2.835A7.786 7.786 0 0 0 26.48.84C25.46.444 24.299.175 22.596.096 20.889.016 20.347 0 16 0zm0 2.88c4.271 0 4.78.021 6.467.095 1.56.073 2.407.332 2.969.553.749.289 1.28.636 1.843 1.195a4.95 4.95 0 0 1 1.195 1.841c.218.563.48 1.409.551 2.969.076 1.688.093 2.195.093 6.467s-.02 4.78-.099 6.467c-.081 1.56-.341 2.407-.561 2.969-.299.749-.639 1.28-1.199 1.843a5.002 5.002 0 0 1-1.84 1.195c-.56.218-1.42.48-2.98.551-1.698.076-2.199.093-6.479.093-4.281 0-4.781-.02-6.479-.099-1.561-.081-2.421-.341-2.981-.561-.759-.299-1.28-.639-1.839-1.199a4.867 4.867 0 0 1-1.2-1.84c-.22-.56-.479-1.42-.56-2.98-.06-1.68-.081-2.199-.081-6.459 0-4.261.021-4.781.081-6.481.081-1.56.34-2.419.56-2.979.28-.76.639-1.28 1.2-1.841.559-.559 1.08-.919 1.839-1.197.56-.221 1.401-.481 2.961-.561 1.7-.06 2.2-.08 6.479-.08l.06.04zm0 4.904A8.215 8.215 0 0 0 7.784 16c0 4.54 3.68 8.216 8.216 8.216 4.54 0 8.216-3.68 8.216-8.216 0-4.54-3.68-8.216-8.216-8.216zm0 13.549c-2.947 0-5.333-2.387-5.333-5.333s2.387-5.333 5.333-5.333c2.947 0 5.333 2.387 5.333 5.333S18.946 21.333 16 21.333zM26.461 7.46a1.921 1.921 0 0 1-3.84 0 1.92 1.92 0 0 1 3.84 0z"/></symbol><symbol id="icon-facebook" viewBox="0 0 32 32"><path d="M32 16.097C32 7.207 24.836 0 16 0S0 7.208 0 16.097c0 8.035 5.851 14.694 13.5 15.901V20.75H9.437v-4.655H13.5v-3.544c0-4.034 2.389-6.263 6.044-6.263 1.749 0 3.581.315 3.581.315v3.961h-2.019c-1.988 0-2.608 1.241-2.608 2.514v3.018h4.437l-.709 4.655h-3.728v11.248c7.651-1.209 13.501-7.869 13.501-15.903z"/></symbol><symbol id="icon-sign-in" viewBox="0 0 24 32"><path fill="none" stroke="#795bda" style="stroke:var(--color1,#795bda)" stroke-linejoin="round" stroke-width="3" d="M0 16h12m0 0-6-6m6 6-6 6"/><path fill="none" stroke="#795bda" style="stroke:var(--color1,#795bda)" stroke-width="3" d="M4 2h14a4 4 0 0 1 4 4v20a4 4 0 0 1-4 4H4"/></symbol><symbol id="test" viewBox="0 0 14 14"><path d="M.5 7h12m0 0-6 6m6-6-6-6" stroke="#fff" stroke-width="1.5"/></symbol><symbol id="icon-love-heart" viewBox="0 0 37 32"><path fill="#ff5c8d" style="fill:var(--color1,#ff5c8d)" d="M13.755.611a10.398 10.398 0 0 1 4.294 2.818l.007.008a10.427 10.427 0 0 1 2.419 4.56 10.306 10.306 0 0 1 6.454-2.252c2.261 0 4.352.723 6.057 1.951l-.031-.021a10.499 10.499 0 0 1 3.862 5.262l.021.074c.314.952.495 2.048.495 3.186 0 1.227-.211 2.406-.597 3.501l.023-.074C33.975 27.797 18.951 31.251 12.116 32 7.495 26.992-2.372 15.573.527 7.056c.925-2.648 2.805-4.763 5.217-5.973l.06-.027A10.224 10.224 0 0 1 10.36.001c1.217 0 2.384.21 3.469.595l-.072-.022z"/></symbol></defs></svg>