<svg width="18" height="14" fill="none" xmlns="http://www.w3.org/2000/svg"><path d="M17.965 1.668a7.764 7.764 0 0 1-2.119.556A3.59 3.59 0 0 0 17.468.27a7.836 7.836 0 0 1-2.345.85A3.743 3.743 0 0 0 13.03.046a3.835 3.835 0 0 0-2.342.37 3.6 3.6 0 0 0-1.622 1.658 3.392 3.392 0 0 0-.231 2.261C5.767 4.198 3.05 2.787 1.23.657a3.347 3.347 0 0 0-.5 1.776c0 1.228.653 2.306 1.642 2.94A3.805 3.805 0 0 1 .7 4.931v.043c0 .816.294 1.606.833 2.238A3.724 3.724 0 0 0 3.66 8.438a3.91 3.91 0 0 1-1.659.061 3.552 3.552 0 0 0 1.316 1.756c.62.44 1.366.683 2.137.697a7.616 7.616 0 0 1-4.576 1.51c-.293 0-.585-.016-.878-.047A10.844 10.844 0 0 0 5.668 14c6.79 0 10.498-5.38 10.498-10.037 0-.15 0-.302-.011-.452A7.283 7.283 0 0 0 18 1.682l-.035-.014Z" fill="#222B40"/></svg>