<svg width="48" height="48" fill="none" xmlns="http://www.w3.org/2000/svg"><path d="M14 18.571h12.314c.366-.4.614-.777.745-1.127.157-.376.235-.777.235-1.203 0-.627-.248-1.153-.745-1.58-.47-.45-1.32-.676-2.549-.676-1.098 0-1.895.188-2.392.564-.47.35-.771.852-.902 1.504h-4.55c.105-1.855.798-3.321 2.08-4.399C19.515 10.551 21.437 10 24 10c1.281 0 2.405.15 3.373.451.993.276 1.816.664 2.47 1.165.68.502 1.177 1.09 1.49 1.768.34.651.51 1.353.51 2.105 0 .651-.052 1.203-.157 1.654a5.31 5.31 0 0 1-.588 1.428H34v3.534H14v-3.534Zm10 18.572c-2.797 0-4.876-.526-6.235-1.58-1.334-1.052-2-2.418-2-4.097 0-.802.091-1.466.274-1.992a6.763 6.763 0 0 1 .745-1.504H14v-3.534h20v3.534H22.078c-.496.501-.85.99-1.058 1.466-.21.476-.314.965-.314 1.466 0 .702.222 1.253.666 1.654.445.401 1.32.602 2.628.602 1.098 0 1.895-.175 2.392-.526.497-.376.797-.89.902-1.542h4.941a6.548 6.548 0 0 1-.588 2.406 5.181 5.181 0 0 1-1.45 1.917c-.654.552-1.491.978-2.51 1.279-1.02.3-2.25.45-3.687.45Z" fill="#FF5C8D"/></svg>