<svg width="48" height="48" fill="none" xmlns="http://www.w3.org/2000/svg"><path d="M24 18.571h12.314c.366-.4.614-.777.745-1.127.157-.376.235-.777.235-1.203 0-.627-.248-1.153-.745-1.58-.47-.45-1.32-.676-2.549-.676-1.098 0-1.895.188-2.392.564-.47.35-.771.852-.902 1.504h-4.55c.105-1.855.798-3.321 2.08-4.399C29.515 10.551 31.437 10 34 10c1.281 0 2.405.15 3.373.451.993.276 1.817.664 2.47 1.165.68.502 1.177 1.09 1.49 1.768.34.651.51 1.353.51 2.105 0 .651-.052 1.203-.157 1.654a5.31 5.31 0 0 1-.588 1.428H44v3.534H24v-3.534Zm10 18.572c-2.797 0-4.876-.526-6.235-1.58-1.334-1.052-2-2.418-2-4.097 0-.802.091-1.466.274-1.992a6.763 6.763 0 0 1 .745-1.504H24v-3.534h20v3.534H32.078c-.496.501-.85.99-1.058 1.466-.21.476-.314.965-.314 1.466 0 .702.222 1.253.666 1.654.445.401 1.32.602 2.628.602 1.098 0 1.895-.175 2.392-.526.497-.376.797-.89.902-1.542h4.941a6.548 6.548 0 0 1-.588 2.406 5.181 5.181 0 0 1-1.45 1.917c-.655.552-1.491.978-2.51 1.279-1.02.3-2.25.45-3.687.45ZM22.572 18.571H14v3.534h8.572v-3.534ZM27.429 10.467l-.056-.016C26.405 10.151 25.28 10 24 10c-2.562 0-4.484.551-5.765 1.654-1.28 1.078-1.974 2.544-2.078 4.399h4.549c.13-.652.431-1.153.902-1.504.497-.376 1.294-.564 2.392-.564.388 0 .738.022 1.05.067a7.03 7.03 0 0 1 2.379-3.585ZM22.572 24.436H14v3.534h2.784a6.763 6.763 0 0 0-.745 1.504c-.183.526-.274 1.19-.274 1.992 0 1.68.666 3.045 2 4.098 1.36 1.053 3.438 1.579 6.235 1.579 1.17 0 2.2-.1 3.094-.299-.069-.049-.137-.1-.203-.15l-.01-.009c-1.21-.955-2.002-2.15-2.346-3.542a8.92 8.92 0 0 1-.535.015c-1.307 0-2.183-.2-2.627-.602-.445-.4-.667-.952-.667-1.654 0-.501.105-.99.314-1.466.209-.476.562-.965 1.058-1.466h.494v-3.534ZM12.572 18.571H4v3.534h8.572v-3.534ZM17.429 10.467l-.056-.016C16.405 10.151 15.28 10 14 10c-2.562 0-4.484.551-5.765 1.654-1.28 1.078-1.974 2.544-2.078 4.399h4.549c.13-.652.431-1.153.902-1.504.497-.376 1.294-.564 2.392-.564.388 0 .738.022 1.05.067a7.03 7.03 0 0 1 2.379-3.585ZM12.572 24.436H4v3.534h2.784a6.762 6.762 0 0 0-.745 1.504c-.183.526-.274 1.19-.274 1.992 0 1.68.666 3.045 2 4.098 1.36 1.053 3.438 1.579 6.235 1.579 1.17 0 2.2-.1 3.094-.299-.069-.049-.137-.1-.203-.15l-.01-.009c-1.21-.955-2.002-2.15-2.346-3.542a8.92 8.92 0 0 1-.535.015c-1.307 0-2.183-.2-2.627-.602-.445-.4-.667-.952-.667-1.654 0-.501.104-.99.314-1.466.209-.476.562-.965 1.058-1.466h.494v-3.534Z" fill="#795BDA"/></svg>