<svg width="51" height="17" fill="none" xmlns="http://www.w3.org/2000/svg"><path d="m19.21.812-6.608 15.954H8.264L5.012 4.013c-.207-.775-.362-1.033-.981-1.394C2.74 1.999 1.397 1.535.003 1.276L.107.812h6.97c.93 0 1.755.723 1.859 1.652l1.704 9.19L14.873.812h4.337Zm16.987 10.687c-.051 3.305-2.84 5.473-7.125 5.422-1.549.052-3.098-.258-4.543-.826l.774-3.511c1.29.723 2.736 1.032 4.182 1.032 1.188 0 2.478-.516 2.478-1.548 0-.672-.568-1.24-2.116-1.963-1.55-.774-3.615-2.013-3.563-4.337.052-3.046 2.891-5.266 6.919-5.266 1.29 0 2.633.258 3.82.723L36.3 4.58c-1.239-.62-2.633-.826-4.027-.723-1.187.155-1.755.774-1.755 1.342-.104 1.86 5.68 2.117 5.68 6.3Zm10.636 5.215-.516-2.375h-5.266l-.827 2.375H35.94l6.144-14.766c.31-.723.981-1.188 1.756-1.188h3.51l3.305 15.954h-3.82Zm-4.595-5.627h3.408l-1.24-5.938-2.168 5.937ZM25.045.811l-3.356 15.954h-4.08L20.967.812h4.079Z" fill="#161E6F"/></svg>