<svg width="32" height="32" fill="none" xmlns="http://www.w3.org/2000/svg"><path d="M4.955 26.875c6.007 6.007 15.926 6.005 21.926.006 5.999-6 5.99-15.93-.016-21.937C20.868-1.052 10.96-1.039 4.96 4.96c-6 6-6.002 15.919-.005 21.915Zm2.184-2.183c-4.863-4.863-4.84-12.663.025-17.528 4.865-4.865 12.654-4.878 17.507-.026a12.386 12.386 0 0 1 .017 17.55c-4.855 4.875-12.687 4.867-17.55.004Zm.065-7.207 6.602-.012c.318 0 .53.212.53.53l-.013 6.602c.01 1.346 1.441 1.632 1.918.498l6.16-14.086c.478-1.091-.529-2.076-1.641-1.6l-14.054 6.15c-1.113.478-.848 1.908.498 1.918Z" fill="#FF5C8D"/></svg>