<svg width="33" height="29" fill="none" xmlns="http://www.w3.org/2000/svg"><path d="M27.533 10.788c.85 0 1.382-.47 1.428-1.091v-.182c.06-.788.592-1.303 1.579-1.94C32.043 6.592 33 5.713 33 3.97 33 1.455 30.722 0 28.02 0c-2.598 0-4.374 1.182-4.845 2.606-.091.258-.152.53-.152.803 0 .727.577 1.182 1.276 1.182.896 0 1.093-.455 1.549-.97.5-.757 1.139-1.197 2.035-1.197 1.2 0 1.974.682 1.974 1.697 0 .924-.638 1.424-1.914 2.318-1.078.743-1.868 1.516-1.868 2.88v.166c0 .864.532 1.303 1.458 1.303Zm-.015 4.666c.972 0 1.777-.712 1.777-1.681 0-.955-.79-1.667-1.777-1.667-.987 0-1.792.712-1.792 1.667 0 .954.805 1.681 1.792 1.681ZM13.363 14.91c3.675 0 6.652-3.243 6.652-7.213 0-3.91-2.977-7.015-6.652-7.015-3.66 0-6.666 3.151-6.651 7.045.015 3.955 2.976 7.182 6.651 7.182Zm0-2.652c-2.095 0-3.872-1.985-3.872-4.53-.015-2.486 1.761-4.395 3.872-4.395 2.126 0 3.873 1.88 3.873 4.364 0 2.545-1.762 4.56-3.873 4.56ZM3.888 29h18.936c2.627 0 3.887-.833 3.887-2.621 0-4.167-5.208-9.712-13.348-9.712S0 22.212 0 26.379C0 28.167 1.26 29 3.888 29Zm-.471-2.651c-.365 0-.501-.122-.501-.395 0-2.318 3.75-6.636 10.447-6.636 6.682 0 10.433 4.318 10.433 6.636 0 .273-.137.395-.501.395H3.417Z" fill="#795BDA"/></svg>