<svg width="17" height="16" viewBox="0 0 17 16" fill="none" xmlns="http://www.w3.org/2000/svg">
<path d="M8.91951 4.02264C8.38611 4.02264 7.56069 3.39381 6.69138 3.41598C5.54356 3.43173 4.49138 4.10606 3.90003 5.17413C2.70888 7.31787 3.59282 10.4842 4.75471 12.2266C5.32468 13.0747 5.99706 14.0291 6.88831 13.9993C7.74355 13.9614 8.06427 13.4236 9.10238 13.4236C10.1326 13.4236 10.4246 13.9993 11.3305 13.9766C12.2516 13.9614 12.8362 13.1132 13.3988 12.2569C14.0493 11.2723 14.3194 10.3173 14.334 10.2648C14.312 10.2573 12.5436 9.5526 12.5222 7.43162C12.5076 5.65829 13.9176 4.81013 13.9834 4.77222C13.1794 3.55306 11.9449 3.41656 11.5134 3.38623C10.3881 3.29523 9.4456 4.02264 8.91951 4.02264ZM10.8202 2.23415C11.2945 1.64382 11.6079 0.818411 11.5207 0C10.8416 0.0303331 10.0229 0.46958 9.53337 1.06049C9.0945 1.58316 8.71527 2.42432 8.81711 3.22698C9.56995 3.28764 10.3447 2.82565 10.8196 2.23473" fill="black"/>
</svg>
