<svg width="250" height="54" viewBox="0 0 250 54" fill="none" xmlns="http://www.w3.org/2000/svg">
<path d="M249.989 26.6498C250.071 26.1038 249.696 25.594 249.15 25.5113L240.251 24.163C239.705 24.0803 239.196 24.4559 239.113 25.0019C239.03 25.548 239.406 26.0577 239.952 26.1405L247.861 27.3389L246.663 35.2486C246.58 35.7947 246.956 36.3044 247.502 36.3872C248.048 36.4699 248.558 36.0943 248.64 35.5482L249.989 26.6498ZM0.652272 41.5757C31.6711 53.0797 53.3001 55.5653 68.0526 52.9298C82.8714 50.2823 90.7448 42.4611 94.093 33.5386C97.413 24.6914 96.2392 14.8842 93.2388 8.22599C91.7447 4.91017 89.7369 2.24095 87.4661 0.911694C86.3144 0.237534 85.0634 -0.108454 83.7795 0.0301324C82.4914 0.169187 81.2749 0.784902 80.1784 1.84928L81.5714 3.28436C82.4084 2.47188 83.2268 2.10142 83.9942 2.01858C84.7659 1.93527 85.5912 2.13166 86.4557 2.63773C88.2174 3.66893 90.0022 5.91158 91.4154 9.04766C94.2298 15.2932 95.3299 24.55 92.2205 32.836C89.1394 41.0466 81.8802 48.4278 67.7009 50.9609C53.4553 53.506 32.2206 51.1504 1.34773 39.7005L0.652272 41.5757ZM80.1784 1.84928C77.8237 4.13499 77.7821 7.40966 79.2282 10.8752C80.6737 14.3392 83.6824 18.2474 87.9098 22.2282C96.3824 30.2065 109.99 38.7007 126.736 44.7299C160.244 56.7946 206.511 59.0499 249.593 27.3051L248.407 25.6949C205.989 56.9501 160.459 54.7463 127.413 42.8481C110.881 36.8959 97.5223 28.5327 89.2809 20.7722C85.1514 16.8835 82.3663 13.2019 81.074 10.105C79.7824 7.00967 80.0591 4.75238 81.5714 3.28436L80.1784 1.84928Z" fill="url(#paint0_linear_3974_8297)"/>
<defs>
<linearGradient id="paint0_linear_3974_8297" x1="260" y1="17.7143" x2="9.4564" y2="6.33464" gradientUnits="userSpaceOnUse">
<stop stop-color="white"/>
<stop offset="1" stop-color="white" stop-opacity="0"/>
</linearGradient>
</defs>
</svg>
