<svg width="409" height="113" viewBox="0 0 409 113" fill="none" xmlns="http://www.w3.org/2000/svg">
<path d="M404.917 0.601012C404.697 0.0945908 404.107 -0.137311 403.601 0.083044L395.348 3.67394C394.842 3.8943 394.61 4.48346 394.83 4.98988C395.051 5.49631 395.64 5.72821 396.146 5.50785L403.482 2.31594L406.674 9.65159C406.894 10.158 407.483 10.3899 407.99 10.1696C408.496 9.9492 408.728 9.36004 408.508 8.85362L404.917 0.601012ZM0.641888 94.1324C43.1748 110.446 72.7839 113.95 92.9393 110.226C113.166 106.489 123.846 95.4708 128.383 82.9676C132.892 70.5396 131.298 56.7481 127.221 47.3914C125.189 42.7284 122.48 39.0269 119.46 37.1985C117.932 36.2737 116.289 35.8083 114.613 35.9954C112.934 36.1829 111.337 37.013 109.883 38.4721L111.3 39.8836C112.499 38.6796 113.694 38.1104 114.835 37.983C115.98 37.8552 117.185 38.1595 118.424 38.9094C120.936 40.4303 123.431 43.6984 125.388 48.1903C129.289 57.1434 130.815 70.4025 126.503 82.2854C122.218 94.0932 112.136 104.646 92.5759 108.26C72.9447 111.887 43.743 108.522 1.35811 92.2651L0.641888 94.1324ZM109.883 38.4721C108.237 40.1249 107.899 42.3669 108.503 44.8239C109.099 47.2504 110.63 50.0025 112.897 52.9449C117.441 58.8434 125.152 65.7753 135.197 72.7817C155.301 86.8043 184.951 101.264 217.887 108.418C250.825 115.572 287.122 115.433 320.445 100.153C353.789 84.8628 384.028 54.4708 404.931 1.36626L403.069 0.633742C382.322 53.3454 352.406 83.2968 319.611 98.3348C286.795 113.383 250.966 113.556 218.312 106.463C185.655 99.3704 156.246 85.0254 136.341 71.1414C126.382 64.1945 118.852 57.3977 114.481 51.7244C112.291 48.8808 110.946 46.3861 110.445 44.3465C109.951 42.3374 110.294 40.8941 111.3 39.8836L109.883 38.4721Z" fill="white"/>
</svg>
