<svg width="12" height="10" viewBox="0 0 12 10" fill="none" xmlns="http://www.w3.org/2000/svg">
<path d="M6.70424 9.47809C6.98047 9.47809 7.19643 9.37262 7.46261 9.1215L11.4403 5.38992C11.6362 5.20409 11.7115 4.98813 11.7115 4.80231C11.7115 4.61146 11.6362 4.40052 11.4403 4.2147L7.46261 0.508222C7.17132 0.237017 6.98047 0.126526 6.71429 0.126526C6.3125 0.126526 6.02623 0.43791 6.02623 0.829651V2.6176H5.90067C2.43527 2.6176 0.828125 4.84249 0.828125 8.48869C0.828125 9.12653 1.09933 9.458 1.45089 9.458C1.71708 9.458 1.96317 9.37262 2.15904 9.00599C2.94754 7.53947 4.06752 7.00208 5.90067 7.00208H6.02623V8.80008C6.02623 9.19182 6.3125 9.47809 6.70424 9.47809Z" fill="#222B40" fill-opacity="0.4"/>
</svg>
