<svg width="71" height="71" viewBox="0 0 71 71" fill="none" xmlns="http://www.w3.org/2000/svg">
<path d="M15.225 55.3206H55.5724C60.374 55.3206 62.8638 52.8308 62.8638 48.0958V24.7766C62.8638 20.0416 60.374 17.5519 55.5724 17.5519H49.4814C47.7474 17.5519 47.1917 17.2629 46.1246 16.1292L44.3462 14.2174C43.1903 13.017 42.0343 12.3945 39.7669 12.3945H30.9194C28.6519 12.3945 27.4959 13.017 26.34 14.2174L24.5616 16.1292C23.5168 17.2407 22.9388 17.5519 21.2049 17.5519H15.225C10.4233 17.5519 7.93359 20.0416 7.93359 24.7766V48.0958C7.93359 52.8308 10.4233 55.3206 15.225 55.3206ZM15.4918 50.9635C13.4466 50.9635 12.2907 49.8742 12.2907 47.7179V25.1545C12.2907 22.9982 13.4466 21.9089 15.4918 21.9089H22.472C24.4504 21.9089 25.4953 21.5755 26.6067 20.3306L28.3185 18.4633C29.5633 17.1073 30.2302 16.7516 32.1865 16.7516H38.4998C40.456 16.7516 41.1229 17.1073 42.3678 18.4411L44.0795 20.3306C45.191 21.5533 46.2358 21.9089 48.2143 21.9089H55.3278C57.373 21.9089 58.5067 22.9982 58.5067 25.1545V47.7179C58.5067 49.8742 57.373 50.9635 55.3278 50.9635H15.4918ZM35.4098 48.0069C42.0566 48.0069 47.414 42.6717 47.414 35.9805C47.414 29.2893 42.0788 23.9319 35.4098 23.9319C28.7408 23.9319 23.4056 29.2893 23.4056 35.9805C23.4056 42.6717 28.7408 48.0069 35.4098 48.0069ZM48.1698 27.9777C48.1698 29.6005 49.4814 30.8676 51.0597 30.8454C52.6158 30.8454 53.9274 29.5783 53.9274 27.9777C53.9274 26.4439 52.6158 25.1101 51.0597 25.1101C49.4814 25.1101 48.1698 26.4439 48.1698 27.9777ZM35.4098 44.0277C30.9638 44.0277 27.3626 40.4487 27.3626 35.9805C27.3626 31.4901 30.9638 27.911 35.4098 27.911C39.8558 27.911 43.4571 31.4901 43.4571 35.9805C43.4571 40.4487 39.8558 44.0277 35.4098 44.0277Z" fill="#795BDA"/>
</svg>
