<svg width="36" height="36" viewBox="0 0 36 36" fill="none" xmlns="http://www.w3.org/2000/svg">
<circle cx="18" cy="18" r="18" fill="#F3F3F3"/>
<path fill-rule="evenodd" clip-rule="evenodd" d="M18 26C22.4183 26 26 22.4183 26 18C26 13.5817 22.4183 10 18 10C13.5817 10 10 13.5817 10 18C10 22.4183 13.5817 26 18 26ZM18.7857 13V20.2603H17.2143V13H18.7857ZM17.2714 21.3425C17.4619 21.169 17.7048 21.0822 18 21.0822C18.2952 21.0822 18.5333 21.169 18.7143 21.3425C18.9048 21.5251 19 21.758 19 22.0411C19 22.3242 18.9048 22.5525 18.7143 22.726C18.5333 22.9087 18.2952 23 18 23C17.7048 23 17.4619 22.9087 17.2714 22.726C17.0905 22.5525 17 22.3242 17 22.0411C17 21.758 17.0905 21.5251 17.2714 21.3425Z" fill="#222B40" fill-opacity="0.2"/>
</svg>
