<svg width="76" height="18" viewBox="0 0 76 18" fill="none" xmlns="http://www.w3.org/2000/svg">
<path d="M30.5628 3.32309V1.48779H23.4341V14.029H25.4817V8.82897H30.1078V6.9172H25.4817V3.32309H30.5628Z" fill="black"/>
<path d="M50.129 8.52306V13.9525H52.0249V7.98777C52.0249 6.6113 51.3424 4.08777 48.3847 4.08777C46.1096 4.08777 45.1995 5.54071 45.1995 5.54071L45.0478 4.31718H43.3794V14.0289H45.3512V9.13483C45.3512 6.99365 46.4887 5.99953 47.9297 5.99953C49.6739 5.84659 50.129 7.29953 50.129 8.52306Z" fill="black"/>
<path d="M71.0602 13.1113L75.0037 4.24072H73.032L70.1501 11.0466L67.1166 4.24072H64.9932L69.1642 13.2643C69.0884 13.4937 68.5575 14.7937 68.1025 15.176C67.7233 15.5584 67.2683 15.6348 66.6616 15.6348L66.9649 17.3172C67.42 17.3172 67.7992 17.2407 68.2542 17.0878C68.6334 16.9348 69.0126 16.7054 69.3159 16.3995C70.226 15.4819 70.9843 13.4937 70.9843 13.4937L71.0602 13.1113Z" fill="black"/>
<path d="M36.933 4.08777H36.4021C35.1129 4.08777 33.8995 4.62306 33.0653 5.54071C32.1552 6.45836 31.7002 7.68189 31.7002 8.98189V9.36424C31.7002 10.6642 32.2311 11.8878 33.0653 12.8054C33.9753 13.7231 35.1887 14.1819 36.4021 14.1819H36.933C38.2222 14.1819 39.4356 13.6466 40.3457 12.8054C41.2558 11.8878 41.7108 10.6642 41.7108 9.36424V8.98189C41.7108 7.68189 41.1799 6.45836 40.3457 5.54071C39.4356 4.62306 38.2222 4.08777 36.933 4.08777ZM39.8148 9.28777C39.8148 10.1289 39.5115 10.8937 38.9048 11.4289C38.2981 12.0407 37.5397 12.3466 36.7813 12.3466H36.7055C35.8713 12.3466 35.1129 12.0407 34.582 11.4289C33.9753 10.8172 33.672 10.0525 33.672 9.28777V9.05836C33.672 8.21718 33.9753 7.45247 34.582 6.91718C35.1887 6.30542 35.9471 5.99953 36.7055 5.99953H36.7813C37.6155 5.99953 38.3739 6.30542 38.9048 6.91718C39.5115 7.52894 39.8148 8.29365 39.8148 9.05836V9.28777Z" fill="black"/>
<path d="M61.7322 0.799561V5.15838C60.8979 4.47015 59.8362 4.0878 58.7745 4.0878H58.4711C57.1819 4.0878 55.9685 4.62309 55.0584 5.54074C54.1484 6.45838 53.6934 7.68191 53.6934 8.98191V9.36427C53.6934 10.6643 54.2242 11.8878 55.0584 12.8054C55.9685 13.7231 57.1819 14.1819 58.4711 14.1819H58.7745C59.9879 14.1819 61.1255 13.7231 62.0355 12.8819L62.1872 13.9525H63.7039V0.799561H61.7322ZM61.808 9.2878C61.808 10.129 61.5046 10.8937 60.8979 11.429C60.2912 12.0407 59.5329 12.3466 58.7745 12.3466H58.6986C57.8644 12.3466 57.1061 12.0407 56.5752 11.429C55.9685 10.8172 55.6651 10.0525 55.6651 9.2878V9.05838C55.6651 8.21721 55.9685 7.4525 56.5752 6.91721C57.1819 6.30544 57.9403 5.99956 58.6986 5.99956H58.7745C59.6087 5.99956 60.3671 6.30544 60.8979 6.91721C61.5046 7.52897 61.808 8.29368 61.808 9.05838V9.2878Z" fill="black"/>
<path d="M10.4658 13.8761V11.8114C10.4658 11.7349 10.4658 11.582 10.3899 11.5055C10.3141 11.429 10.2383 11.3526 10.1624 11.2761L8.34231 10.2055C8.26647 10.129 8.1148 10.129 8.03896 10.129C7.96312 10.129 7.81144 10.129 7.73561 10.2055L5.99134 11.1996C5.9155 11.2761 5.83966 11.3526 5.76383 11.429C5.68799 11.5055 5.68799 11.6584 5.68799 11.7349V13.7996C5.68799 13.8761 5.68799 14.029 5.76383 14.1055C5.83966 14.182 5.9155 14.2584 5.99134 14.3349L7.73561 15.329C7.81144 15.4055 7.96312 15.4055 8.03896 15.4055C8.1148 15.4055 8.26647 15.4055 8.34231 15.329L10.0866 14.3349C10.1624 14.2584 10.2383 14.182 10.3141 14.1055C10.4658 14.1055 10.4658 13.9526 10.4658 13.8761Z" fill="#08A835"/>
<path d="M16.2294 13.8761V11.8114C16.2294 11.7349 16.2294 11.582 16.1536 11.5055C16.0778 11.429 16.0019 11.3526 15.9261 11.2761L14.106 10.2055C14.0301 10.129 13.8785 10.129 13.8026 10.129C13.7268 10.129 13.5751 10.129 13.4993 10.2055L11.755 11.1996C11.6792 11.2761 11.6033 11.3526 11.5275 11.429C11.4517 11.5055 11.4517 11.6584 11.4517 11.7349V13.7996C11.4517 13.8761 11.4517 14.029 11.5275 14.1055C11.6033 14.182 11.6792 14.2584 11.755 14.3349L13.4993 15.329C13.5751 15.4055 13.7268 15.4055 13.8026 15.4055C13.8785 15.4055 14.0301 15.4055 14.106 15.329L15.8503 14.3349C15.9261 14.2584 16.0019 14.182 16.0778 14.1055C16.1536 14.1055 16.2294 13.9526 16.2294 13.8761Z" fill="#08A835"/>
<path d="M7.58393 8.82904V6.76433C7.58393 6.68786 7.58393 6.53492 7.50809 6.45845C7.43226 6.38198 7.35642 6.30551 7.28058 6.22904L5.53631 5.23492C5.46047 5.15845 5.3088 5.15845 5.23296 5.15845C5.15712 5.15845 5.00545 5.15845 4.92961 5.23492L3.18534 6.22904C3.1095 6.30551 3.03367 6.38198 2.95783 6.45845C2.80615 6.53492 2.80615 6.61139 2.80615 6.76433V8.82904C2.80615 8.90551 2.80615 9.05845 2.88199 9.13492C2.95783 9.21139 3.03367 9.28786 3.1095 9.36433L4.85377 10.3584C4.92961 10.4349 5.08128 10.4349 5.15712 10.4349C5.23296 10.4349 5.38464 10.4349 5.46047 10.3584L7.20474 9.36433C7.28058 9.28786 7.35642 9.21139 7.43225 9.13492C7.58393 9.05845 7.58393 8.90551 7.58393 8.82904Z" fill="#08A835"/>
<path d="M13.3476 8.82904V6.76433C13.3476 6.68786 13.3476 6.53492 13.2718 6.45845C13.1959 6.38198 13.1201 6.30551 13.0443 6.22904L11.3 5.23492C11.2241 5.15845 11.0725 5.15845 10.9966 5.15845C10.9208 5.15845 10.7691 5.15845 10.6933 5.23492L8.87317 6.15257C8.79734 6.22904 8.7215 6.30551 8.64566 6.38198C8.56982 6.45845 8.56982 6.61139 8.56982 6.68786V8.75257C8.56982 8.82904 8.56982 8.98198 8.64566 9.05845C8.7215 9.13492 8.79734 9.21139 8.87317 9.28786L10.6174 10.282C10.6933 10.3584 10.845 10.3584 10.9208 10.3584C10.9966 10.3584 11.1483 10.3584 11.2241 10.282L12.9684 9.28786C13.0443 9.21139 13.1201 9.13492 13.1959 9.05845C13.2718 9.05845 13.3476 8.90551 13.3476 8.82904Z" fill="#08A835"/>
<path d="M4.70194 13.8761V11.8114C4.70194 11.7349 4.70194 11.582 4.6261 11.5055C4.55026 11.429 4.47443 11.3526 4.39859 11.2761L2.65432 10.2055C2.57848 10.129 2.42681 10.129 2.35097 10.129C2.27513 10.129 2.12346 10.129 2.04762 10.2055L0.303351 11.1996C0.227513 11.2761 0.151675 11.3526 0.0758377 11.429C-7.34546e-08 11.5055 0 11.6584 0 11.7349V13.7996C0 13.8761 -7.34546e-08 14.029 0.0758377 14.1055C0.151675 14.182 0.227513 14.2584 0.303351 14.3349L2.04762 15.329C2.12346 15.4055 2.27513 15.4055 2.35097 15.4055C2.42681 15.4055 2.57848 15.4055 2.65432 15.329L4.39859 14.3349C4.47443 14.2584 4.55026 14.182 4.6261 14.1055C4.70194 14.1055 4.70194 13.9526 4.70194 13.8761Z" fill="#08A835"/>
<path d="M10.4656 3.78192V1.71721C10.4656 1.64074 10.4656 1.4878 10.3898 1.41133C10.3139 1.33486 10.2381 1.25839 10.1623 1.18192L8.41799 0.187799C8.34216 0.111328 8.19048 0.111328 8.11464 0.111328C8.0388 0.111328 7.88713 0.111328 7.81129 0.187799L6.06702 1.18192C5.99119 1.25839 5.91535 1.33486 5.83951 1.41133C5.76367 1.4878 5.76367 1.64074 5.76367 1.71721V3.78192C5.76367 3.85839 5.76367 4.01133 5.83951 4.0878C5.91535 4.16427 5.99119 4.24074 6.06702 4.31721L7.81129 5.31133C7.88713 5.3878 8.0388 5.3878 8.11464 5.3878C8.19048 5.3878 8.34216 5.3878 8.41799 5.31133L10.1623 4.31721C10.2381 4.24074 10.3139 4.16427 10.3898 4.0878C10.4656 4.01133 10.4656 3.85839 10.4656 3.78192Z" fill="black"/>
</svg>
