<svg width="24" height="24" viewBox="0 0 24 24" fill="none" xmlns="http://www.w3.org/2000/svg">
<path fill-rule="evenodd" clip-rule="evenodd" d="M12 5.25C8.96243 5.25 6.5 7.71243 6.5 10.75C6.5 13.4235 7.90378 15.5547 9.3577 17.0433C10.0815 17.7844 10.8067 18.3544 11.351 18.7389C11.6202 18.929 11.844 19.073 12 19.1692C12.156 19.073 12.3798 18.929 12.649 18.7389C13.1933 18.3544 13.9185 17.7844 14.6423 17.0433C16.0962 15.5547 17.5 13.4235 17.5 10.75C17.5 7.71243 15.0376 5.25 12 5.25ZM12 19.75C11.7598 20.1885 11.7596 20.1884 11.7594 20.1883L11.7589 20.188L11.7575 20.1872L11.7529 20.1847L11.7375 20.1761C11.7244 20.1687 11.7057 20.1581 11.6819 20.1443C11.6343 20.1167 11.5661 20.0764 11.48 20.0234C11.308 19.9175 11.0648 19.761 10.774 19.5556C10.1933 19.1454 9.4185 18.5367 8.6423 17.742C7.09622 16.159 5.5 13.7902 5.5 10.75C5.5 7.16015 8.41015 4.25 12 4.25C15.5899 4.25 18.5 7.16015 18.5 10.75C18.5 13.7902 16.9038 16.159 15.3577 17.742C14.5815 18.5367 13.8067 19.1454 13.226 19.5556C12.9352 19.761 12.692 19.9175 12.52 20.0234C12.4339 20.0764 12.3657 20.1167 12.3181 20.1443C12.2943 20.1581 12.2756 20.1687 12.2625 20.1761L12.2471 20.1847L12.2425 20.1872L12.2411 20.188L12.2406 20.1883C12.2404 20.1884 12.2402 20.1885 12 19.75ZM12 19.75L12.2402 20.1885L12 20.3201L11.7598 20.1885L12 19.75ZM12 8.85C10.9507 8.85 10.1 9.70066 10.1 10.75C10.1 11.7993 10.9507 12.65 12 12.65C13.0493 12.65 13.9 11.7993 13.9 10.75C13.9 9.70066 13.0493 8.85 12 8.85ZM9.1 10.75C9.1 9.14837 10.3984 7.85 12 7.85C13.6016 7.85 14.9 9.14837 14.9 10.75C14.9 12.3516 13.6016 13.65 12 13.65C10.3984 13.65 9.1 12.3516 9.1 10.75Z" fill="#795BDA"/>
</svg>
