<svg width="31" height="24" viewBox="0 0 31 24" fill="none" xmlns="http://www.w3.org/2000/svg">
<path d="M6.09088 23.3502V21.7857C6.09088 21.1991 5.73887 20.8079 5.11308 20.8079C4.80018 20.8079 4.44818 20.9253 4.25262 21.2382C4.05706 20.9644 3.82239 20.8079 3.43127 20.8079C3.15749 20.8079 2.92281 20.8862 2.72725 21.16V20.8862H2.17969V23.3502H2.72725V21.9813C2.72725 21.5511 2.96193 21.3164 3.31393 21.3164C3.66594 21.3164 3.8615 21.5511 3.8615 21.9813V23.3502H4.40907V21.9813C4.40907 21.5511 4.68285 21.3164 4.99575 21.3164C5.34775 21.3164 5.54331 21.5511 5.54331 21.9813V23.3502H6.09088ZM14.1088 20.8862H13.2484V20.1039H12.7008V20.8862H12.1923V21.3946H12.7008V22.5289C12.7008 23.1155 12.9355 23.4284 13.5612 23.4284C13.7959 23.4284 14.0697 23.3502 14.2262 23.2329L14.0697 22.7635C13.9133 22.8809 13.7177 22.8809 13.6004 22.8809C13.3266 22.8809 13.2484 22.7244 13.2484 22.4506V21.3555H14.1088V20.8862ZM18.6849 20.8079C18.372 20.8079 18.1765 20.9644 18.02 21.16V20.8471H17.4724V23.3111H18.02V21.9031C18.02 21.4728 18.2156 21.2382 18.5285 21.2382C18.6458 21.2382 18.7631 21.2773 18.8805 21.2773L19.0369 20.7688C18.9587 20.8079 18.8022 20.8079 18.6849 20.8079ZM11.7621 21.0817C11.4883 20.8862 11.1363 20.8079 10.7452 20.8079C10.1194 20.8079 9.72828 21.1208 9.72828 21.5902C9.72828 22.0204 10.0412 22.2551 10.5887 22.2942L10.8625 22.3333C11.1363 22.3724 11.2928 22.4506 11.2928 22.6071C11.2928 22.8027 11.0972 22.92 10.7061 22.92C10.3541 22.92 10.0412 22.8027 9.88473 22.6462L9.61095 23.0764C9.88473 23.272 10.2759 23.3893 10.667 23.3893C11.371 23.3893 11.8012 23.0373 11.8012 22.6071C11.8012 22.1769 11.4492 21.9422 10.9408 21.864L10.667 21.8249C10.4323 21.7857 10.2367 21.7466 10.2367 21.5902C10.2367 21.3946 10.4323 21.3164 10.7061 21.3164C11.019 21.3164 11.3319 21.4337 11.4883 21.512L11.7621 21.0817ZM26.1553 20.8079C25.8424 20.8079 25.6468 20.9644 25.4904 21.16V20.8471H24.9428V23.3111H25.4904V21.9031C25.4904 21.4728 25.6859 21.2382 25.9988 21.2382C26.1162 21.2382 26.2335 21.2773 26.3508 21.2773L26.5073 20.7688C26.4291 20.8079 26.2726 20.8079 26.1553 20.8079ZM19.2325 22.0986C19.2325 22.8418 19.7409 23.3893 20.5623 23.3893C20.9143 23.3893 21.1881 23.3111 21.4227 23.1155L21.149 22.6853C20.9534 22.8418 20.7187 22.92 20.4841 22.92C20.0538 22.92 19.7409 22.6071 19.7409 22.1378C19.7409 21.6684 20.0538 21.3555 20.4841 21.3555C20.7187 21.3555 20.9143 21.4337 21.149 21.5902L21.4227 21.16C21.149 20.9644 20.9143 20.8862 20.5623 20.8862C19.7409 20.8079 19.2325 21.3555 19.2325 22.0986ZM24.2388 22.0986V20.8862H23.6912V21.1991C23.4957 20.9644 23.261 20.8471 22.909 20.8471C22.205 20.8471 21.6574 21.3946 21.6574 22.1378C21.6574 22.8809 22.205 23.4284 22.909 23.4284C23.261 23.4284 23.5348 23.3111 23.6912 23.0764V23.3893H24.2388V22.0986ZM22.2441 22.0986C22.2441 21.6684 22.5179 21.3164 22.9872 21.3164C23.4174 21.3164 23.7303 21.6684 23.7303 22.0986C23.7303 22.5289 23.4174 22.8809 22.9872 22.8809C22.557 22.8809 22.2441 22.5289 22.2441 22.0986ZM15.7906 20.8079C15.0866 20.8079 14.539 21.3164 14.539 22.0986C14.539 22.8809 15.0475 23.3893 15.7906 23.3893C16.1426 23.3893 16.4946 23.272 16.8075 23.0373L16.5338 22.6462C16.3382 22.8027 16.0644 22.92 15.8297 22.92C15.4777 22.92 15.1648 22.7635 15.0866 22.3333H16.9249C16.9249 22.2551 16.9249 22.216 16.9249 22.1378C16.964 21.3164 16.4946 20.8079 15.7906 20.8079ZM15.7906 21.2773C16.1426 21.2773 16.3773 21.4728 16.4164 21.864H15.1257C15.1648 21.5511 15.3995 21.2773 15.7906 21.2773ZM29.206 22.0986V19.8693H28.6584V21.16C28.4629 20.9253 28.2282 20.8079 27.8762 20.8079C27.1722 20.8079 26.6246 21.3555 26.6246 22.0986C26.6246 22.8418 27.1722 23.3893 27.8762 23.3893C28.2282 23.3893 28.502 23.272 28.6584 23.0373V23.3502H29.206V22.0986ZM27.2504 22.0986C27.2504 21.6684 27.5242 21.3164 27.9935 21.3164C28.4238 21.3164 28.7367 21.6684 28.7367 22.0986C28.7367 22.5289 28.4238 22.8809 27.9935 22.8809C27.5242 22.8809 27.2504 22.5289 27.2504 22.0986ZM9.14161 22.0986V20.8862H8.59404V21.1991C8.39848 20.9644 8.16381 20.8471 7.8118 20.8471C7.10779 20.8471 6.56022 21.3946 6.56022 22.1378C6.56022 22.8809 7.10779 23.4284 7.8118 23.4284C8.16381 23.4284 8.43759 23.3111 8.59404 23.0764V23.3893H9.14161V22.0986ZM7.10779 22.0986C7.10779 21.6684 7.38157 21.3164 7.85091 21.3164C8.28114 21.3164 8.59404 21.6684 8.59404 22.0986C8.59404 22.5289 8.28114 22.8809 7.85091 22.8809C7.42068 22.8809 7.10779 22.5289 7.10779 22.0986Z" fill="black"/>
<path d="M19.7017 2.073H11.5664V16.6617H19.7017V2.073Z" fill="#FF5A00"/>
<path d="M12.1141 9.34769C12.1141 6.37519 13.5221 3.75469 15.6342 2.03377C14.0697 0.782188 12.075 0.0390625 9.92382 0.0390625C4.80016 0.0390625 0.654297 4.18492 0.654297 9.30858C0.654297 14.4322 4.80016 18.5781 9.92382 18.5781C12.075 18.5781 14.0697 17.835 15.6342 16.5834C13.5221 14.9798 12.1141 12.3202 12.1141 9.34769Z" fill="#EB001B"/>
<path d="M30.6532 9.34774C30.6532 14.4714 26.5073 18.6173 21.3837 18.6173C19.2325 18.6173 17.2378 17.8741 15.6733 16.6226C17.8245 14.9016 19.1934 12.2811 19.1934 9.30863C19.1934 6.33613 17.7854 3.71563 15.6733 1.99471C17.2378 0.743127 19.2325 0 21.3837 0C26.5073 0.0782238 30.6532 4.2632 30.6532 9.34774Z" fill="#F79E1B"/>
</svg>
