<svg width="24" height="24" viewBox="0 0 24 24" fill="none" xmlns="http://www.w3.org/2000/svg">
<path d="M6.09319 20.0829C6.5226 20.0829 6.89927 19.9021 7.41908 19.4501L9.83733 17.2955C10.3948 17.8756 11.231 18.1844 12.2782 18.1844H14.8546L17.3633 20.339C17.8605 20.7609 18.2146 20.9944 18.6214 20.9944C19.2241 20.9944 19.5781 20.565 19.5781 19.9096V18.1844H19.9247C21.8231 18.1844 23.0887 17.0243 23.0887 15.0731V10.4701C23.0887 8.48884 21.8005 7.29855 19.8644 7.29855H18.5536V6.80887C18.5536 4.75977 17.2955 3.54688 15.2313 3.54688H4.23242C2.22852 3.54688 0.910156 4.75977 0.910156 6.80887V13.8602C0.910156 15.8792 2.20592 17.077 4.17215 17.077H5.12137V19.0056C5.12137 19.6685 5.48298 20.0829 6.09319 20.0829ZM6.46987 16.3387C6.46987 15.8867 6.19113 15.6532 5.81445 15.6532H4.41323C3.16267 15.6532 2.40932 14.9526 2.40932 13.6493V6.97461C2.40932 5.67132 3.1702 4.96317 4.41323 4.96317H15.043C16.2935 4.96317 17.0469 5.67132 17.0469 6.97461V7.29855H12.2782C10.2743 7.29855 9.05385 8.48884 9.05385 10.4701V15.0731C9.05385 15.3895 9.08398 15.6758 9.14425 15.947L6.46987 18.4481V16.3387ZM18.2372 19.3597L15.8792 17.2201C15.5477 16.9188 15.269 16.7832 14.8245 16.7832H12.4364C11.2536 16.7832 10.5379 16.1278 10.5379 14.8772V10.6133C10.5379 9.37779 11.2536 8.70731 12.4364 8.70731H19.6987C20.889 8.70731 21.6046 9.37779 21.6046 10.6133V14.8772C21.6046 16.1203 20.8814 16.7832 19.6987 16.7832H18.885C18.5159 16.7832 18.2372 17.0092 18.2372 17.4612V19.3597Z" fill="#795BDA"/>
</svg>
