<svg width="24" height="24" viewBox="0 0 24 24" fill="none" xmlns="http://www.w3.org/2000/svg">
<path d="M11.2731 4.21785C11.7142 3.92738 12.2858 3.92738 12.7269 4.21785L13.515 4.73682C13.753 4.89351 14.0351 4.96912 14.3195 4.9524L15.2615 4.897C15.7888 4.86599 16.2838 5.15183 16.5206 5.62393L16.9436 6.46741C17.0713 6.72207 17.2779 6.92865 17.5326 7.05637L18.3761 7.47939C18.8482 7.71615 19.134 8.21123 19.103 8.73847L19.0476 9.68045C19.0309 9.96485 19.1065 10.247 19.2632 10.485L19.7821 11.2731C20.0726 11.7142 20.0726 12.2858 19.7821 12.7269L19.2632 13.515C19.1065 13.753 19.0309 14.0351 19.0476 14.3195L19.103 15.2615C19.134 15.7888 18.8482 16.2838 18.3761 16.5206L17.5326 16.9436C17.2779 17.0713 17.0713 17.2779 16.9436 17.5326L16.5206 18.3761C16.2838 18.8482 15.7888 19.134 15.2615 19.103L14.3195 19.0476C14.0351 19.0309 13.753 19.1065 13.515 19.2632L12.7269 19.7821C12.2858 20.0726 11.7142 20.0726 11.2731 19.7821L10.485 19.2632C10.247 19.1065 9.96486 19.0309 9.68045 19.0476L8.73847 19.103C8.21123 19.134 7.71615 18.8482 7.47939 18.3761L7.05637 17.5326C6.92865 17.2779 6.72207 17.0713 6.46741 16.9436L5.62393 16.5206C5.15182 16.2838 4.86599 15.7888 4.897 15.2615L4.9524 14.3195C4.96912 14.0351 4.89351 13.753 4.73682 13.515L4.21785 12.7269C3.92738 12.2858 3.92738 11.7142 4.21785 11.2731L4.73682 10.485C4.89351 10.247 4.96912 9.96486 4.9524 9.68045L4.897 8.73847C4.86599 8.21123 5.15183 7.71615 5.62393 7.47939L6.46741 7.05637C6.72207 6.92865 6.92865 6.72207 7.05637 6.46741L7.47939 5.62393C7.71615 5.15183 8.21123 4.86599 8.73847 4.897L9.68045 4.9524C9.96485 4.96912 10.247 4.89351 10.485 4.73682L11.2731 4.21785Z" fill="#6843D1"/>
<path d="M9 11.6552L11.2174 14L15 10" stroke="white" stroke-width="1.5"/>
</svg>
