<svg width="24" height="24" viewBox="0 0 24 24" fill="none" xmlns="http://www.w3.org/2000/svg">
<path d="M11.3221 0.953162C11.7334 0.68228 12.2666 0.682279 12.6779 0.953161L13.86 1.73162C14.352 2.05555 14.9354 2.21188 15.5234 2.1773L16.9363 2.0942C17.428 2.06529 17.8897 2.33185 18.1105 2.77211L18.745 4.03734C19.0091 4.56384 19.4362 4.99093 19.9627 5.25497L21.2279 5.88949C21.6682 6.11029 21.9347 6.57199 21.9058 7.06367L21.8227 8.47665C21.7881 9.06463 21.9444 9.64804 22.2684 10.14L23.0468 11.3221C23.3177 11.7334 23.3177 12.2666 23.0468 12.6779L22.2684 13.86C21.9444 14.352 21.7881 14.9354 21.8227 15.5234L21.9058 16.9363C21.9347 17.428 21.6682 17.8897 21.2279 18.1105L19.9627 18.745C19.4362 19.0091 19.0091 19.4362 18.745 19.9627L18.1105 21.2279C17.8897 21.6682 17.428 21.9347 16.9363 21.9058L15.5234 21.8227C14.9354 21.7881 14.352 21.9444 13.86 22.2684L12.6779 23.0468C12.2666 23.3177 11.7334 23.3177 11.3221 23.0468L10.14 22.2684C9.64804 21.9444 9.06463 21.7881 8.47665 21.8227L7.06367 21.9058C6.57199 21.9347 6.11029 21.6682 5.88949 21.2279L5.25497 19.9627C4.99093 19.4362 4.56384 19.0091 4.03734 18.745L2.77211 18.1105C2.33185 17.8897 2.06529 17.428 2.0942 16.9363L2.1773 15.5234C2.21188 14.9354 2.05556 14.352 1.73162 13.86L0.953162 12.6779C0.68228 12.2666 0.682279 11.7334 0.953161 11.3221L1.73162 10.14C2.05555 9.64805 2.21188 9.06463 2.1773 8.47665L2.0942 7.06367C2.06529 6.57199 2.33185 6.11029 2.77211 5.88949L4.03734 5.25497C4.56383 4.99093 4.99093 4.56384 5.25497 4.03734L5.88949 2.77211C6.11029 2.33185 6.57199 2.06529 7.06367 2.0942L8.47665 2.1773C9.06463 2.21188 9.64805 2.05556 10.14 1.73162L11.3221 0.953162Z" stroke="#6843D1" stroke-width="1.5"/>
<path d="M8 11.4828L10.9565 15L16 9" stroke="#6843D1" stroke-width="1.5"/>
</svg>
