<svg width="24" height="24" viewBox="0 0 24 24" fill="none" xmlns="http://www.w3.org/2000/svg">
<path fill-rule="evenodd" clip-rule="evenodd" d="M8.60684 4.7506L6.58738 4.80922C5.35654 4.84495 4.54592 5.87528 4.79998 6.89226C5.51883 9.76974 7.00284 12.4952 9.25418 14.7465C11.5055 16.9979 14.231 18.4819 17.1085 19.2007C18.1254 19.4548 19.1558 18.6442 19.1915 17.4133L19.2501 15.3939C18.0259 15.2028 16.8236 14.8333 15.6853 14.2851L14.4603 16.0852C14.2397 16.4093 13.8068 16.5089 13.4668 16.3137C12.2958 15.6415 11.1938 14.8054 10.1945 13.8062C9.1953 12.8069 8.35922 11.7049 7.68698 10.5339C7.49182 10.1939 7.5914 9.76099 7.91548 9.54045L9.71561 8.31543C9.16741 7.17715 8.79792 5.97484 8.60684 4.7506ZM8.58378 3.25064C9.35752 3.22817 9.97731 3.80415 10.0888 4.51893C10.2576 5.60015 10.5837 6.66108 11.0672 7.66479C11.3757 8.30533 11.2051 9.11621 10.5762 9.54419L9.34801 10.38C9.88582 11.2178 10.5214 12.0117 11.2552 12.7455C11.989 13.4793 12.7829 14.1149 13.6208 14.6527L14.4565 13.4246C14.8845 12.7956 15.6954 12.6251 16.3359 12.9336C17.3396 13.417 18.4006 13.7432 19.4818 13.9119C20.1966 14.0234 20.7725 14.6432 20.7501 15.4169L20.6909 17.4569C20.6328 19.4579 18.8647 21.1856 16.7449 20.656C13.611 19.8731 10.6425 18.2561 8.19352 15.8072C5.74457 13.3582 4.12762 10.3898 3.34471 7.25581C2.81513 5.13598 4.54285 3.36794 6.54386 3.30985L8.58378 3.25064Z" fill="#222B40"/>
</svg>
