<svg width="24" height="24" viewBox="0 0 24 24" fill="none" xmlns="http://www.w3.org/2000/svg">
<path fill-rule="evenodd" clip-rule="evenodd" d="M5.69594 11.5H7.93708C7.95135 11.0818 7.98342 10.6739 8.03184 10.2803C7.63574 10.3826 7.27398 10.5043 6.95432 10.6413C6.44848 10.8581 6.07107 11.1034 5.82738 11.3503C5.77701 11.4013 5.73341 11.4513 5.69594 11.5ZM9.06999 10.07C9.00149 10.5208 8.95602 11.0002 8.93769 11.5H10.5V9.93769C10.0002 9.95602 9.52085 10.0015 9.06999 10.07ZM10.5 8.93707C10.0818 8.95135 9.67385 8.98342 9.28029 9.03184C9.38262 8.63574 9.5043 8.27398 9.6413 7.95432C9.85809 7.44848 10.1034 7.07107 10.3503 6.82738C10.4013 6.77701 10.4513 6.73341 10.5 6.69594V8.93707ZM11.5 9.93769V11.5H13.0623C13.044 11.0002 12.9985 10.5208 12.93 10.07C12.4792 10.0015 11.9998 9.95602 11.5 9.93769ZM12.7197 9.03184C12.3261 8.98342 11.9182 8.95135 11.5 8.93707V6.69594C11.5487 6.73341 11.5987 6.77701 11.6497 6.82738C11.8966 7.07107 12.1419 7.44848 12.3587 7.95432C12.4957 8.27398 12.6174 8.63574 12.7197 9.03184ZM13.9682 10.2803C14.0166 10.6739 14.0486 11.0818 14.0629 11.5H16.3041C16.2666 11.4513 16.223 11.4013 16.1726 11.3503C15.9289 11.1034 15.5515 10.8581 15.0457 10.6413C14.726 10.5043 14.3643 10.3826 13.9682 10.2803ZM16.3041 12.5H14.0629C14.0486 12.9182 14.0166 13.3261 13.9682 13.7197C14.3643 13.6174 14.726 13.4957 15.0457 13.3587C15.5515 13.1419 15.9289 12.8966 16.1726 12.6497C16.223 12.5987 16.2666 12.5487 16.3041 12.5ZM12.93 13.93C12.9985 13.4792 13.044 12.9998 13.0623 12.5H11.5V14.0623C11.9998 14.044 12.4792 13.9985 12.93 13.93ZM11.5 15.0629C11.9182 15.0486 12.3261 15.0166 12.7197 14.9682C12.6174 15.3643 12.4957 15.726 12.3587 16.0457C12.1419 16.5515 11.8966 16.9289 11.6497 17.1726C11.5987 17.223 11.5487 17.2666 11.5 17.3041V15.0629ZM10.5 14.0623V12.5H8.93769C8.95602 12.9998 9.00149 13.4792 9.06999 13.93C9.52085 13.9985 10.0002 14.044 10.5 14.0623ZM9.28029 14.9682C9.67385 15.0166 10.0818 15.0486 10.5 15.0629V17.3041C10.4513 17.2666 10.4013 17.223 10.3503 17.1726C10.1034 16.9289 9.85809 16.5515 9.6413 16.0457C9.5043 15.726 9.38262 15.3643 9.28029 14.9682ZM8.03184 13.7197C7.98342 13.3261 7.95135 12.9182 7.93708 12.5H5.69594C5.73341 12.5487 5.77701 12.5987 5.82738 12.6497C6.07107 12.8966 6.44848 13.1419 6.95432 13.3587C7.27398 13.4957 7.63574 13.6174 8.03184 13.7197ZM5.8416 13.9124C6.06237 14.046 6.30367 14.1678 6.5604 14.2778C7.04581 14.4859 7.6025 14.6586 8.21077 14.7892C8.34138 15.3975 8.51412 15.9542 8.72215 16.4396C8.83218 16.6963 8.95401 16.9376 9.08759 17.1584C7.58844 16.6024 6.3976 15.4116 5.8416 13.9124ZM5.8416 10.0876C6.06237 9.95401 6.30367 9.83218 6.5604 9.72215C7.04581 9.51412 7.6025 9.34138 8.21077 9.21077C8.34138 8.6025 8.51412 8.04581 8.72215 7.5604C8.83218 7.30367 8.95401 7.06237 9.08759 6.8416C7.58844 7.3976 6.3976 8.58844 5.8416 10.0876ZM11 5.5C7.41015 5.5 4.5 8.41015 4.5 12C4.5 15.5899 7.41015 18.5 11 18.5C14.5899 18.5 17.5 15.5899 17.5 12C17.5 8.41015 14.5899 5.5 11 5.5ZM12.9124 6.8416C13.046 7.06237 13.1678 7.30367 13.2778 7.5604C13.4859 8.04581 13.6586 8.6025 13.7892 9.21077C14.3975 9.34138 14.9542 9.51412 15.4396 9.72215C15.6963 9.83218 15.9376 9.95401 16.1584 10.0876C15.6024 8.58844 14.4116 7.3976 12.9124 6.8416ZM16.1584 13.9124C15.9376 14.046 15.6963 14.1678 15.4396 14.2778C14.9542 14.4859 14.3975 14.6586 13.7892 14.7892C13.6586 15.3975 13.4859 15.9542 13.2778 16.4396C13.1678 16.6963 13.046 16.9376 12.9124 17.1584C14.4116 16.6024 15.6024 15.4116 16.1584 13.9124Z" fill="#795BDA"/>
</svg>
