<svg aria-hidden="true" style="position: absolute; width: 0; height: 0; overflow: hidden;" version="1.1" xmlns="http://www.w3.org/2000/svg" xmlns:xlink="http://www.w3.org/1999/xlink">
<defs>
<symbol id="Layer_1" viewBox="0 0 182 32">
<path fill="#795bda" style="fill: var(--color1, #795bda)" d="M47.663 0.993c-0.063 6.489-1.055 12.723-2.849 18.607l0.122-0.466c-0.155-2.677-0.437-5.134-0.847-7.547l0.056 0.399c-0.377-2.727-1.071-5.193-2.056-7.506l0.072 0.191c-0.67-1.619-1.876-2.904-3.392-3.658l-0.041-0.018c-0.642-0.27-1.388-0.427-2.171-0.427-0.036 0-0.072 0-0.107 0.001l0.005-0c-0.023-0-0.049-0-0.076-0-1.25 0-2.439 0.266-3.511 0.744l0.055-0.022c2.897 5.409 7.19 18.394 7.19 22.387 0 1.229-0.41 2.116-1.524 2.492-0.666 0.182-1.43 0.286-2.219 0.286-0.238 0-0.474-0.009-0.707-0.028l0.031 0.002c-1.652 0-3.1 1.22-3.1 3.718 1.4 0.796 3.075 1.265 4.86 1.265 2.42 0 4.638-0.862 6.364-2.296l-0.016 0.013c6.447-5.366 10.417-19.788 10.417-28.165l-6.554 0.029zM80.297 15.661c0-7.735-10.458-6.298-10.458-9.171 0-0.888 1.030-1.445 2.767-1.445 2.214 0.108 4.393 0.595 6.447 1.444l0.084-4.607c-2.099-0.805-4.528-1.271-7.065-1.271-0.016 0-0.033 0-0.049 0h0.003c-5.042 0-8.602 2.282-8.602 6.766 0 7.569 10.254 5.836 10.254 9.006 0 1.315-1.737 1.907-3.805 1.907-2.386-0.057-4.624-0.63-6.627-1.61l0.094 0.042 0.333 4.333c1.115 0.722 4.343 1.777 7.731 1.777 5.129-0.064 8.892-2.513 8.892-7.171zM92.938 22.766c6.413 0 8.355-3.676 8.355-5.834-0.006-0.562-0.112-1.097-0.3-1.592l0.011 0.032c-0.726 0.828-1.618 1.492-2.627 1.942l-0.048 0.019c-0.876 0.393-1.899 0.622-2.975 0.622-0.092 0-0.183-0.002-0.274-0.005l0.013 0c-2.691 0-5.544-1.14-5.911-5.286h12.571c0.128-0.841 0.196-1.69 0.205-2.542 0-4.86-2.733-9.554-9.096-9.554-6.166 0-10.593 4.442-10.593 11.122-0.036 5.531 2.98 11.077 10.67 11.077zM95.715 9.044h-6.66c0-1.984 1.201-3.805 3.474-3.805 0.431-0.019 0.86 0.055 1.262 0.218 0.401 0.163 0.763 0.41 1.062 0.724 0.302 0.316 0.534 0.694 0.682 1.107s0.209 0.855 0.179 1.295v0.461zM104.435 0.973s0.458 3.676 0.458 15.050v6.304h6.738v-11.693c0-2.282 0.911-4.608 3.636-4.608 2.317 0 2.825 1.69 2.825 3.466v12.856h6.746v-14.257c0-4.564-2.487-7.525-6.993-7.525-0.081-0.003-0.177-0.005-0.273-0.005-1.339 0-2.595 0.358-3.677 0.983l0.035-0.019c-1.207 0.696-2.179 1.676-2.846 2.853l-0.020 0.038c-0.924-3.084-4.518-3.423-6.63-3.423v-0.020zM144.689 15.64c0-7.735-10.459-6.298-10.459-9.171 0-0.888 1.032-1.445 2.769-1.445 2.213 0.106 4.393 0.595 6.447 1.445l0.086-4.608c-2.1-0.805-4.528-1.271-7.066-1.271-0.016 0-0.032 0-0.048 0h0.002c-5.043 0-8.602 2.282-8.602 6.767 0 7.567 10.254 5.834 10.254 9.005 0 1.315-1.738 1.907-3.8 1.907-2.385-0.056-4.624-0.628-6.626-1.61l0.094 0.041 0.325 4.333c1.115 0.722 4.343 1.777 7.732 1.777 5.106-0.044 8.87-2.491 8.87-7.149l0.020-0.022zM157.055 22.746c6.406 0 8.348-3.675 8.348-5.834-0.006-0.562-0.112-1.097-0.3-1.592l0.011 0.032c-0.725 0.83-1.617 1.495-2.626 1.946l-0.048 0.019c-0.873 0.391-1.893 0.619-2.965 0.619-0.096 0-0.191-0.002-0.286-0.005l0.014 0c-2.684 0-5.537-1.142-5.911-5.286h12.57c0.129-0.842 0.197-1.692 0.205-2.543 0-4.86-2.725-9.554-9.096-9.554-6.158 0-10.628 4.442-10.628 11.122 0.006 5.553 3 11.099 10.692 11.099l0.020-0.022zM159.823 9.024h-6.66c0-1.984 1.201-3.804 3.475-3.804 0.43-0.020 0.86 0.054 1.261 0.216s0.763 0.41 1.064 0.724c0.537 0.568 0.868 1.337 0.868 2.183 0 0.077-0.003 0.153-0.008 0.229l0.001-0.010v0.463zM0 0.995s0.46 3.676 0.46 15.050v6.304h6.765v-11.715c0-2.246 0.58-4.608 3.059-4.608 2.195 0 2.563 1.814 2.563 3.466v12.856h6.746v-12.054c0-2.116 0.704-4.269 3.057-4.269 2.189 0 2.564 1.814 2.564 3.466v12.856h6.73v-14.257c0-4.564-2.118-7.525-6.49-7.525-3.264 0-5.65 1.654-6.653 3.892-0.579-2.202-2.564-3.891-5.65-3.891-3.085 0-5.536 1.69-6.49 3.848-0.954-3.084-4.548-3.423-6.66-3.423z"></path>
<path fill="#ff5c8d" style="fill: var(--color2, #ff5c8d)" d="M173.038 15.213c0.609 0.212 1.157 0.579 1.592 1.065 0.434 0.486 0.741 1.075 0.893 1.715 0.621-0.507 1.416-0.823 2.283-0.847l0.005-0c0.029-0.001 0.062-0.001 0.096-0.001 0.839 0 1.615 0.273 2.243 0.734l-0.011-0.007c0.678 0.494 1.183 1.198 1.436 2.010 0.117 0.359 0.184 0.772 0.184 1.201 0 0.461-0.078 0.903-0.221 1.316l0.008-0.028c-1.032 3.077-6.589 4.378-9.117 4.659-1.71-1.885-5.361-6.182-4.287-9.389 0.164-0.489 0.421-0.941 0.756-1.327 0.334-0.388 0.741-0.704 1.196-0.931 0.492-0.25 1.072-0.397 1.687-0.397 0.45 0 0.881 0.078 1.281 0.222l-0.026-0.008z"></path>
</symbol>

<symbol id="Arrow" viewBox="0 0 11 6" fill="none">
<path d="M1 1L5.5 5L10 1" stroke="#222B40" stroke-opacity="0.4"/>
</symbol>

<symbol id="close_40px" viewBox="0 0 32 32">
<path d="M23.734 10.304l-1.504-1.504-5.963 5.962-5.962-5.962-1.504 1.504 5.962 5.962-5.962 5.963 1.504 1.504 5.962-5.963 5.963 5.963 1.504-1.504-5.963-5.963 5.963-5.962z"></path>
</symbol>

<symbol id="menu_40px" viewBox="0 0 32 32">
<path d="M6.4 11.734v-2.134h19.2v2.134h-19.2zM6.4 17.066h19.2v-2.133h-19.2v2.133zM6.4 22.4h19.2v-2.134h-19.2v2.134z"></path>
</symbol>

<symbol id="menu_40px" viewBox="0 0 34 32">
<path stroke-linejoin="miter" stroke-linecap="butt" stroke-miterlimit="4" stroke-width="2.8235" d="M0 2.931h33.882M0 16.107h33.882M0 29.284h33.882"></path>
</symbol>

<symbol id="menu" viewBox="0 0 18 17">
<path d="M0 1.55664H18" stroke="#222B40" stroke-width="1.5"/>
<path d="M0 8.55664H18" stroke="#222B40" stroke-width="1.5"/>
<path d="M0 15.5566L18 15.5566" stroke="#222B40" stroke-width="1.5"/>
</symbol>

<symbol id="login" viewBox="0 0 24 32">
<path fill="none" stroke="#795bda" style="stroke: var(--color1, #795bda)" stroke-linejoin="round" stroke-linecap="butt" stroke-miterlimit="4" stroke-width="3" d="M0 16h12M12 16l-6-6M12 16l-6 6"></path>
<path fill="none" stroke="#795bda" style="stroke: var(--color1, #795bda)" stroke-linejoin="miter" stroke-linecap="butt" stroke-miterlimit="4" stroke-width="3" d="M4 2h14c2.209 0 4 1.791 4 4v20c0 2.209-1.791 4-4 4h-14"></path>
</symbol>

<symbol id="icon-telegram" viewBox="0 0 37 32">
<path d="M35.048 0c0.283-0.006 0.909 0.068 1.317 0.415 0.271 0.246 0.444 0.59 0.484 0.963 0.045 0.276 0.102 0.907 0.057 1.399-0.51 5.624-2.725 19.266-3.853 25.563-0.476 2.667-1.414 3.559-2.323 3.645-1.972 0.193-3.471-1.363-5.383-2.673-2.992-2.053-4.683-3.33-7.587-5.334-3.357-2.311-1.181-3.585 0.731-5.659 0.502-0.545 9.2-8.821 9.37-9.571 0.020-0.095 0.040-0.444-0.159-0.628s-0.493-0.121-0.705-0.071c-0.3 0.071-5.080 3.378-14.339 9.911-1.36 0.978-2.587 1.452-3.689 1.422-1.213-0.024-3.547-0.714-5.284-1.304-2.131-0.726-3.822-1.108-3.675-2.338 0.076-0.64 0.921-1.295 2.53-1.964 9.911-4.516 16.518-7.494 19.827-8.931 9.44-4.107 11.404-4.821 12.682-4.845z"></path>
</symbol>
<symbol id="icon-instagram" viewBox="0 0 32 32">
<path d="M16 0c-4.347 0-4.889 0.020-6.596 0.096-1.704 0.080-2.864 0.348-3.884 0.744-1.052 0.408-1.945 0.956-2.835 1.845s-1.439 1.781-1.845 2.835c-0.396 1.020-0.665 2.18-0.744 3.884-0.080 1.707-0.096 2.249-0.096 6.596s0.020 4.889 0.096 6.596c0.080 1.703 0.348 2.864 0.744 3.884 0.408 1.051 0.956 1.945 1.845 2.835 0.889 0.888 1.781 1.439 2.835 1.845 1.021 0.395 2.181 0.665 3.884 0.744 1.707 0.080 2.249 0.096 6.596 0.096s4.889-0.020 6.596-0.096c1.703-0.080 2.864-0.349 3.884-0.744 1.051-0.408 1.945-0.957 2.835-1.845 0.888-0.889 1.439-1.78 1.845-2.835 0.395-1.020 0.665-2.181 0.744-3.884 0.080-1.707 0.096-2.249 0.096-6.596s-0.020-4.889-0.096-6.596c-0.080-1.703-0.349-2.865-0.744-3.884-0.408-1.052-0.957-1.945-1.845-2.835-0.889-0.889-1.78-1.439-2.835-1.845-1.020-0.396-2.181-0.665-3.884-0.744-1.707-0.080-2.249-0.096-6.596-0.096zM16 2.88c4.271 0 4.78 0.021 6.467 0.095 1.56 0.073 2.407 0.332 2.969 0.553 0.749 0.289 1.28 0.636 1.843 1.195 0.559 0.56 0.905 1.092 1.195 1.841 0.218 0.563 0.48 1.409 0.551 2.969 0.076 1.688 0.093 2.195 0.093 6.467s-0.020 4.78-0.099 6.467c-0.081 1.56-0.341 2.407-0.561 2.969-0.299 0.749-0.639 1.28-1.199 1.843-0.559 0.559-1.099 0.905-1.84 1.195-0.56 0.218-1.42 0.48-2.98 0.551-1.698 0.076-2.199 0.093-6.479 0.093-4.281 0-4.781-0.020-6.479-0.099-1.561-0.081-2.421-0.341-2.981-0.561-0.759-0.299-1.28-0.639-1.839-1.199-0.561-0.559-0.92-1.099-1.2-1.84-0.22-0.56-0.479-1.42-0.56-2.98-0.060-1.68-0.081-2.199-0.081-6.459 0-4.261 0.021-4.781 0.081-6.481 0.081-1.56 0.34-2.419 0.56-2.979 0.28-0.76 0.639-1.28 1.2-1.841 0.559-0.559 1.080-0.919 1.839-1.197 0.56-0.221 1.401-0.481 2.961-0.561 1.7-0.060 2.2-0.080 6.479-0.080l0.060 0.040zM16 7.784c-4.54 0-8.216 3.68-8.216 8.216 0 4.54 3.68 8.216 8.216 8.216 4.54 0 8.216-3.68 8.216-8.216 0-4.54-3.68-8.216-8.216-8.216zM16 21.333c-2.947 0-5.333-2.387-5.333-5.333s2.387-5.333 5.333-5.333c2.947 0 5.333 2.387 5.333 5.333s-2.387 5.333-5.333 5.333zM26.461 7.46c0 1.060-0.861 1.92-1.92 1.92-1.060 0-1.92-0.861-1.92-1.92s0.861-1.919 1.92-1.919c1.057-0.001 1.92 0.86 1.92 1.919z"></path>
</symbol>
<symbol id="icon-facebook" viewBox="0 0 32 32">
<path d="M32 16.097c0-8.89-7.164-16.097-16-16.097s-16 7.208-16 16.097c0 8.035 5.851 14.694 13.5 15.901v-11.248h-4.063v-4.655h4.063v-3.544c0-4.034 2.389-6.263 6.044-6.263 1.749 0 3.581 0.315 3.581 0.315v3.961h-2.019c-1.988 0-2.608 1.241-2.608 2.514v3.018h4.437l-0.709 4.655h-3.728v11.248c7.651-1.209 13.501-7.869 13.501-15.903z"></path>
</symbol>
<symbol id="icon-sign-in" viewBox="0 0 24 32">
<path fill="none" stroke="#795bda" style="stroke: var(--color1, #795bda)" stroke-linejoin="round" stroke-linecap="butt" stroke-miterlimit="4" stroke-width="3" d="M0 16h12M12 16l-6-6M12 16l-6 6"></path>
<path fill="none" stroke="#795bda" style="stroke: var(--color1, #795bda)" stroke-linejoin="miter" stroke-linecap="butt" stroke-miterlimit="4" stroke-width="3" d="M4 2h14c2.209 0 4 1.791 4 4v20c0 2.209-1.791 4-4 4h-14"></path>
</symbol>

<symbol id="test" viewBox="0 0 14 14">
<path d="M0.5 7H12.5M12.5 7L6.5 13M12.5 7L6.5 1" stroke="white" stroke-width="1.5"/>
</symbol>

<symbol id="icon-love-heart" viewBox="0 0 37 32">
<path fill="#ff5c8d" style="fill: var(--color1, #ff5c8d)" d="M13.755 0.611c1.706 0.595 3.152 1.566 4.294 2.818l0.007 0.008c1.173 1.291 2.008 2.859 2.419 4.56 1.754-1.404 4.005-2.252 6.454-2.252 2.261 0 4.352 0.723 6.057 1.951l-0.031-0.021c1.809 1.304 3.168 3.133 3.862 5.262l0.021 0.074c0.314 0.952 0.495 2.048 0.495 3.186 0 1.227-0.211 2.406-0.597 3.501l0.023-0.074c-2.784 8.173-17.808 11.627-24.643 12.376-4.621-5.008-14.488-16.427-11.589-24.944 0.925-2.648 2.805-4.763 5.217-5.973l0.060-0.027c1.33-0.665 2.897-1.055 4.556-1.055 1.217 0 2.384 0.21 3.469 0.595l-0.072-0.022z"></path>
</symbol>

</defs>
</svg>
