<svg aria-hidden="true" style="position: absolute; width: 0; height: 0; overflow: hidden;" version="1.1" xmlns="http://www.w3.org/2000/svg" xmlns:xlink="http://www.w3.org/1999/xlink">
<defs>
<symbol id="Layer_1" viewBox="0 0 182 32">
<path fill="#795bda" style="fill: var(--color1, #795bda)" d="M47.663 0.993c-0.063 6.489-1.055 12.723-2.849 18.607l0.122-0.466c-0.155-2.677-0.437-5.134-0.847-7.547l0.056 0.399c-0.377-2.727-1.071-5.193-2.056-7.506l0.072 0.191c-0.67-1.619-1.876-2.904-3.392-3.658l-0.041-0.018c-0.642-0.27-1.388-0.427-2.171-0.427-0.036 0-0.072 0-0.107 0.001l0.005-0c-0.023-0-0.049-0-0.076-0-1.25 0-2.439 0.266-3.511 0.744l0.055-0.022c2.897 5.409 7.19 18.394 7.19 22.387 0 1.229-0.41 2.116-1.524 2.492-0.666 0.182-1.43 0.286-2.219 0.286-0.238 0-0.474-0.009-0.707-0.028l0.031 0.002c-1.652 0-3.1 1.22-3.1 3.718 1.4 0.796 3.075 1.265 4.86 1.265 2.42 0 4.638-0.862 6.364-2.296l-0.016 0.013c6.447-5.366 10.417-19.788 10.417-28.165l-6.554 0.029zM80.297 15.661c0-7.735-10.458-6.298-10.458-9.171 0-0.888 1.030-1.445 2.767-1.445 2.214 0.108 4.393 0.595 6.447 1.444l0.084-4.607c-2.099-0.805-4.528-1.271-7.065-1.271-0.016 0-0.033 0-0.049 0h0.003c-5.042 0-8.602 2.282-8.602 6.766 0 7.569 10.254 5.836 10.254 9.006 0 1.315-1.737 1.907-3.805 1.907-2.386-0.057-4.624-0.63-6.627-1.61l0.094 0.042 0.333 4.333c1.115 0.722 4.343 1.777 7.731 1.777 5.129-0.064 8.892-2.513 8.892-7.171zM92.938 22.766c6.413 0 8.355-3.676 8.355-5.834-0.006-0.562-0.112-1.097-0.3-1.592l0.011 0.032c-0.726 0.828-1.618 1.492-2.627 1.942l-0.048 0.019c-0.876 0.393-1.899 0.622-2.975 0.622-0.092 0-0.183-0.002-0.274-0.005l0.013 0c-2.691 0-5.544-1.14-5.911-5.286h12.571c0.128-0.841 0.196-1.69 0.205-2.542 0-4.86-2.733-9.554-9.096-9.554-6.166 0-10.593 4.442-10.593 11.122-0.036 5.531 2.98 11.077 10.67 11.077zM95.715 9.044h-6.66c0-1.984 1.201-3.805 3.474-3.805 0.431-0.019 0.86 0.055 1.262 0.218 0.401 0.163 0.763 0.41 1.062 0.724 0.302 0.316 0.534 0.694 0.682 1.107s0.209 0.855 0.179 1.295v0.461zM104.435 0.973s0.458 3.676 0.458 15.050v6.304h6.738v-11.693c0-2.282 0.911-4.608 3.636-4.608 2.317 0 2.825 1.69 2.825 3.466v12.856h6.746v-14.257c0-4.564-2.487-7.525-6.993-7.525-0.081-0.003-0.177-0.005-0.273-0.005-1.339 0-2.595 0.358-3.677 0.983l0.035-0.019c-1.207 0.696-2.179 1.676-2.846 2.853l-0.020 0.038c-0.924-3.084-4.518-3.423-6.63-3.423v-0.020zM144.689 15.64c0-7.735-10.459-6.298-10.459-9.171 0-0.888 1.032-1.445 2.769-1.445 2.213 0.106 4.393 0.595 6.447 1.445l0.086-4.608c-2.1-0.805-4.528-1.271-7.066-1.271-0.016 0-0.032 0-0.048 0h0.002c-5.043 0-8.602 2.282-8.602 6.767 0 7.567 10.254 5.834 10.254 9.005 0 1.315-1.738 1.907-3.8 1.907-2.385-0.056-4.624-0.628-6.626-1.61l0.094 0.041 0.325 4.333c1.115 0.722 4.343 1.777 7.732 1.777 5.106-0.044 8.87-2.491 8.87-7.149l0.020-0.022zM157.055 22.746c6.406 0 8.348-3.675 8.348-5.834-0.006-0.562-0.112-1.097-0.3-1.592l0.011 0.032c-0.725 0.83-1.617 1.495-2.626 1.946l-0.048 0.019c-0.873 0.391-1.893 0.619-2.965 0.619-0.096 0-0.191-0.002-0.286-0.005l0.014 0c-2.684 0-5.537-1.142-5.911-5.286h12.57c0.129-0.842 0.197-1.692 0.205-2.543 0-4.86-2.725-9.554-9.096-9.554-6.158 0-10.628 4.442-10.628 11.122 0.006 5.553 3 11.099 10.692 11.099l0.020-0.022zM159.823 9.024h-6.66c0-1.984 1.201-3.804 3.475-3.804 0.43-0.020 0.86 0.054 1.261 0.216s0.763 0.41 1.064 0.724c0.537 0.568 0.868 1.337 0.868 2.183 0 0.077-0.003 0.153-0.008 0.229l0.001-0.010v0.463zM0 0.995s0.46 3.676 0.46 15.050v6.304h6.765v-11.715c0-2.246 0.58-4.608 3.059-4.608 2.195 0 2.563 1.814 2.563 3.466v12.856h6.746v-12.054c0-2.116 0.704-4.269 3.057-4.269 2.189 0 2.564 1.814 2.564 3.466v12.856h6.73v-14.257c0-4.564-2.118-7.525-6.49-7.525-3.264 0-5.65 1.654-6.653 3.892-0.579-2.202-2.564-3.891-5.65-3.891-3.085 0-5.536 1.69-6.49 3.848-0.954-3.084-4.548-3.423-6.66-3.423z"></path>
<path fill="#ff5c8d" style="fill: var(--color2, #ff5c8d)" d="M173.038 15.213c0.609 0.212 1.157 0.579 1.592 1.065 0.434 0.486 0.741 1.075 0.893 1.715 0.621-0.507 1.416-0.823 2.283-0.847l0.005-0c0.029-0.001 0.062-0.001 0.096-0.001 0.839 0 1.615 0.273 2.243 0.734l-0.011-0.007c0.678 0.494 1.183 1.198 1.436 2.010 0.117 0.359 0.184 0.772 0.184 1.201 0 0.461-0.078 0.903-0.221 1.316l0.008-0.028c-1.032 3.077-6.589 4.378-9.117 4.659-1.71-1.885-5.361-6.182-4.287-9.389 0.164-0.489 0.421-0.941 0.756-1.327 0.334-0.388 0.741-0.704 1.196-0.931 0.492-0.25 1.072-0.397 1.687-0.397 0.45 0 0.881 0.078 1.281 0.222l-0.026-0.008z"></path>
</symbol>

<symbol id="Arrow" viewBox="0 0 11 6" fill="none">
<path d="M1 1L5.5 5L10 1" stroke="#222B40" stroke-opacity="0.4"/>
</symbol>

<symbol id="close_40px" viewBox="0 0 32 32">
<path d="M23.734 10.304l-1.504-1.504-5.963 5.962-5.962-5.962-1.504 1.504 5.962 5.962-5.962 5.963 1.504 1.504 5.962-5.963 5.963 5.963 1.504-1.504-5.963-5.963 5.963-5.962z"></path>
</symbol>

<symbol id="menu_40px" viewBox="0 0 32 32">
<path d="M6.4 11.734v-2.134h19.2v2.134h-19.2zM6.4 17.066h19.2v-2.133h-19.2v2.133zM6.4 22.4h19.2v-2.134h-19.2v2.134z"></path>
</symbol>

<symbol id="menu_40px" viewBox="0 0 34 32">
<path stroke-linejoin="miter" stroke-linecap="butt" stroke-miterlimit="4" stroke-width="2.8235" d="M0 2.931h33.882M0 16.107h33.882M0 29.284h33.882"></path>
</symbol>

<symbol id="menu" viewBox="0 0 18 17">
<path d="M0 1.55664H18" stroke="#222B40" stroke-width="1.5"/>
<path d="M0 8.55664H18" stroke="#222B40" stroke-width="1.5"/>
<path d="M0 15.5566L18 15.5566" stroke="#222B40" stroke-width="1.5"/>
</symbol>

<symbol id="login" viewBox="0 0 24 32">
<path fill="none" stroke="#795bda" style="stroke: var(--color1, #795bda)" stroke-linejoin="round" stroke-linecap="butt" stroke-miterlimit="4" stroke-width="3" d="M0 16h12M12 16l-6-6M12 16l-6 6"></path>
<path fill="none" stroke="#795bda" style="stroke: var(--color1, #795bda)" stroke-linejoin="miter" stroke-linecap="butt" stroke-miterlimit="4" stroke-width="3" d="M4 2h14c2.209 0 4 1.791 4 4v20c0 2.209-1.791 4-4 4h-14"></path>
</symbol>

<symbol id="icon-telegram" viewBox="0 0 37 32">
<path d="M35.048 0c0.283-0.006 0.909 0.068 1.317 0.415 0.271 0.246 0.444 0.59 0.484 0.963 0.045 0.276 0.102 0.907 0.057 1.399-0.51 5.624-2.725 19.266-3.853 25.563-0.476 2.667-1.414 3.559-2.323 3.645-1.972 0.193-3.471-1.363-5.383-2.673-2.992-2.053-4.683-3.33-7.587-5.334-3.357-2.311-1.181-3.585 0.731-5.659 0.502-0.545 9.2-8.821 9.37-9.571 0.020-0.095 0.040-0.444-0.159-0.628s-0.493-0.121-0.705-0.071c-0.3 0.071-5.080 3.378-14.339 9.911-1.36 0.978-2.587 1.452-3.689 1.422-1.213-0.024-3.547-0.714-5.284-1.304-2.131-0.726-3.822-1.108-3.675-2.338 0.076-0.64 0.921-1.295 2.53-1.964 9.911-4.516 16.518-7.494 19.827-8.931 9.44-4.107 11.404-4.821 12.682-4.845z"></path>
</symbol>
<symbol id="icon-instagram" viewBox="0 0 32 32">
<path d="M16 0c-4.347 0-4.889 0.020-6.596 0.096-1.704 0.080-2.864 0.348-3.884 0.744-1.052 0.408-1.945 0.956-2.835 1.845s-1.439 1.781-1.845 2.835c-0.396 1.020-0.665 2.18-0.744 3.884-0.080 1.707-0.096 2.249-0.096 6.596s0.020 4.889 0.096 6.596c0.080 1.703 0.348 2.864 0.744 3.884 0.408 1.051 0.956 1.945 1.845 2.835 0.889 0.888 1.781 1.439 2.835 1.845 1.021 0.395 2.181 0.665 3.884 0.744 1.707 0.080 2.249 0.096 6.596 0.096s4.889-0.020 6.596-0.096c1.703-0.080 2.864-0.349 3.884-0.744 1.051-0.408 1.945-0.957 2.835-1.845 0.888-0.889 1.439-1.78 1.845-2.835 0.395-1.020 0.665-2.181 0.744-3.884 0.080-1.707 0.096-2.249 0.096-6.596s-0.020-4.889-0.096-6.596c-0.080-1.703-0.349-2.865-0.744-3.884-0.408-1.052-0.957-1.945-1.845-2.835-0.889-0.889-1.78-1.439-2.835-1.845-1.020-0.396-2.181-0.665-3.884-0.744-1.707-0.080-2.249-0.096-6.596-0.096zM16 2.88c4.271 0 4.78 0.021 6.467 0.095 1.56 0.073 2.407 0.332 2.969 0.553 0.749 0.289 1.28 0.636 1.843 1.195 0.559 0.56 0.905 1.092 1.195 1.841 0.218 0.563 0.48 1.409 0.551 2.969 0.076 1.688 0.093 2.195 0.093 6.467s-0.020 4.78-0.099 6.467c-0.081 1.56-0.341 2.407-0.561 2.969-0.299 0.749-0.639 1.28-1.199 1.843-0.559 0.559-1.099 0.905-1.84 1.195-0.56 0.218-1.42 0.48-2.98 0.551-1.698 0.076-2.199 0.093-6.479 0.093-4.281 0-4.781-0.020-6.479-0.099-1.561-0.081-2.421-0.341-2.981-0.561-0.759-0.299-1.28-0.639-1.839-1.199-0.561-0.559-0.92-1.099-1.2-1.84-0.22-0.56-0.479-1.42-0.56-2.98-0.060-1.68-0.081-2.199-0.081-6.459 0-4.261 0.021-4.781 0.081-6.481 0.081-1.56 0.34-2.419 0.56-2.979 0.28-0.76 0.639-1.28 1.2-1.841 0.559-0.559 1.080-0.919 1.839-1.197 0.56-0.221 1.401-0.481 2.961-0.561 1.7-0.060 2.2-0.080 6.479-0.080l0.060 0.040zM16 7.784c-4.54 0-8.216 3.68-8.216 8.216 0 4.54 3.68 8.216 8.216 8.216 4.54 0 8.216-3.68 8.216-8.216 0-4.54-3.68-8.216-8.216-8.216zM16 21.333c-2.947 0-5.333-2.387-5.333-5.333s2.387-5.333 5.333-5.333c2.947 0 5.333 2.387 5.333 5.333s-2.387 5.333-5.333 5.333zM26.461 7.46c0 1.060-0.861 1.92-1.92 1.92-1.060 0-1.92-0.861-1.92-1.92s0.861-1.919 1.92-1.919c1.057-0.001 1.92 0.86 1.92 1.919z"></path>
</symbol>
<symbol id="icon-facebook" viewBox="0 0 32 32">
<path d="M32 16.097c0-8.89-7.164-16.097-16-16.097s-16 7.208-16 16.097c0 8.035 5.851 14.694 13.5 15.901v-11.248h-4.063v-4.655h4.063v-3.544c0-4.034 2.389-6.263 6.044-6.263 1.749 0 3.581 0.315 3.581 0.315v3.961h-2.019c-1.988 0-2.608 1.241-2.608 2.514v3.018h4.437l-0.709 4.655h-3.728v11.248c7.651-1.209 13.501-7.869 13.501-15.903z"></path>
</symbol>
<symbol id="icon-sign-in" viewBox="0 0 24 32">
<path fill="none" stroke="#795bda" style="stroke: var(--color1, #795bda)" stroke-linejoin="round" stroke-linecap="butt" stroke-miterlimit="4" stroke-width="3" d="M0 16h12M12 16l-6-6M12 16l-6 6"></path>
<path fill="none" stroke="#795bda" style="stroke: var(--color1, #795bda)" stroke-linejoin="miter" stroke-linecap="butt" stroke-miterlimit="4" stroke-width="3" d="M4 2h14c2.209 0 4 1.791 4 4v20c0 2.209-1.791 4-4 4h-14"></path>
</symbol>

<symbol id="test" viewBox="0 0 14 14">
<path d="M0.5 7H12.5M12.5 7L6.5 13M12.5 7L6.5 1" stroke="white" stroke-width="1.5"/>
</symbol>

<symbol id="next" viewBox="0 0 14 14">
<path d="M0.5 7H12.5M12.5 7L6.5 13M12.5 7L6.5 1" stroke="#795bda" style="stroke: var(--color1, #795bda)" stroke-width="1.5"/>
</symbol>

<symbol id="next2" viewBox="0 0 14 14">
<path d="M0.5 7H12.5M12.5 7L6.5 13M12.5 7L6.5 1" stroke="#222B40" style="stroke: var(--color1, #222B40)" stroke-width="1.5"/>
</symbol>

<symbol id="icon-love-heart" viewBox="0 0 37 32">
<path fill="#ff5c8d" style="fill: var(--color1, #ff5c8d)" d="M13.755 0.611c1.706 0.595 3.152 1.566 4.294 2.818l0.007 0.008c1.173 1.291 2.008 2.859 2.419 4.56 1.754-1.404 4.005-2.252 6.454-2.252 2.261 0 4.352 0.723 6.057 1.951l-0.031-0.021c1.809 1.304 3.168 3.133 3.862 5.262l0.021 0.074c0.314 0.952 0.495 2.048 0.495 3.186 0 1.227-0.211 2.406-0.597 3.501l0.023-0.074c-2.784 8.173-17.808 11.627-24.643 12.376-4.621-5.008-14.488-16.427-11.589-24.944 0.925-2.648 2.805-4.763 5.217-5.973l0.060-0.027c1.33-0.665 2.897-1.055 4.556-1.055 1.217 0 2.384 0.21 3.469 0.595l-0.072-0.022z"></path>
</symbol>

<!-- Секция пройти тест -->
<symbol id="icon-boltheart" viewBox="0 0 35 32">
<path fill="#795bda" style="fill: var(--color1, #795bda)" d="M0.813 10.911c0 7.099 5.969 14.115 15.246 20.1 0.515 0.332 1.147 0.665 1.579 0.665s1.064-0.332 1.579-0.665c9.294-5.985 15.246-13.001 15.246-20.1 0-6.135-4.24-10.391-9.676-10.391-3.175 0-5.653 1.446-7.149 3.641-1.463-2.178-3.957-3.641-7.132-3.641-5.453 0-9.693 4.256-9.693 10.391zM4.238 10.894c0-4.19 2.76-7.033 6.467-7.033 2.993 0 4.672 1.812 5.719 3.392 0.465 0.682 0.781 0.898 1.214 0.898 0.449 0 0.731-0.233 1.214-0.898 1.131-1.546 2.743-3.392 5.719-3.392 3.724 0 6.484 2.843 6.484 7.033 0 5.852-6.085 12.336-13.101 16.991-0.15 0.1-0.249 0.166-0.316 0.166s-0.166-0.066-0.299-0.166c-7.016-4.655-13.101-11.139-13.101-16.991zM12.501 17.578c0 0.316 0.266 0.565 0.598 0.565h3.99l-2.145 5.669c-0.299 0.815 0.582 1.28 1.131 0.615l6.534-8.147c0.133-0.15 0.216-0.332 0.216-0.499 0-0.316-0.283-0.565-0.615-0.565h-3.974l2.128-5.653c0.299-0.831-0.582-1.297-1.114-0.615l-6.55 8.13c-0.133 0.166-0.2 0.333-0.2 0.499z"></path>
</symbol>
<symbol id="icon-bolt" viewBox="0 0 20 32">
<path fill="#795bda" style="fill: var(--color1, #795bda)" d="M6.644 30.72l12.549-15.991c0.241-0.308 0.362-0.589 0.362-0.911 0-0.549-0.429-0.964-1.018-0.964h-7.661l3.964-10.513c0.549-1.473-0.991-2.25-1.929-1.045l-12.549 15.991c-0.241 0.295-0.362 0.576-0.362 0.897 0 0.563 0.429 0.978 1.018 0.978h7.661l-3.964 10.5c-0.549 1.473 0.991 2.263 1.929 1.058zM12.041 16.979h-8.33l7.406-9.79-3.616 7.835h8.344l-7.406 9.804 3.603-7.848z"></path>
</symbol>
<symbol id="icon-btn-arrow" viewBox="0 0 32 32">
<path fill="none" stroke="#795bda" style="stroke: var(--color1, #795bda)" stroke-linejoin="miter" stroke-linecap="butt" stroke-miterlimit="4" stroke-width="3.4286" d="M0 16h27.429M27.429 16l-13.714 13.714M27.429 16l-13.714-13.714"></path>
</symbol>
<symbol id="icon-clouddrizzle" viewBox="0 0 32 32">
<path fill="#795bda" style="fill: var(--color1, #795bda)" d="M6.973 20.987h16.701c4.487 0 7.862-3.415 7.862-7.674 0-4.366-3.536-7.621-8.13-7.621-1.647-3.228-4.687-5.424-8.772-5.424-5.143 0-9.308 3.951-9.817 8.933-2.478 0.763-4.353 2.906-4.353 5.799 0 3.335 2.451 5.987 6.509 5.987zM6.987 18.442c-2.652 0-3.978-1.46-3.978-3.375 0-1.594 0.951-2.96 3.188-3.549 0.777-0.214 1.031-0.563 1.098-1.353 0.402-4.393 3.549-7.353 7.339-7.353 2.906 0 5.237 1.621 6.683 4.54 0.335 0.67 0.737 0.897 1.554 0.897 3.978 0 6.121 2.317 6.121 5.129s-2.223 5.063-5.237 5.063h-16.768zM18.049 27.455l1.728-2.987c0.268-0.442 0.134-0.964-0.308-1.219s-0.938-0.107-1.192 0.348l-1.741 3.013c-0.241 0.415-0.134 0.924 0.321 1.179 0.429 0.255 0.951 0.094 1.192-0.335zM7.402 27.469l1.728-3c0.254-0.429 0.121-0.951-0.308-1.205-0.442-0.255-0.938-0.107-1.205 0.348l-1.741 3c-0.241 0.429-0.121 0.938 0.321 1.192 0.429 0.241 0.951 0.094 1.205-0.335zM22.255 31.219l1.728-2.987c0.255-0.442 0.121-0.964-0.308-1.219-0.442-0.255-0.938-0.107-1.205 0.348l-1.728 3.013c-0.254 0.415-0.134 0.924 0.308 1.179s0.964 0.094 1.205-0.335zM11.594 31.232l1.728-2.987c0.268-0.442 0.134-0.964-0.308-1.219s-0.924-0.107-1.192 0.348l-1.741 3.013c-0.241 0.415-0.134 0.924 0.321 1.179 0.429 0.255 0.951 0.094 1.192-0.335z"></path>
</symbol>
<symbol id="icon-cloudmoonrain" viewBox="0 0 33 32">
<path fill="#795bda" style="fill: var(--color1, #795bda)" d="M5.75 22.103h13.102c3.592 0 6.364-2.724 6.364-6.22 0-0.048 0-0.096 0-0.133 3.905-0.084 6.473-2.302 7.425-4.846 0.422-1.073-0.121-2.001-1.145-2.001-0.796 0-1.422 0.338-2.712 0.338-2.977 0-4.52-1.651-4.52-4.436 0-1.398 0.434-2.194 0.434-2.869 0-1.061-0.94-1.579-2.049-1.205-2.688 0.892-4.906 3.712-4.906 7.088 0 0.121 0 0.241 0 0.362-1.47-1.736-3.556-2.736-5.979-2.736-4.050 0-7.425 3.062-7.895 7.088-2.049 0.651-3.423 2.435-3.423 4.677 0 2.845 2.146 4.894 5.304 4.894zM19.72 7.784c0-2.254 1.302-4.050 2.869-4.942l0.133 0.084c-0.193 0.591-0.374 1.41-0.374 2.35 0 3.447 2.471 5.858 5.979 5.858 0.88 0 1.639-0.157 2.182-0.338l0.084 0.096c-0.771 1.434-2.712 2.893-5.75 2.857-0.735-2.013-2.519-3.483-4.785-3.917-0.217-0.639-0.338-1.338-0.338-2.049zM5.738 19.849c-1.989 0-3.038-1.133-3.038-2.592 0-1.254 0.747-2.326 2.495-2.796 0.603-0.157 0.808-0.434 0.88-1.061 0.338-3.411 2.748-5.701 5.689-5.701 2.266 0 4.050 1.266 5.183 3.496 0.277 0.53 0.579 0.711 1.217 0.711 3.122 0 4.797 1.82 4.797 4.026 0 2.182-1.748 3.917-4.098 3.917h-13.126zM15.188 27.792l1.555-2.7c0.241-0.386 0.121-0.856-0.277-1.085s-0.832-0.096-1.073 0.313l-1.567 2.712c-0.217 0.374-0.121 0.832 0.289 1.061 0.386 0.217 0.856 0.084 1.073-0.301zM5.605 27.804l1.555-2.7c0.229-0.386 0.109-0.856-0.277-1.085-0.398-0.229-0.844-0.096-1.085 0.301l-1.567 2.712c-0.217 0.374-0.108 0.844 0.289 1.073 0.398 0.217 0.868 0.084 1.085-0.301zM18.973 31.179l1.555-2.688c0.241-0.398 0.121-0.868-0.277-1.097s-0.844-0.096-1.073 0.313l-1.567 2.712c-0.217 0.374-0.121 0.832 0.277 1.061s0.868 0.084 1.085-0.301zM9.39 31.192l1.555-2.7c0.229-0.386 0.108-0.856-0.289-1.085s-0.832-0.096-1.073 0.313l-1.567 2.712c-0.217 0.374-0.121 0.832 0.289 1.061 0.386 0.217 0.856 0.084 1.085-0.301z"></path>
</symbol>
<symbol id="icon-flame" viewBox="0 0 24 32">
<path fill="#795bda" style="fill: var(--color1, #795bda)" d="M11.555 31.321c7.643 0 12.748-5.148 12.748-12.904 0-12.834-10.976-18.208-18.548-18.208-1.475 0-2.425 0.553-2.425 1.602 0 0.411 0.184 0.823 0.51 1.205 1.758 2.113 3.361 4.396 3.389 7.119 0 0.269-0.014 0.525-0.071 0.78-0.837-1.758-2.226-2.751-3.488-2.751-0.681 0-1.134 0.468-1.134 1.205 0 0.454 0.113 1.22 0.113 1.929 0 3.262-2.482 4.921-2.482 10.153 0 5.927 4.538 9.87 11.387 9.87zM11.711 28.896c-5.46 0-9.104-2.992-9.104-7.445s2.425-5.871 2.411-9.927c0-0.114 0-0.213 0-0.298 0.723 0.837 1.262 1.999 1.574 3.446 0.085 0.397 0.298 0.596 0.61 0.596 1.305 0 2.184-2.935 2.184-5.006 0-2.85-1.078-5.616-2.879-7.672 9.303 0.78 15.273 7.19 15.273 15.741 0 6.325-4.041 10.565-10.068 10.565zM11.895 26.911c3.262 0 4.949-2.354 4.949-5.162 0-2.822-1.617-5.814-4.651-7.204-0.17-0.071-0.326 0.028-0.284 0.227 0.241 2.184-0.028 4.197-0.752 5.289-0.326-0.851-0.737-1.546-1.347-2.113-0.156-0.128-0.298-0.057-0.326 0.113-0.213 1.702-1.929 2.51-1.929 4.949 0 2.34 1.73 3.9 4.339 3.9z"></path>
</symbol>
<symbol id="icon-personicloud" viewBox="0 0 46 32">
<path fill="#795bda" style="fill: var(--color1, #795bda)" d="M35.255 31.006c5.372 0 9.608-3.943 9.608-8.868 0-3.668-2.084-6.922-5.51-8.351 0.017-7.783-5.596-13.397-12.811-13.397-4.58 0-8.024 2.359-10.177 5.493-4.374-1.171-8.971 2.084-9.144 6.939-3.943 0.706-6.371 4.236-6.371 8.558 0 5.235 4.58 9.608 10.607 9.608l23.797 0.017zM35.255 27.562h-1.722c-1.343-2.772-4.649-5.648-9.591-5.648-4.959 0-8.248 2.876-9.608 5.648h-2.858c-4.098 0-7.146-2.858-7.146-6.182 0-3.444 2.118-5.992 5.631-5.992 0.258 0 0.362-0.138 0.344-0.379-0.103-5.114 3.564-6.871 7.267-5.7 0.224 0.069 0.362 0.017 0.465-0.172 1.705-2.996 4.219-5.321 8.489-5.321 5.407 0 9.264 4.288 9.522 9.298 0.052 0.93-0.017 1.929-0.086 2.755-0.035 0.241 0.069 0.379 0.293 0.413 3.117 0.603 5.131 2.807 5.131 5.855 0 3.013-2.669 5.424-6.13 5.424zM23.942 19.865c2.531 0.017 4.58-2.29 4.58-5.028 0-2.686-2.049-4.89-4.58-4.89-2.548 0-4.598 2.204-4.598 4.89 0.017 2.721 2.049 5.011 4.598 5.028z"></path>
</symbol>
<symbol id="icon-tornado" viewBox="0 0 27 32">
<path fill="#795bda" style="fill: var(--color1, #795bda)" d="M13.508 13.538c8.596 0 13.624-2.149 13.624-5.18 0-2.769-3.857-4.449-9.615-4.449-4.16 0-7.466 0.758-10.015 1.887-0.744 0.331-0.909 1.088-0.661 1.612 0.289 0.592 1.019 0.785 1.708 0.523 2.232-0.895 5.028-1.75 8.83-1.75 4.463 0 7.274 1.006 7.274 2.163 0 1.391-4.518 2.851-11.255 2.851-6.97 0-10.621-1.35-10.621-3.926 0-1.612 1.488-3.168 5.372-4.381 0.771-0.234 1.075-0.854 0.868-1.502-0.22-0.634-0.785-0.882-1.653-0.647-4.753 1.364-7.067 3.912-7.067 6.585 0 4.022 4.573 6.213 13.211 6.213zM13.921 18.235c4.394 0 8.444-0.716 11.296-1.86 0.62-0.248 0.895-0.882 0.606-1.419-0.276-0.537-0.84-0.647-1.543-0.399-2.59 0.964-6.351 1.626-10.359 1.626-3.003 0-6.419-0.372-9.119-1.157-0.689-0.207-1.267 0.014-1.433 0.606-0.179 0.579 0.138 1.143 0.854 1.35 2.907 0.826 6.543 1.254 9.698 1.254zM14.899 22.864c3.664-0.041 7.081-0.565 10.249-1.598 0.785-0.262 0.964-0.909 0.758-1.433-0.207-0.537-0.744-0.73-1.515-0.482-3.1 0.978-6.199 1.46-9.519 1.46-1.405 0-2.893-0.096-4.022-0.248-0.744-0.096-1.212 0.22-1.309 0.771-0.11 0.565 0.193 1.116 0.992 1.24 1.088 0.179 2.59 0.303 4.367 0.289zM13.576 27.244c2.535 0.289 5.717 0.193 8.293-0.496 0.689-0.179 0.964-0.785 0.799-1.35-0.179-0.579-0.73-0.799-1.46-0.634-2.218 0.565-4.877 0.744-7.315 0.468-0.744-0.069-1.254 0.289-1.322 0.854-0.069 0.551 0.22 1.061 1.006 1.157zM12.626 31.749c0.909 0.11 1.929 0.11 2.879-0.014 0.675-0.069 1.033-0.51 0.978-1.102-0.041-0.537-0.482-0.923-1.212-0.826-0.785 0.096-1.694 0.096-2.452 0-0.703-0.083-1.143 0.303-1.212 0.826-0.069 0.565 0.289 1.033 1.019 1.116z"></path>
</symbol>
<symbol id="icon-waveformpathecg" viewBox="0 0 32 32">
<path fill="#795bda" style="fill: var(--color1, #795bda)" d="M1.988 18.225h6.69c0.768 0 1.236-0.346 1.401-1.025l2.064-9.507 3.797 22.902c0.211 1.281 2.17 1.266 2.426 0.015l3.646-17.206 0.723 3.661c0.166 0.784 0.618 1.16 1.416 1.16h5.876c0.693 0 1.25-0.542 1.25-1.235 0-0.708-0.542-1.251-1.25-1.251h-5.228l-1.688-7.534c-0.271-1.22-2.109-1.22-2.396 0.045l-3.571 16.016-3.812-23.143c-0.196-1.251-2.019-1.281-2.29-0.015l-3.164 14.63h-5.891c-0.708 0-1.266 0.557-1.266 1.25s0.557 1.235 1.266 1.235z"></path>
</symbol>

<symbol id="icon-pink-heart" viewBox="0 0 37 32">
<path fill="#ff5c8d" style="fill: var(--color1, #ff5c8d)" d="M13.755 0.609c1.648 0.564 3.128 1.536 4.302 2.828s2.006 2.86 2.418 4.56c1.766-1.403 3.936-2.193 6.186-2.252s4.459 0.619 6.293 1.929 3.198 3.183 3.884 5.338c0.686 2.155 0.658 4.475-0.079 6.612-2.787 8.174-17.812 11.628-24.646 12.376-4.62-5.008-14.49-16.424-11.588-24.944 0.445-1.299 1.14-2.498 2.045-3.527s2.004-1.869 3.233-2.471c1.229-0.602 2.563-0.955 3.928-1.039s2.732 0.104 4.024 0.552z"></path>
</symbol>
<symbol id="icon-heart" viewBox="0 0 37 32">
<path fill="#ff5c8d" style="fill: var(--color1, #ff5c8d)" d="M13.755 0.609c1.648 0.564 3.128 1.536 4.302 2.828s2.006 2.86 2.418 4.56c1.766-1.403 3.936-2.193 6.186-2.252s4.459 0.619 6.293 1.929 3.198 3.183 3.884 5.338c0.686 2.155 0.658 4.475-0.079 6.612-2.787 8.174-17.812 11.628-24.646 12.376-4.62-5.008-14.49-16.424-11.588-24.944 0.445-1.299 1.14-2.498 2.045-3.527s2.004-1.869 3.233-2.471c1.229-0.602 2.563-0.955 3.928-1.039s2.732 0.104 4.024 0.552z"></path>

<!-- Секция Вебинары -->
<symbol id="icon-black-heart" viewBox="0 0 43 32">
<path d="M3.489 20.11c-11.632-14.413 8.796-28.88 17.844-13.553 9.048-15.327 29.476-0.86 17.844 13.553-4.769 5.909-14.366 10.368-17.844 11.89-3.478-1.523-13.076-5.981-17.844-11.89z"></path>
</symbol>
<symbol id="icon-subtract" viewBox="0 0 43 32">
<path d="M21.333 0c9.949 0 18.387 6.709 21.333 16-2.946 9.291-11.384 16-21.333 16s-18.387-6.709-21.333-16c2.946-9.291 11.384-16 21.333-16zM21.333 24c4.418 0 8-3.582 8-8s-3.582-8-8-8c-4.418 0-8 3.582-8 8s3.582 8 8 8z"></path>
</symbol>

<symbol id="icon-arrow-r-grey" viewBox="0 0 32 32">
<path fill="none" stroke="#b5b5b5" style="stroke: var(--color1, #b5b5b5)" stroke-linejoin="miter" stroke-linecap="butt" stroke-miterlimit="4" stroke-width="3.5556" d="M0 16h28.444M28.444 16l-14.222 14.222M28.444 16l-14.222-14.222"></path>
</symbol>
</defs>
</svg>
