<svg width="18" height="14" viewBox="0 0 18 14" fill="none" xmlns="http://www.w3.org/2000/svg">
<path d="M17.9647 1.6676C17.2909 1.95153 16.577 2.13895 15.846 2.22383C16.6156 1.78118 17.1918 1.08701 17.4683 0.269503C16.755 0.667832 15.9645 0.957787 15.123 1.11927C14.5678 0.551154 13.8322 0.174351 13.0302 0.0473735C12.2283 -0.0796035 11.405 0.0503513 10.6882 0.417058C9.97138 0.783764 9.40114 1.3667 9.06604 2.07535C8.73094 2.78399 8.64972 3.5787 8.835 4.33604C5.7675 4.19753 3.05025 2.78723 1.23 0.657066C0.899095 1.19521 0.726498 1.80901 0.7305 2.4334C0.7305 3.66068 1.383 4.7394 2.3715 5.37313C1.78564 5.35529 1.21273 5.20371 0.7005 4.93102V4.97409C0.700168 5.78968 0.994701 6.58028 1.53413 7.21173C2.07356 7.84318 2.82466 8.27661 3.66 8.43847C3.11872 8.57726 2.55181 8.59811 2.001 8.49947C2.23809 9.2014 2.69825 9.81499 3.31726 10.2546C3.93627 10.6943 4.68326 10.938 5.454 10.9519C4.14865 11.9322 2.53686 12.4643 0.8775 12.4627C0.585 12.4627 0.29325 12.4462 0 12.4146C1.69178 13.4512 3.65888 14.0014 5.66775 14C12.4575 14 16.1663 8.62005 16.1663 3.96283C16.1663 3.81212 16.1663 3.6614 16.155 3.51068C16.8795 3.01177 17.5044 2.39236 18 1.68196L17.9647 1.6676Z" fill="#222B40"/>
</svg>
