<svg width="51" height="17" viewBox="0 0 51 17" fill="none" xmlns="http://www.w3.org/2000/svg">
<path d="M19.2104 0.811747L12.6016 16.7659H8.26449L5.01169 4.01291C4.80517 3.23844 4.65027 2.98028 4.03069 2.61886C2.7399 1.99928 1.39747 1.53459 0.00341797 1.27643L0.10668 0.811747H7.07696C8.00633 0.811747 8.83244 1.53459 8.93571 2.46396L10.6396 11.6544L14.8734 0.811747H19.2104ZM36.1973 11.4995C36.1456 14.8039 33.3575 16.9725 29.0721 16.9208C27.5231 16.9725 25.9742 16.6627 24.5285 16.0947L25.303 12.5838C26.5938 13.3066 28.0394 13.6164 29.4851 13.6164C30.6727 13.6164 31.9634 13.1001 31.9634 12.0675C31.9634 11.3962 31.3955 10.8283 29.8466 10.1055C28.2976 9.33098 26.2323 8.09182 26.284 5.76839C26.3356 2.72212 29.1753 0.501953 33.2026 0.501953C34.4934 0.501953 35.8358 0.760113 37.0234 1.2248L36.3005 4.58086C35.0614 3.96128 33.6673 3.75475 32.2732 3.85801C31.0857 4.01291 30.5178 4.63249 30.5178 5.20044C30.4145 7.05918 36.1973 7.31734 36.1973 11.4995ZM46.8334 16.7143L46.3171 14.3393H41.0506L40.2245 16.7143H35.9391L42.0833 1.94764C42.3931 1.2248 43.0643 0.760112 43.8387 0.760112H47.3497L50.6541 16.7143H46.8334ZM42.2382 11.0865H45.6459L44.4067 5.14881L42.2382 11.0865ZM25.0448 0.811747L21.6887 16.7659H17.6098L20.9659 0.811747H25.0448Z" fill="#161E6F"/>
</svg>
